<svg width="25" height="24" viewBox="0 0 25 24" fill="none" xmlns="http://www.w3.org/2000/svg">
<path d="M3.94301 10.0624C3.94301 10.1222 3.91713 10.2297 3.86535 10.3851C3.79764 10.5722 3.72794 10.7057 3.65625 10.7853C3.49694 10.7017 3.33961 10.6161 3.18428 10.5284C2.96523 10.405 2.8557 10.3114 2.8557 10.2476C2.8557 10.2237 2.89752 10.1102 2.98116 9.90711C3.0648 9.7 3.12454 9.59645 3.16039 9.59645C3.68214 9.81949 3.94301 9.97482 3.94301 10.0624ZM2.74219 10.4089C2.74219 10.5085 2.71829 10.628 2.6705 10.7674C2.61075 10.9347 2.54305 11.0183 2.46737 11.0183C2.43153 11.0183 2.28615 10.9407 2.03125 10.7853C1.75643 10.622 1.61903 10.5065 1.61903 10.4388C1.61903 10.3751 1.71661 10.1302 1.91176 9.70399C2.02727 9.81949 2.21645 9.95491 2.47932 10.1102C2.65456 10.2098 2.74219 10.3094 2.74219 10.4089ZM5.93842 15.2123C5.30116 15.2362 4.78539 15.033 4.39108 14.6029C4.2716 14.4714 4.13021 14.2464 3.96691 13.9278C3.85539 13.7048 3.73989 13.5893 3.6204 13.5813C3.46109 13.5693 3.24801 13.6809 2.98116 13.9158C2.71829 14.1468 2.53707 14.3719 2.4375 14.5909C2.26624 15.0171 2.09298 15.4433 1.91774 15.8694C1.73055 16.2677 1.50751 16.4669 1.24862 16.4669C0.929994 16.4669 0.645221 16.2558 0.394301 15.8336C0.131434 15.3835 0 14.8339 0 14.1847C0 13.9258 0.037837 13.5773 0.113511 13.1392C0.141391 12.9759 0.179228 12.8942 0.227022 12.8942C0.278799 12.8942 0.300705 12.9878 0.292739 13.175C0.288756 13.3264 0.278799 13.4957 0.262868 13.6828C0.254902 13.8262 0.250919 13.9437 0.250919 14.0353C0.250919 14.4057 0.316636 14.7682 0.44807 15.1226C0.611366 15.5767 0.830423 15.8037 1.10524 15.8037C1.34421 15.8037 1.53937 15.6643 1.69072 15.3855C1.83012 15.051 1.96752 14.7184 2.10294 14.3878C2.30607 13.9099 2.55101 13.5196 2.83778 13.2169C3.1564 12.8783 3.46109 12.709 3.75184 12.709C3.8992 12.709 4.05453 12.8405 4.21783 13.1033C4.47273 13.5215 4.61612 13.7486 4.64798 13.7844C4.9905 14.1787 5.42065 14.3759 5.93842 14.3759V15.2123Z" fill="#2C6E91"/>
<path d="M8.21461 15.2123C8.09513 15.2123 7.9398 15.1645 7.74862 15.0689C7.52558 14.9574 7.36229 14.8259 7.25873 14.6746C7.17509 14.5471 7.13925 14.3898 7.15119 14.2026C6.97595 14.5611 6.83456 14.7921 6.72702 14.8956C6.50797 15.1067 6.2451 15.2123 5.93842 15.2123V14.3759C6.31281 14.3759 6.58961 14.3121 6.76884 14.1847C6.81664 14.1528 6.87638 14.0672 6.94807 13.9278C7.03171 13.7645 7.0815 13.6729 7.09743 13.653C7.29657 13.3941 7.39614 13.3423 7.39614 13.4976C7.39614 13.5534 7.38021 13.6271 7.34835 13.7187C7.36826 13.7745 7.40012 13.8442 7.44393 13.9278C7.49173 14.0074 7.60723 14.103 7.79044 14.2146C7.97365 14.3221 8.11504 14.3759 8.21461 14.3759V15.2123ZM8.3102 17.3331C8.3102 17.3968 8.28431 17.5064 8.23254 17.6617C8.16881 17.8489 8.09911 17.9843 8.02344 18.068C7.87607 17.9843 7.72672 17.9027 7.57537 17.823C7.38021 17.7035 7.28263 17.6119 7.28263 17.5482C7.42203 17.1141 7.5216 16.897 7.58134 16.897C8.06725 17.1081 8.3102 17.2535 8.3102 17.3331ZM7.16912 17.7035C7.16912 17.8031 7.14323 17.9226 7.09145 18.062C7.03171 18.2293 6.964 18.3129 6.88833 18.3129C6.85646 18.3129 6.73698 18.2532 6.52987 18.1337C6.30285 17.9983 6.18934 17.8967 6.18934 17.829C6.18934 17.7653 6.28692 17.5203 6.48208 17.0942C6.60156 17.2136 6.76685 17.3351 6.97794 17.4586C7.10539 17.5303 7.16912 17.6119 7.16912 17.7035Z" fill="#2C6E91"/>
<path d="M10.0846 13.2646C10.1403 13.6828 10.0009 14.0871 9.66636 14.4774C9.53094 14.6367 9.32981 14.7921 9.06296 14.9434C8.74433 15.1226 8.46354 15.2123 8.22059 15.2123C8.22059 14.9335 8.22059 14.6547 8.22059 14.3759C8.57904 14.3759 8.95144 14.2703 9.33778 14.0592C9.68428 13.868 9.84161 13.7326 9.80974 13.653C9.75398 13.5136 9.53692 13.2248 9.15855 12.7867C8.79611 12.3685 8.54519 11.9503 8.40579 11.5321C8.32215 11.5321 8.28232 11.5102 8.28631 11.4664C8.30224 11.319 8.32613 11.1159 8.358 10.857C8.38189 10.7336 8.42371 10.6997 8.48346 10.7555C8.6826 10.8949 8.92555 11.0721 9.21232 11.2872C9.31189 11.3708 9.36167 11.4365 9.36167 11.4843C9.36167 11.5241 9.32782 11.5441 9.26011 11.5441C9.14859 11.5441 9.05101 11.5361 8.96737 11.5202C9.00322 11.6277 9.19638 11.8826 9.54688 12.2849C9.8655 12.6553 10.0447 12.9819 10.0846 13.2646ZM9.91131 16.8612C9.91131 17.124 9.82966 17.361 9.66636 17.5721C9.43536 17.4526 9.20236 17.3311 8.96737 17.2077C8.85187 17.1439 8.79412 17.0762 8.79412 17.0045C8.79412 17.0324 8.86581 16.7835 9.00919 16.2578C9.11275 16.3454 9.3099 16.4589 9.60064 16.5983C9.80775 16.6939 9.91131 16.7815 9.91131 16.8612Z" fill="#2C6E91"/>
<path d="M15.7362 15.2123C15.6088 15.2162 15.5012 15.1983 15.4136 15.1585C15.4494 15.3337 15.4674 15.501 15.4674 15.6603C15.4674 15.9431 15.3957 16.2836 15.2523 16.6819C15.2165 16.7815 15.0273 16.9826 14.6847 17.2853C14.2626 17.6637 13.8205 17.9744 13.3585 18.2173C12.7411 18.5399 12.1556 18.7012 11.602 18.7012C10.7019 18.7012 10.2518 18.1197 10.2518 16.9567C10.2518 16.1124 10.4072 15.3835 10.7178 14.7702C10.8015 14.6029 10.8712 14.5192 10.9269 14.5192C10.9508 14.5192 10.9628 14.5431 10.9628 14.5909C10.9628 14.6507 10.9389 14.7363 10.8911 14.8478C10.6601 15.3815 10.5446 15.9053 10.5446 16.4191C10.5446 17.3829 10.915 17.8628 11.6558 17.8589C12.4245 17.8549 13.223 17.5821 14.0515 17.0404C14.7365 16.5903 15.1149 16.2418 15.1866 15.9949C15.1945 15.963 15.1985 15.9292 15.1985 15.8933C15.1985 15.6703 14.9954 15.2541 14.5892 14.6447C14.5772 14.6288 14.5712 14.6009 14.5712 14.5611C14.5712 14.4973 14.5892 14.3739 14.625 14.1907C14.6608 14.0035 14.6788 13.882 14.6788 13.8262C14.6987 13.7904 14.7266 13.7864 14.7624 13.8143C14.854 13.9457 14.9854 14.117 15.1567 14.3281C15.1846 14.3599 15.3778 14.3759 15.7362 14.3759V15.2123Z" fill="#2C6E91"/>
<path d="M20.2528 15.2123C19.7947 15.2123 19.0997 14.8717 18.1677 14.1907C17.9447 14.3261 17.5803 14.5332 17.0744 14.812C16.5328 15.0788 16.0867 15.2123 15.7362 15.2123V14.3759C16.2341 14.3759 16.6124 14.3221 16.8713 14.2146C17.0585 14.1349 17.3134 13.9975 17.636 13.8023L17.6062 13.7725C17.2119 13.4658 16.9171 13.3124 16.722 13.3124C16.5706 13.3124 16.4073 13.3543 16.2321 13.4379C16.2161 13.4419 16.2042 13.4439 16.1962 13.4439C16.1723 13.4439 16.1604 13.4319 16.1604 13.408C16.1604 13.3722 16.1982 13.2766 16.2739 13.1213C16.3496 12.962 16.3934 12.8484 16.4053 12.7807C16.4053 12.7529 16.4551 12.7051 16.5547 12.6374C17.2198 12.3586 17.8411 12.2192 18.4187 12.2192C18.4824 12.2192 18.5401 12.2211 18.5919 12.2251C19.1296 12.2849 19.6036 12.4183 20.0138 12.6254C20.0934 12.6652 20.1253 12.7071 20.1094 12.7509L19.8465 13.3901C19.6713 13.4499 19.3407 13.5972 18.8548 13.8322C19.0579 13.9597 19.2132 14.0513 19.3208 14.107C19.6713 14.2862 19.9819 14.3759 20.2528 14.3759V15.2123ZM19.0579 13.0794C18.8189 13.0078 18.5899 12.9699 18.3709 12.9659C18.2155 12.962 18.0463 12.9819 17.8631 13.0257C17.9547 13.1093 18.108 13.2467 18.3231 13.4379C18.6775 13.2507 18.9225 13.1312 19.0579 13.0794Z" fill="#2C6E91"/>
<path d="M21.6806 12.9181C21.6965 13.6828 21.579 14.2385 21.3281 14.585C21.0254 15.0032 20.667 15.2123 20.2528 15.2123V14.3759C20.5833 14.3759 20.8283 14.3281 20.9876 14.2325C21.115 14.1608 21.2226 14.0313 21.3102 13.8442C21.3182 13.8322 21.3222 13.8003 21.3222 13.7486C21.3222 13.3821 21.121 11.6496 20.7188 8.55095C20.651 8.01725 20.5993 7.41584 20.5634 6.74673C20.5555 6.72283 20.5196 6.66707 20.4559 6.57945C20.432 6.54758 20.42 6.50377 20.42 6.44801C20.42 6.34048 20.4838 6.08757 20.6112 5.68928C20.6192 5.6614 20.6311 5.64746 20.6471 5.64746C20.6869 5.64746 20.7426 5.73907 20.8143 5.92228C21.2246 6.69893 21.4297 7.20276 21.4297 7.43377C21.4297 7.47359 21.4177 7.49351 21.3938 7.49351C21.3739 7.49351 21.348 7.48156 21.3162 7.45766C21.3082 7.4497 21.2027 7.3342 20.9995 7.11116C21.2027 8.59277 21.4297 10.5284 21.6806 12.9181Z" fill="#2C6E91"/>
<path d="M24.0225 13.2766C24.0384 13.4757 24.0464 13.6689 24.0464 13.8561C24.0464 14.5173 23.9688 14.9932 23.8134 15.2839C23.7537 15.3955 23.7099 15.4512 23.682 15.4512C23.6382 15.4512 23.6322 15.3238 23.6641 15.0689C23.7039 14.7463 23.7059 14.4097 23.67 14.0592C23.5267 12.9201 23.3275 11.2075 23.0726 8.92136C23.0407 8.50316 22.987 7.89976 22.9113 7.11116C22.8994 7.06734 22.8456 6.94985 22.75 6.75867C22.7261 6.71486 22.7898 6.46195 22.9412 5.99994C22.9491 5.97206 22.9611 5.95812 22.977 5.95812C23.0169 5.95812 23.0726 6.04375 23.1443 6.21502C23.2678 6.47788 23.3892 6.74075 23.5087 7.00362C23.6999 7.40987 23.7955 7.66278 23.7955 7.76235C23.7955 7.79421 23.7835 7.81014 23.7597 7.81014C23.7437 7.81014 23.7178 7.7982 23.682 7.7743C23.5824 7.69863 23.4769 7.60304 23.3653 7.48753C23.3574 7.59905 23.439 8.3319 23.6103 9.68606C23.8174 11.2991 23.9548 12.496 24.0225 13.2766Z" fill="#2C6E91"/>
</svg>
