<svg width="22" height="22" viewBox="0 0 22 22" fill="none" xmlns="http://www.w3.org/2000/svg">
<path d="M13.9873 2.08203C14.3751 2.22696 14.807 2.03024 14.9521 1.64258C15.0971 1.25459 14.9007 0.821766 14.5127 0.676758C13.3407 0.238792 12.0723 0 10.75 0C9.42769 0 8.15934 0.238792 6.9873 0.676758C6.59933 0.821766 6.40287 1.25459 6.54785 1.64258C6.69303 2.03024 7.12486 2.22696 7.5127 2.08203C8.51928 1.70592 9.60974 1.5 10.75 1.5C11.8903 1.5 12.9807 1.70592 13.9873 2.08203ZM6.55859 10.2227C6.93632 10.4476 7.57851 10.6861 8.12402 10.2852C8.66643 9.88646 8.63612 9.2053 8.53809 8.77637L8.34473 7.93359L9.02441 7.24805L9.02539 7.24707C9.33951 6.93205 9.62536 6.42947 9.44629 5.86719C9.26669 5.30383 8.74185 5.06004 8.30371 4.98633L7.43066 4.83984L6.94043 3.85156V3.85059C6.7451 3.45514 6.35788 3.00002 5.74902 3C5.14114 3 4.75335 3.45413 4.55664 3.84863L4.55566 3.84961L4.06445 4.84082L3.19531 4.98633C2.75646 5.06018 2.23236 5.30436 2.05371 5.86816C1.87598 6.42934 2.15947 6.93124 2.47168 7.24609L3.1543 7.93359L2.96094 8.77637C2.862 9.20778 2.83437 9.88633 3.375 10.2842C3.91956 10.6848 4.56047 10.4499 4.94043 10.2227L5.74902 9.73926L6.55859 10.2227ZM16.5586 10.2227C16.9363 10.4476 17.5785 10.6861 18.124 10.2852C18.6664 9.88646 18.6361 9.2053 18.5381 8.77637L18.3447 7.93359L19.0244 7.24805L19.0254 7.24707C19.3396 6.93207 19.6254 6.42957 19.4463 5.86719C19.2667 5.30383 18.7419 5.06004 18.3037 4.98633L17.4307 4.83984L16.9404 3.85059C16.7451 3.45514 16.3579 3.00002 15.749 3C15.1411 3 14.7534 3.45413 14.5566 3.84863L14.5557 3.84961L14.0645 4.84082L13.1953 4.98633C12.7565 5.06018 12.2324 5.30436 12.0537 5.86816C11.876 6.42934 12.1595 6.93124 12.4717 7.24609L13.1543 7.93359L12.9609 8.77637C12.862 9.20778 12.8343 9.8863 13.375 10.2842C13.9196 10.6849 14.5605 10.4499 14.9404 10.2227L15.749 9.73926L16.5586 10.2227ZM6.43066 8.39941C6.20536 8.26492 5.95594 8.2207 5.75 8.2207C5.54346 8.22077 5.2969 8.26538 5.07324 8.39648L4.50977 8.7334L4.63574 8.18262L4.63672 8.17773C4.68956 7.9398 4.66332 7.70519 4.61035 7.51855C4.55749 7.33235 4.45601 7.11566 4.28125 6.93945L3.75879 6.41309L4.40039 6.30469H4.40332C4.6309 6.26568 4.82701 6.15943 4.96973 6.05273C5.11186 5.94648 5.26957 5.78819 5.37207 5.5791L5.74805 4.82227L6.12305 5.5791C6.22559 5.78835 6.38392 5.94695 6.52734 6.05371C6.67185 6.16122 6.87021 6.2663 7.09863 6.30469L7.74023 6.41309L7.21777 6.93945C7.04301 7.11566 6.94154 7.33235 6.88867 7.51855C6.83568 7.70522 6.80944 7.93974 6.8623 8.17773L6.98926 8.7334L6.43066 8.39941ZM16.4307 8.39941C16.2054 8.26492 15.9559 8.2207 15.75 8.2207C15.5435 8.22077 15.2969 8.26538 15.0732 8.39648L14.5098 8.7334L14.6357 8.18262L14.6367 8.17773C14.6896 7.9398 14.6633 7.70519 14.6104 7.51855C14.5575 7.33235 14.456 7.11566 14.2813 6.93945L13.7588 6.41309L14.4004 6.30469H14.4033C14.6309 6.26568 14.827 6.15943 14.9697 6.05273C15.1119 5.94648 15.2696 5.78819 15.3721 5.5791L15.748 4.82227L16.123 5.5791C16.2256 5.78835 16.3839 5.94695 16.5273 6.05371C16.6718 6.16122 16.8702 6.2663 17.0986 6.30469L17.7402 6.41309L17.2178 6.93945C17.043 7.11566 16.9415 7.33235 16.8887 7.51855C16.8357 7.70522 16.8094 7.93974 16.8623 8.17773L16.9893 8.7334L16.4307 8.39941ZM10.75 21.5C16.6871 21.5 21.5 16.6871 21.5 10.75C21.5 10.3358 21.1642 10 20.75 10C20.3358 10 20 10.3358 20 10.75C20 15.8586 15.8586 20 10.75 20C5.64137 20 1.5 15.8586 1.5 10.75C1.5 10.3358 1.16421 10 0.75 10C0.335786 10 0 10.3358 0 10.75C0 16.6871 4.81294 21.5 10.75 21.5ZM10.75 16.5C12.6316 16.5 14.3019 15.5951 15.3496 14.2002C15.5983 13.869 15.5314 13.3991 15.2002 13.1504C14.869 12.9018 14.3991 12.9687 14.1504 13.2998C13.3738 14.3337 12.1397 15 10.75 15C9.36026 15 8.12618 14.3337 7.34961 13.2998C7.10088 12.9686 6.631 12.9017 6.2998 13.1504C5.96865 13.3991 5.90176 13.869 6.15039 14.2002C7.19805 15.5951 8.86846 16.5 10.75 16.5Z" fill="#1E95D4"/>
</svg>
