<svg width="25" height="24" viewBox="0 0 25 24" fill="none" xmlns="http://www.w3.org/2000/svg">
    <path
        d="M14.4316 1.25C16.2693 1.24998 17.7251 1.25016 18.8643 1.40332C20.0366 1.56096 20.9851 1.89329 21.7334 2.6416C22.4817 3.38991 22.814 4.33844 22.9717 5.51074C23.1248 6.64991 23.125 8.10571 23.125 9.94336V14.0566C23.125 15.8943 23.1248 17.3501 22.9717 18.4893C22.814 19.6616 22.4817 20.6101 21.7334 21.3584C20.9851 22.1067 20.0366 22.439 18.8643 22.5967C17.7251 22.7498 16.2693 22.75 14.4316 22.75H12.3184C11.2843 22.75 10.3712 22.748 9.56738 22.7207C9.50566 22.7371 9.4419 22.75 9.375 22.75C9.2851 22.75 9.2 22.7312 9.12012 22.7021C8.67271 22.6795 8.26182 22.6472 7.88574 22.5967C6.71344 22.439 5.76491 22.1067 5.0166 21.3584C4.32466 20.6665 3.99068 19.803 3.81934 18.75H2.375C1.96079 18.75 1.625 18.4142 1.625 18C1.625 17.5858 1.96079 17.25 2.375 17.25H3.67188C3.62609 16.3433 3.62499 15.2854 3.625 14.0566V12.75H2.375C1.96079 12.75 1.625 12.4142 1.625 12C1.625 11.5858 1.96079 11.25 2.375 11.25H3.625V9.94336C3.62499 8.7146 3.62609 7.65673 3.67188 6.75H2.375C1.96079 6.75 1.625 6.41421 1.625 6C1.625 5.58579 1.96079 5.25 2.375 5.25H3.81934C3.99068 4.19701 4.32466 3.33354 5.0166 2.6416C5.76491 1.89329 6.71344 1.56096 7.88574 1.40332C8.26183 1.35276 8.67269 1.31956 9.12012 1.29688C9.19991 1.26794 9.28522 1.25 9.375 1.25C9.44181 1.25 9.50573 1.26193 9.56738 1.27832C10.3712 1.25103 11.2843 1.24999 12.3184 1.25H14.4316ZM12.375 2.75C11.521 2.75 10.7777 2.75188 10.125 2.76465V21.2344C10.7777 21.2471 11.521 21.25 12.375 21.25H14.375C16.2818 21.25 17.6364 21.2485 18.6641 21.1104C19.6702 20.9751 20.2496 20.7211 20.6729 20.2979C21.0961 19.8746 21.3501 19.2952 21.4854 18.2891C21.6235 17.2614 21.625 15.9068 21.625 14V10C21.625 8.09324 21.6235 6.73859 21.4854 5.71094C21.3501 4.70485 21.0961 4.12536 20.6729 3.70215C20.2496 3.27894 19.6702 3.02491 18.6641 2.88965C17.6364 2.7515 16.2818 2.75 14.375 2.75H12.375ZM8.625 2.83203C8.43566 2.84804 8.25628 2.86675 8.08594 2.88965C7.07985 3.02491 6.50036 3.27894 6.07715 3.70215C5.72328 4.05601 5.49044 4.51955 5.34375 5.25H5.375C5.78921 5.25 6.125 5.58579 6.125 6C6.125 6.41421 5.78921 6.75 5.375 6.75H5.17383C5.12704 7.61721 5.125 8.67533 5.125 10V11.25H5.375C5.78921 11.25 6.125 11.5858 6.125 12C6.125 12.4142 5.78921 12.75 5.375 12.75H5.125V14C5.125 15.3247 5.12704 16.3828 5.17383 17.25H5.375C5.78921 17.25 6.125 17.5858 6.125 18C6.125 18.4142 5.78921 18.75 5.375 18.75H5.34277C5.48946 19.4806 5.72325 19.944 6.07715 20.2979C6.50036 20.7211 7.07985 20.9751 8.08594 21.1104C8.25626 21.1332 8.43569 21.151 8.625 21.167V2.83203ZM15.875 10.25C16.2892 10.25 16.625 10.5858 16.625 11C16.625 11.4142 16.2892 11.75 15.875 11.75H13.875C13.4608 11.75 13.125 11.4142 13.125 11C13.125 10.5858 13.4608 10.25 13.875 10.25H15.875ZM17.875 6.25C18.2892 6.25 18.625 6.58579 18.625 7C18.625 7.41421 18.2892 7.75 17.875 7.75H13.875C13.4608 7.75 13.125 7.41421 13.125 7C13.125 6.58579 13.4608 6.25 13.875 6.25H17.875Z"
        fill="white" />
</svg>
