<svg width="24" height="24" viewBox="0 0 24 24" fill="none" xmlns="http://www.w3.org/2000/svg">
    <path fill-rule="evenodd" clip-rule="evenodd"
        d="M19.3162 13.6152C19.6559 13.8521 20.1232 13.7684 20.3601 13.4287C21.2358 12.1731 21.7498 10.6455 21.7498 9C21.7498 4.71979 18.28 1.25 13.9998 1.25C9.71955 1.25 6.24976 4.71979 6.24976 9C6.24976 10.1873 6.51715 11.3146 6.99585 12.3223C7.17363 12.696 7.62092 12.8551 7.99487 12.6777C8.36902 12.5 8.52905 12.0519 8.35132 11.6777C7.96619 10.867 7.74976 9.95987 7.74976 9C7.74976 5.54822 10.548 2.75 13.9998 2.75C17.4515 2.75 20.2498 5.54822 20.2498 9C20.2498 10.3289 19.8356 11.5592 19.1296 12.5713C18.893 12.911 18.9766 13.3783 19.3162 13.6152ZM13.9998 13.75C14.414 13.75 14.7498 13.4142 14.7498 13V12.666C15.1638 12.5715 15.5456 12.3999 15.864 12.1611C16.368 11.7831 16.7498 11.2032 16.7498 10.5C16.7498 9.79679 16.368 9.21686 15.864 8.83886C15.3603 8.46113 14.6985 8.25 13.9998 8.25C13.5943 8.25 13.256 8.12587 13.0359 7.96093C12.816 7.79604 12.7498 7.62521 12.7498 7.5C12.7498 7.37478 12.816 7.20395 13.0359 7.03906C13.256 6.87412 13.5943 6.75 13.9998 6.75C14.6679 6.75 15.0904 7.07061 15.2078 7.31933C15.3843 7.69402 15.8311 7.85529 16.2058 7.67871C16.5804 7.50217 16.7406 7.0553 16.5642 6.68066C16.2343 5.98068 15.5384 5.51562 14.7498 5.33496V5C14.7498 4.58578 14.414 4.25 13.9998 4.25C13.5855 4.25 13.2498 4.58578 13.2498 5V5.33398C12.8357 5.42846 12.4539 5.6001 12.1355 5.83886C11.6315 6.21686 11.2498 6.79679 11.2498 7.5C11.2498 8.20321 11.6315 8.78313 12.1355 9.16113C12.6392 9.53886 13.301 9.75 13.9998 9.75C14.4052 9.75 14.7435 9.87412 14.9636 10.0391C15.1835 10.204 15.2498 10.3748 15.2498 10.5C15.2498 10.6252 15.1835 10.796 14.9636 10.9609C14.7435 11.1259 14.4052 11.25 13.9998 11.25C13.3316 11.25 12.9091 10.9294 12.7917 10.6807C12.6152 10.306 12.1684 10.1447 11.7937 10.3213C11.4191 10.4978 11.2589 10.9447 11.4353 11.3193C11.7652 12.0193 12.4611 12.4844 13.2498 12.665V13C13.2498 13.4142 13.5855 13.75 13.9998 13.75ZM9.1814 22.6367C9.90585 22.8517 10.6827 22.7578 11.3376 22.3799L18.8533 18.0439C19.7864 17.5055 20.0265 16.2639 19.405 15.4033C18.7121 14.4438 17.5014 14.0205 16.3708 14.3721L16.3699 14.373L12.2429 15.6406C11.7696 15.0204 11.0117 14.6251 10.1746 14.625L9.13159 14.625C8.94999 14.625 8.77155 14.5844 8.61108 14.5068L6.56909 13.5186C6.20348 13.3417 5.80082 13.25 5.39429 13.25H2.99976C2.58563 13.2501 2.24976 13.5858 2.24976 14C2.24976 14.4141 2.58563 14.7499 2.99976 14.75H5.39429C5.57605 14.75 5.7552 14.7914 5.91577 14.8691L7.95776 15.8564C8.32333 16.0333 8.72512 16.125 9.13159 16.125H10.1746C10.6009 16.1252 10.9517 16.3534 11.1277 16.6719L9.19312 17.207C8.91202 17.2847 8.6107 17.2564 8.35132 17.1309L6.1687 16.0752C5.79584 15.8948 5.34715 16.051 5.16675 16.4238C4.98654 16.7966 5.1426 17.2454 5.51538 17.4258L7.698 18.4814C8.28657 18.7662 8.96206 18.8266 9.59253 18.6523L12.1335 17.9502C12.4836 17.8534 12.7498 17.5327 12.7498 17.1416C12.7498 17.1125 12.7498 17.0835 12.7488 17.0547L16.8132 15.8057L16.8162 15.8047C17.3135 15.6499 17.8624 15.8288 18.1892 16.2812C18.3052 16.4419 18.2446 16.6626 18.1033 16.7441L10.5876 21.0811C10.2867 21.2546 9.93515 21.2953 9.60815 21.1982L3.21362 19.3008C2.81652 19.1829 2.39884 19.4095 2.28101 19.8066C2.16319 20.2037 2.38977 20.6214 2.78687 20.7393L9.1814 22.6367Z"
        fill="#669E63" />
</svg>
