<svg width="19" height="18" viewBox="0 0 19 18" fill="none" xmlns="http://www.w3.org/2000/svg">
<path fill-rule="evenodd" clip-rule="evenodd" d="M14.375 0.9375C14.6857 0.9375 14.9375 1.18934 14.9375 1.5V3.5625H17C17.3107 3.5625 17.5625 3.81434 17.5625 4.125C17.5625 4.43566 17.3107 4.6875 17 4.6875H14.9375V6.75C14.9375 7.06066 14.6857 7.3125 14.375 7.3125C14.0643 7.3125 13.8125 7.06066 13.8125 6.75V4.6875H11.75C11.4393 4.6875 11.1875 4.43566 11.1875 4.125C11.1875 3.81434 11.4393 3.5625 11.75 3.5625H13.8125V1.5C13.8125 1.18934 14.0643 0.9375 14.375 0.9375Z" fill="#26BCAD"/>
<path fill-rule="evenodd" clip-rule="evenodd" d="M9.5 0.9375L9.45697 0.9375C7.72567 0.937491 6.36889 0.937483 5.31028 1.07981C4.22673 1.22549 3.37171 1.5295 2.7006 2.2006C2.0295 2.87171 1.72549 3.72673 1.57981 4.81028C1.43748 5.86889 1.43749 7.22567 1.4375 8.95697V9.04303C1.43749 10.7743 1.43748 12.1311 1.57981 13.1897C1.72549 14.2733 2.0295 15.1283 2.7006 15.7994C3.37171 16.4705 4.22673 16.7745 5.31028 16.9202C6.3689 17.0625 7.72567 17.0625 9.45697 17.0625H9.54303C11.2743 17.0625 12.6311 17.0625 13.6897 16.9202C14.7733 16.7745 15.6283 16.4705 16.2994 15.7994C16.9705 15.1283 17.2745 14.2733 17.4202 13.1897C17.5625 12.1311 17.5625 10.7743 17.5625 9.04303V9C17.5625 8.68934 17.3107 8.4375 17 8.4375C16.6893 8.4375 16.4375 8.68934 16.4375 9C16.4375 10.7837 16.4363 12.0648 16.3052 13.0398C16.3001 13.0783 16.2947 13.1161 16.2891 13.1534L14.2086 11.2809C13.2341 10.4038 11.7827 10.3165 10.71 11.0704L10.4864 11.2275C10.1136 11.4895 9.60655 11.4456 9.28441 11.1234L6.06711 7.90614C5.21556 7.05459 3.8496 7.0091 2.94328 7.80212L2.56323 8.13467C2.56664 6.79046 2.58593 5.76977 2.69478 4.96018C2.82369 4.00138 3.06886 3.42334 3.4961 2.9961C3.92334 2.56886 4.50138 2.32369 5.46018 2.19478C6.43517 2.06369 7.71633 2.0625 9.5 2.0625C9.81066 2.0625 10.0625 1.81066 10.0625 1.5C10.0625 1.18934 9.81066 0.9375 9.5 0.9375ZM2.69478 13.0398C2.82369 13.9986 3.06886 14.5767 3.4961 15.0039C3.92334 15.4311 4.50138 15.6763 5.46018 15.8052C6.43517 15.9363 7.71633 15.9375 9.5 15.9375C11.2837 15.9375 12.5648 15.9363 13.5398 15.8052C14.4986 15.6763 15.0767 15.4311 15.5039 15.0039C15.6866 14.8213 15.8359 14.611 15.9572 14.3553C15.928 14.3375 15.9 14.3167 15.8737 14.293L13.4561 12.1171C12.8713 11.5909 12.0005 11.5385 11.3569 11.9908L11.1332 12.148C10.3132 12.7243 9.19762 12.6276 8.48891 11.9189L5.27162 8.70164C4.83886 8.26888 4.14468 8.24577 3.6841 8.64878L2.56279 9.62991C2.56472 11.0913 2.57967 12.1836 2.69478 13.0398Z" fill="#26BCAD"/>
</svg>
