<svg width="20" height="20" viewBox="0 0 20 20" fill="none" xmlns="http://www.w3.org/2000/svg">
<path fill-rule="evenodd" clip-rule="evenodd" d="M4.7772 1.7025C5.79164 0.693819 7.46196 0.873365 8.31138 2.00802L9.36221 3.41169C10.0534 4.33492 9.99238 5.62526 9.17196 6.44103L8.97298 6.63887C8.96429 6.66412 8.94321 6.74346 8.96661 6.89425C9.01929 7.23383 9.30286 7.95417 10.4933 9.13785C11.6833 10.3211 12.4088 10.6044 12.7531 10.6572C12.9092 10.6811 12.9909 10.6588 13.0161 10.65L13.3561 10.312C14.0855 9.58675 15.2062 9.45119 16.1092 9.94208L17.7013 10.8076C19.0646 11.5487 19.409 13.4018 18.2921 14.5123L17.1083 15.6894C16.7353 16.0603 16.2337 16.3695 15.6216 16.4266C14.1141 16.5671 10.5989 16.3878 6.90546 12.7153C3.4572 9.28666 2.79548 6.29667 2.71175 4.82348L3.33575 4.78802L2.71175 4.82348C2.66942 4.07855 3.02143 3.4483 3.4692 3.00308L4.7772 1.7025ZM7.31072 2.75714C6.88853 2.19318 6.10164 2.14834 5.65856 2.5889L4.35056 3.88947C4.07563 4.16285 3.94335 4.46412 3.95974 4.75255C4.02626 5.92305 4.56068 8.62112 7.78682 11.8289C11.1714 15.1943 14.2973 15.2946 15.5056 15.182C15.7524 15.159 15.9979 15.0307 16.2269 14.803L17.4107 13.626C17.8919 13.1475 17.7858 12.2763 17.1043 11.9058L15.5122 11.0403C15.0726 10.8013 14.5575 10.8802 14.2375 11.1983L13.858 11.5757L13.4173 11.1325C13.858 11.5757 13.8574 11.5763 13.8568 11.5769L13.8555 11.5781L13.853 11.5806L13.8476 11.5858L13.8354 11.5972C13.8266 11.6052 13.8166 11.6139 13.8053 11.6233C13.7826 11.642 13.7548 11.6633 13.7215 11.6856C13.6548 11.7303 13.5667 11.7789 13.456 11.8201C13.2303 11.9042 12.9326 11.9494 12.5636 11.8928C11.8413 11.782 10.8844 11.2895 9.61193 10.0242C8.33986 8.75939 7.84325 7.80695 7.73138 7.08588C7.67418 6.71717 7.71981 6.41942 7.80491 6.19354C7.84662 6.08284 7.89578 5.99482 7.94088 5.92824C7.96338 5.89504 7.98479 5.86728 8.00368 5.84474C8.01313 5.83346 8.02196 5.82348 8.03 5.81475L8.04144 5.8026L8.04668 5.79721L8.04917 5.79469L8.05039 5.79348C8.05098 5.79288 8.05158 5.79229 8.49226 6.23549L8.05158 5.79229L8.29059 5.55463C8.64776 5.19949 8.69779 4.60995 8.36155 4.16081L7.31072 2.75714Z" fill="#1A202C" fill-opacity="0.87"/>
</svg>
