<svg width="20" height="20" viewBox="0 0 20 20" fill="none" xmlns="http://www.w3.org/2000/svg">
    <path
        d="M15 1.04199C15.3452 1.04199 15.625 1.32181 15.625 1.66699V2.19727C16.2954 2.38735 16.8613 2.69524 17.332 3.2041C17.942 3.86361 18.2337 4.68642 18.3809 5.70605C18.526 6.7119 18.5393 7.983 18.541 9.58301V10.833C18.541 11.1782 18.2612 11.458 17.916 11.458C17.571 11.4578 17.291 11.178 17.291 10.833V9.58398C17.2901 8.69559 17.2848 7.94093 17.2588 7.29199H2.74121C2.70925 8.08934 2.70801 9.04291 2.70801 10.2031V10.6309C2.70801 12.4626 2.7095 13.7782 2.83398 14.7793C2.95684 15.7672 3.19076 16.354 3.58594 16.7812C3.97467 17.2013 4.49844 17.4447 5.38965 17.5742C6.3043 17.7071 7.51005 17.708 9.20801 17.708C9.55308 17.708 9.83283 17.988 9.83301 18.333C9.83301 18.6782 9.55319 18.958 9.20801 18.958H9.15723C7.52104 18.958 6.22391 18.9581 5.20898 18.8105C4.16048 18.6581 3.32253 18.3375 2.66797 17.6299C2.01971 16.9291 1.73175 16.0433 1.59375 14.9336C1.45854 13.8463 1.458 12.4527 1.45801 10.6748V10.1582C1.458 8.3803 1.45853 6.98671 1.59375 5.89941C1.73174 4.78998 2.01991 3.90484 2.66797 3.2041C3.13867 2.69524 3.70455 2.38735 4.375 2.19727V1.66699C4.375 1.32181 4.65482 1.04199 5 1.04199C5.34518 1.04199 5.625 1.32181 5.625 1.66699V1.97168C6.57161 1.87509 7.73642 1.87499 9.15723 1.875H10.8428C12.2636 1.87499 13.4284 1.87509 14.375 1.97168V1.66699C14.375 1.32181 14.6548 1.04199 15 1.04199ZM12.4814 12.0518C12.729 11.8114 13.1247 11.817 13.3652 12.0645C13.6056 12.312 13.5999 12.7077 13.3525 12.9482C13.2179 13.0791 13.0037 13.248 12.7998 13.4082C12.7841 13.4206 12.7679 13.4328 12.752 13.4453C12.5473 13.606 12.3282 13.7776 12.1211 13.9531C12.1192 13.9547 12.1171 13.9564 12.1152 13.958H17.5C17.8451 13.958 18.1248 14.238 18.125 14.583C18.125 14.9282 17.8452 15.208 17.5 15.208H12.1152C12.1172 15.2097 12.1191 15.2122 12.1211 15.2139C12.3282 15.3894 12.5473 15.561 12.752 15.7217C12.7679 15.7342 12.7841 15.7464 12.7998 15.7588C13.0037 15.9189 13.2179 16.0879 13.3525 16.2188C13.5998 16.4593 13.6057 16.8551 13.3652 17.1025C13.1248 17.3499 12.729 17.3554 12.4814 17.1152C12.4054 17.0413 12.2534 16.9198 12.0273 16.7422C12.0111 16.7294 11.9943 16.7163 11.9775 16.7031C11.7757 16.5447 11.5384 16.3584 11.3125 16.167C11.0705 15.962 10.8194 15.7323 10.624 15.5029C10.526 15.3879 10.4291 15.2577 10.3545 15.1182C10.2825 14.9837 10.208 14.7981 10.208 14.583C10.2081 14.3679 10.2825 14.1823 10.3545 14.0479C10.4291 13.9085 10.5261 13.779 10.624 13.6641C10.8194 13.4347 11.0705 13.2051 11.3125 13C11.5384 12.8086 11.7758 12.6223 11.9775 12.4639C11.9944 12.4506 12.011 12.4376 12.0273 12.4248C12.2535 12.2471 12.4054 12.1257 12.4814 12.0518ZM9.20801 3.125C7.65171 3.125 6.50914 3.12793 5.625 3.23047V3.33301C5.625 3.67819 5.34518 3.95801 5 3.95801C4.71489 3.95801 4.47644 3.76682 4.40137 3.50586C4.06104 3.641 3.80244 3.81868 3.58594 4.05273C3.19236 4.47823 2.95919 5.0613 2.83594 6.04199H17.1631C17.1564 5.9888 17.151 5.93614 17.1436 5.88477C17.0156 4.99811 16.7862 4.45508 16.4141 4.05273C16.1974 3.81849 15.9384 3.64104 15.5977 3.50586C15.5225 3.76669 15.285 3.95801 15 3.95801C14.6548 3.95801 14.375 3.67819 14.375 3.33301V3.23047C13.4909 3.12793 12.3483 3.125 10.792 3.125H9.20801Z"
        fill="#2A9D8F" />
</svg>
