<svg width="48" height="48" viewBox="0 0 48 48" fill="none" xmlns="http://www.w3.org/2000/svg">
<rect x="0.5" y="0.5" width="47" height="47" rx="15.5" fill="white"/>
<rect x="0.5" y="0.5" width="47" height="47" rx="15.5" stroke="#E3E3E3"/>
<path d="M21.7798 13.8228C23.237 13.7259 24.7601 13.7257 26.2202 13.8228C30.7869 14.1263 34.4106 17.8126 34.7085 22.4224C34.7642 23.2847 34.7642 24.1772 34.7085 25.0396C34.4104 29.6491 30.7867 33.3356 26.2202 33.6392C24.7601 33.7362 23.237 33.736 21.7798 33.6392C21.2149 33.6016 20.5995 33.4676 20.0581 33.2446C19.8202 33.1466 19.6588 33.0799 19.5405 33.0366C19.4592 33.0925 19.3511 33.1726 19.1938 33.2886C18.4014 33.8729 17.4006 34.2821 15.981 34.2476C15.9658 34.2472 15.9503 34.2469 15.9351 34.2466C15.6613 34.24 15.3693 34.2331 15.1313 34.187C14.8447 34.1315 14.4901 33.993 14.2681 33.6147C14.0264 33.2027 14.1226 32.7854 14.2163 32.5229C14.3048 32.2753 14.4591 31.9847 14.6157 31.688C14.6228 31.6746 14.6301 31.6614 14.6372 31.6479C15.1035 30.7643 15.2332 30.0416 14.9839 29.5601C14.1517 28.3038 13.4025 26.7557 13.2915 25.0396C13.2358 24.1772 13.2358 23.2847 13.2915 22.4224C13.5894 17.8126 17.2131 14.1263 21.7798 13.8228ZM26.1206 15.3188C24.7269 15.2262 23.2703 15.2264 21.8794 15.3188C18.08 15.5714 15.039 18.6441 14.7886 22.519C14.737 23.317 14.737 24.1449 14.7886 24.9429C14.8766 26.3029 15.4839 27.6042 16.2524 28.7583C16.2639 28.7756 16.2746 28.7939 16.2847 28.812C16.9528 30.022 16.4625 31.4023 15.9634 32.3481C15.8818 32.5027 15.8148 32.6298 15.7593 32.7407C15.8347 32.7433 15.9199 32.7461 16.0181 32.7485C17.0865 32.7744 17.7638 32.4784 18.3032 32.0806L18.3208 32.0679C18.4945 31.9398 18.6525 31.824 18.7827 31.7397C18.8958 31.6665 19.1026 31.5373 19.354 31.5063C19.6173 31.474 19.873 31.5631 20.0005 31.6079C20.1636 31.6653 20.3704 31.7515 20.6099 31.8501L20.6294 31.8579C21.0088 32.0142 21.4635 32.1144 21.8794 32.1421C23.2703 32.2345 24.7268 32.2347 26.1206 32.1421C29.9198 31.8895 32.9608 28.8176 33.2114 24.9429C33.263 24.1449 33.263 23.317 33.2114 22.519C32.961 18.6441 29.92 15.5714 26.1206 15.3188ZM27.4995 25.7495C27.9136 25.7495 28.2493 26.0855 28.2495 26.4995C28.2495 26.9137 27.9137 27.2495 27.4995 27.2495H20.4995C20.0855 27.2493 19.7495 26.9136 19.7495 26.4995C19.7497 26.0856 20.0856 25.7497 20.4995 25.7495H27.4995ZM23.9995 20.7495C24.4136 20.7495 24.7493 21.0855 24.7495 21.4995C24.7495 21.9137 24.4137 22.2495 23.9995 22.2495H20.4995C20.0855 22.2493 19.7495 21.9136 19.7495 21.4995C19.7497 21.0856 20.0856 20.7497 20.4995 20.7495H23.9995Z" fill="#2C6E91"/>
</svg>
