<svg width="40" height="40" viewBox="0 0 40 40" fill="none" xmlns="http://www.w3.org/2000/svg">
    <rect x="0.5" y="0.5" width="39" height="39" rx="11.5" stroke="#E3E3E3"/>
    <path d="M18.1494 11.5189C19.3638 11.4382 20.6337 11.438 21.8506 11.5189C25.6559 11.772 28.6754 14.8436 28.9238 18.6849C28.9703 19.4035 28.9702 20.147 28.9238 20.8656C28.6756 24.707 25.6561 27.7796 21.8506 28.0326C20.6337 28.1135 19.3638 28.1133 18.1494 28.0326C17.6788 28.0013 17.1668 27.8892 16.7158 27.7035C16.5176 27.6219 16.3827 27.5668 16.2842 27.5306C16.2164 27.5772 16.1262 27.6439 15.9951 27.7406C15.3348 28.2275 14.5004 28.5682 13.3174 28.5394C13.3049 28.5391 13.2919 28.5397 13.2793 28.5394C13.0512 28.534 12.8077 28.528 12.6094 28.4896C12.3704 28.4433 12.0746 28.3275 11.8896 28.0121C11.6884 27.6688 11.7695 27.3216 11.8477 27.1029C11.9214 26.8965 12.0491 26.6539 12.1797 26.4066C12.1855 26.3956 12.1914 26.3845 12.1973 26.3734C12.5859 25.637 12.6941 25.0344 12.4863 24.6332C11.7928 23.5862 11.1686 22.2957 11.0762 20.8656C11.0298 20.147 11.0297 19.4035 11.0762 18.6849C11.3245 14.8437 14.3442 11.7721 18.1494 11.5189ZM21.7676 12.766C20.606 12.6888 19.3917 12.6889 18.2324 12.766C15.0664 12.9766 12.5329 15.537 12.3242 18.766C12.2813 19.4309 12.2812 20.1206 12.3242 20.7855C12.3975 21.9189 12.9034 23.0034 13.5439 23.9652C13.5535 23.9796 13.562 23.995 13.5703 24.0101C14.1272 25.0185 13.7187 26.1682 13.3027 26.9564C13.2346 27.0855 13.1792 27.192 13.1328 27.2845C13.1956 27.2867 13.2668 27.2884 13.3486 27.2904C14.239 27.312 14.8034 27.0653 15.2529 26.7338L15.2676 26.723C15.4123 26.6163 15.5438 26.5198 15.6523 26.4496C15.7466 26.3886 15.9187 26.2811 16.1279 26.2552C16.3474 26.2283 16.5607 26.3029 16.667 26.3402C16.803 26.388 16.9761 26.4592 17.1758 26.5414L17.1914 26.5482C17.5075 26.6784 17.8859 26.7625 18.2324 26.7855C19.3917 26.8626 20.606 26.8627 21.7676 26.7855C24.9336 26.575 27.467 24.0145 27.6758 20.7855C27.7188 20.1206 27.7187 19.4309 27.6758 18.766C27.4671 15.5369 24.9337 12.9765 21.7676 12.766ZM22.917 21.4584C23.2621 21.4585 23.542 21.7383 23.542 22.0834C23.5419 22.4284 23.262 22.7083 22.917 22.7084H17.083C16.7381 22.7081 16.4581 22.4284 16.458 22.0834C16.458 21.7383 16.738 21.4586 17.083 21.4584H22.917ZM20 17.2914C20.3451 17.2914 20.6249 17.5713 20.625 17.9164C20.625 18.2616 20.3452 18.5414 20 18.5414H17.083C16.738 18.5411 16.458 18.2614 16.458 17.9164C16.4581 17.5715 16.7381 17.2916 17.083 17.2914H20Z" fill="#F4A261"/>
    <circle cx="27.5" cy="13.5" r="4" fill="#FF5F57" stroke="white"/>
</svg>
