<svg width="20" height="20" viewBox="0 0 20 20" fill="none" xmlns="http://www.w3.org/2000/svg">
    <path
        d="M15 1.04199C15.3452 1.04199 15.625 1.32181 15.625 1.66699V2.19727C16.2954 2.38735 16.8613 2.69524 17.332 3.2041C17.942 3.86361 18.2337 4.68642 18.3809 5.70605C18.526 6.7119 18.5393 7.983 18.541 9.58301V10.833C18.541 11.1782 18.2612 11.458 17.916 11.458C17.571 11.4578 17.291 11.178 17.291 10.833V9.58398C17.2901 8.69559 17.2848 7.94093 17.2588 7.29199H2.74121C2.70925 8.08934 2.70801 9.04291 2.70801 10.2031V10.6309C2.70801 12.4626 2.7095 13.7782 2.83398 14.7793C2.95684 15.7672 3.19076 16.354 3.58594 16.7812C3.97467 17.2013 4.49844 17.4447 5.38965 17.5742C6.3043 17.7071 7.51005 17.708 9.20801 17.708C9.55308 17.708 9.83283 17.988 9.83301 18.333C9.83301 18.6782 9.55319 18.958 9.20801 18.958H9.15723C7.52104 18.958 6.22391 18.9581 5.20898 18.8105C4.16048 18.6581 3.32253 18.3375 2.66797 17.6299C2.01971 16.9291 1.73175 16.0433 1.59375 14.9336C1.45854 13.8463 1.458 12.4527 1.45801 10.6748V10.1582C1.458 8.3803 1.45853 6.98671 1.59375 5.89941C1.73174 4.78998 2.01991 3.90484 2.66797 3.2041C3.13867 2.69524 3.70455 2.38735 4.375 2.19727V1.66699C4.375 1.32181 4.65482 1.04199 5 1.04199C5.34518 1.04199 5.625 1.32181 5.625 1.66699V1.97168C6.57161 1.87509 7.73642 1.87499 9.15723 1.875H10.8428C12.2636 1.87499 13.4284 1.87509 14.375 1.97168V1.66699C14.375 1.32181 14.6548 1.04199 15 1.04199ZM14.9688 12.8975C15.2093 12.6502 15.6051 12.6443 15.8525 12.8848C15.9285 12.9586 16.0797 13.0803 16.3057 13.2578C16.322 13.2707 16.3395 13.2836 16.3564 13.2969C16.5582 13.4553 16.7946 13.6416 17.0205 13.833C17.2626 14.0382 17.5145 14.2675 17.71 14.4971C17.8079 14.6121 17.9039 14.7424 17.9785 14.8818C18.0505 15.0164 18.125 15.2018 18.125 15.417C18.1249 15.6321 18.0505 15.8177 17.9785 15.9521C17.9039 16.0914 17.8078 16.2211 17.71 16.3359C17.5145 16.5654 17.2626 16.7949 17.0205 17C16.7947 17.1914 16.5582 17.3778 16.3564 17.5361C16.3396 17.5494 16.322 17.5623 16.3057 17.5752C16.0797 17.7527 15.9286 17.8743 15.8525 17.9482C15.605 18.1888 15.2093 18.183 14.9688 17.9355C14.7282 17.688 14.7339 17.2923 14.9814 17.0518C15.1161 16.9209 15.3304 16.7519 15.5342 16.5918C15.5498 16.5796 15.5653 16.5671 15.5811 16.5547C15.7857 16.394 16.0048 16.2224 16.2119 16.0469C16.2139 16.0452 16.2168 16.0437 16.2188 16.042H10.833C10.4881 16.0418 10.2082 15.7619 10.208 15.417C10.208 15.0719 10.488 14.7922 10.833 14.792H16.2188C16.2168 14.7903 16.2139 14.7878 16.2119 14.7861C16.0049 14.6107 15.7857 14.439 15.5811 14.2783C15.5653 14.2659 15.5498 14.2534 15.5342 14.2412C15.3303 14.0811 15.1161 13.9121 14.9814 13.7812C14.7339 13.5407 14.7282 13.145 14.9688 12.8975ZM9.20801 3.125C7.65171 3.125 6.50914 3.12793 5.625 3.23047V3.33301C5.625 3.67819 5.34518 3.95801 5 3.95801C4.71489 3.95801 4.47644 3.76682 4.40137 3.50586C4.06104 3.641 3.80244 3.81868 3.58594 4.05273C3.19236 4.47823 2.95919 5.0613 2.83594 6.04199H17.1631C17.1564 5.9888 17.151 5.93614 17.1436 5.88477C17.0156 4.99811 16.7862 4.45508 16.4141 4.05273C16.1974 3.81849 15.9384 3.64104 15.5977 3.50586C15.5225 3.76669 15.285 3.95801 15 3.95801C14.6548 3.95801 14.375 3.67819 14.375 3.33301V3.23047C13.4909 3.12793 12.3483 3.125 10.792 3.125H9.20801Z"
        fill="#1E95D4" />
</svg>
