<svg width="16" height="16" viewBox="0 0 16 16" fill="none" xmlns="http://www.w3.org/2000/svg">
<path d="M12 0.833008C12.276 0.833008 12.4998 1.05702 12.5 1.33301V1.75781C13.0362 1.90983 13.4888 2.15566 13.8652 2.5625C14.3838 3.12316 14.6152 3.832 14.7256 4.71973C14.8338 5.58958 14.833 6.70462 14.833 8.12695V8.54004C14.833 9.96239 14.8338 11.0774 14.7256 11.9473C14.6152 12.8349 14.3838 13.5429 13.8652 14.1035C13.3415 14.6697 12.671 14.9269 11.832 15.0488C11.0201 15.1668 9.98271 15.167 8.67383 15.167H7.32617C6.01729 15.167 4.97992 15.1668 4.16797 15.0488C3.32899 14.9269 2.65849 14.6697 2.13477 14.1035C1.6162 13.5429 1.38482 12.8349 1.27441 11.9473C1.16624 11.0774 1.16698 9.96239 1.16699 8.54004V8.12695C1.16698 6.70463 1.16625 5.58957 1.27441 4.71973C1.38481 3.832 1.61616 3.12316 2.13477 2.5625C2.51125 2.15566 2.96383 1.90983 3.5 1.75781V1.33301C3.50018 1.05702 3.72397 0.833008 4 0.833008C4.27603 0.833008 4.49982 1.05702 4.5 1.33301V1.57715C5.25737 1.49987 6.18936 1.49999 7.32617 1.5H8.67383C9.81064 1.49999 10.7426 1.49987 11.5 1.57715V1.33301C11.5002 1.05702 11.724 0.833008 12 0.833008ZM2.19629 5.83301C2.17069 6.47102 2.16699 7.23361 2.16699 8.16211V8.50488C2.16699 9.97005 2.16801 11.0224 2.26758 11.8232C2.36585 12.6135 2.55208 13.083 2.86816 13.4248C3.17918 13.761 3.59835 13.9549 4.31152 14.0586C5.04324 14.1649 6.00776 14.167 7.36621 14.167H8.63379C9.99224 14.167 10.9568 14.1649 11.6885 14.0586C12.4017 13.9549 12.8208 13.761 13.1318 13.4248C13.4479 13.083 13.6341 12.6135 13.7324 11.8232C13.832 11.0224 13.833 9.97005 13.833 8.50488V8.16211C13.833 7.23361 13.8293 6.47102 13.8037 5.83301H2.19629ZM7.36621 2.5C6.1213 2.5 5.20727 2.50196 4.5 2.58398V2.66699C4.49982 2.94299 4.27603 3.16699 4 3.16699C3.77195 3.16699 3.58158 3.0134 3.52148 2.80469C3.24905 2.91282 3.04144 3.05486 2.86816 3.24219C2.55353 3.58248 2.36715 4.049 2.26855 4.83301H13.7314C13.6329 4.049 13.4465 3.58248 13.1318 3.24219C12.9584 3.05467 12.7504 2.91285 12.4775 2.80469C12.4174 3.01327 12.228 3.16699 12 3.16699C11.724 3.16699 11.5002 2.94298 11.5 2.66699V2.58398C10.7927 2.50196 9.8787 2.5 8.63379 2.5H7.36621Z" fill="#444444"/>
</svg>
