<svg width="22" height="22" viewBox="0 0 22 22" fill="none" xmlns="http://www.w3.org/2000/svg">
<g style="mix-blend-mode:multiply">
<path fill-rule="evenodd" clip-rule="evenodd" d="M11 21.6667C16.891 21.6667 21.6667 16.8911 21.6667 11C21.6667 5.109 16.891 0.333374 11 0.333374C5.10897 0.333374 0.333344 5.109 0.333344 11C0.333344 16.8911 5.10897 21.6667 11 21.6667Z" fill="#3CA76A" fill-opacity="0.15"/>
</g>
<path fill-rule="evenodd" clip-rule="evenodd" d="M11 18.3333C15.0501 18.3333 18.3333 15.05 18.3333 11C18.3333 6.94987 15.0501 3.66663 11 3.66663C6.9499 3.66663 3.66666 6.94987 3.66666 11C3.66666 15.05 6.9499 18.3333 11 18.3333Z" fill="white"/>
<path fill-rule="evenodd" clip-rule="evenodd" d="M11 18.3333C15.0501 18.3333 18.3333 15.05 18.3333 11C18.3333 6.94987 15.0501 3.66663 11 3.66663C6.9499 3.66663 3.66666 6.94987 3.66666 11C3.66666 15.05 6.9499 18.3333 11 18.3333ZM7.70014 10.4142C7.43979 10.6745 7.43979 11.0966 7.70014 11.357L9.58575 13.2426C9.8461 13.5029 10.2682 13.5029 10.5286 13.2426L14.2998 9.47136C14.5601 9.21101 14.5601 8.7889 14.2998 8.52855C14.0394 8.26821 13.6173 8.26821 13.357 8.52855L10.0572 11.8284L8.64294 10.4142C8.38259 10.1538 7.96048 10.1538 7.70014 10.4142Z" fill="#3CA76A"/>
</svg>
