<svg width="29" height="28" viewBox="0 0 29 28" fill="none" xmlns="http://www.w3.org/2000/svg">
<path d="M21.175 9.33333C21.175 10.622 20.1303 11.6667 18.8417 11.6667C17.553 11.6667 16.5083 10.622 16.5083 9.33333C16.5083 8.04467 17.553 7 18.8417 7C20.1303 7 21.175 8.04467 21.175 9.33333Z" fill="#E0771B"/>
<path fill-rule="evenodd" clip-rule="evenodd" d="M14.108 1.45837H14.2419C16.9351 1.45836 19.0456 1.45835 20.6923 1.67975C22.3779 1.90636 23.7079 2.37926 24.7518 3.4232C25.7958 4.46714 26.2687 5.79717 26.4953 7.4827C26.7167 9.12943 26.7167 11.24 26.7167 13.9331V14.0361C26.7167 16.263 26.7167 18.086 26.5957 19.5703C26.4742 21.0619 26.2251 22.3084 25.6677 23.3436C25.4218 23.8002 25.1197 24.209 24.7518 24.5769C23.7079 25.6208 22.3779 26.0937 20.6923 26.3203C19.0456 26.5417 16.9351 26.5417 14.2419 26.5417H14.1081C11.4149 26.5417 9.30438 26.5417 7.65765 26.3203C5.97212 26.0937 4.64209 25.6208 3.59815 24.5769C2.67266 23.6514 2.19472 22.4995 1.94057 21.0705C1.6909 19.6668 1.64523 17.9204 1.63574 15.7518C1.63332 15.2002 1.63332 14.6167 1.63332 14.0012L1.63332 13.9331C1.63331 11.24 1.6333 9.12943 1.85469 7.4827C2.08131 5.79717 2.5542 4.46714 3.59815 3.4232C4.64209 2.37926 5.97212 1.90636 7.65765 1.67975C9.30438 1.45835 11.4149 1.45836 14.108 1.45837ZM7.89083 3.41414C6.39936 3.61466 5.50019 3.99604 4.83559 4.66064C4.17099 5.32524 3.78961 6.22441 3.58909 7.71588C3.38518 9.23252 3.38332 11.2254 3.38332 14C3.38332 14.6168 3.38333 15.1967 3.38572 15.7441C3.39529 17.9306 3.44415 19.5307 3.66353 20.7641C3.87841 21.9722 4.24402 22.7479 4.83559 23.3394C5.50019 24.004 6.39936 24.3854 7.89083 24.5859C9.40747 24.7898 11.4004 24.7917 14.175 24.7917C16.9496 24.7917 18.9425 24.7898 20.4592 24.5859C21.9506 24.3854 22.8498 24.004 23.5144 23.3394C23.7593 23.0945 23.9601 22.8237 24.1269 22.5139C24.5138 21.7953 24.7369 20.8341 24.8515 19.4282C24.966 18.023 24.9667 16.2702 24.9667 14C24.9667 11.2254 24.9648 9.23252 24.7609 7.71588C24.5604 6.22441 24.179 5.32524 23.5144 4.66064C22.8498 3.99604 21.9506 3.61466 20.4592 3.41414C18.9425 3.21023 16.9496 3.20837 14.175 3.20837C11.4004 3.20837 9.40747 3.21023 7.89083 3.41414Z" fill="#E0771B"/>
<path opacity="0.4" d="M24.2162 22.3374L20.9141 19.3655C19.7013 18.274 17.8952 18.1653 16.5602 19.1035L16.2123 19.348C15.2846 19.9999 14.0225 19.8906 13.2208 19.0888L8.21609 14.0842C7.21718 13.0852 5.61486 13.0319 4.55171 13.9621L3.38372 14.9841C3.38405 15.2443 3.38464 15.4975 3.38572 15.7441C3.39529 17.9306 3.44415 19.5307 3.66352 20.7641C3.87841 21.9722 4.24401 22.7479 4.83558 23.3394C5.50018 24.004 6.39936 24.3854 7.89083 24.5859C9.40747 24.7898 11.4004 24.7917 14.175 24.7917C16.9496 24.7917 18.9425 24.7898 20.4591 24.5859C21.9506 24.3854 22.8498 24.004 23.5144 23.3394C23.7593 23.0945 23.9601 22.8237 24.1269 22.5139C24.1577 22.4566 24.1875 22.3979 24.2162 22.3374Z" fill="#E0771B"/>
</svg>
