<svg width="24" height="24" viewBox="0 0 24 24" fill="none" xmlns="http://www.w3.org/2000/svg">
    <path
        d="M12.0576 1.75C14.2479 1.74999 15.9683 1.75012 17.3115 1.93066C18.6882 2.11575 19.7805 2.50313 20.6387 3.36133C21.4969 4.21953 21.8842 5.31182 22.0693 6.68848C22.2499 8.03174 22.25 9.75212 22.25 11.9424V12.0576C22.25 14.2479 22.2499 15.9683 22.0693 17.3115C21.8842 18.6882 21.4969 19.7805 20.6387 20.6387C19.7805 21.4969 18.6882 21.8842 17.3115 22.0693C15.9683 22.2499 14.2479 22.25 12.0576 22.25H11.9424C9.75212 22.25 8.03174 22.2499 6.68848 22.0693C5.31182 21.8842 4.21953 21.4969 3.36133 20.6387C2.50313 19.7805 2.11575 18.6882 1.93066 17.3115C1.75012 15.9683 1.74999 14.2479 1.75 12.0576V11.9424C1.74999 9.75212 1.75012 8.03174 1.93066 6.68848C2.11575 5.31182 2.50313 4.21953 3.36133 3.36133C4.21953 2.50313 5.31182 2.11575 6.68848 1.93066C8.03174 1.75012 9.75213 1.74999 11.9424 1.75H12.0576ZM4.0332 14.7529H4.0166C3.76694 14.7524 3.51753 14.7598 3.26855 14.7725C3.28822 15.6881 3.32868 16.4555 3.41699 17.1123C3.57972 18.3225 3.88885 19.0451 4.42188 19.5781C4.9549 20.1111 5.67747 20.4203 6.8877 20.583C8.1196 20.7486 9.73963 20.75 12 20.75C13.0334 20.75 13.9329 20.7476 14.7227 20.7314C14.0174 19.2755 12.9013 17.9703 11.4473 16.9473C9.36605 15.4831 6.73841 14.6999 4.0332 14.7529ZM18.3838 16.75C17.1182 16.745 15.8428 17.0982 14.6016 17.8184C15.3286 18.6843 15.9119 19.6408 16.3311 20.6611C16.6079 20.6399 16.8679 20.6159 17.1123 20.583C18.3225 20.4203 19.0451 20.1111 19.5781 19.5781C20.1108 19.0454 20.4192 18.3232 20.582 17.1143C19.8539 16.8713 19.1202 16.7493 18.3877 16.75H18.3838ZM12 3.25C9.73963 3.25 8.1196 3.25137 6.8877 3.41699C5.67747 3.57972 4.9549 3.88885 4.42188 4.42188C3.88885 4.9549 3.57972 5.67747 3.41699 6.8877C3.25137 8.1196 3.25 9.73963 3.25 12C3.25 12.4484 3.25056 12.8715 3.25195 13.2715C3.50489 13.2596 3.75819 13.2525 4.01172 13.2529C7.01522 13.1957 9.95618 14.0642 12.3105 15.7207C12.7455 16.0268 13.1549 16.3575 13.5381 16.708C15.0717 15.749 16.7115 15.2438 18.3877 15.25C19.1691 15.2494 19.9442 15.3633 20.7061 15.583C20.7484 14.6021 20.75 13.4291 20.75 12C20.75 9.73963 20.7486 8.1196 20.583 6.8877C20.4203 5.67747 20.1111 4.9549 19.5781 4.42188C19.0451 3.88885 18.3225 3.57972 17.1123 3.41699C15.8804 3.25137 14.2604 3.25 12 3.25ZM16.5 5.25C17.7426 5.25 18.75 6.25736 18.75 7.5C18.75 8.74264 17.7426 9.75 16.5 9.75C15.2574 9.75 14.25 8.74264 14.25 7.5C14.25 6.25736 15.2574 5.25 16.5 5.25ZM16.5 6.75C16.0858 6.75 15.75 7.08579 15.75 7.5C15.75 7.91421 16.0858 8.25 16.5 8.25C16.9142 8.25 17.25 7.91421 17.25 7.5C17.25 7.08579 16.9142 6.75 16.5 6.75Z"
        fill="#E0771B" />
</svg>
