<svg width="29" height="28" viewBox="0 0 29 28" fill="none" xmlns="http://www.w3.org/2000/svg">
<path opacity="0.5" d="M3.995 9.33331C3.995 6.03348 3.995 4.38357 5.02013 3.35844C6.04526 2.33331 7.69517 2.33331 10.995 2.33331L17.995 2.33331C21.2948 2.33331 22.9447 2.33331 23.9699 3.35844C24.995 4.38357 24.995 6.03348 24.995 9.33331L24.995 18.6666C24.995 21.9665 24.995 23.6164 23.9699 24.6415C22.9447 25.6666 21.2948 25.6666 17.995 25.6666H10.995C7.69517 25.6666 6.04526 25.6666 5.02013 24.6415C3.995 23.6164 3.995 21.9665 3.995 18.6666L3.995 9.33331Z" fill="#6735DC"/>
<path fill-rule="evenodd" clip-rule="evenodd" d="M10.7033 2.34778L10.7033 25.6798H8.95334L8.95334 2.34778H10.7033Z" fill="#6735DC"/>
<path fill-rule="evenodd" clip-rule="evenodd" d="M1.95334 9.33331C1.95334 8.85006 2.34509 8.45831 2.82834 8.45831H5.16167C5.64492 8.45831 6.03667 8.85006 6.03667 9.33331C6.03667 9.81656 5.64492 10.2083 5.16167 10.2083H2.82834C2.34509 10.2083 1.95334 9.81656 1.95334 9.33331ZM1.95334 14C1.95334 13.5167 2.34509 13.125 2.82834 13.125H5.16167C5.64492 13.125 6.03667 13.5167 6.03667 14C6.03667 14.4832 5.64492 14.875 5.16167 14.875H2.82834C2.34509 14.875 1.95334 14.4832 1.95334 14ZM1.95334 18.6666C1.95334 18.1834 2.34509 17.7916 2.82834 17.7916H5.16167C5.64492 17.7916 6.03667 18.1834 6.03667 18.6666C6.03667 19.1499 5.64492 19.5416 5.16167 19.5416H2.82834C2.34509 19.5416 1.95334 19.1499 1.95334 18.6666Z" fill="#6735DC"/>
<path d="M13.0367 7.58331C13.0367 7.10006 13.4284 6.70831 13.9117 6.70831L19.745 6.70831C20.2283 6.70831 20.62 7.10006 20.62 7.58331C20.62 8.06656 20.2283 8.45831 19.745 8.45831H13.9117C13.4284 8.45831 13.0367 8.06656 13.0367 7.58331Z" fill="#6735DC"/>
<path d="M13.0367 11.6666C13.0367 11.1834 13.4284 10.7916 13.9117 10.7916H19.745C20.2283 10.7916 20.62 11.1834 20.62 11.6666C20.62 12.1499 20.2283 12.5416 19.745 12.5416H13.9117C13.4284 12.5416 13.0367 12.1499 13.0367 11.6666Z" fill="#6735DC"/>
</svg>
