<svg width="24" height="24" viewBox="0 0 24 24" fill="none" xmlns="http://www.w3.org/2000/svg">
    <path fill-rule="evenodd" clip-rule="evenodd"
        d="M12.1805 1.29004C13.2403 1.37017 13.9005 2.13053 14.4305 2.73047C14.7704 3.12032 15.0906 3.49039 15.4305 3.61035C15.7905 3.74018 16.2808 3.70014 16.8006 3.66016C17.7005 3.58017 18.8304 3.48993 19.6903 4.34961C20.5503 5.21961 20.4597 6.34023 20.3797 7.24023C20.3397 7.76016 20.2905 8.2604 20.4305 8.61035C20.5606 8.95021 20.9305 9.27048 21.3104 9.61035C21.9202 10.1402 22.6697 10.8 22.7498 11.8496C22.8398 13.0996 21.9904 13.8504 21.3104 14.4404C20.9404 14.7604 20.6 15.0599 20.45 15.3799C20.28 15.7399 20.3297 16.2703 20.3797 16.8203C20.4597 17.7203 20.5502 18.8403 19.6903 19.7002C18.8503 20.5401 17.7203 20.4596 16.8104 20.3896C16.2805 20.3497 15.7805 20.3105 15.4305 20.4404C15.0905 20.5704 14.7705 20.9303 14.4305 21.3203C13.9005 21.9303 13.2402 22.6797 12.1903 22.7598H12.0106L11.9998 22.75H11.8299C10.7804 22.6699 10.1205 21.9204 9.59065 21.3105C9.25065 20.9205 8.92967 20.5497 8.58967 20.4297C8.22981 20.3 7.74012 20.3399 7.22053 20.3799C6.32055 20.4499 5.1899 20.5504 4.3299 19.6904C3.49005 18.8506 3.58045 17.7205 3.64045 16.8105C3.68045 16.2805 3.71967 15.7797 3.58967 15.4297C3.45951 15.0899 3.0996 14.7695 2.70979 14.4297C2.09993 13.8998 1.35047 13.24 1.27033 12.1904C1.18035 10.9407 2.01986 10.2003 2.70979 9.61035C3.09972 9.27041 3.47035 8.95028 3.60041 8.61035C3.73038 8.26045 3.69021 7.76031 3.65022 7.23047C3.58022 6.32048 3.4997 5.18961 4.33967 4.34961C5.19967 3.48961 6.33029 3.58016 7.23029 3.66016C7.75024 3.70015 8.25044 3.75034 8.60041 3.61035C8.94033 3.48033 9.26049 3.12038 9.60041 2.73047C10.1304 2.12047 10.7906 1.37004 11.8406 1.29004H12.1805ZM11.9197 2.75C11.5199 2.7802 11.1996 3.11989 10.7098 3.67969C10.2798 4.16967 9.80037 4.72046 9.10041 4.98047C8.43041 5.23047 7.7099 5.17012 7.0799 5.12012C6.25005 5.05013 5.72991 5.02992 5.36994 5.37988C5.04 5.70985 5.05996 6.25001 5.11994 7.08984C5.16994 7.75984 5.22029 8.45035 4.98029 9.11035C4.72026 9.81023 4.15969 10.2998 3.66975 10.7197C3.0498 11.2597 2.71006 11.5806 2.74006 12.0605C2.77029 12.4703 3.11005 12.7905 3.66975 13.2803C4.15967 13.7102 4.72024 14.1898 4.98029 14.8896C5.22029 15.5496 5.16994 16.2402 5.11994 16.9102C5.05996 17.75 5.04004 18.2901 5.36994 18.6201C5.71991 18.9701 6.25004 18.9499 7.0799 18.8799C7.3499 18.8599 7.64025 18.8301 7.94026 18.8301H7.95002C8.33999 18.8301 8.7302 18.8698 9.11018 19.0098C9.81018 19.2698 10.2905 19.8305 10.7205 20.3105C11.2103 20.8703 11.5304 21.2102 11.9403 21.2402H12.0701C12.48 21.2102 12.8001 20.8703 13.2899 20.3105C13.7199 19.8205 14.2002 19.2698 14.9002 19.0098C15.56 18.7699 16.2499 18.8201 16.9197 18.8701C17.7595 18.9301 18.2997 18.9499 18.6297 18.6201C18.9797 18.2701 18.9604 17.7399 18.8904 16.9199C18.8305 16.23 18.7607 15.4504 19.0906 14.7305C19.3706 14.1205 19.8799 13.68 20.3299 13.29C20.9297 12.7702 21.3003 12.4202 21.2606 11.9404C21.2306 11.5304 20.8899 11.2097 20.3299 10.7197C19.8401 10.2899 19.2903 9.81003 19.0203 9.11035C18.7703 8.44035 18.8297 7.71984 18.8797 7.08984C18.9497 6.25996 18.9699 5.73985 18.6199 5.37988C18.2699 5.03009 17.7398 5.05013 16.91 5.12012C16.2801 5.1701 15.5603 5.23027 14.8905 4.98047C14.1905 4.72047 13.7101 4.15969 13.2801 3.67969C12.7903 3.11992 12.4702 2.7801 12.0604 2.75H11.9197ZM11.2762 10.25C11.4813 10.2499 11.7033 10.2502 11.8905 10.2754C12.1097 10.3049 12.39 10.3804 12.6258 10.6162C12.8616 10.852 12.9371 11.1322 12.9666 11.3516C12.9918 11.5388 12.9921 11.7607 12.992 11.9658V16C12.992 16.4142 12.6562 16.75 12.242 16.75C11.8278 16.75 11.492 16.4142 11.492 16V12C11.492 11.9009 11.4922 11.8204 11.491 11.751C11.4216 11.7499 11.3411 11.75 11.242 11.75C10.8278 11.75 10.492 11.4142 10.492 11C10.492 10.5858 10.8278 10.25 11.242 10.25C11.2533 10.25 11.2647 10.25 11.2762 10.25ZM12.0008 7C12.5531 7 13.0008 7.44772 13.0008 8C13.0008 8.55228 12.5531 9 12.0008 9H11.992C11.4397 9 10.992 8.55228 10.992 8C10.992 7.44772 11.4397 7 11.992 7H12.0008Z"
        fill="#519995" />
</svg>
