<svg width="17" height="16" viewBox="0 0 17 16" fill="none" xmlns="http://www.w3.org/2000/svg">
<path d="M9 7.33317C9 7.05702 8.77614 6.83317 8.5 6.83317C8.22386 6.83317 8 7.05702 8 7.33317V8.6665C8 8.94264 8.22386 9.1665 8.5 9.1665C8.77614 9.1665 9 8.94264 9 8.6665V7.33317Z" fill="#E92D1F"/>
<path fill-rule="evenodd" clip-rule="evenodd" d="M9.64983 1.35123L11.2723 1.62165C12.0428 1.75006 12.6671 1.85409 13.1554 1.99946C13.6639 2.15086 14.0841 2.36295 14.4076 2.74481C14.731 3.12667 14.8712 3.57598 14.9369 4.10249C15 4.60804 15 5.24087 15 6.022V9.97765C15 10.7588 15 11.3916 14.9369 11.8972C14.8712 12.4237 14.731 12.873 14.4076 13.2548C14.0841 13.6367 13.6639 13.8488 13.1554 14.0002C12.6671 14.1456 12.0429 14.2496 11.2724 14.378L9.64979 14.6484C8.96102 14.7632 8.3915 14.8582 7.93666 14.8692C7.45962 14.8807 7.01732 14.804 6.64831 14.4914C6.33682 14.2275 6.18256 13.8845 6.10171 13.4998H5.79754C5.04234 13.4998 4.42516 13.4999 3.93792 13.4344C3.42862 13.3659 2.98707 13.2177 2.6346 12.8652C2.28214 12.5128 2.13395 12.0712 2.06548 11.5619C1.99997 11.0747 1.99998 10.4575 2 9.70231V6.29737C1.99998 5.54216 1.99997 4.92499 2.06548 4.43776C2.13395 3.92845 2.28214 3.4869 2.6346 3.13443C2.98707 2.78197 3.42862 2.63378 3.93792 2.56531C4.42517 2.4998 5.04232 2.49982 5.79754 2.49983L6.10171 2.49983C6.18256 2.11514 6.33682 1.77211 6.64831 1.50824C7.01732 1.19564 7.45962 1.11896 7.93666 1.13049C8.39151 1.14148 8.96104 1.23641 9.64983 1.35123ZM6 11.5566C5.99999 11.9006 5.99998 12.2152 6.00762 12.4998H5.83333C5.03353 12.4998 4.48397 12.4988 4.07117 12.4433C3.67276 12.3897 3.4774 12.2938 3.34171 12.1581C3.20602 12.0224 3.11013 11.8271 3.05656 11.4287C3.00106 11.0159 3 10.4663 3 9.6665V6.33317C3 5.53336 3.00106 4.9838 3.05656 4.571C3.11013 4.17259 3.20602 3.97723 3.34171 3.84154C3.4774 3.70585 3.67276 3.60996 4.07117 3.55639C4.48397 3.50089 5.03353 3.49983 5.83333 3.49983H6.00762C5.99998 3.78443 5.99999 4.0991 6 4.4431V11.5566ZM7.9125 2.13019C7.55098 2.12146 7.39718 2.18443 7.29469 2.27126C7.1922 2.35808 7.1048 2.49944 7.05398 2.85748C7.00119 3.22935 7 3.73515 7 4.48105V11.5186C7 12.2645 7.00119 12.7703 7.05398 13.1422C7.1048 13.5002 7.1922 13.6416 7.29469 13.7284C7.39718 13.8152 7.55098 13.8782 7.9125 13.8695C8.288 13.8604 8.78711 13.7784 9.52287 13.6558L11.0754 13.397C11.8862 13.2619 12.4485 13.1672 12.87 13.0418C13.2782 12.9203 13.4941 12.7861 13.6445 12.6085C13.795 12.4308 13.8919 12.1958 13.9446 11.7733C13.9991 11.3369 14 10.7667 14 9.94465V6.055C14 5.23299 13.9991 4.66276 13.9446 4.22638C13.8919 3.80384 13.795 3.56882 13.6445 3.39118C13.4941 3.21355 13.2782 3.07939 12.87 2.95789C12.4485 2.8324 11.8862 2.73776 11.0754 2.60262L9.52287 2.34387C8.78711 2.22124 8.288 2.13927 7.9125 2.13019Z" fill="#E92D1F"/>
</svg>
