<svg width="24" height="24" viewBox="0 0 24 24" fill="none" xmlns="http://www.w3.org/2000/svg">
    <path
        d="M5.03223 3.25C5.47202 3.24998 5.85179 3.25011 6.16309 3.27832C6.49212 3.30817 6.81792 3.37447 7.125 3.55176C7.46694 3.74921 7.75079 4.03306 7.94824 4.375C8.12553 4.68207 8.19183 5.00788 8.22168 5.33691C8.24817 5.62915 8.24894 5.9818 8.24902 6.3877C8.44152 6.32702 8.63869 6.29631 8.83691 6.27832C9.14821 6.25011 9.52799 6.24998 9.96777 6.25H10.0322C10.472 6.24998 10.8518 6.25011 11.1631 6.27832C11.4921 6.30817 11.8179 6.37447 12.125 6.55176C12.4669 6.74921 12.7508 7.03306 12.9482 7.375C13.1255 7.68207 13.1918 8.00788 13.2217 8.33691C13.2318 8.44828 13.2371 8.56883 13.2412 8.69727C13.2678 8.66142 13.2954 8.62612 13.3242 8.5918C13.5521 8.32009 13.8358 8.14654 14.1348 8.00586C14.4174 7.87287 14.7736 7.7432 15.1865 7.59277C15.1966 7.58912 15.2067 7.58473 15.2168 7.58105C15.2269 7.57739 15.2371 7.57396 15.2471 7.57031C15.6607 7.4196 16.0179 7.29007 16.3203 7.20996C16.64 7.12529 16.9689 7.07513 17.3184 7.13672C17.7072 7.20531 18.0715 7.37511 18.374 7.62891C18.6459 7.85703 18.8193 8.14112 18.96 8.44043C19.0929 8.72352 19.2227 9.08054 19.373 9.49414L21.791 16.1436C21.9412 16.5565 22.0706 16.9128 22.1504 17.2148C22.2348 17.5343 22.2843 17.8636 22.2227 18.2129C22.154 18.6014 21.984 18.9653 21.7305 19.2676C21.5026 19.5391 21.2188 19.7129 20.9199 19.8535C20.6372 19.9865 20.281 20.1162 19.8682 20.2666L19.8076 20.2891C19.3943 20.4397 19.0376 20.5693 18.7354 20.6494C18.4156 20.7341 18.086 20.7833 17.7363 20.7217C17.3475 20.6531 16.9832 20.4833 16.6807 20.2295C16.4089 20.0014 16.2353 19.7172 16.0947 19.418C15.9618 19.1349 15.832 18.7778 15.6816 18.3643L13.2637 11.7158C13.2589 11.7028 13.2547 11.6896 13.25 11.6768L13.25 17.5322C13.25 17.972 13.2499 18.3518 13.2217 18.6631C13.1918 18.9921 13.1255 19.3179 12.9482 19.625C12.7508 19.9669 12.4669 20.2508 12.125 20.4482C11.8179 20.6255 11.4921 20.6918 11.1631 20.7217C10.8518 20.7499 10.472 20.75 10.0322 20.75H9.96777C9.52799 20.75 9.14821 20.7499 8.83691 20.7217C8.50788 20.6918 8.18207 20.6255 7.875 20.4482C7.74025 20.3704 7.615 20.2787 7.5 20.1758C7.385 20.2787 7.25975 20.3704 7.125 20.4482C6.81793 20.6255 6.49212 20.6918 6.16309 20.7217C5.8518 20.7499 5.47201 20.75 5.03223 20.75H4.96777C4.52799 20.75 4.1482 20.7499 3.83691 20.7217C3.50788 20.6918 3.18207 20.6255 2.875 20.4482C2.53306 20.2508 2.24921 19.9669 2.05176 19.625C1.87447 19.3179 1.80817 18.9921 1.77832 18.6631C1.75011 18.3518 1.74998 17.972 1.75 17.5322L1.75 6.46777C1.74998 6.02799 1.75011 5.64821 1.77832 5.33691C1.80817 5.00788 1.87447 4.68207 2.05176 4.375C2.24921 4.03306 2.53306 3.74921 2.875 3.55176C3.18207 3.37447 3.50788 3.30817 3.83691 3.27832C4.14821 3.25011 4.52799 3.24998 4.96777 3.25H5.03223ZM5 4.75C4.51889 4.75 4.20811 4.75112 3.97266 4.77246C3.74761 4.79287 3.66586 4.827 3.625 4.85059C3.51102 4.9164 3.4164 5.01102 3.35059 5.125C3.327 5.16586 3.29287 5.24761 3.27246 5.47266C3.25112 5.70811 3.25 6.01889 3.25 6.5L3.25 17.5C3.25 17.9811 3.25112 18.2919 3.27246 18.5273C3.29287 18.7524 3.327 18.8341 3.35059 18.875C3.4164 18.989 3.51102 19.0836 3.625 19.1494C3.66586 19.173 3.74761 19.2071 3.97266 19.2275C4.20811 19.2489 4.51889 19.25 5 19.25C5.48111 19.25 5.79189 19.2489 6.02734 19.2275C6.25239 19.2071 6.33414 19.173 6.375 19.1494C6.48898 19.0836 6.5836 18.989 6.64941 18.875C6.673 18.8341 6.70713 18.7524 6.72754 18.5273C6.74888 18.2919 6.75 17.9811 6.75 17.5L6.75 6.5C6.75 6.01889 6.74888 5.70811 6.72754 5.47266C6.70713 5.24761 6.673 5.16586 6.64941 5.125C6.5836 5.01102 6.48898 4.9164 6.375 4.85059C6.33414 4.827 6.2524 4.79287 6.02734 4.77246C5.79189 4.75112 5.48111 4.75 5 4.75ZM10 7.75C9.51889 7.75 9.20811 7.75112 8.97266 7.77246C8.74761 7.79287 8.66586 7.827 8.625 7.85059C8.51102 7.9164 8.4164 8.01102 8.35059 8.125C8.327 8.16586 8.29287 8.24761 8.27246 8.47266C8.25112 8.70811 8.25 9.01889 8.25 9.5L8.25 17.5C8.25 17.9811 8.25112 18.2919 8.27246 18.5273C8.29287 18.7524 8.327 18.8341 8.35059 18.875C8.4164 18.989 8.51102 19.0836 8.625 19.1494C8.66586 19.173 8.74761 19.2071 8.97266 19.2275C9.20811 19.2489 9.51889 19.25 10 19.25C10.4811 19.25 10.7919 19.2489 11.0273 19.2275C11.2524 19.2071 11.3341 19.173 11.375 19.1494C11.489 19.0836 11.5836 18.989 11.6494 18.875C11.673 18.8341 11.7071 18.7524 11.7275 18.5273C11.7489 18.2919 11.75 17.9811 11.75 17.5L11.75 9.5C11.75 9.01889 11.7489 8.70811 11.7275 8.47266C11.7071 8.24761 11.673 8.16586 11.6494 8.125C11.5836 8.01102 11.489 7.9164 11.375 7.85059C11.3341 7.827 11.2524 7.79287 11.0273 7.77246C10.7919 7.75112 10.4811 7.75 10 7.75ZM17.0576 8.61426C17.011 8.6061 16.9222 8.6014 16.7041 8.65918C16.4754 8.71977 16.1829 8.82541 15.7305 8.99023C15.2786 9.15486 14.9873 9.26267 14.7734 9.36328C14.5692 9.45937 14.504 9.51949 14.4736 9.55566C14.3891 9.65643 14.3324 9.77772 14.3096 9.90723C14.3014 9.95371 14.2968 10.0423 14.3545 10.2607C14.4149 10.4892 14.5202 10.7814 14.6846 11.2334L17.0801 17.8223C17.2445 18.2744 17.3516 18.5662 17.4521 18.7803C17.5484 18.9851 17.6093 19.0507 17.6455 19.0811C17.7463 19.1655 17.8676 19.2223 17.9971 19.2451C18.0436 19.2533 18.1322 19.2571 18.3506 19.1992C18.5793 19.1386 18.8718 19.033 19.3242 18.8682C19.7761 18.7035 20.0684 18.5967 20.2822 18.4961C20.4864 18.4 20.5517 18.3399 20.582 18.3037C20.6665 18.203 20.7222 18.0815 20.7451 17.9521C20.7533 17.9057 20.7579 17.8169 20.7002 17.5986C20.6398 17.3702 20.5344 17.0779 20.3701 16.626L17.9746 10.0371C17.8101 9.58459 17.7031 9.29229 17.6025 9.07812C17.5066 8.87401 17.4463 8.80875 17.4102 8.77832C17.3093 8.69372 17.1872 8.63712 17.0576 8.61426Z"
        fill="#73B226" />
</svg>
