<svg width="29" height="28" viewBox="0 0 29 28" fill="none" xmlns="http://www.w3.org/2000/svg">
<path d="M9.16864 21L23.8383 21C23.8342 22.0845 23.8131 22.8932 23.706 23.5323C23.5785 24.2933 23.3453 24.6962 22.9877 24.9833C22.63 25.2703 22.1279 25.4574 21.1796 25.5597C20.2034 25.665 18.9097 25.6667 17.0547 25.6667H11.8854C10.0304 25.6667 8.73661 25.665 7.76045 25.5597C6.81218 25.4574 6.31002 25.2703 5.95235 24.9833C5.59469 24.6962 5.36149 24.2933 5.234 23.5323C5.22443 23.4752 5.21554 23.4167 5.20729 23.3567C5.16052 23.0169 5.13714 22.847 5.28478 22.4464C5.43242 22.0457 5.49643 21.9829 5.62445 21.8571C6.00409 21.4843 6.52478 21.2083 7.12374 21.0795C7.46244 21.0067 7.90441 21 9.16864 21Z" fill="#73B326"/>
<path opacity="0.5" d="M6.02004 3.18892C6.37634 2.82962 6.87657 2.59536 7.8212 2.46728C8.7936 2.33544 10.0824 2.33337 11.9303 2.33337L17.0797 2.33337C18.9276 2.33337 20.2164 2.33544 21.1888 2.46728C22.1334 2.59536 22.6337 2.82962 22.99 3.18892C23.3462 3.54822 23.5785 4.05267 23.7055 5.00528C23.8363 5.98589 23.8383 7.28556 23.8383 9.14906L23.8383 21L9.16864 21C7.90441 21 7.46244 21.0067 7.12374 21.0795C6.52478 21.2083 6.00409 21.4843 5.62445 21.8572C5.49643 21.9829 5.43242 22.0458 5.28478 22.4464C5.20008 22.6762 5.17166 22.8301 5.17166 22.9838L5.17166 9.14906C5.17166 7.28556 5.17371 5.98589 5.30445 5.00528C5.43145 4.05267 5.66375 3.54822 6.02004 3.18892Z" fill="#73B326"/>
<path d="M8.96333 8.16663C8.96333 7.68338 9.35508 7.29163 9.83833 7.29163L19.1717 7.29163C19.6549 7.29163 20.0467 7.68338 20.0467 8.16663C20.0467 8.64988 19.6549 9.04163 19.1717 9.04163L9.83833 9.04163C9.35508 9.04163 8.96333 8.64988 8.96333 8.16663Z" fill="white"/>
<path d="M9.83833 11.375C9.35508 11.375 8.96333 11.7667 8.96333 12.25C8.96333 12.7332 9.35508 13.125 9.83833 13.125H15.6717C16.1549 13.125 16.5467 12.7332 16.5467 12.25C16.5467 11.7667 16.1549 11.375 15.6717 11.375H9.83833Z" fill="white"/>
</svg>
