<svg width="24" height="24" viewBox="0 0 24 24" fill="none" xmlns="http://www.w3.org/2000/svg">
    <path fill-rule="evenodd" clip-rule="evenodd"
        d="M18.9968 5.04301C20.0978 5.62801 21.0148 6.50402 21.6478 7.57602C22.5065 9.02958 22.5817 10.8219 22.7317 14.3937C22.7749 15.4348 22.7984 16.0008 22.5248 16.53C22.3228 16.921 22.0138 17.241 21.6328 17.457C21.1396 17.7365 20.5991 17.7494 19.6535 17.75C19.3258 18.9023 18.2636 19.749 17.0078 19.749C15.7517 19.749 14.6892 18.9018 14.3618 17.749H9.65381C9.32645 18.9018 8.26393 19.749 7.00782 19.749C5.75091 19.749 4.68785 18.9007 4.3612 17.7468C3.19351 17.7343 2.483 17.6508 1.92079 17.092C1.29773 16.4699 1.26108 15.6689 1.25892 14.2687L1.25879 10.1151C1.25301 10.0775 1.25 10.0391 1.25 10C1.25 9.96086 1.25301 9.92242 1.25879 9.8849V7.99901C1.25879 6.43102 1.25879 5.56703 1.91979 4.90703C2.50303 4.32644 3.24664 4.25813 4.49411 4.25009L13.201 4.25C16.0818 4.25814 17.6629 4.33409 18.9968 5.04301ZM7.00782 15.749C6.35609 15.749 5.8189 16.2509 5.76268 16.8884C5.76802 16.9245 5.77079 16.9614 5.77079 16.999C5.77079 17.0366 5.76802 17.0735 5.76268 17.1096C5.8189 17.7471 6.35609 18.249 7.00782 18.249C7.69521 18.249 8.2552 17.6906 8.25781 17.0038C8.2552 16.3074 7.69521 15.749 7.00782 15.749ZM17.0078 15.749C16.3188 15.749 15.7578 16.31 15.7578 16.999C15.7578 17.688 16.3188 18.249 17.0078 18.249C17.6955 18.249 18.2556 17.6902 18.2578 17.003C18.2556 16.3078 17.6955 15.749 17.0078 15.749ZM15.4067 10.7503L2.75879 10.75L2.75886 14.2121C2.75977 15.1828 2.77352 15.8237 2.9798 16.029C3.15294 16.2014 3.63482 16.2387 4.36245 16.2468C4.69056 15.0951 5.75251 14.249 7.00782 14.249C8.26393 14.249 9.32645 15.0962 9.65381 16.249H14.3618C14.6892 15.0962 15.7517 14.249 17.0078 14.249C18.2639 14.249 19.3264 15.0962 19.6538 16.249C20.301 16.2486 20.7303 16.2424 20.8928 16.15C21.0208 16.078 21.1238 15.971 21.1918 15.84C21.2826 15.6644 21.2629 15.1901 21.233 14.4708C21.2063 13.8358 21.1824 13.2668 21.1565 12.7494C20.8897 12.7531 20.5141 12.757 20.11 12.757C19.321 12.757 18.424 12.742 18.017 12.681C17.2796 12.5712 16.7881 12.0901 16.2187 11.5326L16.112 11.423C16.0682 11.3711 16.027 11.3203 15.9874 11.2714C15.9727 11.2533 15.9583 11.2355 15.944 11.218C15.563 10.75 15.533 10.75 15.368 10.75L15.4067 10.7503ZM16.7578 5.90745V9.865C16.8813 9.99371 16.994 10.1321 17.1058 10.2692C17.15 10.324 17.194 10.378 17.241 10.434L17.265 10.457C17.736 10.918 17.993 11.16 18.24 11.197C18.6552 11.2594 20.0429 11.2632 21.0604 11.2501C20.9463 9.91171 20.7615 9.02534 20.3558 8.33801C19.8628 7.50401 19.1498 6.82201 18.2928 6.36701C17.8682 6.14161 17.3752 5.99842 16.7578 5.90745ZM12.9175 5.74939L11.7578 5.74902V9.25H15.2578V5.78285C14.5947 5.75654 13.8245 5.75069 12.9175 5.74939ZM10.2578 5.74902H6.75782V9.25H10.2578V5.74902ZM5.25782 5.74902L4.60249 5.74955C3.74063 5.75295 3.17119 5.77849 2.97879 5.97002C2.75879 6.19002 2.75879 6.91002 2.75879 7.99902V9.25H5.25782V5.74902Z"
        fill="#308CBA" />
</svg>
