<svg width="25" height="24" viewBox="0 0 25 24" fill="none" xmlns="http://www.w3.org/2000/svg">
    <path d="M9.125 17.25C8.71079 17.25 8.375 17.5858 8.375 18C8.375 18.4142 8.71079 18.75 9.125 18.75H15.125C15.5392 18.75 15.875 18.4142 15.875 18C15.875 17.5858 15.5392 17.25 15.125 17.25H9.125Z" fill="white"/>
    <path fill-rule="evenodd" clip-rule="evenodd" d="M12.125 1.25C11.4169 1.25 10.7735 1.45282 10.0756 1.79224C9.40085 2.12035 8.62142 2.60409 7.64786 3.20832L5.58128 4.4909C4.66009 5.06261 3.92244 5.5204 3.3539 5.95581C2.76515 6.40669 2.31295 6.86589 1.98631 7.46263C1.66035 8.05812 1.51357 8.69174 1.44319 9.4407C1.37499 10.1665 1.37499 11.0541 1.375 12.1672V13.7799C1.37499 15.6837 1.37498 17.1866 1.5277 18.3616C1.68437 19.567 2.01356 20.5401 2.75736 21.3094C3.50458 22.0824 4.45546 22.4277 5.63261 22.5914C6.77349 22.75 8.23056 22.75 10.0668 22.75H14.1831C16.0194 22.75 17.4765 22.75 18.6174 22.5914C19.7945 22.4277 20.7454 22.0824 21.4926 21.3094C22.2364 20.5401 22.5656 19.567 22.7223 18.3616C22.875 17.1866 22.875 15.6838 22.875 13.7799V12.1672C22.875 11.0541 22.875 10.1665 22.8068 9.4407C22.7364 8.69174 22.5896 8.05812 22.2637 7.46263C21.9371 6.86589 21.4849 6.40669 20.8961 5.95581C20.3276 5.5204 19.5899 5.06262 18.6687 4.49091L16.6021 3.20831C15.6286 2.60409 14.8491 2.12034 14.1744 1.79224C13.4765 1.45282 12.8331 1.25 12.125 1.25ZM8.40453 4.50412C9.42029 3.87371 10.1345 3.43153 10.7315 3.1412C11.3132 2.85833 11.7252 2.75 12.125 2.75C12.5248 2.75 12.9368 2.85833 13.5185 3.14119C14.1155 3.43153 14.8297 3.87371 15.8455 4.50412L17.8455 5.74537C18.8063 6.34169 19.4809 6.76135 19.9841 7.1467C20.4737 7.52164 20.7553 7.83106 20.9479 8.18285C21.1412 8.53589 21.254 8.94865 21.3134 9.58104C21.3742 10.2286 21.375 11.0458 21.375 12.2039V13.725C21.375 15.6959 21.3735 17.1012 21.2348 18.1683C21.0986 19.2163 20.842 19.8244 20.4142 20.2669C19.9899 20.7058 19.4121 20.9664 18.4108 21.1057C17.3852 21.2483 16.0325 21.25 14.125 21.25H10.125C8.21747 21.25 6.86483 21.2483 5.83922 21.1057C4.83786 20.9664 4.26014 20.7058 3.83579 20.2669C3.40801 19.8244 3.15142 19.2163 3.01519 18.1683C2.87649 17.1012 2.875 15.6959 2.875 13.725V12.2039C2.875 11.0458 2.87576 10.2286 2.93661 9.58104C2.99603 8.94865 3.10885 8.53589 3.30209 8.18285C3.49465 7.83106 3.77633 7.52164 4.26592 7.1467C4.7691 6.76135 5.44369 6.34169 6.40453 5.74537L8.40453 4.50412Z" fill="white"/>
</svg>
