<svg width="21" height="20" viewBox="0 0 21 20" fill="none" xmlns="http://www.w3.org/2000/svg">
<path fill-rule="evenodd" clip-rule="evenodd" d="M0.7692 5.82274C0.25 6.77128 0.25 7.91549 0.25 10.2039V11.725C0.25 15.6258 0.25 17.5763 1.42157 18.7881C2.59315 20 4.47876 20 8.25 20H12.25C16.0212 20 17.9069 20 19.0784 18.7881C20.25 17.5763 20.25 15.6258 20.25 11.725V10.2039C20.25 7.91549 20.25 6.77128 19.7308 5.82274C19.2116 4.87421 18.2631 4.28551 16.366 3.10812L14.366 1.86687C12.3606 0.62229 11.3579 0 10.25 0C9.14206 0 8.13939 0.62229 6.13403 1.86687L4.13403 3.10813C2.23695 4.28551 1.2884 4.87421 0.7692 5.82274ZM7.25 15.25C6.83579 15.25 6.5 15.5858 6.5 16C6.5 16.4142 6.83579 16.75 7.25 16.75H13.25C13.6642 16.75 14 16.4142 14 16C14 15.5858 13.6642 15.25 13.25 15.25H7.25Z" fill="#26BCAD"/>
</svg>
