<svg width="18" height="18" viewBox="0 0 18 18" fill="none" xmlns="http://www.w3.org/2000/svg">
<path fill-rule="evenodd" clip-rule="evenodd" d="M9 0.0415039C9.4025 0.0415039 9.85525 0.110637 10.2262 0.353454C10.6377 0.622829 10.875 1.05886 10.875 1.604C10.875 1.99082 10.7573 2.39099 10.5657 2.73676C13.1928 3.40526 15.1768 5.71763 15.3255 8.54284C15.3331 8.68659 15.3387 8.82425 15.3441 8.95692C15.3626 9.40817 15.3787 9.80109 15.4604 10.1776C15.5582 10.6274 15.7389 10.9811 16.1066 11.2568C16.7477 11.7377 17.125 12.4923 17.125 13.2938C17.125 14.4448 16.219 15.4582 15 15.4582H12.0625C11.7729 16.8846 10.5118 17.9582 9 17.9582C7.48817 17.9582 6.22706 16.8846 5.93751 15.4582H3C1.78099 15.4582 0.875 14.4448 0.875 13.2938C0.875 12.5496 1.20034 11.8457 1.76014 11.364L1.89344 11.2568C2.26107 10.9811 2.44187 10.6274 2.53957 10.1776C2.60499 9.87639 2.62836 9.56468 2.64454 9.22101L2.65587 8.95692C2.6613 8.82425 2.66693 8.68659 2.6745 8.54284C2.8232 5.71763 4.80714 3.40526 7.43425 2.73676C7.24271 2.39099 7.125 1.99082 7.125 1.604C7.125 1.05886 7.36233 0.622829 7.77383 0.353454C8.14475 0.110637 8.5975 0.0415039 9 0.0415039ZM10.7683 15.4582H7.23169C7.48908 16.1864 8.18358 16.7082 9 16.7082C9.81642 16.7082 10.5109 16.1864 10.7683 15.4582ZM9 3.7915C6.29589 3.7915 4.0649 5.90816 3.92278 8.6085C3.91718 8.715 3.91271 8.82775 3.90807 8.945C3.8896 9.41167 3.86832 9.94909 3.7611 10.4428C3.61886 11.0978 3.31517 11.7531 2.64344 12.2568C2.31707 12.5016 2.125 12.8858 2.125 13.2938C2.125 13.8063 2.52201 14.2082 3 14.2082H15C15.478 14.2082 15.875 13.8063 15.875 13.2938C15.875 12.8858 15.6829 12.5016 15.3566 12.2568C14.6848 11.7531 14.3812 11.0978 14.2389 10.4428C14.1531 10.0478 14.1224 9.62489 14.104 9.23258L14.0919 8.94492C14.0872 8.82759 14.0828 8.71492 14.0772 8.6085C13.9351 5.90816 11.7041 3.7915 9 3.7915ZM9 1.2915C8.71217 1.2915 8.53992 1.34595 8.45842 1.39929C8.42483 1.42129 8.41025 1.44037 8.40133 1.45724C8.392 1.47505 8.375 1.51739 8.375 1.604C8.375 1.79755 8.46067 2.05998 8.61775 2.2713C8.77942 2.48886 8.92758 2.5415 9 2.5415C9.07242 2.5415 9.22058 2.48886 9.38225 2.2713C9.53933 2.05998 9.625 1.79755 9.625 1.604C9.625 1.51739 9.608 1.47505 9.59867 1.45724C9.58975 1.44037 9.57517 1.42129 9.54158 1.39929C9.46008 1.34595 9.28783 1.2915 9 1.2915Z" fill="#F4A261"/>
</svg>
