<svg width="211" height="210" viewBox="0 0 211 210" fill="none" xmlns="http://www.w3.org/2000/svg">
<path d="M181.167 172.003C176.31 163.189 165.92 158.855 156.722 156.231C149.985 154.323 143.116 152.919 136.171 152.031C119.507 149.902 102.245 150.314 95.8142 151.341C94.4335 151.561 91.0892 152.031 91.0892 152.031C91.0892 152.031 98.1883 154.573 101.337 156.756C102.249 157.364 104.651 159.573 104.651 159.573L104.734 156.148C104.734 156.148 106.004 159.298 106.612 160.899C111.364 156.673 116.667 154.463 122.523 152.943C127.688 151.591 139.125 152.004 139.621 152.75C139.787 152.999 141.996 157.916 141.969 157.916C143.42 157.769 144.881 157.76 146.333 157.888C146.831 158.164 148.24 162.446 148.433 162.39C150.179 161.983 151.974 161.825 153.764 161.921C154.261 162.142 162.769 177.389 164.232 180.483C165.006 182.113 168.238 190.759 168.238 190.759C168.238 190.759 156.83 189.571 153.571 189.101C150.532 188.687 132.715 188.217 122.772 190.51C120.451 191.035 109.817 193.66 109.624 194.073C109.016 195.206 107.442 196.946 106.199 196.974C102.249 197.057 101.807 194.018 101.861 194.045C100.07 193.394 98.2445 192.84 96.3928 192.389C94.1269 191.891 83.4379 187.5 61.0078 188.963C57.9964 189.157 42.9152 190.62 42.6328 191.228C44.5116 187.028 46.3991 182.828 48.2954 178.628C50.0363 174.788 57.0251 161.862 56.8309 161.806C58.5577 161.956 60.2913 162.011 62.0242 161.972C62.0242 161.972 63.7924 159.016 64.3447 158.297C65.0629 157.386 69.5096 157.606 69.3721 158.021C69.7312 156.999 70.0903 155.949 70.4483 154.928C44.7044 159.32 24.4027 173.434 29.2369 183.24C34.2632 193.433 46.1965 198.239 79.6474 203.018C108.706 207.047 138.311 203.869 165.852 193.764C173.71 190.924 186.614 181.889 181.167 172.003Z" fill="#F4A261"/>
<path d="M109.626 20.5225C109.433 19.5008 107.996 18.9475 107.443 19.9702C107.333 20.1917 107.885 20.302 108.161 20.6054C108.804 21.3404 107.216 21.9872 106.201 21.9872C105.256 21.9589 104.074 21.3236 104.764 20.2463C104.902 20.0531 104.653 19.8326 104.46 19.9429C104.278 20.0723 104.126 20.2389 104.013 20.4316C103.9 20.6244 103.83 20.8389 103.807 21.0609C103.783 21.2829 103.807 21.5073 103.877 21.7194C103.947 21.9314 104.061 22.1261 104.212 22.2907C105.789 24.0851 110.129 22.8367 109.626 20.5225Z" fill="#191919"/>
<path d="M138.215 44.748C135.466 45.483 133.162 47.0654 126.945 48.7527C110.03 53.3632 92.0822 52.4341 75.7334 46.1015C75.43 45.9902 75.2368 46.4879 75.5129 46.6265C93.3535 54.8952 115.338 54.849 132.691 48.422C134.818 47.7723 136.831 46.7938 138.657 45.5219C139.043 45.2174 138.629 44.6378 138.215 44.748Z" fill="#191919"/>
<path d="M89.6551 130.183C89.6495 129.509 89.4155 128.857 88.9915 128.332C88.9681 128.312 88.9399 128.297 88.9095 128.29C88.8791 128.283 88.8474 128.283 88.8173 128.292C88.7872 128.3 88.7596 128.316 88.737 128.337C88.7145 128.359 88.6976 128.386 88.688 128.415C88.4476 129.216 89.044 129.82 88.6607 132.31C88.6391 132.397 88.6405 132.489 88.6648 132.576C88.6891 132.663 88.7354 132.742 88.7993 132.806C88.8631 132.87 88.9424 132.917 89.0294 132.941C89.1164 132.965 89.2082 132.967 89.296 132.945C89.6699 132.863 90.0257 132.713 90.346 132.503C90.5078 133.274 90.8376 134.001 91.312 134.63C91.3679 134.686 91.4391 134.725 91.5167 134.741C91.5944 134.757 91.6751 134.75 91.7487 134.721C91.8224 134.691 91.8857 134.641 91.9309 134.576C91.9761 134.51 92.0011 134.433 92.0029 134.354C91.8643 133.222 91.3676 132.172 91.2017 131.012C91.0596 129.757 91.041 128.491 91.1461 127.232C91.1461 126.927 90.7324 126.9 90.6211 127.149C90.1744 128.52 90.0143 129.967 90.1507 131.402C89.3894 131.784 89.9176 131.95 89.6551 130.183Z" fill="#191919"/>
<path d="M93.0246 124.714C92.6267 125.843 92.2791 127.89 93.5496 128.691C93.7894 128.822 94.0564 128.896 94.3294 128.906C94.6025 128.917 94.8742 128.864 95.1233 128.751C95.3723 128.639 95.5918 128.47 95.7646 128.258C95.9374 128.047 96.0587 127.798 96.119 127.531C96.5327 126.399 96.7815 124.548 96.036 123.527C95.2905 122.505 92.9973 122.256 93.053 123.969C93.06 124.052 93.0898 124.131 93.1392 124.198C93.1885 124.265 93.2555 124.317 93.3327 124.349C93.4099 124.38 93.4942 124.39 93.5764 124.376C93.6586 124.363 93.7355 124.327 93.7985 124.272C94.7372 123.388 95.2895 124.41 95.2622 125.322C95.2622 127.902 94.3224 128.126 93.8541 127.527C93.3008 126.836 93.5223 125.567 93.5769 124.797C93.6347 124.438 93.1328 124.409 93.0246 124.714Z" fill="#191919"/>
<path d="M99.1577 118.526C99.1241 118.251 98.6327 118.25 98.5771 118.526C98.403 119.993 98.3108 121.469 98.3009 122.946C98.3009 123.03 98.3203 123.113 98.3577 123.188C98.395 123.263 98.4493 123.329 98.5161 123.38C98.583 123.43 98.6608 123.465 98.7433 123.481C98.8258 123.497 98.9109 123.493 98.9918 123.471L99.9862 123.056C100.087 123.584 100.283 124.09 100.566 124.548C100.787 124.907 101.477 124.797 101.423 124.328C101.284 122.897 100.461 121.703 100.787 118.609C100.784 118.529 100.752 118.453 100.698 118.394C100.643 118.335 100.57 118.297 100.491 118.287C100.411 118.278 100.331 118.296 100.263 118.34C100.196 118.383 100.147 118.45 100.124 118.526C99.8892 119.652 99.7965 120.803 99.8476 121.951C99.6865 122.004 99.5296 122.069 99.3782 122.145C99.3509 120.93 99.3047 119.717 99.1577 118.526Z" fill="#191919"/>
<path d="M78.2743 150.485C76.5172 150.603 74.7866 150.975 73.1367 151.591C72.3597 151.918 71.6577 152.4 71.0737 153.008C70.4896 153.616 70.0358 154.337 69.7399 155.126C67.557 159.851 61.1215 174.103 60.1545 176.478C59.7717 177.404 59.4215 178.344 59.1045 179.295C58.9386 179.82 58.7454 181.173 58.275 181.533C57.8329 181.837 58.0818 182.688 58.6624 182.472C66.7263 179.283 75.5687 178.618 84.0189 180.566C91.4687 182.262 98.456 185.571 104.489 190.26C105.096 190.758 105.98 189.929 105.373 189.376C99.6271 184.238 91.6177 180.976 84.1627 179.296C76.0089 177.447 67.4924 178.024 59.662 180.954C60.5808 177.829 59.9109 179.101 68.2248 161.204C71.3391 154.53 71.1112 152.948 76.2352 152.006C80.7467 151.175 85.3791 151.258 89.858 152.25C94.3369 153.242 98.5711 155.122 102.31 157.781C102.614 157.974 102.973 157.504 102.697 157.284C99.2866 154.577 95.3683 152.581 91.1737 151.414C86.979 150.246 82.593 149.93 78.2743 150.485Z" fill="#191919"/>
<path d="M125.149 178.55C121.548 179.381 118.081 180.71 114.847 182.5C111.891 184.102 108.547 186.035 106.643 188.905C106.311 189.402 107.029 189.872 107.443 189.513C112.748 184.955 118.851 181.309 125.785 179.873C134.185 178.132 143.132 179.182 151.281 181.668C151.403 181.7 151.531 181.7 151.653 181.667C151.775 181.633 151.887 181.569 151.976 181.48C152.065 181.39 152.13 181.279 152.163 181.157C152.196 181.035 152.196 180.906 152.164 180.784C149.922 173.029 146.915 165.515 143.187 158.355C144.085 158.618 145.014 158.757 145.949 158.769C148.131 163.599 158.324 185.728 158.517 186.174C154.317 185.455 150.175 184.461 145.917 184.046C131.969 182.644 118.031 184.406 105.702 191.311C105.636 191.352 105.589 191.417 105.571 191.492C105.553 191.567 105.566 191.646 105.606 191.712C105.647 191.778 105.711 191.825 105.787 191.843C105.862 191.861 105.941 191.848 106.007 191.808C113.908 187.663 122.617 185.288 131.529 184.847C144.991 184.06 152.345 186.701 159.428 187.803C159.55 187.832 159.677 187.829 159.797 187.795C159.918 187.761 160.027 187.696 160.116 187.608C160.205 187.519 160.269 187.409 160.303 187.289C160.338 187.168 160.34 187.041 160.312 186.919C159.98 185.344 156.14 177.889 155.091 175.649C153.019 171.257 147.55 159.435 146.832 157.916C146.784 157.827 146.712 157.754 146.624 157.705C146.536 157.656 146.436 157.633 146.335 157.64C145.388 157.75 144.429 157.722 143.49 157.557C143.236 157.492 142.978 157.445 142.717 157.418C139.733 151.882 140.156 151.874 137.827 151.728C125.955 150.791 116.784 151.85 107.774 159.573C107.553 159.766 107.857 160.153 108.078 159.959C114.436 155.393 122.019 152.843 129.844 152.64C131.751 152.612 138.02 152.889 138.769 153.385C139.46 153.856 144.238 163.465 145.868 167.28C147.646 171.402 149.177 175.626 150.454 179.93C142.275 177.611 133.439 176.766 125.149 178.55Z" fill="#191919"/>
<path d="M101.56 160.071C101.468 160.124 101.392 160.201 101.34 160.293C101.287 160.385 101.259 160.489 101.259 160.596C101.259 160.702 101.287 160.806 101.34 160.898C101.392 160.99 101.468 161.067 101.56 161.121C102.206 161.557 102.737 162.145 103.106 162.832C102.501 162.775 101.89 162.841 101.311 163.025C101.199 163.061 101.101 163.128 101.026 163.218C100.951 163.308 100.904 163.418 100.889 163.534C100.875 163.65 100.894 163.768 100.944 163.874C100.995 163.98 101.074 164.069 101.173 164.131C102.124 164.78 102.81 165.749 103.106 166.861C102.195 166.695 102.334 167.276 102.554 167.442C101.594 167.193 100.587 167.193 99.6267 167.442C99.5312 167.471 99.4449 167.525 99.3759 167.597C99.3069 167.669 99.2576 167.758 99.2326 167.855C99.2077 167.952 99.2079 168.053 99.2334 168.15C99.2588 168.247 99.3085 168.335 99.3779 168.408C100.839 169.805 101.914 171.556 102.5 173.491C102.112 173.491 101.726 173.518 101.339 173.518C101.228 173.519 101.119 173.554 101.027 173.617C100.935 173.68 100.864 173.768 100.823 173.872C100.781 173.975 100.771 174.089 100.794 174.198C100.817 174.307 100.872 174.407 100.952 174.485C101.457 175.011 101.885 175.607 102.222 176.253C101.357 176.03 100.457 175.974 99.5711 176.087C99.1563 176.142 98.7699 176.694 99.1847 177.026C100.11 177.752 100.873 178.665 101.422 179.706C100.98 179.623 100.538 179.568 100.123 179.485C100.023 179.46 99.9184 179.466 99.8215 179.501C99.7246 179.535 99.6399 179.598 99.5782 179.68C99.5164 179.762 99.4802 179.861 99.4741 179.964C99.468 180.066 99.4922 180.169 99.5438 180.258C100.925 182.55 102.274 184.926 103.825 187.135C103.875 187.209 103.952 187.261 104.04 187.281C104.127 187.3 104.219 187.286 104.296 187.24C104.374 187.194 104.431 187.121 104.456 187.035C104.481 186.949 104.473 186.856 104.433 186.776C103.411 184.705 102.195 182.689 101.035 180.7C101.422 180.783 101.836 180.837 102.222 180.92C102.581 180.976 103.052 180.673 102.886 180.258C102.445 179.113 101.788 178.063 100.952 177.165C101.65 177.218 102.333 177.396 102.969 177.69C103.383 177.883 103.963 177.551 103.797 177.053C103.535 176.174 103.113 175.35 102.554 174.622C102.803 174.622 103.052 174.595 103.3 174.595C103.386 174.592 103.471 174.57 103.548 174.531C103.625 174.491 103.693 174.435 103.745 174.366C103.798 174.298 103.835 174.218 103.854 174.134C103.873 174.049 103.872 173.961 103.853 173.877C103.362 171.85 102.385 169.973 101.007 168.408C101.692 168.375 102.374 168.508 102.996 168.795C103.355 168.96 104.239 168.933 103.853 168.048C104.46 168.021 104.543 167.662 104.488 167.303C104.314 166.081 103.763 164.943 102.913 164.048C103.29 164.071 103.661 164.145 104.018 164.268C104.121 164.295 104.229 164.294 104.332 164.266C104.435 164.238 104.528 164.184 104.603 164.108C104.679 164.033 104.733 163.94 104.761 163.837C104.79 163.734 104.791 163.626 104.764 163.523C104.458 162.512 103.907 161.592 103.162 160.843C103.67 160.783 104.184 160.89 104.626 161.148C105.012 161.341 105.566 161.009 105.4 160.54C105.189 159.915 105.068 159.264 105.041 158.606C105.395 159.662 105.907 160.659 106.56 161.562C106.14 165.208 105.842 168.854 105.537 172.528C105.054 176.47 104.778 180.434 104.709 184.405C104.709 184.764 105.317 184.875 105.371 184.488C105.947 180.616 106.316 176.716 106.477 172.804C106.78 168.772 107.139 164.71 107.305 160.677C106.29 159.254 105.635 157.604 105.4 155.872C105.317 155.319 104.543 155.43 104.405 155.872C103.949 157.137 103.844 158.502 104.101 159.822C103.682 159.69 103.242 159.645 102.805 159.687C102.368 159.73 101.945 159.86 101.56 160.071Z" fill="#191919"/>
<path d="M67.2262 157.087C65.8727 157.087 64.1875 157.281 63.4462 158.523C61.5184 161.714 53.1226 176.931 50.1595 185.731C50.1314 185.842 50.1326 185.958 50.1629 186.068C50.1932 186.179 50.2516 186.279 50.3324 186.36C50.4132 186.44 50.5135 186.499 50.6237 186.529C50.7338 186.559 50.8499 186.561 50.9606 186.533C68.6206 181.806 87.3929 183.611 103.829 191.615C104.327 191.863 104.769 191.118 104.271 190.869C88.0824 182.46 69.3449 180.372 51.7019 185.01C53.5247 178.964 56.8123 173.25 59.7407 167.722C61.0112 165.346 64.3534 159.186 64.6022 158.882C65.4106 158.479 66.2954 158.254 67.1978 158.219C67.2722 158.221 67.3461 158.208 67.4155 158.182C67.4849 158.155 67.5483 158.115 67.6022 158.064C67.656 158.012 67.6993 157.951 67.7294 157.883C67.7596 157.815 67.7761 157.742 67.778 157.668C67.7798 157.593 67.767 157.519 67.7403 157.45C67.7136 157.381 67.6735 157.317 67.6222 157.263C67.571 157.209 67.5096 157.166 67.4417 157.136C67.3737 157.106 67.3005 157.089 67.2262 157.087Z" fill="#191919"/>
<path d="M154.512 161.673C154.43 161.569 154.325 161.488 154.205 161.435C154.084 161.381 153.953 161.359 153.822 161.368C153.048 161.345 152.273 161.364 151.501 161.424C150.676 161.446 149.853 161.539 149.043 161.7C148.767 161.783 148.739 162.252 149.043 162.308C149.913 162.428 150.79 162.492 151.668 162.501C152.414 162.529 153.325 162.39 153.873 162.446C157.886 170.15 161.756 175.921 167.546 190.4C151.811 187.784 131.034 187.113 115.948 191.421C113.625 191.927 111.377 192.735 109.264 193.825C108.882 194.749 108.182 195.505 107.289 195.956C106.397 196.407 105.373 196.523 104.402 196.283C103.949 196.133 103.541 195.872 103.213 195.525C102.885 195.178 102.648 194.755 102.524 194.294C102.331 193.715 97.6069 192.25 95.3977 191.643C79.7338 187.11 59.2997 187.74 43.4153 190.427C49.4003 175.557 53.0176 170.293 57.1157 162.335C58.4854 162.448 59.862 162.448 61.2317 162.335C61.2984 162.317 61.3574 162.278 61.3994 162.223C61.4413 162.168 61.4641 162.101 61.4641 162.031C61.4641 161.962 61.4413 161.895 61.3994 161.84C61.3574 161.785 61.2984 161.746 61.2317 161.727C59.8808 161.483 58.5153 161.326 57.1441 161.258C56.9225 161.258 56.7241 161.285 56.3975 161.7C53.0281 165.981 50.7905 171.119 48.3871 175.98C45.9995 180.769 43.8064 185.653 41.813 190.619C41.5652 191.249 41.8687 191.503 42.7801 191.366C43.6915 191.228 63.0272 189.161 73.2752 189.459C90.1057 189.935 98.6065 193.995 101.34 194.652C101.562 195.349 101.949 195.981 102.469 196.496C102.988 197.011 103.624 197.392 104.323 197.608C105.453 197.875 106.642 197.712 107.658 197.15C108.674 196.588 109.445 195.668 109.819 194.569C114.068 192.868 118.484 191.618 122.995 190.84C138.163 188.154 152.153 189.845 168.102 191.365C168.682 191.419 169.318 191.253 169.069 190.618C165.838 182.265 159.269 168.554 154.512 161.673Z" fill="#191919"/>
<path d="M171.859 55.0202C171.669 53.7687 171.122 52.5985 170.284 51.6497C167.617 48.4608 158.647 44.1999 151.445 44.8551C150.691 42.4041 149.113 40.2894 146.977 38.8696C144.842 37.4497 142.281 36.8122 139.729 37.0652C134.028 26.2659 121.144 16.9566 106.809 16.8212C106.78 15.8825 106.615 8.28571 106.615 8.28571L105.289 8.64481C105.289 8.64481 105.62 15.9371 105.676 16.7939C99.0832 17.028 92.6607 18.9487 87.022 22.3724C81.3833 25.7962 76.7167 30.6087 73.4681 36.3501C68.4134 36.1296 62.7235 39.582 60.9553 44.3301C54.4747 45.125 47.4103 47.2397 42.973 52.0371C41.7417 53.2345 40.8379 54.7275 40.348 56.3736C38.3593 61.1795 41.6185 68.4486 41.6185 68.4486C41.6185 68.4486 51.4801 78.0036 78.4388 81.5967C79.1854 84.0547 81.9196 85.6014 84.5162 86.1264C93.8255 88.0406 113.111 87.4421 124.264 86.2923C128.646 85.8545 132.769 84.9956 135.01 81.182C157.964 77.7296 169.537 70.2441 171.774 62.8406C172.182 60.2517 172.211 57.6173 171.859 55.0202ZM46.6196 68.8896C46.5633 68.9844 46.4861 69.0651 46.3937 69.1253C46.3014 69.1856 46.1964 69.2238 46.087 69.2371C45.9775 69.2504 45.8665 69.2384 45.7624 69.202C45.6583 69.1656 45.564 69.1058 45.4867 69.0272C44.7685 68.4192 44.7685 67.2873 44.6855 66.4022C44.5934 65.3701 44.6967 64.3299 44.99 63.3362C45.0224 63.2258 45.0897 63.1288 45.1818 63.0599C45.2738 62.9909 45.3858 62.9537 45.5008 62.9537C45.6159 62.9537 45.7278 62.9909 45.8199 63.0599C45.912 63.1288 45.9793 63.2258 46.0117 63.3362C46.2332 64.3305 46.4317 65.3249 46.564 66.3465C46.8369 67.1695 46.8563 68.0555 46.6196 68.8896ZM50.7629 70.4909C50.6632 71.0736 49.9061 71.1272 49.547 70.8227C48.8015 70.1874 48.7186 68.9726 48.581 68.0328C48.4104 67.0842 48.3916 66.1145 48.5254 65.16C48.6083 64.6634 49.2992 64.7736 49.4368 65.16C49.7686 66.0714 49.9345 67.0385 50.2379 67.9782C50.5961 68.7668 50.7754 69.6248 50.7629 70.4909ZM132.663 82.3968C130.708 84.2868 127.773 84.7992 125.149 85.1268C114.027 86.3964 102.811 86.646 91.6436 85.8723C87.3491 85.5657 81.4586 85.593 79.4636 81.812C92.9992 83.5445 116.234 83.8689 133.52 81.4529C133.252 81.783 132.966 82.0982 132.663 82.3968ZM82.5779 75.9603C82.6934 75.2159 83.8768 75.408 83.8768 76.1262C83.8768 78.0855 84.6254 78.8006 84.1256 79.6343C84.0306 79.7881 83.8801 79.8997 83.7053 79.946C83.5305 79.9922 83.3446 79.9697 83.1859 79.8831C82.1495 79.3193 82.4141 77.0597 82.5832 75.9603H82.5779ZM160.666 71.0159C160.639 71.1086 160.583 71.19 160.506 71.2479C160.429 71.3058 160.335 71.3372 160.238 71.3372C160.141 71.3372 160.048 71.3058 159.97 71.2479C159.893 71.19 159.837 71.1086 159.81 71.0159C159.644 69.7799 159.616 68.5294 159.727 67.2873C159.727 67.1737 159.772 67.0647 159.852 66.9844C159.932 66.904 160.041 66.8589 160.155 66.8589C160.269 66.8589 160.378 66.904 160.458 66.9844C160.538 67.0647 160.583 67.1737 160.583 67.2873C160.759 68.5224 160.788 69.7738 160.672 71.0159H160.666ZM164.368 69.9113C164.328 70.0331 164.255 70.1414 164.157 70.2236C164.059 70.3058 163.939 70.3586 163.812 70.3759C163.685 70.3933 163.556 70.3744 163.44 70.3216C163.323 70.2687 163.223 70.184 163.153 70.0772C162.332 68.9106 162.879 65.6472 163.097 64.3022C163.141 64.1544 163.236 64.0271 163.366 63.9431C163.495 63.8592 163.65 63.824 163.803 63.844C163.956 63.864 164.097 63.9377 164.2 64.0521C164.304 64.1664 164.363 64.3139 164.368 64.4681C164.103 67.6202 164.83 68.8077 164.373 69.9113H164.368ZM169.036 58.3613C160.934 67.9436 147.38 70.0457 135.365 72.1446C123.265 74.2719 68.1593 77.5584 45.3985 61.841C40.012 58.1124 41.9734 55.1294 42.4154 54.5771C45.3712 50.8202 47.0564 49.8521 48.7406 48.9417C52.4975 46.8974 56.6156 46.2905 60.6739 45.2132C60.1801 47.0045 60.2969 48.9093 61.0057 50.627C61.2818 51.3179 62.3591 51.0407 62.1103 50.3225C61.5124 48.5704 61.4929 46.6726 62.0546 44.9087C63.6538 51.0659 81.6224 55.6701 87.8594 56.7632C108.062 60.1421 126.244 57.7281 142.11 51.0176C142.496 50.8517 142.22 50.1891 141.805 50.3267C133.747 53.1385 125.428 55.1375 116.973 56.2938C104.74 57.6787 92.3564 56.8176 80.4328 53.7528C73.8178 51.95 59.9987 47.6051 63.6937 41.8196C66.2074 38.4774 69.8267 37.9524 73.0303 37.2069C71.9948 39.2187 71.1886 41.3404 70.6268 43.5321C70.5449 43.8356 70.9859 43.9469 71.0972 43.6707C77.0906 27.6876 91.4966 18.2607 105.763 18.2607C105.819 19.1599 105.929 20.0547 106.095 20.9403C106.149 21.2994 106.62 21.1608 106.674 20.8574C106.776 20.0048 106.822 19.1465 106.813 18.288C112.542 18.4864 118.149 19.9988 123.201 22.7084C128.253 25.4179 132.615 29.2522 135.949 33.9152C137.792 36.6672 139.347 39.6012 140.59 42.6711C140.894 43.362 141.944 42.8654 141.778 42.1745C141.35 40.6411 140.776 39.1521 140.065 37.7277C141.652 37.7579 143.214 38.1256 144.648 38.8066C146.081 39.4875 147.353 40.4659 148.379 41.6768C150.507 44.3018 150.866 47.5326 150.562 50.7929C146.463 53.0813 142.229 55.1199 137.883 56.8976C127.191 60.7962 117.549 61.4 105.925 61.6761C93.7552 61.9827 82.643 61.2498 71.1476 56.9511C70.8998 56.8461 70.7056 57.2829 70.9544 57.3932C81.1468 61.9512 92.6107 62.807 103.66 62.7482C119.2 62.7093 131.213 61.7937 144.595 55.3982C146.86 54.2936 151.115 51.8345 151.363 51.1163C152.001 49.3505 152.078 47.4307 151.584 45.6195C155.573 45.8588 159.49 46.7937 163.158 48.3821C164.926 49.1689 166.58 50.191 168.074 51.4208C168.782 52.0368 169.396 52.7531 169.897 53.547C171.25 55.5452 169.673 57.6168 169.041 58.3655L169.036 58.3613Z" fill="#191919"/>
<path d="M132.028 43.0628C132.269 43.1803 132.532 43.2455 132.799 43.2542C133.067 43.2628 133.334 43.2147 133.582 43.1129C133.83 43.0112 134.053 42.8581 134.238 42.6638C134.422 42.4695 134.564 42.2383 134.653 41.9855C134.761 40.8707 134.57 39.7473 134.1 38.7305C133.859 38.1833 133.423 37.7451 132.877 37.5003C132.331 37.2554 131.714 37.2212 131.145 37.4043C128.464 38.3945 130.206 42.3393 132.028 43.0628Z" fill="#F4A261"/>
<path d="M121.089 43.2004C121.289 43.6487 121.578 44.0514 121.94 44.384C122.301 44.7165 122.726 44.9719 123.189 45.1345C124.541 45.4106 124.956 43.6424 124.818 42.6754C124.712 41.5489 124.269 40.4804 123.547 39.6094C123.356 39.4238 123.124 39.2849 122.87 39.2035C122.616 39.1221 122.347 39.1003 122.083 39.14C121.685 39.2193 121.325 39.4322 121.064 39.7436C120.803 40.055 120.656 40.4462 120.647 40.8526C120.634 41.657 120.785 42.4556 121.089 43.2004Z" fill="#F4A261"/>
<path d="M110.841 46.4322C111.182 46.5598 111.554 46.5778 111.905 46.4836C112.257 46.3895 112.571 46.188 112.802 45.9072C113.11 45.4197 113.273 44.8544 113.271 44.2776C113.327 43.5048 112.968 39.7752 111.228 40.6026C108.769 41.8196 110.09 46.112 110.841 46.4322Z" fill="#F4A261"/>
<path d="M92.7213 45.8242C94.0737 46.1896 95.7873 42.648 95.5941 41.074C95.6008 40.8142 95.5426 40.5567 95.4248 40.325C95.307 40.0933 95.1334 39.8946 94.9195 39.7468C94.7057 39.599 94.4584 39.5068 94.2 39.4786C93.9416 39.4504 93.6802 39.487 93.4395 39.5851C91.5348 40.2445 90.3987 45.1984 92.7213 45.8242Z" fill="#F4A261"/>
<path d="M78.3856 42.4821C78.765 42.6197 79.1774 42.638 79.5675 42.5344C79.9575 42.4308 80.3065 42.2103 80.5675 41.9025C82.9426 38.5047 81.5892 37.1513 81.2028 37.0725C78.4612 36.2619 76.2048 41.2452 78.3856 42.4821Z" fill="#F4A261"/>
<path d="M132.028 85.7946C134.705 95.7696 148.762 139.225 148.794 139.326C149.519 141.831 150.386 144.294 151.391 146.701C151.584 147.121 152.164 146.806 152.081 146.397C151.253 141.938 134.949 91.7596 132.663 85.6024C132.524 85.2412 131.917 85.3798 132.028 85.7946Z" fill="#F4A261"/>
<path d="M54.9946 154.574C57.4327 149.429 78.8538 90.4587 79.9374 87.1753C80.0424 86.8719 79.5783 86.7606 79.468 87.0367C72.3406 103.969 66.154 121.316 59.7175 138.497C57.7845 143.662 55.5469 148.855 54.0549 154.159C53.9121 154.711 54.7405 155.098 54.9946 154.574Z" fill="#F4A261"/>
<path d="M77.5559 114.024C76.8715 116.095 76.3181 118.208 75.899 120.349C75.866 120.466 75.8809 120.592 75.9405 120.698C76.0001 120.804 76.0994 120.883 76.2166 120.916C76.3339 120.949 76.4594 120.934 76.5657 120.874C76.6719 120.815 76.7501 120.715 76.7831 120.598C77.5195 118.55 78.1194 116.456 78.5786 114.328C80.7311 106.47 81.6362 102.852 83.3572 95.8768C83.4401 95.5177 82.8878 95.3518 82.8049 95.7109C81.589 99.7985 78.1145 112.009 77.5559 114.024Z" fill="#F4A261"/>
<path d="M99.5438 99.3302C99.5018 97.3121 99.1847 95.3528 99.2677 93.3085C99.295 92.8391 98.5495 92.8391 98.5211 93.3085C98.3511 95.3501 98.472 97.4056 98.8802 99.4132C98.8986 99.4946 98.9467 99.5662 99.0149 99.6141C99.0832 99.662 99.1669 99.6828 99.2496 99.6724C99.3324 99.6621 99.4084 99.6213 99.4627 99.5581C99.5171 99.4948 99.546 99.4136 99.5438 99.3302Z" fill="#F4A261"/>
<path d="M129.02 106.069C132.134 116.156 136.965 136.164 138.854 140.569C139.074 141.066 139.71 140.674 139.654 140.237C139.129 136.83 133.276 118.272 129.679 105.876C129.545 105.461 128.887 105.651 129.02 106.069Z" fill="#F4A261"/>
<path d="M90.4561 147.446C90.6766 147.751 91.2289 147.475 91.0084 147.143C78.7948 128.225 92.0143 104.492 105.454 109.218C101.788 112.373 99.8305 120.302 103.249 126.868C102.587 126.841 101.896 126.785 101.232 126.758C101.128 126.758 101.024 126.781 100.93 126.827C100.836 126.873 100.754 126.94 100.69 127.022C100.626 127.105 100.581 127.202 100.561 127.304C100.54 127.407 100.543 127.513 100.57 127.614C100.874 128.359 101.15 129.106 101.454 129.851C100.791 129.879 100.156 129.879 99.4924 129.907C99.4092 129.906 99.3267 129.922 99.2497 129.954C99.1726 129.985 99.1026 130.031 99.0435 130.09C98.9844 130.148 98.9376 130.218 98.9056 130.295C98.8736 130.372 98.8571 130.454 98.8571 130.537C98.9401 131.669 99.023 132.802 99.106 133.962C97.9184 133.879 96.7025 133.824 95.515 133.741C95.3555 133.746 95.204 133.812 95.0912 133.925C94.9783 134.038 94.9125 134.189 94.907 134.349C94.8241 135.868 94.7411 137.415 94.6309 138.934C93.5263 138.851 92.4259 138.768 91.316 138.768C91.1784 138.773 91.0477 138.83 90.9503 138.927C90.8529 139.025 90.796 139.155 90.791 139.293C90.9853 140.923 90.9853 142.58 91.1785 144.21C91.183 144.288 91.217 144.361 91.2735 144.414C91.33 144.467 91.4048 144.497 91.4824 144.497C91.5601 144.497 91.6348 144.467 91.6913 144.414C91.7478 144.361 91.7819 144.288 91.7864 144.21C91.8683 142.774 91.7864 141.337 91.8137 139.873C92.9183 140.011 94.0513 140.067 95.1832 140.149C95.2599 140.151 95.3362 140.137 95.4075 140.109C95.4788 140.08 95.5435 140.038 95.5979 139.984C95.6522 139.929 95.6949 139.865 95.7234 139.793C95.752 139.722 95.7657 139.646 95.7638 139.569C95.8468 138.05 95.957 136.503 96.0673 134.984C97.3105 135.067 98.5537 135.15 99.7685 135.26C99.9364 135.258 100.097 135.191 100.216 135.072C100.334 134.953 100.402 134.793 100.404 134.625C100.321 133.47 100.266 132.333 100.183 131.172C100.929 131.144 101.674 131.144 102.388 131.117C102.491 131.115 102.592 131.09 102.684 131.043C102.775 130.995 102.854 130.928 102.915 130.845C102.976 130.762 103.017 130.666 103.035 130.565C103.053 130.464 103.047 130.36 103.018 130.261C102.742 129.543 102.493 128.852 102.218 128.134L104.483 128.3C104.607 128.296 104.729 128.26 104.835 128.196C104.941 128.131 105.029 128.04 105.09 127.932C105.151 127.824 105.183 127.701 105.183 127.577C105.183 127.453 105.151 127.331 105.09 127.222C103.857 125.222 103.111 122.961 102.91 120.62C102.71 118.279 103.061 115.923 103.935 113.742C104.618 112.275 105.412 110.862 106.31 109.516C108.156 110.364 109.609 111.886 110.37 113.77C110.428 113.904 110.522 114.02 110.642 114.104C110.762 114.188 110.903 114.237 111.049 114.246C111.196 114.255 111.341 114.222 111.47 114.153C111.599 114.083 111.706 113.979 111.779 113.853C112.027 113.328 115.701 104.959 118.85 101.561C123.961 96.0646 128.436 94.2113 128.629 93.5225C128.961 92.3077 119.238 94.7941 114.624 96.3407C102.991 100.202 96.7844 105.21 90.4561 113.527C83.693 122.268 82.7785 137.006 90.4561 147.446Z" fill="#F4A261"/>
<path d="M104.46 8.75613C104.768 9.0765 105.175 9.2832 105.615 9.3425C106.055 9.40179 106.502 9.31019 106.884 9.08264C107.265 8.85508 107.558 8.505 107.715 8.08949C107.872 7.67399 107.883 7.21758 107.748 6.79473C107.661 6.43059 107.474 6.09801 107.208 5.83458C106.942 5.57115 106.607 5.38737 106.242 5.30403C105.877 5.22068 105.496 5.24109 105.143 5.36294C104.789 5.4848 104.476 5.70324 104.239 5.99358C103.903 6.37298 103.724 6.86728 103.742 7.37433C103.79 7.91138 104.048 8.40774 104.46 8.75613Z" fill="#F4A261"/>
</svg>
