<svg width="40" height="40" viewBox="0 0 40 40" fill="none" xmlns="http://www.w3.org/2000/svg">
    <rect x="0.5" y="0.5" width="39" height="39" rx="11.5" stroke="#E3E3E3" />
    <path fill-rule="evenodd" clip-rule="evenodd"
        d="M20 11.0416C20.4025 11.0416 20.8553 11.1108 21.2262 11.3536C21.6377 11.623 21.875 12.059 21.875 12.6041C21.875 12.9909 21.7573 13.3911 21.5657 13.7369C24.1928 14.4054 26.1768 16.7178 26.3255 19.543C26.3331 19.6867 26.3387 19.8244 26.3441 19.957C26.3626 20.4083 26.3787 20.8012 26.4604 21.1777C26.5582 21.6275 26.7389 21.9812 27.1066 22.257C27.7477 22.7378 28.125 23.4925 28.125 24.2939C28.125 25.445 27.219 26.4583 26 26.4583H23.0625C22.7729 27.8847 21.5118 28.9583 20 28.9583C18.4882 28.9583 17.2271 27.8847 16.9375 26.4583H14C12.781 26.4583 11.875 25.445 11.875 24.2939C11.875 23.5497 12.2003 22.8458 12.7601 22.3641L12.8934 22.257C13.2611 21.9812 13.4419 21.6275 13.5396 21.1777C13.605 20.8765 13.6284 20.5648 13.6445 20.2211L13.6559 19.957C13.6613 19.8244 13.6669 19.6867 13.6745 19.543C13.8232 16.7178 15.8071 14.4054 18.4342 13.7369C18.2427 13.3911 18.125 12.9909 18.125 12.6041C18.125 12.059 18.3623 11.623 18.7738 11.3536C19.1447 11.1108 19.5975 11.0416 20 11.0416ZM21.7683 26.4583H18.2317C18.4891 27.1865 19.1836 27.7083 20 27.7083C20.8164 27.7083 21.5109 27.1865 21.7683 26.4583ZM20 14.7916C17.2959 14.7916 15.0649 16.9083 14.9228 19.6086C14.9172 19.7151 14.9127 19.8279 14.9081 19.9451C14.8896 20.4118 14.8683 20.9492 14.7611 21.443C14.6189 22.098 14.3152 22.7532 13.6434 23.257C13.3171 23.5017 13.125 23.8859 13.125 24.2939C13.125 24.8064 13.522 25.2083 14 25.2083H26C26.478 25.2083 26.875 24.8064 26.875 24.2939C26.875 23.8859 26.6829 23.5017 26.3566 23.257C25.6848 22.7532 25.3812 22.098 25.2389 21.443C25.1531 21.048 25.1224 20.625 25.104 20.2327L25.0919 19.945C25.0872 19.8277 25.0828 19.715 25.0772 19.6086C24.9351 16.9083 22.7041 14.7916 20 14.7916ZM20 12.2916C19.7122 12.2916 19.5399 12.3461 19.4584 12.3994C19.4248 12.4214 19.4102 12.4405 19.4013 12.4574C19.392 12.4752 19.375 12.5175 19.375 12.6041C19.375 12.7977 19.4607 13.0601 19.6177 13.2714C19.7794 13.489 19.9276 13.5416 20 13.5416C20.0724 13.5416 20.2206 13.489 20.3822 13.2714C20.5393 13.0601 20.625 12.7977 20.625 12.6041C20.625 12.5175 20.608 12.4752 20.5987 12.4574C20.5897 12.4405 20.5752 12.4214 20.5416 12.3994C20.4601 12.3461 20.2878 12.2916 20 12.2916Z"
        fill="#F4A261" />
</svg>
