<svg width="29" height="28" viewBox="0 0 29 28" fill="none" xmlns="http://www.w3.org/2000/svg">
<rect x="0.5" width="28" height="28" rx="14" fill="white" fill-opacity="0.16"/>
<path d="M14.5872 20.1631C14.863 20.1538 15.0943 20.3697 15.1038 20.6455C15.1132 20.9214 14.8972 21.1525 14.6214 21.1621C14.4561 21.1678 14.2896 21.1678 14.1243 21.1621C13.8484 21.1526 13.6315 20.9214 13.6409 20.6455C13.6504 20.3695 13.8825 20.1536 14.1585 20.1631C14.3009 20.168 14.4448 20.168 14.5872 20.1631ZM16.8557 19.6348C17.1073 19.5212 17.4031 19.6324 17.5169 19.8838C17.6305 20.1355 17.5185 20.4322 17.2669 20.5459C17.1321 20.6068 16.9949 20.6633 16.8557 20.7158C16.5974 20.8132 16.3087 20.6831 16.2112 20.4248C16.1138 20.1664 16.2448 19.8777 16.5032 19.7803C16.6225 19.7353 16.7402 19.687 16.8557 19.6348ZM11.2356 19.8887C11.349 19.6369 11.6449 19.5244 11.8968 19.6377C12.008 19.6878 12.1209 19.7349 12.2356 19.7783C12.4939 19.876 12.6244 20.1646 12.5266 20.4229C12.4288 20.6809 12.1403 20.8105 11.8821 20.7129C11.7484 20.6623 11.6163 20.6082 11.4866 20.5498C11.2349 20.4365 11.1225 20.1404 11.2356 19.8887ZM18.7981 18.2373C18.986 18.0351 19.3019 18.0232 19.5042 18.2109C19.7065 18.3989 19.7185 18.7157 19.5305 18.918C19.4159 19.0414 19.2963 19.1605 19.1731 19.2754C18.9713 19.4635 18.6554 19.4527 18.4671 19.251C18.2787 19.0491 18.2896 18.7323 18.4915 18.5439C18.5972 18.4453 18.6997 18.3432 18.7981 18.2373ZM9.27176 18.25C9.4726 18.0605 9.78929 18.0697 9.97879 18.2705C10.063 18.3597 10.1501 18.4463 10.2395 18.5303C10.4408 18.7193 10.4501 19.036 10.261 19.2373C10.072 19.4384 9.75622 19.4486 9.55496 19.2598C9.45081 19.162 9.34929 19.061 9.25125 18.957C9.06177 18.7562 9.07091 18.4395 9.27176 18.25ZM20.0315 16.2412C20.1282 15.9826 20.4164 15.8516 20.6751 15.9482C20.9337 16.045 21.0647 16.3332 20.968 16.5918C20.9065 16.7566 20.8392 16.9185 20.7659 17.0771C20.6501 17.3278 20.3525 17.4371 20.1018 17.3213C19.8513 17.2054 19.7419 16.9078 19.8577 16.6572C19.9206 16.5212 19.9787 16.3825 20.0315 16.2412ZM8.0784 15.9756C8.33652 15.878 8.6251 16.0076 8.72293 16.2656C8.76899 16.3873 8.81878 16.5072 8.87234 16.625C8.98666 16.8763 8.87553 17.1727 8.6243 17.2871C8.37294 17.4015 8.07653 17.2904 7.96219 17.0391C7.8997 16.9017 7.84114 16.7621 7.78738 16.6201C7.6896 16.3619 7.82016 16.0734 8.0784 15.9756ZM14.5003 9.5C14.7763 9.50016 15.0003 9.72396 15.0003 10V12.585C15.4264 12.7356 15.7637 13.0739 15.9143 13.5H17.1663C17.4424 13.5 17.6663 13.7239 17.6663 14C17.6663 14.2761 17.4424 14.5 17.1663 14.5H15.9143C15.7084 15.0825 15.1532 15.4999 14.5003 15.5C13.6718 15.5 13.0003 14.8284 13.0003 14C13.0003 13.3469 13.4177 12.7909 14.0003 12.585V10C14.0003 9.72386 14.2241 9.5 14.5003 9.5ZM7.85184 13.4199C8.12785 13.4285 8.34479 13.6595 8.33621 13.9355C8.33223 14.064 8.33221 14.1931 8.33621 14.3213C8.34483 14.5973 8.12785 14.8283 7.85184 14.8369C7.57603 14.8453 7.34583 14.6284 7.33719 14.3525C7.33254 14.2034 7.33256 14.0535 7.33719 13.9043C7.34576 13.6284 7.57597 13.4115 7.85184 13.4199ZM14.5003 13.5C14.2241 13.5 14.0003 13.7239 14.0003 14C14.0003 14.2761 14.2241 14.5 14.5003 14.5C14.7763 14.4998 15.0003 14.276 15.0003 14C15.0003 13.724 14.7763 13.5002 14.5003 13.5ZM14.5003 6.83301C18.4582 6.83317 21.6663 10.0421 21.6663 14C21.6663 14.2761 21.4424 14.5 21.1663 14.5C20.8903 14.4998 20.6663 14.276 20.6663 14C20.6663 10.5943 17.9059 7.83317 14.5003 7.83301C14.2241 7.83301 14.0003 7.60915 14.0003 7.33301C14.0005 7.05702 14.2242 6.83301 14.5003 6.83301ZM7.9534 11.2344C8.06701 10.9827 8.36382 10.8708 8.61551 10.9844C8.86683 11.0981 8.9789 11.394 8.86551 11.6455C8.81291 11.762 8.76331 11.8807 8.71805 12.001C8.62077 12.2592 8.33279 12.39 8.07449 12.293C7.81604 12.1957 7.68524 11.9069 7.7825 11.6484C7.83526 11.5083 7.89213 11.3701 7.9534 11.2344ZM9.56082 8.98926C9.76235 8.80047 10.0791 8.81116 10.2679 9.0127C10.4565 9.21424 10.4459 9.53002 10.2444 9.71875C10.1495 9.80768 10.0581 9.90028 9.96902 9.99512C9.78009 10.1964 9.46333 10.2064 9.26199 10.0176C9.06066 9.82858 9.05053 9.51188 9.23953 9.31055C9.34322 9.2001 9.45026 9.09283 9.56082 8.98926ZM11.9085 7.53125C12.1672 7.43459 12.4554 7.56652 12.552 7.8252C12.6486 8.0838 12.5176 8.37208 12.2591 8.46875C12.1274 8.51793 11.9975 8.57097 11.8704 8.62891C11.6192 8.74331 11.3229 8.6329 11.2083 8.38184C11.0937 8.13057 11.2051 7.83328 11.4563 7.71875C11.6044 7.65128 11.7551 7.58856 11.9085 7.53125Z" fill="white"/>
</svg>
