<svg width="24" height="24" viewBox="0 0 24 24" fill="none" xmlns="http://www.w3.org/2000/svg">
    <path
        d="M5 18.25C5.41421 18.25 5.75 18.5858 5.75 19C5.75 19.4142 5.41421 19.75 5 19.75H3C2.58579 19.75 2.25 19.4142 2.25 19C2.25 18.5858 2.58579 18.25 3 18.25H5ZM21 18.25C21.4142 18.25 21.75 18.5858 21.75 19C21.75 19.4142 21.4142 19.75 21 19.75H9C8.58579 19.75 8.25 19.4142 8.25 19C8.25 18.5858 8.58579 18.25 9 18.25H21ZM5 11.25C5.41421 11.25 5.75 11.5858 5.75 12C5.75 12.4142 5.41421 12.75 5 12.75H3C2.58579 12.75 2.25 12.4142 2.25 12C2.25 11.5858 2.58579 11.25 3 11.25H5ZM21 11.25C21.4142 11.25 21.75 11.5858 21.75 12C21.75 12.4142 21.4142 12.75 21 12.75H9C8.58579 12.75 8.25 12.4142 8.25 12C8.25 11.5858 8.58579 11.25 9 11.25H21ZM5 4.25C5.41421 4.25 5.75 4.58579 5.75 5C5.75 5.41421 5.41421 5.75 5 5.75H3C2.58579 5.75 2.25 5.41421 2.25 5C2.25 4.58579 2.58579 4.25 3 4.25H5ZM21 4.25C21.4142 4.25 21.75 4.58579 21.75 5C21.75 5.41421 21.4142 5.75 21 5.75H9C8.58579 5.75 8.25 5.41421 8.25 5C8.25 4.58579 8.58579 4.25 9 4.25H21Z"
        fill="#FF8811" />
</svg>
