<svg width="29" height="28" viewBox="0 0 29 28" fill="none" xmlns="http://www.w3.org/2000/svg">
<path d="M18.9183 8.74996C18.9183 11.0051 17.0902 12.8333 14.835 12.8333C12.5798 12.8333 10.7517 11.0051 10.7517 8.74996C10.7517 6.4948 12.5798 4.66663 14.835 4.66663C17.0902 4.66663 18.9183 6.4948 18.9183 8.74996Z" fill="#6735DC"/>
<path opacity="0.5" d="M23.585 8.75004C23.585 10.3609 22.2792 11.6667 20.6683 11.6667C19.0575 11.6667 17.7517 10.3609 17.7517 8.75004C17.7517 7.13921 19.0575 5.83337 20.6683 5.83337C22.2792 5.83337 23.585 7.13921 23.585 8.75004Z" fill="#6735DC"/>
<path opacity="0.5" d="M6.085 8.75004C6.085 10.3609 7.39084 11.6667 9.00167 11.6667C10.6125 11.6667 11.9183 10.3609 11.9183 8.75004C11.9183 7.13921 10.6125 5.83337 9.00167 5.83337C7.39084 5.83337 6.085 7.13921 6.085 8.75004Z" fill="#6735DC"/>
<path d="M21.835 19.25C21.835 21.5051 18.701 23.3333 14.835 23.3333C10.969 23.3333 7.835 21.5051 7.835 19.25C7.835 16.9948 10.969 15.1666 14.835 15.1666C18.701 15.1666 21.835 16.9948 21.835 19.25Z" fill="#6735DC"/>
<path opacity="0.5" d="M26.5017 19.25C26.5017 20.8609 24.4123 22.1667 21.835 22.1667C19.2577 22.1667 17.1683 20.8609 17.1683 19.25C17.1683 17.6392 19.2577 16.3334 21.835 16.3334C24.4123 16.3334 26.5017 17.6392 26.5017 19.25Z" fill="#6735DC"/>
<path opacity="0.5" d="M3.16833 19.25C3.16833 20.8609 5.25767 22.1667 7.835 22.1667C10.4123 22.1667 12.5017 20.8609 12.5017 19.25C12.5017 17.6392 10.4123 16.3334 7.835 16.3334C5.25767 16.3334 3.16833 17.6392 3.16833 19.25Z" fill="#6735DC"/>
</svg>
