<svg width="24" height="24" viewBox="0 0 24 24" fill="none" xmlns="http://www.w3.org/2000/svg">
    <path fill-rule="evenodd" clip-rule="evenodd"
        d="M12 10.25C12.4142 10.25 12.75 10.5858 12.75 11C12.75 11.4142 12.4142 11.75 12 11.75H6.75V22C6.75 22.4142 6.41422 22.75 6 22.75C5.58579 22.75 5.25 22.4142 5.25 22V17.75H2.75V22C2.75 22.4142 2.41422 22.75 2 22.75C1.58579 22.75 1.25 22.4142 1.25 22V12.9551C1.24995 12.5223 1.24958 12.1255 1.29297 11.8027C1.34077 11.4473 1.45368 11.0717 1.7627 10.7627C2.07172 10.4537 2.44726 10.3408 2.80274 10.293C3.12551 10.2496 3.52234 10.25 3.95508 10.25H12ZM16.0518 1.25C16.9502 1.24997 17.7001 1.25011 18.2949 1.33008C18.9225 1.41451 19.489 1.60031 19.9443 2.05567C20.3997 2.51102 20.5855 3.07747 20.6699 3.70508C20.7499 4.29986 20.75 5.04976 20.75 5.94824V12.0518C20.75 12.9502 20.7499 13.7001 20.6699 14.2949C20.5855 14.9225 20.3997 15.489 19.9443 15.9443C19.489 16.3997 18.9225 16.5855 18.2949 16.6699C17.7001 16.7499 16.9502 16.75 16.0518 16.75H9C8.58579 16.75 8.25 16.4142 8.25 16C8.25001 15.5858 8.58579 15.25 9 15.25H16C16.964 15.25 17.6117 15.2485 18.0947 15.1836C18.5561 15.1216 18.7535 15.0141 18.8838 14.8838C19.0141 14.7535 19.1216 14.5561 19.1836 14.0947C19.2485 13.6117 19.25 12.964 19.25 12V6C19.25 5.03599 19.2485 4.38831 19.1836 3.90527C19.1216 3.44389 19.0141 3.24652 18.8838 3.11621C18.7535 2.9859 18.5561 2.87845 18.0947 2.81641C17.6117 2.75146 16.964 2.75 16 2.75H2C1.58579 2.75 1.25 2.41421 1.25 2C1.25001 1.58579 1.58579 1.25 2 1.25H16.0518ZM4 11.75C3.50756 11.75 3.21364 11.752 3.00293 11.7803C2.90638 11.7933 2.85772 11.8084 2.83594 11.8174C2.83096 11.8194 2.82712 11.8213 2.8252 11.8223L2.82325 11.8232L2.82227 11.8252C2.82127 11.8271 2.81944 11.831 2.81739 11.8359C2.80843 11.8577 2.79326 11.9064 2.78028 12.0029C2.75197 12.2136 2.75 12.5076 2.75 13V16.25H5.25V11.75H4ZM4 3.75C5.51879 3.75 6.75 4.98122 6.75 6.5C6.75 8.01878 5.51879 9.25 4 9.25C2.48122 9.25 1.25 8.01878 1.25 6.5C1.25 4.98122 2.48122 3.75 4 3.75ZM4 5.25C3.30965 5.25 2.75 5.80964 2.75 6.5C2.75 7.19036 3.30965 7.75 4 7.75C4.69036 7.75 5.25 7.19036 5.25 6.5C5.25 5.80964 4.69036 5.25 4 5.25ZM16 5.75C16.4142 5.75 16.75 6.08579 16.75 6.5C16.75 6.91421 16.4142 7.25 16 7.25H10C9.58579 7.25 9.25 6.91421 9.25 6.5C9.25 6.08579 9.58579 5.75 10 5.75H16Z"
        fill="#6735DC" />
</svg>
