<svg width="70" height="60" viewBox="0 0 70 60" fill="none" xmlns="http://www.w3.org/2000/svg">
<path d="M36.6797 14.6021C36.2924 14.4866 36.0718 14.0794 36.1873 13.6921C37.5327 9.17107 41.7229 5.85156 46.7086 5.85156C47.1126 5.85156 47.4403 6.17927 47.4403 6.5833C47.4403 6.98732 47.1126 7.31504 46.7086 7.31504C42.53 7.31504 38.7803 10.1087 37.5897 14.1091C37.4752 14.4959 37.0686 14.718 36.6797 14.602L36.6797 14.6021Z" fill="#00B890"/>
<path d="M56.9523 42.4384H52.562C52.158 42.4384 51.8302 42.1107 51.8302 41.7067C51.8302 41.3027 52.1579 40.9749 52.562 40.9749H56.9523C63.0042 40.9749 67.9283 36.0509 67.9283 29.999C67.9283 23.9471 63.0042 19.023 56.9523 19.023H56.8467C56.6345 19.023 56.4328 18.9311 56.2937 18.7706C56.1547 18.6101 56.092 18.3974 56.1223 18.1873C56.1877 17.7315 56.2206 17.2737 56.2206 16.8279C56.2206 11.5829 51.9529 7.31531 46.708 7.31531C44.6675 7.31531 42.7216 7.95296 41.0804 9.15978C40.7198 9.42478 40.2076 9.30718 39.999 8.91047C35.351 0.0596993 23.2108 -1.12887 16.9168 6.57053C14.2653 9.81417 13.2236 14.0336 14.0583 18.146C14.1503 18.6002 13.8028 19.0236 13.3412 19.0236H13.048C6.99615 19.0236 2.07208 23.9477 2.07208 29.9996C2.07208 36.0514 6.99615 40.9755 13.048 40.9755H17.4384C17.8424 40.9755 18.1701 41.3032 18.1701 41.7072C18.1701 42.1113 17.8424 42.439 17.4384 42.439H13.048C6.18905 42.439 0.608551 36.8585 0.608551 29.9995C0.608551 23.3329 5.8801 17.8742 12.4736 17.5731C11.8543 13.3066 13.0386 9.00295 15.7836 5.64437C22.5223 -2.5996 35.4365 -1.67556 40.8957 7.51707C42.6372 6.42522 44.6301 5.85244 46.7078 5.85244C53.0623 5.85244 58.0977 11.261 57.6571 17.58C64.1899 17.9463 69.3915 23.3763 69.3915 29.999C69.3915 36.8585 63.811 42.4384 56.952 42.4384L56.9523 42.4384Z" fill="#00B890"/>
<path d="M34.902 59.587C24.815 59.587 16.6085 51.3806 16.6085 41.2935C16.6085 31.2065 24.8149 23 34.902 23C44.9891 23 53.1955 31.2064 53.1955 41.2935C53.1955 51.3804 44.9891 59.587 34.902 59.587ZM34.902 24.4638C25.6221 24.4638 18.0723 32.0137 18.0723 41.2935C18.0723 50.5733 25.6223 58.1232 34.902 58.1232C44.1817 58.1232 51.7317 50.5732 51.7317 41.2935C51.7317 32.0136 44.1817 24.4638 34.902 24.4638Z" fill="#00B890"/>
<path d="M34.5507 48.6577C34.5507 49.0363 34.8578 49.3434 35.2365 49.3434C35.615 49.3434 35.9222 49.0367 35.9222 48.6577V34.7291C35.9222 34.3504 35.6151 34.0434 35.2365 34.0434C34.8578 34.0434 34.5507 34.3504 34.5507 34.7291V48.6577Z" fill="#00B890" stroke="#00B890" stroke-width="0.3"/>
<path d="M35.2364 35.7004L31.4357 39.5011L35.2364 35.7004ZM35.2364 35.7004L39.0372 39.5012C39.1709 39.6349 39.3469 39.702 39.522 39.702L35.2364 35.7004ZM30.4658 39.5012C30.7336 39.769 31.168 39.7691 31.4356 39.5012L39.522 39.702C39.6969 39.702 39.873 39.6355 40.0069 39.5011C40.2748 39.2332 40.2748 38.7992 40.0069 38.5314L35.7212 34.2457C35.4534 33.9779 35.0191 33.9778 34.7515 34.2457C34.7514 34.2458 34.7514 34.2458 34.7514 34.2458L30.4658 38.5314C30.1979 38.7993 30.1979 39.2333 30.4658 39.5012Z" fill="#00B890" stroke="#00B890" stroke-width="0.3"/>
</svg>
