<svg width="20" height="20" viewBox="0 0 20 20" fill="none" xmlns="http://www.w3.org/2000/svg">
<path fill-rule="evenodd" clip-rule="evenodd" d="M10 6.87498C8.27412 6.87498 6.87501 8.27409 6.87501 9.99998C6.87501 11.7259 8.27412 13.125 10 13.125C11.7259 13.125 13.125 11.7259 13.125 9.99998C13.125 8.27409 11.7259 6.87498 10 6.87498ZM8.12501 9.99998C8.12501 8.96445 8.96447 8.12498 10 8.12498C11.0355 8.12498 11.875 8.96445 11.875 9.99998C11.875 11.0355 11.0355 11.875 10 11.875C8.96447 11.875 8.12501 11.0355 8.12501 9.99998Z" fill="#1A202C" fill-opacity="0.6"/>
<path fill-rule="evenodd" clip-rule="evenodd" d="M10 2.70831C6.23823 2.70831 3.70442 4.96181 2.23381 6.87237L2.20729 6.90681C1.8747 7.33876 1.56839 7.73658 1.36058 8.20698C1.13804 8.71071 1.04167 9.25972 1.04167 9.99998C1.04167 10.7402 1.13804 11.2893 1.36058 11.793C1.56839 12.2634 1.87471 12.6612 2.20729 13.0932L2.23381 13.1276C3.70442 15.0381 6.23823 17.2916 10 17.2916C13.7618 17.2916 16.2956 15.0381 17.7662 13.1276L17.7927 13.0932C18.1253 12.6612 18.4316 12.2634 18.6394 11.793C18.862 11.2893 18.9583 10.7402 18.9583 9.99998C18.9583 9.25972 18.862 8.71071 18.6394 8.20698C18.4316 7.73657 18.1253 7.33874 17.7927 6.90679L17.7662 6.87236C16.2956 4.96181 13.7618 2.70831 10 2.70831ZM3.22435 7.63481C4.5822 5.87075 6.79197 3.95831 10 3.95831C13.208 3.95831 15.4178 5.87075 16.7757 7.63481C17.1411 8.10964 17.3552 8.39336 17.496 8.7121C17.6276 9.00999 17.7083 9.37409 17.7083 9.99998C17.7083 10.6259 17.6276 10.99 17.496 11.2879C17.3552 11.6066 17.1411 11.8903 16.7757 12.3651C15.4178 14.1292 13.208 16.0416 10 16.0416C6.79197 16.0416 4.5822 14.1292 3.22435 12.3651C2.85887 11.8903 2.64478 11.6066 2.50397 11.2879C2.37237 10.99 2.29167 10.6259 2.29167 9.99998C2.29167 9.37409 2.37237 9.00999 2.50397 8.7121C2.64478 8.39336 2.85887 8.10964 3.22435 7.63481Z" fill="#1A202C" fill-opacity="0.6"/>
</svg>
