<svg width="22" height="22" viewBox="0 0 22 22" fill="none" xmlns="http://www.w3.org/2000/svg">
<g style="mix-blend-mode:multiply">
<path fill-rule="evenodd" clip-rule="evenodd" d="M11 21.6667C16.891 21.6667 21.6667 16.8911 21.6667 11C21.6667 5.109 16.891 0.333374 11 0.333374C5.10897 0.333374 0.333344 5.109 0.333344 11C0.333344 16.8911 5.10897 21.6667 11 21.6667Z" fill="#E9C46A" fill-opacity="0.15"/>
</g>
<path fill-rule="evenodd" clip-rule="evenodd" d="M11 18.3333C15.0501 18.3333 18.3333 15.05 18.3333 11C18.3333 6.94987 15.0501 3.66663 11 3.66663C6.9499 3.66663 3.66666 6.94987 3.66666 11C3.66666 15.05 6.9499 18.3333 11 18.3333Z" fill="white"/>
<path fill-rule="evenodd" clip-rule="evenodd" d="M11 18.3333C15.0501 18.3333 18.3333 15.05 18.3333 11C18.3333 6.94987 15.0501 3.66663 11 3.66663C6.9499 3.66663 3.66666 6.94987 3.66666 11C3.66666 15.05 6.9499 18.3333 11 18.3333ZM11 7.66663C10.6318 7.66663 10.3333 7.9651 10.3333 8.33329V11C10.3333 11.3681 10.6318 11.6666 11 11.6666C11.3682 11.6666 11.6667 11.3681 11.6667 11V8.33329C11.6667 7.9651 11.3682 7.66663 11 7.66663ZM11 13C10.6318 13 10.3333 13.2984 10.3333 13.6666C10.3333 14.0348 10.6318 14.3333 11 14.3333C11.3682 14.3333 11.6667 14.0348 11.6667 13.6666C11.6667 13.2984 11.3682 13 11 13Z" fill="#E9C46A"/>
</svg>
