<svg width="24" height="24" viewBox="0 0 24 24" fill="none" xmlns="http://www.w3.org/2000/svg">
<path d="M12.0576 1.75C14.2479 1.74999 15.9683 1.75012 17.3115 1.93066C18.6882 2.11575 19.7805 2.50313 20.6387 3.36133C21.4969 4.21953 21.8842 5.31182 22.0693 6.68848C22.2499 8.03174 22.25 9.75212 22.25 11.9424V12.0576C22.25 14.2479 22.2499 15.9683 22.0693 17.3115C21.8842 18.6882 21.4969 19.7805 20.6387 20.6387C19.7805 21.4969 18.6882 21.8842 17.3115 22.0693C15.9683 22.2499 14.2479 22.25 12.0576 22.25H11.9424C9.75212 22.25 8.03174 22.2499 6.68848 22.0693C5.31182 21.8842 4.21953 21.4969 3.36133 20.6387C2.50313 19.7805 2.11575 18.6882 1.93066 17.3115C1.75012 15.9683 1.74999 14.2479 1.75 12.0576V11.9424C1.74999 9.75212 1.75012 8.03174 1.93066 6.68848C2.11575 5.31182 2.50313 4.21953 3.36133 3.36133C4.21953 2.50313 5.31182 2.11575 6.68848 1.93066C8.03174 1.75012 9.75213 1.74999 11.9424 1.75H12.0576ZM12 3.25C9.73963 3.25 8.1196 3.25137 6.8877 3.41699C5.67747 3.57972 4.9549 3.88885 4.42188 4.42188C3.88885 4.9549 3.57972 5.67747 3.41699 6.8877C3.25137 8.1196 3.25 9.73963 3.25 12C3.25 14.2604 3.25137 15.8804 3.41699 17.1123C3.57972 18.3225 3.88885 19.0451 4.42188 19.5781C4.9549 20.1111 5.67747 20.4203 6.8877 20.583C8.1196 20.7486 9.73963 20.75 12 20.75C14.2604 20.75 15.8804 20.7486 17.1123 20.583C18.3225 20.4203 19.0451 20.1111 19.5781 19.5781C20.1111 19.0451 20.4203 18.3225 20.583 17.1123C20.7486 15.8804 20.75 14.2604 20.75 12C20.75 9.73963 20.7486 8.1196 20.583 6.8877C20.4203 5.67747 20.1111 4.9549 19.5781 4.42188C19.0451 3.88885 18.3225 3.57972 17.1123 3.41699C15.8804 3.25137 14.2604 3.25 12 3.25ZM18.5 6.75C18.9142 6.75 19.25 7.08579 19.25 7.5C19.25 7.91421 18.9142 8.25 18.5 8.25H14.8828C14.17 8.25 13.6979 8.25078 13.3369 8.29199C12.9953 8.33103 12.8308 8.39994 12.7109 8.48633C12.591 8.57275 12.4742 8.7076 12.3291 9.01953C12.1759 9.34896 12.0252 9.79638 11.7998 10.4727L9.71191 16.7373C9.61242 17.0358 9.33691 17.2406 9.02246 17.25C8.70786 17.2592 8.4206 17.0705 8.30371 16.7783L6.76172 12.9229C6.71674 12.8104 6.67979 12.7179 6.64648 12.6387C6.57416 12.6851 6.49139 12.7404 6.39062 12.8076L5.91602 13.124C5.57137 13.3537 5.10573 13.2606 4.87598 12.916C4.64626 12.5714 4.7394 12.1057 5.08398 11.876L5.55859 11.5596C5.56957 11.5523 5.58076 11.5445 5.5918 11.5371C5.79936 11.3986 6.0166 11.2539 6.21289 11.1602C6.43814 11.0526 6.76342 10.9488 7.13574 11.0645C7.50783 11.1801 7.71618 11.4498 7.84082 11.666C7.94954 11.8546 8.047 12.0972 8.13965 12.3291C8.14454 12.3413 8.14943 12.354 8.1543 12.3662L8.93555 14.3203L10.3896 9.95801C10.5983 9.33186 10.7752 8.80286 10.9688 8.38672C11.1746 7.94428 11.4301 7.56063 11.834 7.26953C12.2378 6.97848 12.6822 6.85712 13.167 6.80176C13.6231 6.74968 14.1815 6.74998 14.8418 6.75H18.5ZM16.4697 11.4697C16.7626 11.1768 17.2374 11.1768 17.5303 11.4697C17.8232 11.7626 17.8232 12.2374 17.5303 12.5303L16.5605 13.5L17.5303 14.4697C17.8232 14.7626 17.8232 15.2374 17.5303 15.5303C17.2374 15.8232 16.7626 15.8232 16.4697 15.5303L15.5 14.5605L14.5303 15.5303C14.2374 15.8232 13.7626 15.8232 13.4697 15.5303C13.1768 15.2374 13.1768 14.7626 13.4697 14.4697L14.4395 13.5L13.4697 12.5303C13.1768 12.2374 13.1768 11.7626 13.4697 11.4697C13.7626 11.1768 14.2374 11.1768 14.5303 11.4697L15.5 12.4395L16.4697 11.4697Z" fill="#2C6E91"/>
</svg>
