<svg width="24" height="24" viewBox="0 0 24 24" fill="none" xmlns="http://www.w3.org/2000/svg">
<path d="M13.5002 1.25C14.0995 1.25003 14.7792 1.38556 15.3137 1.86133C15.7178 2.22111 15.9687 2.71191 16.0735 3.30859C18.0697 3.64978 19.4212 5.43858 19.6975 7.2998C20.5597 7.42803 21.2756 7.79868 21.802 8.37012C22.4551 9.07931 22.7502 10.0249 22.7502 11C22.7502 13.1292 20.8924 14.7499 18.7365 14.75C16.8335 14.75 15.1629 13.4872 14.7971 11.7266C13.9015 11.5784 13.0218 11.0165 12.3576 10.3652C12.2457 10.2555 12.1365 10.1389 12.0305 10.0176C12.054 10.216 12.0859 10.3878 12.133 10.5566C12.2872 11.109 12.5887 11.6278 13.343 12.8945L14.3742 14.626C15.2783 16.1443 16.004 17.3637 16.3977 18.3496C16.8011 19.36 16.9447 20.3451 16.3576 21.2363L16.342 21.2598C15.7661 22.1167 14.7939 22.4465 13.6516 22.5986C12.5147 22.7499 10.9894 22.75 9.06076 22.75H8.93966C7.0107 22.75 5.48481 22.75 4.34787 22.5986C3.20558 22.4465 2.23429 22.1167 1.65841 21.2598L1.64279 21.2363C1.05555 20.3451 1.19928 19.3601 1.60275 18.3496C1.99644 17.3637 2.72204 16.1444 3.62619 14.626L4.65744 12.8945C5.41171 11.6278 5.71322 11.1091 5.8674 10.5566C6.02076 10.0069 6.02755 9.42687 6.02755 7.98926V6.75H6.00021C5.586 6.75 5.25021 6.41421 5.25021 6C5.25021 5.58579 5.586 5.25 6.00021 5.25H8.39962C8.77828 3.90818 9.5583 3.13685 10.3283 2.7168C10.7548 2.48417 11.16 2.36846 11.4592 2.31055C11.4964 2.30335 11.5325 2.2966 11.5666 2.29102C11.6404 2.19264 11.733 2.08162 11.8449 1.96973C12.1767 1.638 12.7312 1.25 13.5002 1.25ZM6.90841 13.79C6.30429 13.6943 6.05374 13.7922 5.9924 13.8457C5.92009 13.9087 5.83825 13.9528 5.75314 13.9834L4.95138 15.332C4.00236 16.9259 3.33969 18.0429 2.99533 18.9053C2.65603 19.755 2.71554 20.1374 2.89474 20.4102V20.4111L2.90353 20.4238V20.4248C3.10626 20.7255 3.51493 20.974 4.54611 21.1113C5.57218 21.2479 6.99728 21.25 9.00021 21.25C11.0031 21.25 12.4283 21.2479 13.4543 21.1113C14.485 20.9741 14.8932 20.7254 15.0959 20.4248L15.0969 20.4238L15.1047 20.4111L15.1057 20.4102C15.2849 20.1374 15.3444 19.755 15.0051 18.9053C14.6608 18.0429 13.9981 16.9259 13.049 15.332L12.4348 14.3018C12.4251 14.3072 12.4162 14.314 12.4065 14.3193C12.1187 14.4766 11.7736 14.6003 11.3928 14.6738C10.628 14.8215 9.68285 14.7744 8.70431 14.3525C8.10115 14.0925 7.45643 13.8769 6.90841 13.79ZM13.5002 2.75C13.2693 2.75 13.0737 2.86208 12.9055 3.03027C12.8234 3.11237 12.7104 3.27854 12.6682 3.3418C12.541 3.5904 12.2853 3.7476 12.0061 3.75C11.9598 3.75392 11.8358 3.76552 11.7444 3.7832C11.5593 3.81902 11.308 3.89098 11.0471 4.0332C10.6871 4.22956 10.2685 4.58098 9.98654 5.25H12.0002C12.4143 5.25017 12.7502 5.58589 12.7502 6C12.7502 6.34655 12.514 6.63467 12.1945 6.7207C12.2294 6.80719 12.2502 6.90106 12.2502 7C12.2502 7.72664 12.6984 8.59868 13.4074 9.29395C14.1355 10.0079 14.9093 10.3182 15.3752 10.2568C15.5893 10.2287 15.8047 10.2942 15.967 10.4365C16.1294 10.5789 16.2229 10.784 16.2229 11C16.2229 12.1844 17.2876 13.25 18.7365 13.25C20.1854 13.2499 21.2502 12.1844 21.2502 11C21.2502 10.3182 21.0453 9.76331 20.6985 9.38672C20.3609 9.02026 19.8227 8.75004 19.0002 8.75C18.586 8.75 18.2502 8.41421 18.2502 8C18.2502 6.2983 16.9787 4.75009 15.3801 4.75C14.9659 4.75 14.6301 4.41421 14.6301 4C14.6301 3.37177 14.4555 3.10511 14.3166 2.98145C14.1612 2.84308 13.9007 2.75003 13.5002 2.75ZM7.52755 8.09863C7.52772 9.39217 7.52771 10.188 7.31271 10.959C7.19341 11.3867 7.00969 11.7915 6.75509 12.2637C6.88932 12.2741 7.01965 12.2891 7.14279 12.3086C7.86185 12.4225 8.63441 12.6895 9.29806 12.9756C9.98612 13.2722 10.6242 13.2947 11.1086 13.2012C11.3421 13.1561 11.5314 13.0843 11.6692 13.0117C11.1808 12.1818 10.8651 11.5949 10.6877 10.959C10.4727 10.188 10.4727 9.39222 10.4729 8.09863V6.75H7.52755V8.09863Z" fill="#2C6E91"/>
</svg>
