<svg width="62" height="91" viewBox="0 0 62 91" fill="none" xmlns="http://www.w3.org/2000/svg">
<g filter="url(#filter0_d_436_4613)">
<circle cx="29.5" cy="57.5" r="25.5" fill="#B3E2C0"/>
<circle cx="29.5" cy="55.5" r="25.5" fill="#F1FCFE"/>
<g filter="url(#filter1_i_436_4613)">
<circle cx="29.3403" cy="55.5" r="19.5" fill="url(#paint0_linear_436_4613)"/>
</g>
</g>
<path d="M18.2402 60C17.9882 60 17.7922 59.9347 17.6522 59.804C17.5215 59.664 17.4562 59.468 17.4562 59.216V50.914C17.4562 50.662 17.5215 50.4707 17.6522 50.34C17.7922 50.2 17.9882 50.13 18.2402 50.13H23.3502C23.5462 50.13 23.6955 50.1813 23.7982 50.284C23.9009 50.3773 23.9522 50.5173 23.9522 50.704C23.9522 50.9 23.9009 51.0493 23.7982 51.152C23.6955 51.2547 23.5462 51.306 23.3502 51.306H18.8562V54.4H23.0422C23.2475 54.4 23.3969 54.4513 23.4902 54.554C23.5929 54.6567 23.6442 54.8013 23.6442 54.988C23.6442 55.184 23.5929 55.3333 23.4902 55.436C23.3969 55.5293 23.2475 55.576 23.0422 55.576H18.8562V58.824H23.3502C23.5462 58.824 23.6955 58.8753 23.7982 58.978C23.9009 59.0807 23.9522 59.2253 23.9522 59.412C23.9522 59.608 23.9009 59.7573 23.7982 59.86C23.6955 59.9533 23.5462 60 23.3502 60H18.2402ZM25.9663 60.098C25.7423 60.098 25.5697 60.0373 25.4483 59.916C25.327 59.7853 25.2663 59.608 25.2663 59.384V53.784C25.2663 53.5507 25.327 53.3733 25.4483 53.252C25.5697 53.1307 25.7377 53.07 25.9523 53.07C26.1763 53.07 26.3443 53.1307 26.4563 53.252C26.5777 53.3733 26.6383 53.5507 26.6383 53.784V54.876L26.4843 54.624C26.6897 54.1013 27.0117 53.7093 27.4503 53.448C27.889 53.1773 28.393 53.042 28.9623 53.042C29.5037 53.042 29.9517 53.1447 30.3063 53.35C30.6703 53.546 30.941 53.8493 31.1183 54.26C31.2957 54.6613 31.3843 55.17 31.3843 55.786V59.384C31.3843 59.608 31.3237 59.7853 31.2023 59.916C31.081 60.0373 30.9083 60.098 30.6843 60.098C30.451 60.098 30.2737 60.0373 30.1523 59.916C30.031 59.7853 29.9703 59.608 29.9703 59.384V55.87C29.9703 55.282 29.8537 54.8527 29.6203 54.582C29.3963 54.3113 29.0417 54.176 28.5563 54.176C27.987 54.176 27.5297 54.3533 27.1843 54.708C26.8483 55.0627 26.6803 55.5387 26.6803 56.136V59.384C26.6803 59.86 26.4423 60.098 25.9663 60.098ZM35.6567 60.126C35.0594 60.126 34.5321 59.986 34.0747 59.706C33.6267 59.4167 33.2767 59.006 33.0247 58.474C32.7727 57.9327 32.6467 57.3027 32.6467 56.584C32.6467 55.8467 32.7727 55.2167 33.0247 54.694C33.2767 54.1713 33.6267 53.7653 34.0747 53.476C34.5321 53.1867 35.0594 53.042 35.6567 53.042C36.2541 53.042 36.7674 53.1913 37.1967 53.49C37.6354 53.7793 37.9294 54.1713 38.0787 54.666H37.9247V50.746C37.9247 50.5127 37.9854 50.3353 38.1067 50.214C38.2281 50.0927 38.4007 50.032 38.6247 50.032C38.8487 50.032 39.0214 50.0927 39.1427 50.214C39.2734 50.3353 39.3387 50.5127 39.3387 50.746V59.384C39.3387 59.608 39.2781 59.7853 39.1567 59.916C39.0354 60.0373 38.8627 60.098 38.6387 60.098C38.4147 60.098 38.2421 60.0373 38.1207 59.916C37.9994 59.7853 37.9387 59.608 37.9387 59.384V58.152L38.0927 58.46C37.9434 58.964 37.6494 59.37 37.2107 59.678C36.7814 59.9767 36.2634 60.126 35.6567 60.126ZM36.0207 59.034C36.4034 59.034 36.7394 58.9407 37.0287 58.754C37.3181 58.5673 37.5421 58.292 37.7007 57.928C37.8687 57.564 37.9527 57.116 37.9527 56.584C37.9527 55.7813 37.7754 55.1747 37.4207 54.764C37.0661 54.3533 36.5994 54.148 36.0207 54.148C35.6287 54.148 35.2881 54.2413 34.9987 54.428C34.7094 54.6053 34.4807 54.876 34.3127 55.24C34.1541 55.604 34.0747 56.052 34.0747 56.584C34.0747 57.3773 34.2521 57.984 34.6067 58.404C34.9614 58.824 35.4327 59.034 36.0207 59.034ZM41.7302 57.34C41.5809 57.34 41.4642 57.2933 41.3802 57.2C41.3055 57.1067 41.2589 56.976 41.2402 56.808L40.9042 50.956C40.8855 50.676 40.9462 50.452 41.0862 50.284C41.2262 50.116 41.4409 50.032 41.7302 50.032C42.0009 50.032 42.2062 50.116 42.3462 50.284C42.4862 50.452 42.5422 50.676 42.5142 50.956L42.1782 56.808C42.1689 56.976 42.1222 57.1067 42.0382 57.2C41.9635 57.2933 41.8609 57.34 41.7302 57.34ZM41.7302 60.056C41.4595 60.056 41.2402 59.972 41.0722 59.804C40.9042 59.636 40.8202 59.4213 40.8202 59.16C40.8202 58.8987 40.9042 58.6887 41.0722 58.53C41.2402 58.362 41.4595 58.278 41.7302 58.278C42.0009 58.278 42.2155 58.362 42.3742 58.53C42.5329 58.6887 42.6122 58.8987 42.6122 59.16C42.6122 59.4213 42.5329 59.636 42.3742 59.804C42.2155 59.972 42.0009 60.056 41.7302 60.056Z" fill="white"/>
<rect x="29.2871" y="1.72363" width="32" height="22" stroke="#333F04"/>
<rect x="29.7871" y="2.22363" width="10" height="7" fill="white"/>
<rect x="40.1204" y="2.22363" width="11" height="7" fill="#333F04"/>
<rect x="50.4539" y="2.22363" width="10" height="7" fill="white"/>
<rect x="29.7871" y="9.22363" width="10" height="7" fill="#333F04"/>
<rect x="40.1204" y="9.22363" width="11" height="7" fill="white"/>
<rect x="50.4539" y="9.22363" width="10" height="7" fill="#333F04"/>
<rect x="29.7871" y="16.2236" width="10" height="7" fill="white"/>
<rect x="40.1204" y="16.2236" width="11" height="7" fill="#333F04"/>
<rect x="50.4539" y="16.2236" width="10" height="7" fill="white"/>
<rect x="28" width="2" height="43" rx="1" fill="#333F04"/>
<circle cx="29" cy="44" r="3" fill="#333F04"/>
<defs>
<filter id="filter0_d_436_4613" x="0" y="30" width="59" height="61" filterUnits="userSpaceOnUse" color-interpolation-filters="sRGB">
<feFlood flood-opacity="0" result="BackgroundImageFix"/>
<feColorMatrix in="SourceAlpha" type="matrix" values="0 0 0 0 0 0 0 0 0 0 0 0 0 0 0 0 0 0 127 0" result="hardAlpha"/>
<feOffset dy="4"/>
<feGaussianBlur stdDeviation="2"/>
<feComposite in2="hardAlpha" operator="out"/>
<feColorMatrix type="matrix" values="0 0 0 0 0 0 0 0 0 0 0 0 0 0 0 0 0 0 0.05 0"/>
<feBlend mode="normal" in2="BackgroundImageFix" result="effect1_dropShadow_436_4613"/>
<feBlend mode="normal" in="SourceGraphic" in2="effect1_dropShadow_436_4613" result="shape"/>
</filter>
<filter id="filter1_i_436_4613" x="9.84033" y="36" width="39" height="39" filterUnits="userSpaceOnUse" color-interpolation-filters="sRGB">
<feFlood flood-opacity="0" result="BackgroundImageFix"/>
<feBlend mode="normal" in="SourceGraphic" in2="BackgroundImageFix" result="shape"/>
<feColorMatrix in="SourceAlpha" type="matrix" values="0 0 0 0 0 0 0 0 0 0 0 0 0 0 0 0 0 0 127 0" result="hardAlpha"/>
<feOffset/>
<feGaussianBlur stdDeviation="2"/>
<feComposite in2="hardAlpha" operator="arithmetic" k2="-1" k3="1"/>
<feColorMatrix type="matrix" values="0 0 0 0 0 0 0 0 0 0 0 0 0 0 0 0 0 0 0.15 0"/>
<feBlend mode="normal" in2="shape" result="effect1_innerShadow_436_4613"/>
</filter>
<linearGradient id="paint0_linear_436_4613" x1="29.3403" y1="36" x2="29.3403" y2="75" gradientUnits="userSpaceOnUse">
<stop offset="0.120192" stop-color="#2C6E91"/>
<stop offset="1" stop-color="#0A2736"/>
</linearGradient>
</defs>
</svg>
