<svg width="29" height="28" viewBox="0 0 29 28" fill="none" xmlns="http://www.w3.org/2000/svg">
<path opacity="0.5" fill-rule="evenodd" clip-rule="evenodd" d="M26.1667 14C26.1667 20.4434 20.9433 25.6667 14.5 25.6667C8.05668 25.6667 2.83333 20.4434 2.83333 14C2.83333 7.55672 8.05668 2.33337 14.5 2.33337C20.9433 2.33337 26.1667 7.55672 26.1667 14Z" fill="#5BBB56"/>
<path d="M15.375 7C15.375 6.51675 14.9832 6.125 14.5 6.125C14.0168 6.125 13.625 6.51675 13.625 7V7.36952C11.7228 7.71011 10.125 9.13921 10.125 11.0833C10.125 13.32 12.2399 14.875 14.5 14.875C16.1059 14.875 17.125 15.9317 17.125 16.9167C17.125 17.9016 16.1059 18.9583 14.5 18.9583C12.8941 18.9583 11.875 17.9016 11.875 16.9167C11.875 16.4334 11.4832 16.0417 11 16.0417C10.5168 16.0417 10.125 16.4334 10.125 16.9167C10.125 18.8608 11.7228 20.2899 13.625 20.6305V21C13.625 21.4832 14.0168 21.875 14.5 21.875C14.9832 21.875 15.375 21.4832 15.375 21V20.6305C17.2772 20.2899 18.875 18.8608 18.875 16.9167C18.875 14.68 16.7601 13.125 14.5 13.125C12.8941 13.125 11.875 12.0683 11.875 11.0833C11.875 10.0984 12.8941 9.04167 14.5 9.04167C16.1059 9.04167 17.125 10.0984 17.125 11.0833C17.125 11.5666 17.5168 11.9583 18 11.9583C18.4832 11.9583 18.875 11.5666 18.875 11.0833C18.875 9.13921 17.2772 7.71011 15.375 7.36952V7Z" fill="white"/>
</svg>
