<svg width="28" height="28" viewBox="0 0 28 28" fill="none" xmlns="http://www.w3.org/2000/svg">
<path d="M3.21372 17.1695L3.81763 19.4233C4.52258 22.0542 4.87506 23.3697 5.67414 24.2229C6.30508 24.8965 7.12161 25.3679 8.02048 25.5775C9.15888 25.843 10.4743 25.4905 13.1053 24.7855L13.1053 24.7855C15.7362 24.0806 17.0517 23.7281 17.9048 22.929C17.9756 22.8627 18.0442 22.7943 18.1105 22.724C17.7206 22.6913 17.3274 22.6286 16.9277 22.5491C16.1156 22.3876 15.1506 22.129 14.0094 21.8232L13.8848 21.7898L13.8559 21.7821C12.6141 21.4494 11.5767 21.1708 10.7483 20.8716C9.87712 20.5569 9.08558 20.1689 8.41343 19.5394C7.48716 18.6719 6.83895 17.5491 6.55077 16.3132C6.34165 15.4163 6.40144 14.5368 6.56448 13.6251C6.72072 12.7513 7.00132 11.7042 7.33751 10.4496L7.33751 10.4496L7.96097 8.12285L7.98289 8.04102C5.74226 8.6446 4.56289 9.00171 3.77639 9.73835C3.10274 10.3693 2.63131 11.1858 2.42172 12.0847C2.15629 13.2231 2.50876 14.5386 3.21372 17.1695Z" fill="#FB5904"/>
<path fill-rule="evenodd" clip-rule="evenodd" d="M24.3008 12.502L23.6968 14.7558C22.9919 17.3867 22.6394 18.7022 21.8403 19.5554C21.2094 20.229 20.3929 20.7004 19.494 20.91C19.3817 20.9362 19.2676 20.9564 19.1508 20.9708C18.0832 21.1025 16.7806 20.7534 14.4092 20.118C11.7783 19.4131 10.4628 19.0606 9.60964 18.2615C8.93599 17.6306 8.46456 16.814 8.25498 15.9152C7.98954 14.7768 8.34201 13.4613 9.04697 10.8304L9.65088 8.57655C9.75224 8.19828 9.84638 7.84695 9.93554 7.52053C10.4665 5.57682 10.8232 4.50746 11.5074 3.777C12.1383 3.10335 12.9549 2.63192 13.8537 2.42233C14.9921 2.1569 16.3076 2.50937 18.9385 3.21433C21.5695 3.91928 22.8849 4.27176 23.7381 5.07084C24.4117 5.70178 24.8832 6.51831 25.0927 7.41718C25.3582 8.55558 25.0057 9.87105 24.3008 12.502ZM12.8944 11.4409C13.0195 10.9741 13.4993 10.6971 13.9661 10.8221L19.6007 12.3319C20.0674 12.457 20.3445 12.9368 20.2194 13.4036C20.0943 13.8703 19.6145 14.1474 19.1477 14.0223L13.5132 12.5125C13.0464 12.3874 12.7694 11.9076 12.8944 11.4409ZM11.9881 14.8212C12.1132 14.3544 12.593 14.0774 13.0598 14.2025L16.4405 15.1084C16.9073 15.2334 17.1843 15.7132 17.0592 16.18C16.9341 16.6468 16.4544 16.9238 15.9876 16.7987L12.6068 15.8929C12.14 15.7678 11.863 15.288 11.9881 14.8212Z" fill="#FB5904"/>
</svg>
