<svg width="22" height="23" viewBox="0 0 22 23" fill="none" xmlns="http://www.w3.org/2000/svg">
<g style="mix-blend-mode:multiply">
<path fill-rule="evenodd" clip-rule="evenodd" d="M10.9999 22.1666C16.891 22.1666 21.6666 17.391 21.6666 11.4999C21.6666 5.60888 16.891 0.833252 10.9999 0.833252C5.10888 0.833252 0.333252 5.60888 0.333252 11.4999C0.333252 17.391 5.10888 22.1666 10.9999 22.1666Z" fill="#2A9D8F" fill-opacity="0.08"/>
</g>
<path d="M11 4.33301C14.958 4.33301 18.167 7.54196 18.167 11.5C18.167 15.458 14.958 18.667 11 18.667C7.04196 18.667 3.83301 15.458 3.83301 11.5C3.83301 7.54196 7.04196 4.33301 11 4.33301ZM11 5.33301C7.59424 5.33301 4.83301 8.09424 4.83301 11.5C4.83301 14.9058 7.59424 17.667 11 17.667C14.4058 17.667 17.167 14.9058 17.167 11.5C17.167 8.09424 14.4058 5.33301 11 5.33301ZM11 8.33301C11.276 8.33301 11.4998 8.55701 11.5 8.83301V11.293L12.6865 12.4795C12.8818 12.6748 12.8818 12.9913 12.6865 13.1865C12.4913 13.3818 12.1748 13.3818 11.9795 13.1865L10.6465 11.8535C10.5527 11.7597 10.5 11.6326 10.5 11.5V8.83301C10.5002 8.55701 10.724 8.33301 11 8.33301Z" fill="#2A9D8F"/>
</svg>
