<svg width="28" height="28" viewBox="0 0 28 28" fill="none" xmlns="http://www.w3.org/2000/svg">
<rect width="28" height="28" rx="14" fill="white" fill-opacity="0.16"/>
<path d="M18 6.83301C18.276 6.83301 18.4998 7.05702 18.5 7.33301V7.75781C19.0362 7.90983 19.4888 8.15566 19.8652 8.5625C20.3838 9.12316 20.6152 9.832 20.7256 10.7197C20.8338 11.5896 20.833 12.7046 20.833 14.127V14.54C20.833 15.9624 20.8338 17.0774 20.7256 17.9473C20.6152 18.8349 20.3838 19.5429 19.8652 20.1035C19.3415 20.6697 18.671 20.9269 17.832 21.0488C17.0201 21.1668 15.9827 21.167 14.6738 21.167H13.3262C12.0173 21.167 10.9799 21.1668 10.168 21.0488C9.32899 20.9269 8.65849 20.6697 8.13477 20.1035C7.6162 19.5429 7.38482 18.8349 7.27441 17.9473C7.16624 17.0774 7.16698 15.9624 7.16699 14.54V14.127C7.16698 12.7046 7.16625 11.5896 7.27441 10.7197C7.38481 9.832 7.61616 9.12316 8.13477 8.5625C8.51125 8.15566 8.96383 7.90983 9.5 7.75781V7.33301C9.50018 7.05702 9.72397 6.83301 10 6.83301C10.276 6.83301 10.4998 7.05702 10.5 7.33301V7.57715C11.2574 7.49987 12.1894 7.49999 13.3262 7.5H14.6738C15.8106 7.49999 16.7426 7.49987 17.5 7.57715V7.33301C17.5002 7.05702 17.724 6.83301 18 6.83301ZM8.19629 11.833C8.17069 12.471 8.16699 13.2336 8.16699 14.1621V14.5049C8.16699 15.97 8.16801 17.0224 8.26758 17.8232C8.36585 18.6135 8.55208 19.083 8.86816 19.4248C9.17918 19.761 9.59835 19.9549 10.3115 20.0586C11.0432 20.1649 12.0078 20.167 13.3662 20.167H14.6338C15.9922 20.167 16.9568 20.1649 17.6885 20.0586C18.4017 19.9549 18.8208 19.761 19.1318 19.4248C19.4479 19.083 19.6341 18.6135 19.7324 17.8232C19.832 17.0224 19.833 15.97 19.833 14.5049V14.1621C19.833 13.2336 19.8293 12.471 19.8037 11.833H8.19629ZM13.3662 8.5C12.1213 8.5 11.2073 8.50196 10.5 8.58398V8.66699C10.4998 8.94299 10.276 9.16699 10 9.16699C9.77195 9.16699 9.58158 9.0134 9.52148 8.80469C9.24905 8.91282 9.04144 9.05486 8.86816 9.24219C8.55353 9.58248 8.36715 10.049 8.26855 10.833H19.7314C19.6329 10.049 19.4465 9.58248 19.1318 9.24219C18.9584 9.05467 18.7504 8.91285 18.4775 8.80469C18.4174 9.01327 18.228 9.16699 18 9.16699C17.724 9.16699 17.5002 8.94298 17.5 8.66699V8.58398C16.7927 8.50196 15.8787 8.5 14.6338 8.5H13.3662Z" fill="white"/>
</svg>
