<svg width="24" height="25" viewBox="0 0 24 25" fill="none" xmlns="http://www.w3.org/2000/svg">
<path d="M13.6288 21.2441L13.0867 22.16C12.6035 22.9763 11.3965 22.9763 10.9133 22.16L10.3712 21.2441C9.95073 20.5337 9.74049 20.1786 9.40279 19.9821C9.06509 19.7857 8.63992 19.7784 7.78958 19.7638C6.53422 19.7421 5.74689 19.6652 5.08658 19.3917C3.86144 18.8842 2.88807 17.9109 2.3806 16.6857C2 15.7669 2 14.602 2 12.2723V11.2723C2 7.99891 2 6.36219 2.7368 5.15985C3.14908 4.48707 3.71473 3.92142 4.38751 3.50914C5.58985 2.77234 7.22657 2.77234 10.5 2.77234H13.5C16.7734 2.77234 18.4101 2.77234 19.6125 3.50914C20.2853 3.92142 20.8509 4.48707 21.2632 5.15985C22 6.36219 22 7.99891 22 11.2723V12.2723C22 14.602 22 15.7669 21.6194 16.6857C21.1119 17.9109 20.1386 18.8842 18.9134 19.3917C18.2531 19.6652 17.4658 19.7421 16.2104 19.7638C15.36 19.7784 14.9349 19.7857 14.5972 19.9821C14.2595 20.1785 14.0492 20.5337 13.6288 21.2441Z" fill="#BDBBBB"/>
</svg>
