<svg width="29" height="28" viewBox="0 0 29 28" fill="none" xmlns="http://www.w3.org/2000/svg">
<path d="M8.93032 2.33337C9.41549 2.33337 9.80879 2.71162 9.80879 3.1782V4.88239C10.588 4.86786 11.4615 4.86786 12.4442 4.86786H17.1294C18.1122 4.86786 18.9856 4.86786 19.7648 4.88239V3.1782C19.7648 2.71162 20.1581 2.33337 20.6433 2.33337C21.1285 2.33337 21.5218 2.71162 21.5218 3.1782V4.95714C23.2077 5.08696 24.3144 5.40559 25.1275 6.18756C25.9407 6.96953 26.272 8.0339 26.407 9.65521L26.5 10.5L4.2453 10.5H3.16666V9.65521C3.30166 8.0339 3.63297 6.96953 4.44608 6.18756C5.2592 5.40559 6.36596 5.08696 8.05184 4.95714V3.1782C8.05184 2.71162 8.44515 2.33337 8.93032 2.33337Z" fill="#FFBD00"/>
<path opacity="0.5" d="M26.5 16.3333V14C26.5 13.0211 26.4962 11.276 26.4811 10.4999L3.1779 10.4999C3.16285 11.276 3.16665 13.0211 3.16665 14L3.16665 16.3333C3.16665 20.7331 3.16665 22.933 4.53349 24.2998C5.90033 25.6666 8.10021 25.6666 12.5 25.6666H17.1667C21.5664 25.6666 23.7663 25.6666 25.1332 24.2998C26.5 22.933 26.5 20.7331 26.5 16.3333Z" fill="#FFBD00"/>
<path d="M21.8333 19.8333C21.8333 20.4777 21.311 21 20.6667 21C20.0223 21 19.5 20.4777 19.5 19.8333C19.5 19.189 20.0223 18.6667 20.6667 18.6667C21.311 18.6667 21.8333 19.189 21.8333 19.8333Z" fill="white"/>
<path d="M21.8333 15.1667C21.8333 15.811 21.311 16.3333 20.6667 16.3333C20.0223 16.3333 19.5 15.811 19.5 15.1667C19.5 14.5223 20.0223 14 20.6667 14C21.311 14 21.8333 14.5223 21.8333 15.1667Z" fill="white"/>
<path d="M16 19.8333C16 20.4777 15.4777 21 14.8333 21C14.189 21 13.6667 20.4777 13.6667 19.8333C13.6667 19.189 14.189 18.6667 14.8333 18.6667C15.4777 18.6667 16 19.189 16 19.8333Z" fill="white"/>
<path d="M16 15.1667C16 15.811 15.4777 16.3333 14.8333 16.3333C14.189 16.3333 13.6667 15.811 13.6667 15.1667C13.6667 14.5223 14.189 14 14.8333 14C15.4777 14 16 14.5223 16 15.1667Z" fill="white"/>
<path d="M10.1667 19.8333C10.1667 20.4777 9.64432 21 8.99999 21C8.35565 21 7.83332 20.4777 7.83332 19.8333C7.83332 19.189 8.35565 18.6667 8.99999 18.6667C9.64432 18.6667 10.1667 19.189 10.1667 19.8333Z" fill="white"/>
<path d="M10.1667 15.1667C10.1667 15.811 9.64432 16.3333 8.99999 16.3333C8.35565 16.3333 7.83332 15.811 7.83332 15.1667C7.83332 14.5223 8.35565 14 8.99999 14C9.64432 14 10.1667 14.5223 10.1667 15.1667Z" fill="white"/>
</svg>
