<svg width="200" height="147" viewBox="0 0 200 147" fill="none" xmlns="http://www.w3.org/2000/svg">
<g clip-path="url(#clip0_327_2105)">
<path d="M100 146.677C155.228 146.677 200 140.328 200 132.496C200 124.664 155.228 118.315 100 118.315C44.7715 118.315 0 124.664 0 132.496C0 140.328 44.7715 146.677 100 146.677Z" fill="#F9E3D9"/>
<path d="M88.647 70.1146C89.7645 69.6696 92.7213 68.8537 93.9377 68.7746C94.9316 68.7103 103.951 63.5581 105.914 61.9214L109.439 64.2305V67.9538C109.439 67.9538 104.02 71.1579 101.552 72.0529C99.0801 72.9479 94.6844 74.4362 91.6286 74.5104L88.647 70.1146Z" fill="#ED9558"/>
<path d="M141.673 126.127C123.882 135.329 95.0059 132.723 82.8075 129.643C70.6141 126.567 57.59 118.839 60.4331 110.275C61.0908 108.287 62.05 105.849 63.1922 103.268C66.9699 94.7436 72.7897 84.6616 76.6762 84.0435C81.7395 83.2375 119.012 81.2943 122.394 75.7563C125.776 70.2183 125.148 58.0842 126.993 55.1916C133.119 45.5842 140.452 44.1404 146.608 45.0799C148.769 45.4112 150.781 46.5039 152.527 48.4076C155.756 51.9282 158.065 58.2078 158.678 67.4988C159.622 81.8184 159.454 116.92 141.663 126.122L141.673 126.127Z" fill="#91ACAF"/>
<path d="M141.673 126.127C123.882 135.329 95.0059 132.723 82.8075 129.643C70.6141 126.567 57.59 118.839 60.4331 110.275C61.0908 108.287 62.05 105.849 63.1922 103.268L65.1651 103.367C77.947 112.836 98.3089 121.222 108.015 121.291C117.721 121.361 137.594 119.319 145.293 110.275C152.996 101.236 159.39 62.3515 152.522 48.4077C155.751 51.9283 158.06 58.2079 158.673 67.4989C159.617 81.8185 159.449 116.92 141.658 126.122L141.673 126.127Z" fill="#7E9596"/>
<path d="M79.1782 76.77L83.8212 88.3058L99.0408 86.0857L87.3022 76.77H79.1782Z" fill="#434F54"/>
<path d="M89.463 82.9458C85.3046 84.6913 85.0969 88.2959 82.8075 92.84C80.5182 97.3841 70.7575 116.831 68.9725 118.992C67.1825 121.153 65.7585 122.804 62.1786 124.599C58.6382 126.374 55.0385 125.435 54.5886 126.127C54.1436 126.814 55.6319 128.679 55.7802 129.203C55.9286 129.722 56.3785 130.919 58.836 130.844C61.2935 130.77 63.3505 130.548 65.4667 130.548C67.583 130.548 68.8192 131.368 70.7575 130.548C72.6958 129.727 71.5684 126.523 71.9838 125.405C72.3991 124.288 74.7082 119.22 77.6899 116.91C80.6715 114.601 86.1847 109.533 88.6422 104.692C91.0997 99.8465 93.7104 96.049 94.1554 95.604C94.6005 95.159 98.8479 94.709 98.8479 94.709L97.3447 85.0769L89.458 82.9557L89.463 82.9458Z" fill="#ED9558"/>
<path d="M96.6178 96.044C100.643 96.1181 106.977 96.5631 109.953 96.489C112.93 96.4148 115.096 94.3282 116.658 92.4641C118.221 90.5999 122.097 88.2166 123.067 87.7716L119.675 82.0556L101.459 79.5586C101.459 79.5586 93.7103 81.0222 89.4629 82.9457C93.9328 85.685 96.242 87.6233 96.6178 96.044Z" fill="#434F54"/>
<path d="M89.5324 83.089L89.4038 82.8022C93.6216 80.8936 101.355 79.4201 101.434 79.4053L101.493 79.7168C101.414 79.7316 93.7155 81.2002 89.5324 83.089Z" fill="#2D3538"/>
<path d="M124.031 52.6154C118.3 53.4016 117.193 52.6698 114.982 54.7713C112.772 56.8777 107.249 68.186 106.987 79.1285C110.987 79.8652 107.827 81.4376 107.827 81.4376C107.827 81.4376 119.442 83.3017 123.072 87.7766C126.998 86.6591 133.549 82.9704 135.235 79.9196C136.917 76.8688 140.497 71.133 141.812 67.4542C143.127 63.7705 144.071 55.9085 141.288 54.0296C138.499 52.1457 136.551 52.9912 135.132 52.6204C133.712 52.2545 130.79 51.7798 129.356 51.7798C127.922 51.7798 124.031 52.6204 124.031 52.6204V52.6154Z" fill="#C15F44"/>
<path d="M122.152 51.9977C122.152 51.9977 122.275 53.7283 122.483 54.8458C122.691 55.9583 129.95 54.2673 130.281 51.7505C129.747 50.8011 129.618 43.7451 129.618 43.7451L122.152 51.9977Z" fill="#ED9558"/>
<path d="M119.338 32.7777C125.455 31.8234 128.362 33.5046 129.193 39.5172C130.023 45.5348 127.428 48.5412 126.186 50.0987C124.94 51.6563 121.608 53.916 119.635 54.0198C117.662 54.1236 115.635 49.1939 115.19 47.1962C114.853 45.6782 115.19 43.463 114.67 42.217C114.151 40.971 112.698 33.8161 119.338 32.7777Z" fill="#ED9558"/>
<path d="M122.503 53.1395L122.389 52.9319C123.858 52.1259 125.346 50.9589 126.098 50.0244L126.281 50.1728C125.514 51.132 123.996 52.3237 122.503 53.1395Z" fill="#995F37"/>
<path d="M115.937 45.8414C116.289 45.8414 116.575 45.4717 116.575 45.0157C116.575 44.5596 116.289 44.1899 115.937 44.1899C115.584 44.1899 115.299 44.5596 115.299 45.0157C115.299 45.4717 115.584 45.8414 115.937 45.8414Z" fill="#1C2D24"/>
<path d="M121.662 45.0849C121.662 45.5793 121.351 45.9749 120.97 45.9749C120.589 45.9749 120.278 45.5744 120.278 45.0849C120.278 44.5953 120.589 44.1948 120.97 44.1948C121.351 44.1948 121.662 44.5953 121.662 45.0849Z" fill="#1C2D24"/>
<path d="M117.242 50.0198C118.067 51.5032 120.461 51.5477 120.97 49.5649C119.566 49.9753 118.77 50.0594 117.242 50.0198Z" fill="white"/>
<path d="M118.191 48.6106C117.988 48.6106 117.623 48.576 117.415 48.3386C117.296 48.2002 117.257 48.0271 117.286 47.8145C117.316 47.6316 117.365 47.4041 117.43 47.1173C117.558 46.5586 117.731 45.7971 117.865 44.7637L118.097 44.7933C117.964 45.8416 117.786 46.608 117.662 47.1717C117.598 47.4535 117.548 47.6761 117.519 47.8491C117.499 47.9925 117.519 48.1013 117.593 48.1804C117.697 48.2991 117.914 48.3683 118.186 48.3683C118.547 48.3683 119.101 48.2842 119.279 48.1804L119.403 48.3831C119.16 48.5265 118.542 48.6056 118.186 48.6056L118.191 48.6106Z" fill="#995F37"/>
<path d="M116.58 43.6709C116.58 43.6709 116.535 43.6709 116.515 43.666C116.505 43.666 115.655 43.5226 115.264 43.483C115.047 43.4632 114.888 43.2655 114.913 43.0528C114.933 42.8353 115.126 42.677 115.343 42.7018C115.759 42.7413 116.614 42.8847 116.649 42.8946C116.861 42.9292 117.01 43.1319 116.97 43.3495C116.936 43.5423 116.772 43.6808 116.58 43.6808V43.6709Z" fill="#1C2F3F"/>
<path d="M119.843 43.4827C119.684 43.4827 119.531 43.3838 119.472 43.2256C119.398 43.0228 119.497 42.7954 119.704 42.7163C119.907 42.6371 122.078 42.0537 122.982 42.4789C123.18 42.5729 123.264 42.8053 123.17 43.003C123.076 43.2008 122.844 43.2849 122.646 43.1909C122.147 42.9536 120.401 43.2948 119.981 43.453C119.937 43.4678 119.887 43.4777 119.843 43.4777V43.4827Z" fill="#1C2F3F"/>
<path d="M114.226 38.0883C112.994 37.3911 112.312 33.6875 113.365 32.3574C114.394 31.057 115.595 30.9977 117.242 31.4476C118.893 31.9025 119.773 30.0236 121.326 29.633C122.953 29.2226 124.629 29.2226 125.949 30.4983C127.27 31.7789 130.029 31.6405 131.354 33.3464C132.897 35.3292 133.791 37.6581 133.416 40.4023C132.897 44.1899 129.618 47.4979 129.618 47.4979L129.351 45.3123C129.242 43.557 127.309 42.5483 126.894 43.7845C126.483 45.0206 125.41 45.5794 125.613 44.185C125.821 42.7906 126.068 41.8412 125.45 41.5149C124.832 41.1836 123.759 40.7336 123.843 38.5234C123.927 36.3131 122.701 36.5208 121.662 36.5653C120.624 36.6049 115.66 36.679 114.221 38.0883H114.226Z" fill="#1C2F3F"/>
<path d="M130.202 43.8934C129.712 45.0257 128.461 45.7674 127.665 45.4213C126.869 45.0752 126.612 44.0862 127.324 42.6473C127.868 41.5398 128.857 40.8772 129.653 41.2184C130.449 41.5645 130.691 42.7611 130.202 43.8934Z" fill="#ED9558"/>
<path d="M130.399 66.312L130.167 66.2675C130.221 65.9609 130.271 65.5159 130.335 64.9522C130.602 62.5244 131.102 58.005 133.346 55.5327L133.519 55.6909C131.329 58.1089 130.835 62.5788 130.568 64.9769C130.503 65.5456 130.454 65.9955 130.399 66.312Z" fill="#9B4C3A"/>
<path d="M130.815 66.2923C130.395 68.1317 128.763 74.8168 128.763 74.8168C128.763 74.8168 125.134 75.3409 122.399 75.7662C119.665 76.1865 113.771 77.2941 112.827 77.1853C111.882 77.0815 112.565 80.4982 112.565 80.4982C112.565 80.4982 114.404 80.9185 114.933 80.9185C115.462 80.9185 119.457 81.6552 123.032 81.8135C126.607 81.9717 131.863 81.5316 133.08 81.4377C134.296 81.3437 135.394 81.2844 137.08 78.55C138.761 75.8156 141.283 70.3914 141.678 67.8152C138.712 65.6099 133.871 65.2935 130.82 66.2923H130.815Z" fill="#ED9558"/>
<path d="M90.5063 76.2212H90.8723L111.447 83.0794L93.8588 82.3327L90.5063 76.2212Z" fill="#A8A8A8"/>
<path d="M91.5103 78.3125L100.979 81.4672L94.0617 80.8293L91.5103 78.3125Z" fill="#484948"/>
<path d="M112.658 77.2052C111.946 76.9728 107.565 77.4327 106.72 77.141C105.874 76.8492 105.078 76.8492 103.679 76.7899C102.279 76.7306 101.103 76.7355 99.8517 77.9024C98.5957 79.0694 98.1655 79.8358 97.9529 80.1572C97.6216 80.6615 98.0123 81.3686 98.5661 80.8643C99.0407 80.4341 99.0407 80.5231 99.0407 80.5231C98.576 81.3983 99.1001 81.5417 99.5649 81.4378C100.03 81.3389 100.846 80.0237 101.459 79.5589C102.072 79.0941 103.031 78.9359 103.441 79.2029C103.852 79.4699 103.674 79.3265 103.674 79.3265C103.674 79.3265 102.304 79.7962 101.81 80.1176C101.315 80.439 101.137 81.1066 101.953 81.0472C102.769 80.9879 103.847 80.4341 104.139 80.4637C104.43 80.4934 105.419 80.5824 106.032 80.8445C106.646 81.1066 107.372 81.4527 108.979 81.4428C110.581 81.428 112.554 80.4984 112.554 80.4984L112.648 77.2102L112.658 77.2052Z" fill="#ED9558"/>
<path d="M103.703 79.4004L103.644 79.2521C104.544 78.8911 105.231 78.8565 105.938 79.1285L105.879 79.2768C105.202 79.0147 104.574 79.0494 103.703 79.4004Z" fill="#995F37"/>
<path d="M99.1101 80.5626L98.9717 80.4835C99.2881 79.9395 100.826 78.0655 101.523 77.8232L101.573 77.9716C100.95 78.1891 99.4513 79.9692 99.1052 80.5626H99.1101Z" fill="#995F37"/>
<path d="M116.638 53.6045C112.747 54.2967 106.799 61.2687 105.409 62.312C108.707 64.1019 109.81 67.5088 109.81 67.5088L115.941 57.3772L116.638 53.6094V53.6045Z" fill="#C15F44"/>
<path d="M95.7574 83.0794L111.447 84.0486V83.0794L95.2036 81.8433L95.7574 83.0794Z" fill="#777777"/>
<path d="M78.6937 78.3125C72.3398 79.0295 72.6266 79.5783 70.54 82.4116C68.4534 85.2449 58.757 107.476 57.1895 110.754C55.627 114.032 51.7504 118.577 49.293 120.292C46.8355 122.008 45.8663 121.706 44.5264 122.008C43.1864 122.305 43.8539 123.798 45.8663 124.391C47.8788 124.99 53.4662 124.095 55.7754 124.391C58.0845 124.688 60.2453 124.095 60.097 121.934C59.9486 119.773 59.1278 117.316 61.7386 113.963C64.3444 110.611 70.99 104.474 72.5574 99.9996C74.1249 95.5247 76.0582 91.2822 77.2498 90.1648C78.4415 89.0473 82.59 88.5825 83.8262 88.3155C85.1563 88.0287 82.4911 78.9949 78.6986 78.3174L78.6937 78.3125Z" fill="#ED9558"/>
<path d="M149.926 97.6859C148.185 96.3508 146.39 95.1048 144.541 93.9477C143.612 93.3742 142.677 92.8154 141.718 92.2962C140.763 91.7721 139.794 91.2727 138.805 90.8178C138.558 90.7041 138.311 90.5903 138.064 90.4766L137.312 90.1552L136.556 89.8486C136.303 89.7448 136.046 89.6608 135.794 89.5619C134.776 89.1811 133.737 88.8597 132.684 88.5779C130.578 88.034 128.407 87.7373 126.211 87.7719C127.299 87.6532 128.407 87.6483 129.505 87.7274C130.602 87.8115 131.695 87.9697 132.768 88.2219C133.846 88.4592 134.899 88.7806 135.942 89.1416C136.981 89.5075 137.999 89.9278 138.998 90.3926C139.992 90.8623 140.971 91.3666 141.93 91.9106C142.885 92.4594 143.824 93.028 144.734 93.6461C146.559 94.8674 148.304 96.2074 149.921 97.6908L149.926 97.6859Z" fill="#7E9596"/>
<path d="M118.374 106.927C118.404 106.042 118.3 105.177 118.092 104.341C117.88 103.505 117.573 102.694 117.197 101.923C116.817 101.152 116.367 100.405 115.852 99.7079C115.338 99.0058 114.77 98.3432 114.176 97.6855C114.898 98.1948 115.561 98.7981 116.144 99.4755C116.733 100.148 117.227 100.904 117.623 101.71C118.018 102.516 118.31 103.377 118.458 104.262C118.478 104.371 118.488 104.484 118.503 104.598C118.518 104.712 118.532 104.821 118.537 104.934L118.552 105.271V105.439C118.557 105.493 118.552 105.552 118.552 105.607L118.537 105.943C118.528 106.057 118.513 106.166 118.498 106.274C118.478 106.497 118.419 106.714 118.369 106.927H118.374Z" fill="#7E9596"/>
<path d="M152.532 81.438C151.993 81.1363 151.419 80.9336 150.831 80.7803C150.242 80.627 149.644 80.5232 149.041 80.4391C148.438 80.36 147.834 80.2958 147.226 80.2612C146.618 80.2216 146.01 80.1969 145.402 80.187C144.18 80.1672 142.959 80.187 141.738 80.2414C140.516 80.3007 139.295 80.3897 138.074 80.5232C139.26 80.1969 140.487 80.004 141.713 79.8755C142.939 79.7469 144.175 79.6925 145.412 79.7172C146.03 79.7321 146.648 79.7617 147.266 79.8161C147.884 79.8755 148.497 79.9546 149.105 80.0733C149.713 80.1919 150.317 80.3452 150.905 80.5578C151.488 80.7754 152.057 81.0473 152.537 81.438H152.532Z" fill="#7E9596"/>
<path d="M96.0986 83.0992L75.9789 78.382L69.5806 60.9225V60.9127C69.363 60.3341 69.8179 59.7259 70.436 59.7655L88.113 61.9164C88.6025 61.9461 89.0278 62.2724 89.186 62.7422L89.4134 63.4196L96.1035 83.1041L96.0986 83.0992Z" fill="#929392"/>
<path d="M109.553 66.6533L109.321 66.6088C110.315 61.506 112.965 56.0224 115.235 54.3857L115.373 54.5786C113.148 56.1856 110.537 61.5999 109.553 66.6533Z" fill="#9B4C3A"/>
<path d="M89.4086 63.4146L69.5757 60.9225V60.9127C69.3581 60.3341 69.813 59.7259 70.4311 59.7655L88.1081 61.9164C88.5976 61.9461 89.0229 62.2724 89.1811 62.7422L89.4086 63.4196V63.4146Z" fill="#B5B5B5"/>
<path d="M128.323 44.7832C128.254 44.7832 128.189 44.7733 128.125 44.7535C127.952 44.6991 127.833 44.5656 127.799 44.3975L128.031 44.3481C128.056 44.4618 128.135 44.5112 128.199 44.531C128.328 44.5755 128.501 44.5409 128.6 44.4519C128.704 44.3629 128.654 44.1651 128.575 44.0118L128.565 43.9921C128.343 43.5718 127.883 42.7015 128.308 42.1625C128.516 41.9005 128.872 41.8065 129.213 41.9252C129.569 42.0488 129.787 42.3554 129.787 42.7262H129.549C129.549 42.4098 129.332 42.2169 129.134 42.1477C128.892 42.0636 128.639 42.1279 128.491 42.3109C128.16 42.7262 128.575 43.5075 128.773 43.8833L128.783 43.903C128.941 44.2047 128.931 44.4766 128.758 44.6299C128.639 44.7337 128.481 44.7881 128.323 44.7881V44.7832Z" fill="#995F37"/>
<path d="M79.8356 70.3521L80.3993 72.053C80.429 72.142 80.5081 72.2063 80.5971 72.2211L83.6974 72.6909C83.8754 72.7156 84.0237 72.5524 83.9743 72.3794L83.5194 70.7328C83.4947 70.6389 83.4155 70.5696 83.3167 70.5498L80.1027 70.0257C79.9148 69.9961 79.7664 70.1741 79.8258 70.3521H79.8356Z" fill="#B5B5B5"/>
<path d="M76.7848 28.8567C84.4066 28.8567 90.5852 22.6781 90.5852 15.0563C90.5852 7.43452 84.4066 1.25586 76.7848 1.25586C69.163 1.25586 62.9844 7.43452 62.9844 15.0563C62.9844 22.6781 69.163 28.8567 76.7848 28.8567Z" fill="#D8EAEA"/>
<path d="M91.1787 10.6409C90.7881 9.36517 90.2294 8.16363 89.5322 7.05603C88.7757 5.84955 87.851 4.76173 86.7929 3.81731C86.1797 3.26846 85.5221 2.77399 84.8249 2.32898C82.496 0.850537 79.7369 -0.00488281 76.78 -0.00488281C68.478 -0.00488281 61.7236 6.74947 61.7236 15.0515C61.7236 17.42 62.2725 19.6648 63.2565 21.6624C63.6372 22.4387 64.0822 23.1755 64.5866 23.8727C65.3876 24.9803 66.3419 25.9741 67.4099 26.8296C68.4533 27.6603 69.6054 28.3575 70.8465 28.8915C72.6661 29.6777 74.6736 30.1128 76.78 30.1128C85.082 30.1128 91.8364 23.3584 91.8364 15.0564C91.8364 13.5187 91.604 12.0353 91.1738 10.6409H91.1787ZM76.7849 27.6059C75.4499 27.6059 74.1594 27.3982 72.9479 27.0076C71.6277 26.5823 70.4014 25.9445 69.3136 25.1336C68.211 24.3128 67.2468 23.3189 66.4606 22.1866C65.9711 21.4795 65.5508 20.718 65.2145 19.917C64.5816 18.4237 64.2355 16.7772 64.2355 15.0564C64.2355 8.13396 69.8674 2.50698 76.7849 2.50698C78.9952 2.50698 81.0719 3.08056 82.8767 4.08432C83.6085 4.48978 84.2958 4.96941 84.9287 5.50837C86.0067 6.42807 86.9214 7.52577 87.6384 8.75204C88.3109 9.90414 88.8053 11.1749 89.0822 12.5198C89.2503 13.3357 89.3393 14.1862 89.3393 15.0515C89.3393 21.969 83.7074 27.6009 76.7899 27.6009L76.7849 27.6059Z" fill="#D3A783"/>
<path d="M84.9236 5.51347L66.4604 22.1867C65.9709 21.4796 65.5506 20.7182 65.2144 19.9171L82.8765 4.08447C83.6083 4.48993 84.2956 4.96956 84.9286 5.50852L84.9236 5.51347Z" fill="#FFFEFD"/>
<path d="M89.0771 12.5251L72.9478 27.0079C71.6276 26.5827 70.4013 25.9448 69.3135 25.1339L87.6333 8.75732C88.3058 9.90942 88.8002 11.1802 89.0771 12.5251Z" fill="#FFFEFD"/>
<path d="M76.7847 28.2042C73.279 28.2042 69.9809 26.8395 67.5037 24.3573C65.0264 21.88 63.6567 18.5819 63.6567 15.0762C63.6567 11.5705 65.0215 8.27241 67.5037 5.79516C69.9809 3.3179 73.279 1.94824 76.7847 1.94824C80.2904 1.94824 83.5885 3.31296 86.0658 5.79516C88.543 8.27241 89.9127 11.5705 89.9127 15.0762C89.9127 18.5819 88.548 21.88 86.0658 24.3573C83.5885 26.8345 80.2904 28.2042 76.7847 28.2042ZM76.7847 2.11636C73.3235 2.11636 70.0699 3.46624 67.6223 5.91383C65.1747 8.36141 63.8249 11.615 63.8249 15.0762C63.8249 18.5374 65.1747 21.791 67.6223 24.2386C70.0699 26.6862 73.3235 28.0361 76.7847 28.0361C80.2459 28.0361 83.4995 26.6862 85.9471 24.2386C88.3947 21.791 89.7446 18.5374 89.7446 15.0762C89.7446 11.615 88.3947 8.36141 85.9471 5.91383C83.4995 3.46624 80.2459 2.11636 76.7847 2.11636Z" fill="#725A49"/>
<path d="M25.6479 115.14C25.6479 115.442 25.6677 115.743 25.7023 116.04C25.7221 116.193 25.7419 116.347 25.7716 116.5C26.3946 120.115 29.2279 123.472 29.7767 123.976C30.5283 124.664 33.0847 125.059 35.3839 125.059C37.6832 125.059 41.7575 124.723 42.4646 123.976C43.0085 123.403 44.7441 120.377 45.5154 117.459C45.555 117.306 45.5945 117.153 45.6292 117.004C45.7973 116.268 45.8962 115.551 45.8912 114.888C45.8863 114.25 45.7676 113.578 45.5748 112.89C45.5402 112.762 45.5006 112.633 45.461 112.5C44.5562 109.607 42.5388 106.576 42.4695 105.211C42.4695 105.211 39.7253 106.354 36.2739 106.354C32.8226 106.354 29.4603 105.211 29.4603 105.211C29.1735 106.799 27.072 109.498 26.1226 112.445C26.0831 112.574 26.0435 112.703 26.004 112.836C25.7864 113.593 25.6529 114.364 25.6529 115.135L25.6479 115.14Z" fill="#F7B26D"/>
<path d="M28.8618 105.568C28.8618 106.3 32.0066 106.898 35.8881 106.898C39.7696 106.898 42.9144 106.305 42.9144 105.568C42.9144 104.831 39.7696 104.238 35.8881 104.238C32.0066 104.238 28.8618 104.831 28.8618 105.568Z" fill="#EFD6D1"/>
<path d="M29.8608 105.568C29.8608 105.914 32.0711 106.206 34.9439 106.25C35.0873 106.25 35.2258 106.25 35.3741 106.25C35.5125 106.25 35.651 106.25 35.7944 106.25C35.8241 106.25 35.8488 106.25 35.8784 106.25C36.0218 106.25 36.1652 106.25 36.3086 106.25C36.363 106.25 36.4223 106.25 36.4767 106.25C36.6201 106.25 36.7635 106.25 36.902 106.24C37.1294 106.235 37.347 106.23 37.5646 106.22C37.708 106.216 37.8513 106.211 37.9898 106.201C40.1753 106.097 41.718 105.85 41.718 105.558C41.718 105.266 40.1902 105.019 38.0195 104.915C37.881 104.91 37.7376 104.9 37.5942 104.895C37.3519 104.885 37.1047 104.88 36.8525 104.876C36.7141 104.876 36.5707 104.871 36.4273 104.871C36.3432 104.871 36.2542 104.871 36.1702 104.871C36.0466 104.871 35.918 104.871 35.7944 104.871H35.7449C35.5719 104.871 35.4038 104.871 35.2356 104.871C35.0922 104.871 34.9489 104.871 34.8055 104.876C32.0019 104.93 29.8658 105.217 29.8658 105.558L29.8608 105.568Z" fill="#C58370"/>
<path d="M37.5596 106.225C37.703 106.22 37.8464 106.215 37.9848 106.205C37.9898 105.815 37.9996 105.385 38.0145 104.925C38.237 97.4386 39.4731 80.8444 40.4324 76.2459C41.451 71.3508 42.5487 70.08 42.5586 70.0701L42.2322 69.813C42.1828 69.8674 41.0505 71.1777 40.0121 76.1718C39.0528 80.7752 37.8167 97.3941 37.5892 104.91C37.5744 105.39 37.5645 105.83 37.5596 106.23V106.225Z" fill="#6B6828"/>
<path d="M35.1021 71.8553C35.1119 72.0036 36.1355 86.5655 36.1355 92.331C36.1355 95.9949 36.2987 101.399 36.4223 104.88C36.4371 105.38 36.4569 105.845 36.4717 106.255C36.6151 106.255 36.7585 106.255 36.897 106.245C36.8821 105.84 36.8673 105.38 36.8475 104.885C36.7239 101.404 36.5607 95.9949 36.5607 92.331C36.5607 86.5556 35.5372 71.9789 35.5273 71.8306L35.1021 71.8553Z" fill="#6B6828"/>
<path d="M35.0181 91.5744C34.9687 96.9641 35.4137 101.657 35.7351 104.875C35.7499 105.019 35.7648 105.157 35.7747 105.296C35.8093 105.637 35.8389 105.958 35.8686 106.26C36.012 106.26 36.1554 106.26 36.2988 106.26C36.2691 105.948 36.2345 105.617 36.1999 105.261C36.19 105.138 36.1752 105.009 36.1603 104.88C35.8389 101.671 35.3989 96.974 35.4434 91.5843C35.5225 82.6148 35.2604 81.0177 34.5929 79.292L34.1924 79.4304C34.7907 80.9831 35.0972 82.2291 35.0132 91.5843L35.0181 91.5744Z" fill="#6B6828"/>
<path d="M31.6704 93.9675C31.7001 94.0268 34.0488 99.0703 34.7954 104.885C34.8547 105.335 34.9042 105.795 34.9388 106.25C35.0822 106.25 35.2206 106.25 35.369 106.25C35.3344 105.785 35.2849 105.325 35.2256 104.87C34.474 98.9714 32.0907 93.8587 32.061 93.7944L31.6704 93.9576V93.9675Z" fill="#6B6828"/>
<path d="M39.7747 68.7353C40.6894 70.8417 40.5856 70.7478 41.6042 71.3213C42.2371 71.6823 45.5698 69.3089 46.7911 68.7353C46.974 68.6512 47.2312 68.3199 47.5377 67.8106C47.5625 67.7711 47.5872 67.7266 47.6168 67.6821C48.0668 66.9256 48.6157 65.8328 49.1991 64.5917C49.2189 64.5521 49.2387 64.5126 49.2535 64.473C49.6244 63.6819 50.0051 62.8364 50.3809 61.9859C50.4007 61.9463 50.4155 61.9068 50.4353 61.8672C50.7616 61.1255 51.088 60.3739 51.3945 59.652C51.4094 59.6125 51.4291 59.5729 51.444 59.5334C51.7654 58.7867 52.067 58.0747 52.339 57.422C52.3538 57.3824 52.3736 57.3429 52.3884 57.3033C52.7197 56.5122 53.0065 55.8249 53.229 55.3057C53.2488 55.2612 53.2636 55.2216 53.2834 55.1821C53.407 54.8904 53.5059 54.658 53.5801 54.4997C53.768 54.0794 53.8372 53.4564 53.8223 52.7493C53.8223 52.7098 53.8223 52.6702 53.8223 52.6307C53.8026 52.0175 53.7235 51.35 53.5998 50.6924C53.5949 50.6528 53.585 50.6083 53.5751 50.5688C53.229 48.7442 52.5812 47.0828 52.0769 47.1916C52.0917 48.8975 51.177 50.4649 50.6973 51.4835C50.6973 51.4835 50.638 51.5824 50.5342 51.7604C50.643 50.8061 50.371 48.8431 50.1979 47.7207C49.4711 47.9926 48.6008 48.3981 47.6613 49.0211C47.6218 49.0458 47.5872 49.0705 47.5476 49.0953C47.1224 49.3821 46.6774 49.7183 46.2324 50.104C46.1977 50.1336 46.1631 50.1633 46.1285 50.193C45.6588 50.6034 45.1841 51.0682 44.7094 51.6022C44.6748 51.6368 44.6451 51.6764 44.6105 51.711C44.5957 51.7258 44.5858 51.7406 44.571 51.7555C44.0913 52.3093 43.6315 52.8581 43.1964 53.3971C43.1617 53.4366 43.1271 53.4811 43.0975 53.5207C42.4744 54.297 41.9009 55.0585 41.3817 55.7804C41.3471 55.8249 41.3174 55.8743 41.2828 55.9188C40.7735 56.6408 40.3186 57.3231 39.928 57.956C39.8983 58.0055 39.8637 58.0549 39.834 58.1044C39.3841 58.8411 39.028 59.4987 38.7709 60.0525C38.7413 60.1168 38.7116 60.1762 38.6869 60.2404C38.588 60.4629 38.5138 60.6657 38.4545 60.8437C38.0935 61.9513 38.8599 66.6388 39.7747 68.7452V68.7353Z" fill="#8E8A35"/>
<path d="M41.6436 71.0145C41.6683 70.9304 44.1802 62.4702 45.7575 59.9484C47.0678 57.847 49.6094 53.555 50.6428 51.8046L50.4302 51.6909C49.3968 53.4364 46.8552 57.7283 45.5449 59.8298C44.8774 60.9027 43.9775 63.0982 42.8699 66.3616C42.0491 68.7894 41.4112 70.9304 41.4062 70.9502L41.6436 71.0095V71.0145Z" fill="#A5A25E"/>
<path d="M49.2388 53.8716L49.2487 53.9853C49.9162 53.9408 52.4577 53.1645 53.8224 52.7393C53.8224 52.6997 53.8224 52.6602 53.8224 52.6206C52.4725 53.0458 49.8964 53.832 49.2437 53.8765L49.2388 53.8716Z" fill="#A5A25E"/>
<path d="M48.1309 55.8448C48.1902 55.8497 48.2644 55.8547 48.3484 55.8547C49.3571 55.8547 51.8789 55.5036 53.2288 55.3009C53.2485 55.2564 53.2634 55.2168 53.2832 55.1772C51.8492 55.3899 48.9368 55.8003 48.1408 55.731L48.1309 55.8448Z" fill="#A5A25E"/>
<path d="M43.5029 64.9721C43.5623 64.9721 43.6315 64.9721 43.7007 64.9721C44.9566 64.9721 47.8196 64.715 49.1991 64.5864C49.2189 64.5469 49.2387 64.5073 49.2535 64.4678C47.8295 64.6013 44.6402 64.8881 43.5029 64.8584V64.9721Z" fill="#A5A25E"/>
<path d="M42.3853 68.2458C42.5731 68.2656 42.7957 68.2755 43.0429 68.2755C44.4274 68.2755 46.5437 67.9689 47.5375 67.8107C47.5623 67.7711 47.587 67.7266 47.6167 67.6821C46.514 67.8601 43.661 68.2804 42.405 68.1321L42.3902 68.2458H42.3853Z" fill="#A5A25E"/>
<path d="M47.5425 49.0855C47.7848 50.6974 48.2743 53.6493 48.7638 54.663L48.8775 54.6135C48.3979 53.6147 47.8985 50.6035 47.6612 49.0063C47.6216 49.0311 47.587 49.0558 47.5474 49.0805L47.5425 49.0855Z" fill="#A5A25E"/>
<path d="M46.1235 50.1828C46.4647 51.7156 47.2905 55.3202 47.7206 56.4031L47.8344 56.3635C47.3992 55.2708 46.5587 51.5821 46.2274 50.0938C46.1928 50.1234 46.1581 50.1531 46.1235 50.1828Z" fill="#A5A25E"/>
<path d="M39.834 58.0941C40.0021 58.8803 40.3136 60.3044 40.6993 61.7977C41.4707 64.7941 42.1431 66.6088 42.692 67.1873L42.781 67.1131C41.6783 65.9561 40.3087 59.7605 39.9279 57.9458C39.8983 57.9952 39.8637 58.0447 39.834 58.0941Z" fill="#A5A25E"/>
<path d="M38.6871 60.2303C38.8404 60.9028 39.1024 62.0203 39.4535 63.3108C39.9776 65.2442 40.8083 67.9637 41.7824 69.9712L41.8912 69.9218C40.9171 67.9241 40.0913 65.2095 39.5672 63.2861C39.1865 61.8868 38.9096 60.6902 38.7662 60.0474C38.7365 60.1116 38.7069 60.171 38.6821 60.2303H38.6871Z" fill="#A5A25E"/>
<path d="M31.7546 67.3606C33.1688 69.4719 35.2356 72.5871 35.2356 72.5871C36.3581 72.142 39.4237 69.2049 40.4275 65.3926C41.3274 61.966 39.9627 50.3264 38.7661 46.9245C37.8266 47.4832 36.8179 48.2595 36.6399 49.0952C36.9761 47.6118 37.3124 46.2916 37.5398 45.4213C36.4124 44.8131 35.1367 45.2532 34.5285 46.3756C33.7621 47.7947 30.6965 61.8325 30.3405 63.2912C29.9844 64.7498 30.3405 65.2492 31.7546 67.3606Z" fill="#6B6828"/>
<path d="M35.3542 72.5969C35.6607 70.2532 35.6212 65.8969 35.5816 62.05C35.5618 59.9436 35.5421 57.9559 35.5816 56.4972C35.6261 54.8309 36.0217 52.3437 36.7535 49.1149C37.0947 47.6167 37.4309 46.2915 37.6534 45.446L37.4161 45.3916C37.1936 46.2371 36.8524 47.5672 36.5112 49.0704C35.7745 52.319 35.3789 54.816 35.3344 56.4972C35.2948 57.9608 35.3146 59.9486 35.3344 62.055C35.369 65.892 35.4135 70.2383 35.1069 72.5722L35.3492 72.6018L35.3542 72.5969Z" fill="#A5A25E"/>
<path d="M19.6795 62.6038C19.6795 62.6433 19.6795 62.6878 19.6845 62.7274C19.7141 63.2268 19.8081 63.7707 19.9861 64.3492C20.0009 64.3937 20.0108 64.4333 20.0256 64.4778C20.2284 65.0909 20.53 65.7386 20.9552 66.4161C21.0788 66.6089 21.2124 66.8166 21.3508 67.0341C21.3755 67.0737 21.4002 67.1132 21.425 67.1528C21.8502 67.8154 22.3447 68.562 22.8639 69.3482C22.8886 69.3878 22.9182 69.4273 22.943 69.4669C23.4177 70.1789 23.9121 70.9206 24.4115 71.6524C24.4412 71.692 24.4659 71.7315 24.4956 71.776C24.9802 72.493 25.4647 73.2001 25.9246 73.8725C25.9493 73.9121 25.979 73.9517 26.0037 73.9912C26.6218 74.8862 27.1953 75.707 27.675 76.3795C27.7046 76.419 27.7343 76.4586 27.764 76.5031C28.2683 77.2102 28.6589 77.7343 28.8666 77.9815C29.811 79.0941 32.6443 80.706 34.5282 79.7616C35.1364 79.455 36.2044 76.7998 35.71 73.4374C35.705 73.388 35.6951 73.3336 35.6853 73.2841C35.5369 72.3447 35.265 71.3508 34.8249 70.3421C34.8051 70.3025 34.7903 70.258 34.7705 70.2185C34.6963 70.0454 34.6123 69.8773 34.5282 69.7042C34.1326 68.9131 33.7321 68.1862 33.3464 67.5335C33.3267 67.4989 33.3019 67.4594 33.2822 67.4248C32.7036 66.4556 32.1449 65.6348 31.6307 64.9426C31.6059 64.9079 31.5812 64.8733 31.5565 64.8437C31.0769 64.2058 30.6417 63.6817 30.2659 63.2614C30.2363 63.2317 30.2116 63.1971 30.1819 63.1674C29.6281 62.5494 29.2276 62.1637 29.0446 61.9609C28.9062 61.8077 28.5452 61.5901 28.0557 61.3429C28.0211 61.328 27.9815 61.3083 27.9469 61.2885C27.2843 60.9621 26.424 60.5863 25.5982 60.2501C25.5587 60.2353 25.5241 60.2204 25.4845 60.2056C24.8516 59.9485 24.2434 59.7161 23.7786 59.5529C23.4127 60.2847 23.1408 61.3725 23.3385 62.9153C22.6413 61.6198 22.3348 60.0869 22.1914 59.0238C21.4695 58.8112 20.8909 58.7717 20.4855 59.3749C20.1394 59.8941 19.6053 61.0511 19.6746 62.6186L19.6795 62.6038Z" fill="#8E8A35"/>
<path d="M34.4145 79.7764L34.6518 79.722C34.0683 77.4376 27.5068 68.4878 24.7032 64.6656C24.3621 64.2008 24.0852 63.825 23.8973 63.5679C23.7341 63.3454 23.5857 63.1031 23.4522 62.8509C22.7649 61.5653 22.4584 60.0473 22.3199 58.9941L22.0776 59.0238C22.2161 60.0918 22.5325 61.6395 23.2347 62.9548C23.3731 63.2168 23.5314 63.469 23.6945 63.6965C23.8824 63.9536 24.1593 64.3294 24.5005 64.7991C27.0569 68.2801 33.8409 77.5315 34.4145 79.7764Z" fill="#A5A25E"/>
<path d="M32.4269 95.2482C33.9054 94.3384 35.8387 91.9848 35.8387 90.9761C35.8387 89.9674 29.8261 85.4826 29.1684 84.7261C29.1684 84.7261 28.7086 85.987 28.3031 86.1749C27.8977 86.3677 28.3031 84.5926 27.334 83.8707C26.3648 83.1488 22.3399 79.9348 21.3757 78.2091C20.4066 76.4834 20.5351 76.2411 20.2434 76.5774C19.9517 76.9136 19.8083 77.68 19.8083 77.68C19.8083 77.68 19.5957 76.0977 19.1902 75.6626C18.7847 75.2275 18.0678 75.5192 17.9145 76.1422C17.7612 76.7653 17.865 78.2536 17.9145 79.02C17.9639 79.7864 19.7489 81.2945 21.0741 82.9411C22.3993 84.5876 28.407 91.8365 29.5294 92.8452C30.6518 93.8539 32.4319 95.2433 32.4319 95.2433L32.4269 95.2482Z" fill="#6B6828"/>
<path d="M38.6968 90.2194C38.6968 90.2194 44.7094 88.3849 46.4203 85.4379C48.1311 82.4909 52.3785 76.3794 54.208 75.3756C56.0376 74.3768 57.4517 73.9862 57.4517 73.9862C57.4517 73.9862 54.7965 72.9874 54.4454 73.0418C54.0894 73.0962 52.4379 74.7081 52.4379 74.7081C52.4379 74.7081 53.145 72.3742 52.7346 72.3742C52.3242 72.3742 50.7864 71.9539 49.9013 72.7451C49.0162 73.5412 48.8085 75.9838 48.8085 75.9838L48.0767 73.373C48.0767 73.373 45.7478 75.1531 44.4325 76.4288C43.1173 77.7095 40.5807 81.0817 40.2247 84.2018C39.8687 87.3218 38.6968 90.2144 38.6968 90.2144V90.2194Z" fill="#8E8A35"/>
<path d="M35.463 101.276C35.463 101.276 31.9227 97.5177 29.035 96.7018C26.1424 95.886 23.3883 95.1047 22.2609 97.8836C21.1286 100.662 23.3141 102.274 24.5502 102.665C25.7913 103.056 26.8495 103.056 27.6159 102.665C28.3823 102.274 28.4417 102.358 29.0301 102.957C29.6185 103.555 30.9189 104.722 32.5111 104.386C34.1032 104.054 34.2219 101.775 35.463 101.276Z" fill="#8E8A35"/>
<path d="M35.463 101.889C35.463 101.889 34.5779 97.5525 37.4705 95.0505C40.3631 92.5485 46.9691 91.2135 48.324 91.0503L47.7356 93.0529C47.7356 93.0529 49.6837 92.4991 49.9161 91.8859C50.1535 91.2728 50.6232 92.6622 50.2128 94.2198C49.7975 95.7774 46.4351 99.8913 44.2545 100.836C42.074 101.78 35.463 101.894 35.463 101.894V101.889Z" fill="#6B6828"/>
<path d="M35.5418 101.884C35.6061 101.81 42.1825 94.6152 47.7452 93.0873L47.7254 93.0181C44.7784 93.829 41.5545 96.0986 39.3888 97.9281C37.045 99.9059 35.3737 101.716 35.3589 101.735L35.5418 101.884Z" fill="#A5A25E"/>
<path d="M24.2188 97.7996C25.1335 98.1506 26.0433 98.5314 26.9976 98.8033C27.4773 98.9418 27.9618 99.0555 28.4612 99.1198L28.8321 99.1692L29.015 99.194L29.198 99.2236L29.3809 99.2533L29.5589 99.2929C29.6776 99.3176 29.8012 99.3423 29.9199 99.372C30.8742 99.5945 31.8186 99.8763 32.7482 100.193C33.213 100.356 33.6679 100.524 34.1179 100.712L34.4541 100.86C34.5629 100.91 34.6717 100.964 34.7805 101.019C34.8348 101.043 34.8892 101.073 34.9387 101.103L35.0969 101.187C35.1513 101.216 35.2008 101.246 35.2502 101.281L35.3985 101.375L35.5469 101.192L35.3886 101.093C35.3343 101.058 35.2848 101.023 35.2255 100.999L35.0623 100.91C35.0079 100.88 34.9535 100.85 34.8942 100.826C34.7805 100.771 34.6717 100.717 34.558 100.667L34.2168 100.519C33.7619 100.331 33.2971 100.158 32.8273 99.9999C31.8928 99.6835 30.9434 99.4066 29.9743 99.189C29.8556 99.1594 29.732 99.1396 29.6084 99.1099L29.4254 99.0753L29.2425 99.0456L29.0595 99.016L28.8716 98.9912L28.5057 98.9467C28.0212 98.8874 27.5415 98.7737 27.0718 98.6451C26.1274 98.3831 25.2225 98.0073 24.3028 97.6611L24.2336 97.8194L24.2188 97.7996Z" fill="#A5A25E"/>
<path d="M18.3199 78.6787L21.8108 82.758C22.9777 84.1128 24.1446 85.4726 25.3264 86.8175C26.528 88.1476 27.6801 89.5123 28.8124 90.8919C29.381 91.5841 29.9397 92.2764 30.4935 92.9785C30.7704 93.3296 31.0424 93.6806 31.3094 94.0366C31.4429 94.2147 31.5764 94.3927 31.705 94.5707L31.8978 94.8426L32.0758 95.1146L32.2884 95.0009L32.1005 94.719L31.9028 94.4471C31.7742 94.2641 31.6357 94.0861 31.5022 93.9081C31.2303 93.5521 30.9534 93.201 30.6765 92.8499C30.1177 92.1528 29.5541 91.4605 28.9805 90.7683C27.8383 89.3937 26.6763 88.0289 25.4649 86.7038C24.2732 85.3638 23.1013 84.0139 21.9245 82.664L18.4089 78.6045L18.3149 78.6787H18.3199Z" fill="#A5A25E"/>
<path d="M56.0327 74.001C55.118 74.441 54.2279 74.9207 53.3527 75.425C52.4825 75.9343 51.6271 76.4683 50.8013 77.0469C50.386 77.3337 49.9854 77.6353 49.5899 77.9418C49.1943 78.2534 48.8086 78.5747 48.4378 78.906C47.701 79.5785 47.0038 80.3054 46.45 81.1262L46.3957 81.2003L46.3462 81.2795L46.2473 81.4377L46.1484 81.5959L46.0594 81.7591L45.7133 82.4019C45.4661 82.8172 45.1941 83.2276 44.9024 83.6183C44.3239 84.4094 43.6959 85.1659 43.0432 85.9076C42.3905 86.6493 41.7131 87.3663 41.011 88.0684C40.3088 88.7656 39.582 89.448 38.8057 90.0611L38.9589 90.2391C39.7451 89.6111 40.4671 88.9189 41.1741 88.2168C41.8763 87.5097 42.5537 86.7828 43.2014 86.0362C43.8541 85.2895 44.4821 84.5231 45.0606 83.7221C45.3523 83.3216 45.6243 82.9112 45.8765 82.4859L46.2176 81.8382L46.3017 81.68L46.3957 81.5267L46.4896 81.3734L46.539 81.2943L46.5885 81.2201C47.1324 80.4141 47.8098 79.6922 48.5416 79.0198C48.9075 78.6885 49.2883 78.3671 49.6789 78.0556C50.0695 77.749 50.47 77.4474 50.8804 77.1606C51.6963 76.5821 52.5468 76.048 53.4121 75.5338C54.2774 75.0245 55.1674 74.5399 56.0723 74.1048L56.0179 74.001H56.0327Z" fill="#A5A25E"/>
<path d="M27.0225 68.1025L27.1312 68.1568C27.156 68.1173 28.9162 65.1505 30.2661 63.2419C30.2365 63.2122 30.2117 63.1776 30.1821 63.1479C28.852 65.0269 27.1164 67.9393 27.0225 68.0975V68.1025Z" fill="#A5A25E"/>
<path d="M28.4962 70.1595L28.6049 70.2089C28.6247 70.1644 30.2812 66.7872 31.6261 64.9231C31.6014 64.8885 31.5767 64.8539 31.5519 64.8242C31.1119 65.4275 30.5877 66.2631 29.9944 67.3114C29.1686 68.775 28.4962 70.1446 28.4912 70.1595H28.4962Z" fill="#A5A25E"/>
<path d="M31.4976 74.496L31.6014 74.5602C31.6261 74.5256 33.243 72.2116 34.8302 70.3326C34.8105 70.293 34.7956 70.2485 34.7758 70.209C33.2084 72.0632 31.6063 74.3526 31.5025 74.5009L31.4976 74.496Z" fill="#A5A25E"/>
<path d="M32.9609 76.4835L33.0598 76.5528C33.0796 76.528 34.474 74.8073 35.7151 73.4228C35.7101 73.3734 35.7003 73.319 35.6904 73.2695C34.4542 74.6392 33.045 76.3748 32.9609 76.4835Z" fill="#A5A25E"/>
<path d="M21.356 67.0293C21.3807 67.0689 21.4054 67.1084 21.4301 67.148C23.6602 67.2914 26.6912 67.7314 26.7407 67.7364L26.7604 67.6226C26.5725 67.5979 23.5662 67.1579 21.356 67.0293Z" fill="#A5A25E"/>
<path d="M22.874 69.3438C22.8987 69.3833 22.9284 69.4229 22.9531 69.4624C23.3487 69.4871 23.7888 69.5218 24.2783 69.5663C26.3353 69.7393 28.3378 69.9767 28.3576 69.9816L28.3724 69.8679C28.1747 69.8432 25.287 69.502 22.874 69.3438Z" fill="#A5A25E"/>
<path d="M27.6802 76.375C27.7098 76.4146 27.7395 76.4541 27.7692 76.4986C30.286 76.6865 33.2478 77.3194 33.2874 77.3293L33.317 77.2156C33.2775 77.2057 30.2365 76.5579 27.6851 76.3799L27.6802 76.375Z" fill="#A5A25E"/>
<path d="M42.9146 105.568C43.1272 105.949 43.3893 106.478 42.9937 106.898C42.3954 107.531 38.4446 108.006 35.5619 108.006C32.6792 108.006 29.5097 107.427 28.8026 106.898C28.4763 106.656 28.4862 105.865 28.862 105.568C28.862 105.568 29.1735 106.898 35.6954 106.898C42.2174 106.898 42.9096 105.568 42.9096 105.568H42.9146Z" fill="#EFD6D1"/>
<path d="M25.999 112.841C27.2203 113.212 28.8026 113.44 30.108 113.578C32.1205 113.791 34.5235 113.904 37.0305 113.904C37.6535 113.904 38.2815 113.899 38.9094 113.885C40.0764 113.86 41.2433 113.652 42.3657 113.449C42.9195 113.351 43.498 113.247 44.0617 113.173C44.5463 113.108 45.0655 113.034 45.5748 112.891C45.5402 112.762 45.5006 112.634 45.461 112.5C44.9765 112.634 44.4721 112.708 44.0024 112.772C43.4288 112.851 42.8503 112.955 42.2866 113.054C41.179 113.252 40.0319 113.454 38.8995 113.479C33.4209 113.603 28.5702 113.192 26.1177 112.451C26.0781 112.579 26.0386 112.708 25.999 112.841Z" fill="#F7D6AA"/>
<path d="M25.7021 116.041C25.7219 116.194 25.7417 116.347 25.7714 116.5C27.3982 117.119 29.0942 117.559 30.7556 117.989C31.1066 118.078 32.9856 118.196 35.2156 118.221C35.4727 118.221 35.7645 118.221 36.0859 118.221C37.7917 118.221 40.2937 118.167 42.3408 117.9C42.6474 117.86 42.9638 117.84 43.2704 117.816C43.6758 117.786 44.0961 117.756 44.5115 117.687C44.8527 117.628 45.1889 117.549 45.5202 117.455C45.5597 117.301 45.5993 117.148 45.6339 117C45.2433 117.123 44.8428 117.222 44.4373 117.292C44.0467 117.361 43.6412 117.386 43.2457 117.415C42.9341 117.435 42.6078 117.46 42.2913 117.499C37.9994 118.063 31.4181 117.737 30.8792 117.598C29.1584 117.153 27.3883 116.693 25.717 116.036L25.7021 116.041Z" fill="#F7D6AA"/>
<path d="M178.852 125.593H149.155V127.883H178.852V125.593Z" fill="#5C6060"/>
<path d="M178.852 125.593C178.852 126.023 172.207 126.375 164.003 126.375C155.8 126.375 149.155 126.023 149.155 125.593C149.155 125.163 155.8 124.812 164.003 124.812C172.207 124.812 178.852 125.163 178.852 125.593Z" fill="#383838"/>
<path d="M178.852 127.883C178.852 128.313 172.207 128.664 164.003 128.664C155.8 128.664 149.155 128.313 149.155 127.883C149.155 127.453 155.8 127.102 164.003 127.102C172.207 127.102 178.852 127.453 178.852 127.883Z" fill="#5C6060"/>
<path d="M182.763 30.0484C182.763 30.0484 181.003 30.0879 178.56 30.1374C178.402 30.1374 178.244 30.1472 178.081 30.1472C176.375 30.1868 174.392 30.2264 172.464 30.2709C172.305 30.2709 172.152 30.2808 171.994 30.2808H171.94C171.781 30.2808 171.618 30.2906 171.465 30.2906C168.661 30.3549 166.095 30.4192 164.834 30.4538C164.78 30.4538 164.73 30.4538 164.681 30.4538C164.602 30.4538 164.523 30.4588 164.458 30.4637C164.429 30.4637 164.394 30.4637 164.359 30.4637C164.097 30.4736 163.746 30.4785 163.321 30.4785C161.867 30.4934 159.543 30.4983 157.041 30.4934C156.883 30.4934 156.725 30.4934 156.562 30.4934C154.49 30.4934 152.329 30.4835 150.455 30.4785C150.292 30.4785 150.129 30.4785 149.971 30.4785C147.241 30.4686 145.491 30.1423 145.491 30.1423L152.651 8.47498C152.651 8.47498 153.595 8.46509 154.97 8.46509C155.123 8.46509 155.281 8.46509 155.444 8.46509C156.359 8.46509 157.417 8.46014 158.505 8.46509C158.663 8.46509 158.821 8.46509 158.98 8.46509C160.176 8.46509 161.378 8.47992 162.431 8.4997C162.594 8.4997 162.752 8.50464 162.906 8.50959C163.069 8.50959 163.222 8.51948 163.375 8.51948C164.809 8.55904 166.293 8.57387 167.692 8.57881C167.855 8.57881 168.013 8.57881 168.172 8.57881C169.531 8.57881 170.797 8.57387 171.836 8.56398C172.004 8.56398 172.162 8.56398 172.31 8.55904C173.685 8.5442 174.56 8.52442 174.56 8.52442L182.758 30.0484H182.763Z" fill="#F7B26D"/>
<path d="M155.444 8.4751C155.395 9.74586 154.802 11.1798 154.376 12.2083C153.827 13.5334 152.636 19.5955 151.677 24.466C151.202 26.879 150.772 29.0744 150.46 30.4935C150.297 30.4935 150.134 30.4935 149.976 30.4935C150.292 29.0645 150.742 26.7801 151.207 24.4116C152.22 19.2692 153.363 13.4444 153.926 12.0896C154.347 11.0859 154.925 9.68653 154.975 8.48004C155.128 8.48004 155.286 8.48004 155.449 8.48004L155.444 8.4751Z" fill="#F2D291"/>
<path d="M158.985 8.4751C158.762 13.0884 158.233 17.7215 157.724 22.2113C157.615 23.1359 157.511 24.0605 157.407 24.9901C157.313 25.8208 157.289 26.6762 157.259 27.5069C157.224 28.4959 157.195 29.5194 157.051 30.5083C156.893 30.5083 156.735 30.5083 156.572 30.5083C156.72 29.5194 156.75 28.4909 156.784 27.4971C156.809 26.6614 156.839 25.7961 156.933 24.9555C157.037 24.0309 157.14 23.1062 157.244 22.1766C157.758 17.6968 158.288 13.0736 158.505 8.4751C158.663 8.4751 158.822 8.4751 158.98 8.4751H158.985Z" fill="#F2D291"/>
<path d="M164.839 30.4589C164.785 30.4589 164.735 30.4589 164.686 30.4589C164.607 30.4589 164.528 30.4639 164.463 30.4688C164.434 30.4688 164.399 30.4688 164.364 30.4688C164.345 30.2265 164.325 29.9793 164.305 29.737C164.305 29.6925 164.3 29.648 164.295 29.6035C164.132 27.7641 163.969 25.8654 163.88 24.021C163.736 20.9307 163.588 17.7364 163.212 14.468C163.123 13.7016 163.005 12.8956 162.886 12.1144C162.708 10.9227 162.525 9.70636 162.436 8.50977C162.599 8.50977 162.757 8.51471 162.911 8.51966C163 9.69647 163.178 10.898 163.356 12.0748C163.474 12.8561 163.598 13.667 163.687 14.4384C164.063 17.7166 164.211 20.9158 164.355 24.0112C164.444 25.8951 164.612 27.8383 164.775 29.7172C164.795 29.9645 164.819 30.2166 164.839 30.4639V30.4589Z" fill="#F2D291"/>
<path d="M171.945 30.286C171.787 30.286 171.623 30.2959 171.47 30.2959C171.262 28.8422 170.976 27.1313 170.803 26.1276C170.699 25.5194 170.62 25.0348 170.58 24.7876C170.348 23.2053 170.105 21.5983 169.863 20.0407C169.626 18.4881 169.378 16.8811 169.146 15.2988C168.938 13.8698 168.592 12.4359 168.261 11.0514C168.063 10.2405 167.865 9.41474 167.692 8.5791C167.856 8.5791 168.014 8.5791 168.172 8.5791C168.34 9.38507 168.533 10.191 168.726 10.9772C169.062 12.3716 169.408 13.8056 169.616 15.2494C169.848 16.8317 170.091 18.4387 170.333 19.9913C170.57 21.5439 170.817 23.1558 171.05 24.7431C171.084 24.9854 171.168 25.465 171.272 26.0732C171.584 27.9126 171.806 29.2723 171.945 30.281V30.286Z" fill="#F2D291"/>
<path d="M178.566 30.1423C178.407 30.1423 178.249 30.1522 178.086 30.1522C176.232 22.6957 173.384 12.1933 171.841 8.56891C172.009 8.56891 172.167 8.56891 172.315 8.56396C174.353 13.3652 177.913 27.5266 178.561 30.1423H178.566Z" fill="#F2D291"/>
<path d="M183.02 30.1522C183.02 30.7703 174.619 31.2746 164.26 31.2746C153.901 31.2746 145.5 30.7752 145.5 30.1522C145.5 29.5292 153.901 29.0298 164.26 29.0298C174.619 29.0298 183.02 29.5292 183.02 30.1522Z" fill="#F2D291"/>
<path d="M164.681 28.9653H163.326V125.959H164.681V28.9653Z" fill="#5C6060"/>
<path d="M172.469 29.2969H171.999V37.6879H172.469V29.2969Z" fill="#754365"/>
<path d="M173.675 37.851C173.675 38.4938 173.028 39.0129 172.231 39.0129C171.435 39.0129 170.788 38.4938 170.788 37.851C170.788 37.2082 171.435 36.689 172.231 36.689C173.028 36.689 173.675 37.2082 173.675 37.851Z" fill="#754365"/>
<path d="M174.59 8.47018C174.59 8.79158 169.685 9.05365 163.637 9.05365C157.59 9.05365 152.685 8.79158 152.685 8.47018C152.685 8.14878 157.59 7.88672 163.637 7.88672C169.685 7.88672 174.59 8.14878 174.59 8.47018Z" fill="#F8BE50"/>
<path d="M116.124 104.396C115.126 106.324 116.139 109.014 118.755 110.374C121.376 111.729 125.079 111.289 126.073 109.36C127.072 107.432 125.554 104.945 122.933 103.59C120.312 102.235 117.118 102.473 116.119 104.401L116.124 104.396Z" fill="#383838"/>
<path d="M128.506 104.44C128.441 105.83 127.418 108.747 126.073 109.36L125.242 105.385C125.242 105.385 127.383 104.485 127.789 104.173C128.194 103.857 128.52 104.173 128.506 104.445V104.44Z" fill="#383838"/>
<path d="M121.064 103.362C121.064 103.362 119.744 100.396 119.521 99.5897C119.299 98.7788 118.443 99.2288 117.993 99.9507C117.543 100.668 117.049 103.105 117.138 104.045L121.064 103.367V103.362Z" fill="#383838"/>
<path d="M123.195 108.416C123.328 108.416 123.452 108.396 123.556 108.357C123.605 108.337 123.63 108.277 123.61 108.228C123.591 108.179 123.531 108.154 123.482 108.174C123.244 108.268 122.844 108.218 122.537 108.055C122.29 107.921 122.132 107.734 122.087 107.526C122.078 107.471 122.023 107.437 121.969 107.452C121.914 107.462 121.88 107.516 121.895 107.57C121.954 107.837 122.147 108.075 122.443 108.233C122.676 108.357 122.948 108.421 123.19 108.421L123.195 108.416Z" fill="#070707"/>
<path d="M119.076 106.107C119.19 106.107 119.304 106.092 119.408 106.067C119.462 106.052 119.492 106.003 119.477 105.948C119.462 105.894 119.413 105.864 119.358 105.879C118.844 106.008 118.191 105.78 117.993 105.177C117.979 105.128 117.919 105.098 117.87 105.113C117.82 105.128 117.791 105.187 117.806 105.236C117.998 105.82 118.547 106.107 119.071 106.107H119.076Z" fill="#070707"/>
<path d="M118.888 107.521C118.78 107.704 118.918 107.986 119.19 108.144C119.462 108.302 119.773 108.283 119.877 108.095C119.986 107.912 119.848 107.63 119.576 107.472C119.304 107.313 118.992 107.333 118.888 107.521Z" fill="#1C1C1C"/>
<path d="M125.015 109.361C126.068 111.151 126.711 111.853 127.818 112.436C128.931 113.02 133.139 116.412 134.835 121.613C136.531 126.815 134.716 133.831 132.788 135.641C130.859 137.451 126.355 137.98 123.521 137.748C120.688 137.515 114.725 136.872 112.564 137.278C110.403 137.688 108.238 138.272 107.303 140.141C106.368 142.01 104.321 141.194 104.613 139.32C104.905 137.451 105.839 135.928 109.404 135.285C112.97 134.642 117.177 134.524 117.177 134.524C115.19 131.72 116.406 128.852 117.667 127.567C118.928 126.281 119.971 125.93 119.971 125.93C119.971 125.93 120.475 124.12 119.383 120.259C118.29 116.402 116.698 112.268 117.667 108.836L125.01 109.351L125.015 109.361Z" fill="#383838"/>
<path d="M119.585 109.459C119.748 109.459 119.902 109.429 120.015 109.38C120.065 109.355 120.085 109.301 120.065 109.251C120.04 109.202 119.986 109.182 119.936 109.202C119.744 109.291 119.378 109.301 119.13 109.157C118.997 109.083 118.918 108.974 118.903 108.841L118.888 108.727L118.779 108.757C118.522 108.821 118.211 108.737 117.993 108.534C117.83 108.386 117.751 108.203 117.776 108.05C117.785 107.995 117.746 107.946 117.696 107.936C117.642 107.926 117.593 107.966 117.583 108.015C117.548 108.238 117.652 108.485 117.865 108.678C118.107 108.9 118.433 109.004 118.73 108.965C118.774 109.113 118.878 109.237 119.031 109.326C119.195 109.419 119.397 109.459 119.585 109.459Z" fill="#070707"/>
<path d="M119.104 108.095L118.717 108.796L118.89 108.892L119.277 108.19L119.104 108.095Z" fill="#070707"/>
<path d="M120.006 126.029C121.143 125.618 122.043 125.322 122.636 125.124C123.17 124.946 123.467 124.852 123.566 124.793L123.467 124.625C123.383 124.674 123.062 124.778 122.572 124.941C121.974 125.139 121.074 125.435 119.937 125.846L120.006 126.029Z" fill="#070707"/>
<path d="M119.996 134.845C121.825 134.845 122.621 134.469 123.299 134.153L123.215 133.975C122.28 134.415 121.118 134.964 117.192 134.434L117.167 134.627C118.325 134.781 119.249 134.845 119.996 134.845Z" fill="#070707"/>
<path d="M121.049 111.185L121.084 110.992C119.214 110.671 118.675 110.275 117.776 109.622L117.642 109.523L117.528 109.682L117.662 109.781C118.552 110.428 119.14 110.854 121.054 111.185H121.049Z" fill="#070707"/>
</g>
<defs>
<clipPath id="clip0_327_2105">
<rect width="200" height="146.677" fill="white"/>
</clipPath>
</defs>
</svg>
