<svg width="211" height="210" viewBox="0 0 211 210" fill="none" xmlns="http://www.w3.org/2000/svg">
<path d="M83.3969 76.8745C82.7154 77.2336 82.0697 77.5885 81.4575 77.9403C82.6755 84.1752 83.5932 89.0052 87.4415 104.152L88.5839 108.665C88.7015 106.89 89.0133 105.233 89.4921 103.699C86.6183 92.2339 85.1672 86.314 83.7234 78.5892C83.6142 78.0054 83.505 77.4342 83.3969 76.8745Z" fill="#191919"/>
<path d="M147.132 65.1943C146.393 65.0757 145.652 64.9707 144.909 64.8793C145.097 65.714 145.269 66.4942 145.422 67.1872C146.593 72.5275 146.619 73.3423 148.71 81.1868C149.463 81.2015 150.202 81.2561 150.927 81.3475C148.661 72.8918 148.681 72.2314 147.472 66.7357L147.132 65.1922V65.1943Z" fill="#191919"/>
<path d="M159.022 118.841C163.776 136.874 167.822 154.651 165.788 158.268C164.67 160.258 163.147 161.675 161.133 162.6C145.302 169.866 137.561 172.746 112.883 176.528C107.685 177.324 107.307 176.4 99.3475 143.56C97.8472 137.366 96.3327 131.176 94.8042 124.99C93.6494 123.912 92.6275 122.701 91.7603 121.381C105.33 176.193 104.64 179.917 113.2 178.604C138.145 174.782 145.979 171.866 162.007 164.509C164.438 163.392 166.273 161.688 167.616 159.298C169.976 155.102 166.616 139.315 160.857 117.59C160.266 118.041 159.653 118.458 159.02 118.842L159.022 118.841Z" fill="#191919"/>
<path d="M177.727 167.358C177.606 166.798 177.382 165.754 176.478 165.632C175.363 165.482 174.949 166.517 174.813 166.857C174.788 166.92 174.766 166.984 174.736 167.036C170.425 174.488 166.882 176.558 159.828 179.506C149.389 183.866 125.725 189.549 113.787 190.562C99.0829 191.81 99.2163 189.599 93.7006 172.055C91.5744 165.289 79.4458 122.871 72.2911 84.8734C71.5939 85.5748 71.0269 86.1891 70.5292 86.6952C76.4491 117.676 85.9411 154.269 92.5614 175.44C97.2454 190.418 98.3479 193.978 113.966 192.656C126.063 191.629 150.052 185.867 160.638 181.445C167.603 178.534 171.528 176.299 175.852 169.269C176.086 172.564 175.554 179.084 169.87 182.621C154.559 192.149 117.625 200.722 103.267 200.563C97.635 200.519 95.8447 198.857 93.961 195.148C88.6344 184.658 72.4497 120.438 66.4237 87.9804C65.6792 87.7694 64.9385 87.5453 64.2019 87.3084C70.5009 122.117 87.0531 186.184 92.0889 196.098C94.3947 200.639 96.9829 202.665 103.536 202.665C118.024 202.665 155.199 194.224 170.98 184.404C178.509 179.719 178.404 170.512 177.729 167.359L177.727 167.358Z" fill="#191919"/>
<path d="M154.193 158.725C152.496 151.768 152.535 151.595 150.969 151.954C150.969 151.954 126.035 157.616 124.796 157.853C118.516 159.05 120.732 158.709 122.331 167.288C122.417 167.751 122.736 168.001 123.225 168.001C123.89 168.001 125.071 167.44 144.612 162.873C154.456 160.572 154.643 160.567 154.193 158.725ZM132.185 158.318L150.832 153.971C151.233 153.971 151.273 154.829 152.218 158.786C151.072 159.339 124.144 165.828 124.039 165.764C123.79 165.62 123.656 164.43 122.608 161.061C122.275 159.997 123.231 160.696 132.186 158.317L132.185 158.318Z" fill="#191919"/>
<path d="M157.589 83.4002C158.487 83.857 159.343 84.3789 160.153 84.9553C158.612 79.0014 157.062 73.0497 155.505 67.1001C154.934 66.9751 154.224 66.7798 153.358 66.5509C154.109 69.555 156.516 79.2664 157.589 83.3992V83.4002Z" fill="#191919"/>
<path d="M176.415 156.407C176.377 151.175 171.426 129.938 166.648 110.618C166.203 111.511 165.695 112.357 165.133 113.156C169.714 131.736 174.279 151.457 174.314 156.422C174.424 171.348 151.604 176.965 136.508 180.697C128.312 182.724 116.395 185.448 107.896 185.03C103.992 184.841 102.767 183.617 101.638 181.115C94.9879 166.389 80.5882 101.368 76.8124 81.5459L76.7136 81.0314C76.0311 81.5385 75.4159 82.0289 74.8562 82.5014C78.8021 103.022 93.0685 167.242 99.7223 181.979C101.753 186.474 104.595 187.173 109.757 187.173C118.245 187.173 128.773 184.764 137.009 182.735C152.75 178.86 176.537 172.991 176.413 156.407H176.415Z" fill="#191919"/>
<path d="M89.803 7.42431C82.3323 17.3899 38.8885 69.3544 33.4348 76.4041C32.7796 77.2514 32.8101 77.3113 33.9042 77.5129C37.9131 78.251 41.8653 79.2538 45.8521 80.0959C47.046 80.3479 47.9889 80.2996 49.3266 93.538C50.0164 100.368 48.5496 107.915 48.6336 111.255C48.6546 112.104 48.4435 112.399 47.7285 112.769C44.6247 114.372 44.2246 117.871 46.2711 119.969C48.3658 122.116 45.0751 122.797 44.5669 133.841C44.4882 135.555 44.3359 150.621 46.416 150.714C46.7772 150.729 46.795 150.387 46.8948 150.146C48.3322 146.666 44.3968 138.905 48.4498 123.015C48.8656 121.383 48.8205 121.413 50.3703 121.1C50.9383 120.986 51.0843 121.176 51.268 121.628C52.7412 125.257 53.8762 131.078 53.5266 136.658C52.9617 145.666 52.1962 145.16 53.0058 145.709C55.0228 147.077 57.1848 131.085 52.4419 120.829C52.212 120.332 52.1941 119.997 52.5658 119.538C54.5451 117.094 53.704 113.813 50.7829 112.597C48.5821 111.68 54.3361 103.485 49.4883 81.8987C49.1869 80.5558 49.0158 80.7962 55.9825 82.4321C63.4029 84.1751 63.2821 84.2528 63.5499 83.9662C63.8533 83.6417 61.1884 78.3256 58.869 70.0222C57.0777 63.6067 57.7948 63.3683 60.3526 59.54C70.8463 43.8362 104.188 29.5667 132.419 33.4412C139.094 34.3568 150.887 37.0973 152.783 43.5632C154.006 47.7317 155.597 51.7921 156.519 56.0561C157.178 59.1116 155.144 59.8991 173.904 36.6227C90.1548 6.44046 90.8635 6.00996 89.803 7.42431ZM51.6303 116.658C51.603 119.819 47.0281 120.392 47.0659 116.873C47.1016 113.598 51.6586 113.383 51.6303 116.658Z" fill="#F4A261"/>
<path d="M148.327 41.6375C142.909 37.9278 133.48 35.6976 123.093 35.6714C87.4994 35.7218 60.297 58.1351 61.0436 64.7585C61.5591 69.3239 66.0111 80.4633 67.4748 84.1236C68.0093 85.4624 67.961 83.5545 73.841 79.0836C93.8183 63.8933 134.501 56.5517 154.574 63.615C154.865 63.7179 155.033 63.6528 155.058 63.6318C154.625 59.6418 149.771 43.1285 148.327 41.6375ZM94.6656 48.8804C90.327 50.9594 76.8146 58.7756 71.6129 62.7152C66.639 66.4815 66.2757 67.4969 65.3801 67.0905C64.9632 66.9015 64.8477 66.5445 64.8404 65.9586C65.5292 58.6716 94.3443 46.3488 95.1392 48.3543C95.2851 48.7218 94.8767 48.7796 94.6656 48.8804Z" fill="#F4A261"/>
<path d="M90.8604 110.227C90.8415 100.073 98.9559 92.0742 109.19 92.2391C119.021 92.3966 126.855 100.19 126.911 110.116C126.969 120.446 118.789 128.419 108.647 128.276C98.7648 128.138 90.8782 120.208 90.8604 110.227ZM124.827 110.275C124.781 101.358 117.654 94.2876 108.761 94.3338C99.8494 94.38 92.784 101.567 92.826 110.542C92.8659 119.24 100.126 126.364 108.905 126.32C117.718 126.276 124.873 119.067 124.827 110.275Z" fill="#F4A261"/>
<path d="M130.433 101.439C130.448 91.5429 138.443 84.3031 146.491 83.5912C158.73 82.5087 166.55 92.5477 166.459 101.504C166.357 111.718 158.092 119.606 148.295 119.544C138.194 119.48 130.418 111.111 130.433 101.439ZM132.377 101.639C132.403 110.236 139.395 117.496 147.998 117.567C157.222 117.644 164.347 110.579 164.356 101.494C164.366 92.7703 157.26 85.2733 147.606 85.5967C139.354 85.875 132.353 93.0748 132.377 101.64V101.639Z" fill="#F4A261"/>
<path d="M105.873 82.1422C101.991 81.5679 97.2139 83.5198 95.3827 86.5606C94.5847 87.8868 93.0612 87.0835 93.6807 85.665C96.2143 79.8658 107.709 78.9481 106.587 81.6718C106.441 82.0257 106.119 82.1128 105.873 82.1422Z" fill="#191919"/>
<path d="M129.993 127.596C126.41 127.477 125.129 124.43 125.38 123.384C125.539 122.723 126.322 122.077 127.311 123.985C128.272 125.839 131.731 126.146 132.875 124.103C133.614 122.786 135.295 123.446 134.618 125.107C134.053 126.493 132.079 127.665 129.994 127.597L129.993 127.596Z" fill="#191919"/>
<path d="M137.678 72.749C139.567 72.7154 143.635 73.3254 142.892 75.0537C142.076 76.9542 139.03 72.9264 133.249 75.8664C131.153 76.9322 130.9 72.8708 137.678 72.7479V72.749Z" fill="#191919"/>
<path d="M107.348 108.489C107.266 105.269 109.898 105.391 110.88 107.06C112.078 109.096 112.973 113.64 110.778 114.104C108.377 114.611 107.397 110.423 107.348 108.489Z" fill="#191919"/>
<path d="M144.592 100.605C144.406 97.2308 146.915 97.4198 147.784 98.6378C149.459 100.983 150.209 105.804 147.958 106.029C147.274 106.097 146.64 106.133 146.132 105.408C145.09 103.917 144.683 102.26 144.592 100.605Z" fill="#191919"/>
</svg>
