<svg width="24" height="25" viewBox="0 0 24 25" fill="none" xmlns="http://www.w3.org/2000/svg">
<path d="M15.5 8.27234C15.5 10.2053 13.933 11.7723 12 11.7723C10.067 11.7723 8.5 10.2053 8.5 8.27234C8.5 6.33934 10.067 4.77234 12 4.77234C13.933 4.77234 15.5 6.33934 15.5 8.27234Z" fill="#BDBBBB"/>
<path d="M18 17.2723C18 19.2053 15.3137 20.7723 12 20.7723C8.68629 20.7723 6 19.2053 6 17.2723C6 15.3393 8.68629 13.7723 12 13.7723C15.3137 13.7723 18 15.3393 18 17.2723Z" fill="#BDBBBB"/>
<path d="M7.12205 5.77234C7.29951 5.77234 7.47276 5.78975 7.64005 5.8229C7.23249 6.5468 7 7.38242 7 8.27234C7 9.14059 7.22131 9.95716 7.61059 10.6687C7.45245 10.6982 7.28912 10.7136 7.12205 10.7136C5.70763 10.7136 4.56102 9.60746 4.56102 8.24297C4.56102 6.87848 5.70763 5.77234 7.12205 5.77234Z" fill="#BDBBBB"/>
<path d="M5.44734 19.7583C4.87942 19.0794 4.5 18.2463 4.5 17.2723C4.5 16.3281 4.85657 15.5163 5.39578 14.849C3.4911 14.9968 2 16.0385 2 17.3017C2 18.5767 3.5173 19.6261 5.44734 19.7583Z" fill="#BDBBBB"/>
<path d="M16.9999 8.27234C16.9999 9.14059 16.7786 9.95716 16.3893 10.6687C16.5475 10.6982 16.7108 10.7136 16.8779 10.7136C18.2923 10.7136 19.4389 9.60746 19.4389 8.24297C19.4389 6.87848 18.2923 5.77234 16.8779 5.77234C16.7004 5.77234 16.5272 5.78975 16.3599 5.8229C16.7674 6.5468 16.9999 7.38242 16.9999 8.27234Z" fill="#BDBBBB"/>
<path d="M18.5526 19.7583C20.4826 19.6261 21.9999 18.5767 21.9999 17.3017C21.9999 16.0385 20.5088 14.9968 18.6041 14.849C19.1433 15.5163 19.4999 16.3281 19.4999 17.2723C19.4999 18.2463 19.1205 19.0794 18.5526 19.7583Z" fill="#BDBBBB"/>
</svg>
