<svg width="29" height="28" viewBox="0 0 29 28" fill="none" xmlns="http://www.w3.org/2000/svg">
    <path opacity="0.5"
        d="M26.1717 14C26.1717 20.4434 20.9483 25.6667 14.505 25.6667C8.06167 25.6667 2.83833 20.4434 2.83833 14C2.83833 7.55672 8.06167 2.33337 14.505 2.33337C20.9483 2.33337 26.1717 7.55672 26.1717 14Z"
        fill="#1E918B" />
    <path
        d="M14.505 20.7083C14.9882 20.7083 15.38 20.3165 15.38 19.8333L15.38 12.8333C15.38 12.35 14.9882 11.9583 14.505 11.9583C14.0217 11.9583 13.63 12.35 13.63 12.8333L13.63 19.8333C13.63 20.3165 14.0217 20.7083 14.505 20.7083Z"
        fill="white" />
    <path
        d="M14.505 8.16663C15.1493 8.16663 15.6717 8.68896 15.6717 9.33329C15.6717 9.97763 15.1493 10.5 14.505 10.5C13.8607 10.5 13.3383 9.97763 13.3383 9.33329C13.3383 8.68896 13.8607 8.16663 14.505 8.16663Z"
        fill="white" />
</svg>