<svg width="29" height="28" viewBox="0 0 29 28" fill="none" xmlns="http://www.w3.org/2000/svg">
<path d="M17.0833 23.3117C18.9182 23.2651 20.2066 23.1175 21.1667 22.6509V24.4999C21.1667 25.1443 20.6443 25.6666 20 25.6666H18.25C17.6057 25.6666 17.0833 25.1443 17.0833 24.4999V23.3117Z" fill="#3291C0"/>
<path d="M7.16666 22.6509C8.12669 23.1175 9.41506 23.2651 11.25 23.3117V24.4999C11.25 25.1443 10.7277 25.6666 10.0833 25.6666H8.33332C7.68899 25.6666 7.16666 25.1443 7.16666 24.4999V22.6509Z" fill="#3291C0"/>
<path opacity="0.5" fill-rule="evenodd" clip-rule="evenodd" d="M6.20016 3.70021C7.56699 2.33337 9.76688 2.33337 14.1667 2.33337C18.5664 2.33337 20.7663 2.33337 22.1332 3.70021C23.3734 4.94049 23.4883 6.86669 23.4989 10.5L23.5 15.1667C23.4894 18.8001 23.3734 20.7263 22.1332 21.9665C21.8506 22.2491 21.5325 22.4732 21.1667 22.651C20.2066 23.1176 18.9182 23.2651 17.0833 23.3117C16.2351 23.3333 15.27 23.3334 14.1667 23.3334C13.0633 23.3334 12.0982 23.3334 11.25 23.3118C9.41505 23.2652 8.12669 23.1176 7.16665 22.6509C6.80084 22.4731 6.4827 22.2491 6.20016 21.9665C4.95988 20.7263 4.84395 18.8001 4.83332 15.1667L4.83441 10.5C4.84504 6.86669 4.95988 4.94049 6.20016 3.70021Z" fill="#3291C0"/>
<path d="M20.875 18.6666C20.875 18.1834 20.4832 17.7916 20 17.7916H18.25C17.7667 17.7916 17.375 18.1834 17.375 18.6666C17.375 19.1499 17.7667 19.5416 18.25 19.5416H20C20.4832 19.5416 20.875 19.1499 20.875 18.6666Z" fill="white"/>
<path d="M7.45832 18.6666C7.45832 18.1834 7.85007 17.7916 8.33332 17.7916H10.0833C10.5666 17.7916 10.9583 18.1834 10.9583 18.6666C10.9583 19.1499 10.5666 19.5416 10.0833 19.5416H8.33332C7.85007 19.5416 7.45832 19.1499 7.45832 18.6666Z" fill="white"/>
<path d="M6.58332 11.0833C6.58332 12.7332 6.58332 13.5582 7.09588 14.0707C7.60845 14.5833 8.4334 14.5833 10.0833 14.5833L18.25 14.5833C19.8999 14.5833 20.7249 14.5833 21.2374 14.0707C21.75 13.5582 21.75 12.7332 21.75 11.0833V8.1666C21.75 6.5167 21.75 5.69175 21.2374 5.17919C20.7249 4.66663 19.8999 4.66663 18.25 4.66663L10.0833 4.66663C8.4334 4.66663 7.60845 4.66663 7.09588 5.17919C6.58332 5.69175 6.58332 6.51671 6.58332 8.16663L6.58332 11.0833Z" fill="white"/>
<path d="M2.96666 13.7667L4.83333 15.1667L4.83441 10.5H3.66666C3.02233 10.5 2.49999 11.0223 2.49999 11.6667L2.49999 12.8333C2.49999 13.2006 2.67289 13.5463 2.96666 13.7667Z" fill="#3291C0"/>
<path d="M24.6666 10.5L23.4989 10.5L23.4999 15.1667L25.3666 13.7667C25.6604 13.5463 25.8333 13.2006 25.8333 12.8333V11.6667C25.8333 11.0223 25.3109 10.5 24.6666 10.5Z" fill="#3291C0"/>
</svg>
