<svg width="20" height="20" viewBox="0 0 20 20" fill="none" xmlns="http://www.w3.org/2000/svg">
<path fill-rule="evenodd" clip-rule="evenodd" d="M4.37501 7.75233V6.66669C4.37501 3.56009 6.8934 1.04169 10 1.04169C13.1066 1.04169 15.625 3.56009 15.625 6.66669V7.75233C15.814 7.76562 15.9922 7.78292 16.1598 7.80546C16.9099 7.9063 17.5415 8.12205 18.043 8.62365C18.5446 9.12524 18.7604 9.75681 18.8612 10.5069C18.9584 11.2294 18.9584 12.148 18.9583 13.2876V13.3791C18.9584 14.5187 18.9584 15.4373 18.8612 16.1598C18.7604 16.9099 18.5446 17.5415 18.043 18.0431C17.5415 18.5447 16.9099 18.7604 16.1598 18.8613C15.4373 18.9584 14.5187 18.9584 13.3791 18.9584H6.62095C5.48129 18.9584 4.56269 18.9584 3.84021 18.8613C3.09012 18.7604 2.45856 18.5447 1.95696 18.0431C1.45537 17.5415 1.23962 16.9099 1.13878 16.1598C1.04164 15.4373 1.04166 14.5187 1.04167 13.3791V13.2876C1.04166 12.148 1.04164 11.2294 1.13878 10.5069C1.23962 9.7568 1.45537 9.12524 1.95696 8.62365C2.45856 8.12205 3.09012 7.9063 3.84021 7.80546C4.00782 7.78292 4.18598 7.76562 4.37501 7.75233ZM5.62501 6.66669C5.62501 4.25044 7.58376 2.29169 10 2.29169C12.4163 2.29169 14.375 4.25044 14.375 6.66669V7.71122C14.0637 7.70834 13.732 7.70835 13.3791 7.70835H6.62094C6.26801 7.70835 5.93628 7.70834 5.62501 7.71122V6.66669ZM2.84085 9.50753C3.07148 9.27689 3.39529 9.12652 4.00677 9.04431C4.63623 8.95968 5.47049 8.95835 6.66667 8.95835H13.3333C14.5295 8.95835 15.3638 8.95968 15.9932 9.04431C16.6047 9.12652 16.9285 9.27689 17.1592 9.50753C17.3898 9.73816 17.5402 10.062 17.6224 10.6735C17.707 11.3029 17.7083 12.1372 17.7083 13.3334C17.7083 14.5295 17.707 15.3638 17.6224 15.9933C17.5402 16.6047 17.3898 16.9285 17.1592 17.1592C16.9285 17.3898 16.6047 17.5402 15.9932 17.6224C15.3638 17.707 14.5295 17.7084 13.3333 17.7084H6.66667C5.47049 17.7084 4.63623 17.707 4.00677 17.6224C3.39529 17.5402 3.07148 17.3898 2.84085 17.1592C2.61021 16.9285 2.45984 16.6047 2.37763 15.9933C2.293 15.3638 2.29167 14.5295 2.29167 13.3334C2.29167 12.1372 2.293 11.3029 2.37763 10.6735C2.45984 10.062 2.61021 9.73816 2.84085 9.50753Z" fill="#1A202C" fill-opacity="0.87"/>
</svg>
