<svg width="25" height="24" viewBox="0 0 25 24" fill="none" xmlns="http://www.w3.org/2000/svg">
    <path
        d="M13.1816 1.25C15.0193 1.24998 16.4751 1.25016 17.6143 1.40332C18.7866 1.56096 19.7351 1.89329 20.4834 2.6416C21.2317 3.38991 21.564 4.33844 21.7217 5.51074C21.8748 6.64991 21.875 8.10571 21.875 9.94336V16.9287C21.875 16.9399 21.8735 16.9509 21.873 16.9619C21.8737 16.9745 21.875 16.9872 21.875 17C21.875 17.4142 21.5392 17.75 21.125 17.75C20.1585 17.75 19.375 18.5335 19.375 19.5C19.375 20.4665 20.1585 21.25 21.125 21.25C21.5392 21.25 21.875 21.5858 21.875 22C21.875 22.4142 21.5392 22.75 21.125 22.75H6.625C4.83007 22.75 3.375 21.2949 3.375 19.5V9.94336C3.37498 8.10571 3.37516 6.64991 3.52832 5.51074C3.68596 4.33844 4.01829 3.38991 4.7666 2.6416C5.51491 1.89329 6.46344 1.56096 7.63574 1.40332C8.77491 1.25016 10.2307 1.24998 12.0684 1.25H13.1816ZM6.625 17.75C5.6585 17.75 4.875 18.5335 4.875 19.5C4.875 20.4665 5.6585 21.25 6.625 21.25H18.3867C18.0632 20.7448 17.875 20.1445 17.875 19.5C17.875 18.8555 18.0632 18.2552 18.3867 17.75H6.625ZM14.375 6.68652C14.375 7.54852 14.3751 8.17895 13.8301 8.54395C13.7634 8.59468 13.6966 8.63032 13.6318 8.65527C13.4842 8.72113 13.339 8.74988 13.1934 8.75C12.7588 8.74958 12.3161 8.49065 11.7627 8.16602C11.7607 8.16502 11.754 8.16116 11.752 8.16016C11.515 8.01817 11.222 7.84315 11.126 7.82715C11.0295 7.84269 10.7366 8.01841 10.5 8.16016C10.4976 8.16147 10.4921 8.16509 10.4902 8.16602C9.75038 8.59993 9.20706 8.91724 8.61914 8.65527C8.55439 8.63033 8.48763 8.59468 8.4209 8.54395C7.8759 8.17895 7.875 7.54752 7.875 6.68652V2.88477C7.86194 2.88646 7.84889 2.88791 7.83594 2.88965C6.82985 3.02491 6.25036 3.27894 5.82715 3.70215C5.40394 4.12536 5.14991 4.70485 5.01465 5.71094C4.8765 6.73859 4.875 8.09324 4.875 10V16.7617C5.38023 16.4382 5.98052 16.25 6.625 16.25H20.375V10C20.375 8.09324 20.3735 6.73859 20.2354 5.71094C20.1001 4.70485 19.8461 4.12536 19.4229 3.70215C18.9996 3.27894 18.4202 3.02491 17.4141 2.88965C16.6267 2.7838 15.6475 2.7572 14.375 2.75098V6.68652ZM12.125 2.75C11.0448 2.75 10.1418 2.75178 9.375 2.77734V6.68652C9.375 6.81652 9.37495 6.95315 9.37695 7.07715C9.48891 7.01417 9.61351 6.94105 9.73047 6.87207C10.2413 6.56614 10.6113 6.34524 11.0791 6.32715H11.1719C11.6397 6.34428 12.0097 6.56615 12.5215 6.87305C12.6384 6.941 12.7611 7.0142 12.873 7.07715C12.875 6.95415 12.875 6.81652 12.875 6.68652V2.75H12.125Z"
        fill="white" />
</svg>
