<svg width="29" height="28" viewBox="0 0 29 28" fill="none" xmlns="http://www.w3.org/2000/svg">
<path opacity="0.5" d="M3.16666 14C3.16666 8.50026 3.16666 5.7504 4.8752 4.04186C6.58374 2.33331 9.3336 2.33331 14.8333 2.33331C20.333 2.33331 23.0829 2.33331 24.7914 4.04186C26.5 5.7504 26.5 8.50026 26.5 14C26.5 19.4997 26.5 22.2496 24.7914 23.9581C23.0829 25.6666 20.333 25.6666 14.8333 25.6666C9.3336 25.6666 6.58374 25.6666 4.8752 23.9581C3.16666 22.2496 3.16666 19.4997 3.16666 14Z" fill="#199F92"/>
<path d="M13.1336 8.77014C13.4669 8.4202 13.4534 7.86634 13.1034 7.53307C12.7535 7.19979 12.1996 7.2133 11.8664 7.56324L9.16666 10.3979L8.46694 9.66324C8.13367 9.3133 7.57981 9.29979 7.22987 9.63307C6.87993 9.96634 6.86643 10.5202 7.1997 10.8701L8.53304 12.2701C8.69818 12.4435 8.92719 12.5417 9.16666 12.5417C9.40612 12.5417 9.63513 12.4435 9.80028 12.2701L13.1336 8.77014Z" fill="white"/>
<path d="M16 9.62502C15.5167 9.62502 15.125 10.0168 15.125 10.5C15.125 10.9833 15.5167 11.375 16 11.375L21.8333 11.375C22.3166 11.375 22.7083 10.9833 22.7083 10.5C22.7083 10.0168 22.3166 9.62502 21.8333 9.62502L16 9.62502Z" fill="white"/>
<path d="M13.1336 16.9368C13.4669 16.5869 13.4534 16.033 13.1034 15.6997C12.7535 15.3665 12.1996 15.38 11.8664 15.7299L9.16666 18.5646L8.46694 17.8299C8.13367 17.48 7.57981 17.4665 7.22987 17.7997C6.87993 18.133 6.86643 18.6869 7.1997 19.0368L8.53304 20.4368C8.69818 20.6102 8.92719 20.7084 9.16666 20.7084C9.40612 20.7084 9.63513 20.6102 9.80028 20.4368L13.1336 16.9368Z" fill="white"/>
<path d="M16 17.7917C15.5167 17.7917 15.125 18.1834 15.125 18.6667C15.125 19.1499 15.5167 19.5417 16 19.5417H21.8333C22.3166 19.5417 22.7083 19.1499 22.7083 18.6667C22.7083 18.1834 22.3166 17.7917 21.8333 17.7917H16Z" fill="white"/>
</svg>
