<svg width="281" height="188" viewBox="0 0 281 188" fill="none" xmlns="http://www.w3.org/2000/svg">
<g clip-path="url(#clip0_326_5916)">
<path d="M61.4098 87.3638H60.5449V88.2286H61.4098V87.3638Z" fill="#EE2346"/>
<path d="M64.8282 87.3638H63.9634V88.2286H64.8282V87.3638Z" fill="#EE2346"/>
<path d="M68.2472 87.3638H67.3823V88.2286H68.2472V87.3638Z" fill="#EE2346"/>
<path d="M71.6637 87.3638H70.7988V88.2286H71.6637V87.3638Z" fill="#EE2346"/>
<path d="M75.0822 87.3638H74.2173V88.2286H75.0822V87.3638Z" fill="#EE2346"/>
<path d="M78.4992 87.3638H77.6343V88.2286H78.4992V87.3638Z" fill="#EE2346"/>
<path d="M81.9176 87.3638H81.0527V88.2286H81.9176V87.3638Z" fill="#EE2346"/>
<path d="M85.3361 87.3638H84.4712V88.2286H85.3361V87.3638Z" fill="#EE2346"/>
<path d="M88.7531 87.3638H87.8882V88.2286H88.7531V87.3638Z" fill="#EE2346"/>
<path d="M92.1715 87.3638H91.3066V88.2286H92.1715V87.3638Z" fill="#00B890"/>
<path d="M95.5905 87.3638H94.7256V88.2286H95.5905V87.3638Z" fill="#00B890"/>
<path d="M99.007 87.3638H98.1421V88.2286H99.007V87.3638Z" fill="#00B890"/>
<path d="M102.425 87.3638H101.561V88.2286H102.425V87.3638Z" fill="#00B890"/>
<path d="M105.844 87.3638H104.979V88.2286H105.844V87.3638Z" fill="#00B890"/>
<path d="M61.4098 90.8394H60.5449V91.7042H61.4098V90.8394Z" fill="#EE2346"/>
<path d="M64.8282 90.8394H63.9634V91.7042H64.8282V90.8394Z" fill="#EE2346"/>
<path d="M68.2472 90.8394H67.3823V91.7042H68.2472V90.8394Z" fill="#EE2346"/>
<path d="M71.6637 90.8394H70.7988V91.7042H71.6637V90.8394Z" fill="#EE2346"/>
<path d="M75.0822 90.8394H74.2173V91.7042H75.0822V90.8394Z" fill="#EE2346"/>
<path d="M78.4992 90.8394H77.6343V91.7042H78.4992V90.8394Z" fill="#EE2346"/>
<path d="M81.9176 90.8394H81.0527V91.7042H81.9176V90.8394Z" fill="#EE2346"/>
<path d="M85.3361 90.8394H84.4712V91.7042H85.3361V90.8394Z" fill="#EE2346"/>
<path d="M88.7531 90.8394H87.8882V91.7042H88.7531V90.8394Z" fill="#EE2346"/>
<path d="M92.1715 90.8394H91.3066V91.7042H92.1715V90.8394Z" fill="#EE2346"/>
<path d="M95.5905 90.8394H94.7256V91.7042H95.5905V90.8394Z" fill="#00B890"/>
<path d="M99.007 90.8394H98.1421V91.7042H99.007V90.8394Z" fill="#00B890"/>
<path d="M102.425 90.8394H101.561V91.7042H102.425V90.8394Z" fill="#00B890"/>
<path d="M105.844 90.8394H104.979V91.7042H105.844V90.8394Z" fill="#00B890"/>
<path d="M61.4117 94.314H60.5469V95.1788H61.4117V94.314Z" fill="#00B890"/>
<path d="M64.8302 94.314H63.9653V95.1788H64.8302V94.314Z" fill="#00B890"/>
<path d="M68.2472 94.314H67.3823V95.1788H68.2472V94.314Z" fill="#00B890"/>
<path d="M71.6657 94.314H70.8008V95.1788H71.6657V94.314Z" fill="#00B890"/>
<path d="M75.0826 94.314H74.2178V95.1788H75.0826V94.314Z" fill="#00B890"/>
<path d="M78.5011 94.314H77.6362V95.1788H78.5011V94.314Z" fill="#00B890"/>
<path d="M81.9196 94.314H81.0547V95.1788H81.9196V94.314Z" fill="#00B890"/>
<path d="M85.338 94.314H84.4731V95.1788H85.338V94.314Z" fill="#00B890"/>
<path d="M88.755 94.314H87.8901V95.1788H88.755V94.314Z" fill="#00B890"/>
<path d="M92.1735 94.314H91.3086V95.1788H92.1735V94.314Z" fill="#00B890"/>
<path d="M95.5905 94.314H94.7256V95.1788H95.5905V94.314Z" fill="#00B890"/>
<path d="M99.0089 94.314H98.144V95.1788H99.0089V94.314Z" fill="#00B890"/>
<path d="M102.427 94.314H101.562V95.1788H102.427V94.314Z" fill="#00B890"/>
<path d="M105.846 94.314H104.981V95.1788H105.846V94.314Z" fill="#00B890"/>
<path d="M61.4117 97.7896H60.5469V98.6544H61.4117V97.7896Z" fill="#00B890"/>
<path d="M64.8302 97.7896H63.9653V98.6544H64.8302V97.7896Z" fill="#00B890"/>
<path d="M68.2472 97.7896H67.3823V98.6544H68.2472V97.7896Z" fill="#00B890"/>
<path d="M71.6657 97.7896H70.8008V98.6544H71.6657V97.7896Z" fill="#00B890"/>
<path d="M75.0826 97.7896H74.2178V98.6544H75.0826V97.7896Z" fill="#00B890"/>
<path d="M78.5011 97.7896H77.6362V98.6544H78.5011V97.7896Z" fill="#00B890"/>
<path d="M81.9196 97.7896H81.0547V98.6544H81.9196V97.7896Z" fill="#00B890"/>
<path d="M85.338 97.7896H84.4731V98.6544H85.338V97.7896Z" fill="#00B890"/>
<path d="M88.755 97.7896H87.8901V98.6544H88.755V97.7896Z" fill="#00B890"/>
<path d="M92.1735 97.7896H91.3086V98.6544H92.1735V97.7896Z" fill="#00B890"/>
<path d="M95.5905 97.7896H94.7256V98.6544H95.5905V97.7896Z" fill="#00B890"/>
<path d="M99.0089 97.7896H98.144V98.6544H99.0089V97.7896Z" fill="#00B890"/>
<path d="M102.427 97.7896H101.562V98.6544H102.427V97.7896Z" fill="#00B890"/>
<path d="M105.846 97.7896H104.981V98.6544H105.846V97.7896Z" fill="#00B890"/>
<path d="M61.4117 101.264H60.5469V102.129H61.4117V101.264Z" fill="#00B890"/>
<path d="M64.8302 101.264H63.9653V102.129H64.8302V101.264Z" fill="#00B890"/>
<path d="M68.2472 101.264H67.3823V102.129H68.2472V101.264Z" fill="#00B890"/>
<path d="M71.6657 101.264H70.8008V102.129H71.6657V101.264Z" fill="#00B890"/>
<path d="M75.0826 101.264H74.2178V102.129H75.0826V101.264Z" fill="#00B890"/>
<path d="M78.5011 101.264H77.6362V102.129H78.5011V101.264Z" fill="#00B890"/>
<path d="M81.9196 101.264H81.0547V102.129H81.9196V101.264Z" fill="#00B890"/>
<path d="M85.338 101.264H84.4731V102.129H85.338V101.264Z" fill="#00B890"/>
<path d="M88.755 101.264H87.8901V102.129H88.755V101.264Z" fill="#00B890"/>
<path d="M92.1735 101.264H91.3086V102.129H92.1735V101.264Z" fill="#00B890"/>
<path d="M95.5905 101.264H94.7256V102.129H95.5905V101.264Z" fill="#00B890"/>
<path d="M99.0089 101.264H98.144V102.129H99.0089V101.264Z" fill="#00B890"/>
<path d="M102.427 101.264H101.562V102.129H102.427V101.264Z" fill="#00B890"/>
<path d="M105.846 101.264H104.981V102.129H105.846V101.264Z" fill="#00B890"/>
<path d="M61.4117 104.739H60.5469V105.604H61.4117V104.739Z" fill="#EE2346"/>
<path d="M64.8302 104.739H63.9653V105.604H64.8302V104.739Z" fill="#EE2346"/>
<path d="M68.2472 104.739H67.3823V105.604H68.2472V104.739Z" fill="#EE2346"/>
<path d="M71.6657 104.739H70.8008V105.604H71.6657V104.739Z" fill="#EE2346"/>
<path d="M75.0826 104.739H74.2178V105.604H75.0826V104.739Z" fill="#EE2346"/>
<path d="M78.5011 104.739H77.6362V105.604H78.5011V104.739Z" fill="#EE2346"/>
<path d="M81.9196 104.739H81.0547V105.604H81.9196V104.739Z" fill="#EE2346"/>
<path d="M85.338 104.739H84.4731V105.604H85.338V104.739Z" fill="#EE2346"/>
<path d="M88.755 104.739H87.8901V105.604H88.755V104.739Z" fill="#EE2346"/>
<path d="M92.1735 104.739H91.3086V105.604H92.1735V104.739Z" fill="#EE2346"/>
<path d="M95.5905 104.739H94.7256V105.604H95.5905V104.739Z" fill="#EE2346"/>
<path d="M99.0089 104.739H98.144V105.604H99.0089V104.739Z" fill="#EE2346"/>
<path d="M102.427 104.739H101.562V105.604H102.427V104.739Z" fill="#EE2346"/>
<path d="M105.846 104.739H104.981V105.604H105.846V104.739Z" fill="#EE2346"/>
<path d="M61.4117 108.214H60.5469V109.079H61.4117V108.214Z" fill="#EE2346"/>
<path d="M64.8302 108.214H63.9653V109.079H64.8302V108.214Z" fill="#EE2346"/>
<path d="M68.2472 108.214H67.3823V109.079H68.2472V108.214Z" fill="#EE2346"/>
<path d="M71.6657 108.214H70.8008V109.079H71.6657V108.214Z" fill="#EE2346"/>
<path d="M75.0826 108.214H74.2178V109.079H75.0826V108.214Z" fill="#EE2346"/>
<path d="M78.5011 108.214H77.6362V109.079H78.5011V108.214Z" fill="#EE2346"/>
<path d="M81.9196 108.214H81.0547V109.079H81.9196V108.214Z" fill="#EE2346"/>
<path d="M85.338 108.214H84.4731V109.079H85.338V108.214Z" fill="#EE2346"/>
<path d="M88.755 108.214H87.8901V109.079H88.755V108.214Z" fill="#EE2346"/>
<path d="M92.1735 108.214H91.3086V109.079H92.1735V108.214Z" fill="#EE2346"/>
<path d="M95.5905 108.214H94.7256V109.079H95.5905V108.214Z" fill="#EE2346"/>
<path d="M99.0089 108.214H98.144V109.079H99.0089V108.214Z" fill="#EE2346"/>
<path d="M102.427 108.214H101.562V109.079H102.427V108.214Z" fill="#EE2346"/>
<path d="M105.846 108.214H104.981V109.079H105.846V108.214Z" fill="#EE2346"/>
<path d="M61.4117 62.6543H60.5469V63.5192H61.4117V62.6543Z" fill="#00B890"/>
<path d="M64.8302 62.6543H63.9653V63.5192H64.8302V62.6543Z" fill="#00B890"/>
<path d="M68.2472 62.6543H67.3823V63.5192H68.2472V62.6543Z" fill="#00B890"/>
<path d="M71.6657 62.6543H70.8008V63.5192H71.6657V62.6543Z" fill="#00B890"/>
<path d="M75.0826 62.6543H74.2178V63.5192H75.0826V62.6543Z" fill="#00B890"/>
<path d="M78.5011 62.6543H77.6362V63.5192H78.5011V62.6543Z" fill="#00B890"/>
<path d="M81.9196 62.6543H81.0547V63.5192H81.9196V62.6543Z" fill="#00B890"/>
<path d="M85.338 62.6543H84.4731V63.5192H85.338V62.6543Z" fill="#00B890"/>
<path d="M88.755 62.6543H87.8901V63.5192H88.755V62.6543Z" fill="#00B890"/>
<path d="M92.1735 62.6543H91.3086V63.5192H92.1735V62.6543Z" fill="#00B890"/>
<path d="M95.5905 62.6543H94.7256V63.5192H95.5905V62.6543Z" fill="#00B890"/>
<path d="M99.0089 62.6543H98.144V63.5192H99.0089V62.6543Z" fill="#00B890"/>
<path d="M102.427 62.6543H101.562V63.5192H102.427V62.6543Z" fill="#00B890"/>
<path d="M105.846 62.6543H104.981V63.5192H105.846V62.6543Z" fill="#00B890"/>
<path d="M61.4137 66.1289H60.5488V66.9938H61.4137V66.1289Z" fill="#00B890"/>
<path d="M64.8322 66.1289H63.9673V66.9938H64.8322V66.1289Z" fill="#00B890"/>
<path d="M68.2492 66.1289H67.3843V66.9938H68.2492V66.1289Z" fill="#00B890"/>
<path d="M71.6676 66.1289H70.8027V66.9938H71.6676V66.1289Z" fill="#00B890"/>
<path d="M75.0846 66.1289H74.2197V66.9938H75.0846V66.1289Z" fill="#00B890"/>
<path d="M78.5031 66.1289H77.6382V66.9938H78.5031V66.1289Z" fill="#00B890"/>
<path d="M81.9215 66.1289H81.0566V66.9938H81.9215V66.1289Z" fill="#00B890"/>
<path d="M85.34 66.1289H84.4751V66.9938H85.34V66.1289Z" fill="#00B890"/>
<path d="M88.757 66.1289H87.8921V66.9938H88.757V66.1289Z" fill="#00B890"/>
<path d="M92.1754 66.1289H91.3105V66.9938H92.1754V66.1289Z" fill="#00B890"/>
<path d="M95.5924 66.1289H94.7275V66.9938H95.5924V66.1289Z" fill="#00B890"/>
<path d="M99.0109 66.1289H98.146V66.9938H99.0109V66.1289Z" fill="#00B890"/>
<path d="M102.429 66.1289H101.564V66.9938H102.429V66.1289Z" fill="#00B890"/>
<path d="M105.848 66.1289H104.983V66.9938H105.848V66.1289Z" fill="#00B890"/>
<path d="M61.4137 69.6045H60.5488V70.4694H61.4137V69.6045Z" fill="#00B890"/>
<path d="M64.8322 69.6045H63.9673V70.4694H64.8322V69.6045Z" fill="#00B890"/>
<path d="M68.2492 69.6045H67.3843V70.4694H68.2492V69.6045Z" fill="#00B890"/>
<path d="M71.6676 69.6045H70.8027V70.4694H71.6676V69.6045Z" fill="#00B890"/>
<path d="M75.0846 69.6045H74.2197V70.4694H75.0846V69.6045Z" fill="#00B890"/>
<path d="M78.5031 69.6045H77.6382V70.4694H78.5031V69.6045Z" fill="#00B890"/>
<path d="M81.9215 69.6045H81.0566V70.4694H81.9215V69.6045Z" fill="#00B890"/>
<path d="M85.34 69.6045H84.4751V70.4694H85.34V69.6045Z" fill="#00B890"/>
<path d="M88.757 69.6045H87.8921V70.4694H88.757V69.6045Z" fill="#00B890"/>
<path d="M92.1754 69.6045H91.3105V70.4694H92.1754V69.6045Z" fill="#00B890"/>
<path d="M95.5924 69.6045H94.7275V70.4694H95.5924V69.6045Z" fill="#00B890"/>
<path d="M99.0109 69.6045H98.146V70.4694H99.0109V69.6045Z" fill="#00B890"/>
<path d="M102.429 69.6045H101.564V70.4694H102.429V69.6045Z" fill="#00B890"/>
<path d="M105.848 69.6045H104.983V70.4694H105.848V69.6045Z" fill="#00B890"/>
<path d="M61.4137 73.0796H60.5488V73.9445H61.4137V73.0796Z" fill="#00B890"/>
<path d="M64.8322 73.0796H63.9673V73.9445H64.8322V73.0796Z" fill="#00B890"/>
<path d="M68.2492 73.0796H67.3843V73.9445H68.2492V73.0796Z" fill="#00B890"/>
<path d="M71.6676 73.0796H70.8027V73.9445H71.6676V73.0796Z" fill="#00B890"/>
<path d="M75.0846 73.0796H74.2197V73.9445H75.0846V73.0796Z" fill="#00B890"/>
<path d="M78.5031 73.0796H77.6382V73.9445H78.5031V73.0796Z" fill="#00B890"/>
<path d="M81.9215 73.0796H81.0566V73.9445H81.9215V73.0796Z" fill="#00B890"/>
<path d="M85.34 73.0796H84.4751V73.9445H85.34V73.0796Z" fill="#00B890"/>
<path d="M88.757 73.0796H87.8921V73.9445H88.757V73.0796Z" fill="#00B890"/>
<path d="M92.1754 73.0796H91.3105V73.9445H92.1754V73.0796Z" fill="#00B890"/>
<path d="M95.5924 73.0796H94.7275V73.9445H95.5924V73.0796Z" fill="#00B890"/>
<path d="M99.0109 73.0796H98.146V73.9445H99.0109V73.0796Z" fill="#00B890"/>
<path d="M102.429 73.0796H101.564V73.9445H102.429V73.0796Z" fill="#00B890"/>
<path d="M105.848 73.0796H104.983V73.9445H105.848V73.0796Z" fill="#00B890"/>
<path d="M61.4137 76.5557H60.5488V77.4205H61.4137V76.5557Z" fill="#00B890"/>
<path d="M64.8322 76.5557H63.9673V77.4205H64.8322V76.5557Z" fill="#00B890"/>
<path d="M68.2492 76.5557H67.3843V77.4205H68.2492V76.5557Z" fill="#00B890"/>
<path d="M71.6676 76.5557H70.8027V77.4205H71.6676V76.5557Z" fill="#00B890"/>
<path d="M75.0846 76.5557H74.2197V77.4205H75.0846V76.5557Z" fill="#00B890"/>
<path d="M78.5031 76.5557H77.6382V77.4205H78.5031V76.5557Z" fill="#00B890"/>
<path d="M81.9215 76.5557H81.0566V77.4205H81.9215V76.5557Z" fill="#00B890"/>
<path d="M85.34 76.5557H84.4751V77.4205H85.34V76.5557Z" fill="#00B890"/>
<path d="M88.757 76.5557H87.8921V77.4205H88.757V76.5557Z" fill="#00B890"/>
<path d="M92.1754 76.5557H91.3105V77.4205H92.1754V76.5557Z" fill="#00B890"/>
<path d="M95.5924 76.5557H94.7275V77.4205H95.5924V76.5557Z" fill="#00B890"/>
<path d="M99.0109 76.5557H98.146V77.4205H99.0109V76.5557Z" fill="#00B890"/>
<path d="M102.429 76.5557H101.564V77.4205H102.429V76.5557Z" fill="#00B890"/>
<path d="M105.848 76.5557H104.983V77.4205H105.848V76.5557Z" fill="#00B890"/>
<path d="M61.4137 80.0293H60.5488V80.8942H61.4137V80.0293Z" fill="#00B890"/>
<path d="M64.8322 80.0293H63.9673V80.8942H64.8322V80.0293Z" fill="#00B890"/>
<path d="M68.2492 80.0293H67.3843V80.8942H68.2492V80.0293Z" fill="#00B890"/>
<path d="M71.6676 80.0293H70.8027V80.8942H71.6676V80.0293Z" fill="#00B890"/>
<path d="M75.0846 80.0293H74.2197V80.8942H75.0846V80.0293Z" fill="#00B890"/>
<path d="M78.5031 80.0293H77.6382V80.8942H78.5031V80.0293Z" fill="#00B890"/>
<path d="M81.9215 80.0293H81.0566V80.8942H81.9215V80.0293Z" fill="#00B890"/>
<path d="M85.34 80.0293H84.4751V80.8942H85.34V80.0293Z" fill="#00B890"/>
<path d="M88.757 80.0293H87.8921V80.8942H88.757V80.0293Z" fill="#00B890"/>
<path d="M92.1754 80.0293H91.3105V80.8942H92.1754V80.0293Z" fill="#00B890"/>
<path d="M95.5924 80.0293H94.7275V80.8942H95.5924V80.0293Z" fill="#00B890"/>
<path d="M99.0109 80.0293H98.146V80.8942H99.0109V80.0293Z" fill="#00B890"/>
<path d="M102.429 80.0293H101.564V80.8942H102.429V80.0293Z" fill="#00B890"/>
<path d="M105.848 80.0293H104.983V80.8942H105.848V80.0293Z" fill="#00B890"/>
<path d="M61.4137 83.5044H60.5488V84.3693H61.4137V83.5044Z" fill="#00B890"/>
<path d="M64.8322 83.5044H63.9673V84.3693H64.8322V83.5044Z" fill="#00B890"/>
<path d="M68.2492 83.5044H67.3843V84.3693H68.2492V83.5044Z" fill="#00B890"/>
<path d="M71.6676 83.5044H70.8027V84.3693H71.6676V83.5044Z" fill="#00B890"/>
<path d="M75.0846 83.5044H74.2197V84.3693H75.0846V83.5044Z" fill="#00B890"/>
<path d="M78.5031 83.5044H77.6382V84.3693H78.5031V83.5044Z" fill="#00B890"/>
<path d="M81.9215 83.5044H81.0566V84.3693H81.9215V83.5044Z" fill="#00B890"/>
<path d="M85.34 83.5044H84.4751V84.3693H85.34V83.5044Z" fill="#00B890"/>
<path d="M88.757 83.5044H87.8921V84.3693H88.757V83.5044Z" fill="#00B890"/>
<path d="M92.1754 83.5044H91.3105V84.3693H92.1754V83.5044Z" fill="#00B890"/>
<path d="M95.5924 83.5044H94.7275V84.3693H95.5924V83.5044Z" fill="#00B890"/>
<path d="M99.0109 83.5044H98.146V84.3693H99.0109V83.5044Z" fill="#00B890"/>
<path d="M102.429 83.5044H101.564V84.3693H102.429V83.5044Z" fill="#00B890"/>
<path d="M105.848 83.5044H104.983V84.3693H105.848V83.5044Z" fill="#00B890"/>
<path d="M199.58 128.685H198.715V129.549H199.58V128.685Z" fill="#00B890"/>
<path d="M202.998 128.685H202.133V129.549H202.998V128.685Z" fill="#00B890"/>
<path d="M206.415 128.685H205.55V129.549H206.415V128.685Z" fill="#00B890"/>
<path d="M209.834 128.685H208.969V129.549H209.834V128.685Z" fill="#00B890"/>
<path d="M213.251 128.685H212.386V129.549H213.251V128.685Z" fill="#00B890"/>
<path d="M216.669 128.685H215.804V129.549H216.669V128.685Z" fill="#00B890"/>
<path d="M220.088 128.685H219.223V129.549H220.088V128.685Z" fill="#00B890"/>
<path d="M223.506 128.685H222.641V129.549H223.506V128.685Z" fill="#00B890"/>
<path d="M226.923 128.685H226.058V129.549H226.923V128.685Z" fill="#00B890"/>
<path d="M230.341 128.685H229.477V129.549H230.341V128.685Z" fill="#00B890"/>
<path d="M233.758 128.685H232.894V129.549H233.758V128.685Z" fill="#00B890"/>
<path d="M237.177 128.685H236.312V129.549H237.177V128.685Z" fill="#00B890"/>
<path d="M240.595 128.685H239.73V129.549H240.595V128.685Z" fill="#00B890"/>
<path d="M244.014 128.685H243.149V129.549H244.014V128.685Z" fill="#00B890"/>
<path d="M199.58 132.159H198.715V133.024H199.58V132.159Z" fill="#00B890"/>
<path d="M202.998 132.159H202.133V133.024H202.998V132.159Z" fill="#00B890"/>
<path d="M206.415 132.159H205.55V133.024H206.415V132.159Z" fill="#00B890"/>
<path d="M209.834 132.159H208.969V133.024H209.834V132.159Z" fill="#00B890"/>
<path d="M213.251 132.159H212.386V133.024H213.251V132.159Z" fill="#00B890"/>
<path d="M216.669 132.159H215.804V133.024H216.669V132.159Z" fill="#00B890"/>
<path d="M220.088 132.159H219.223V133.024H220.088V132.159Z" fill="#00B890"/>
<path d="M223.506 132.159H222.641V133.024H223.506V132.159Z" fill="#00B890"/>
<path d="M226.923 132.159H226.058V133.024H226.923V132.159Z" fill="#00B890"/>
<path d="M230.341 132.159H229.477V133.024H230.341V132.159Z" fill="#00B890"/>
<path d="M233.758 132.159H232.894V133.024H233.758V132.159Z" fill="#00B890"/>
<path d="M237.177 132.159H236.312V133.024H237.177V132.159Z" fill="#00B890"/>
<path d="M240.595 132.159H239.73V133.024H240.595V132.159Z" fill="#00B890"/>
<path d="M244.014 132.159H243.149V133.024H244.014V132.159Z" fill="#00B890"/>
<path d="M199.58 135.634H198.715V136.499H199.58V135.634Z" fill="#00B890"/>
<path d="M202.998 135.634H202.133V136.499H202.998V135.634Z" fill="#00B890"/>
<path d="M206.415 135.634H205.55V136.499H206.415V135.634Z" fill="#00B890"/>
<path d="M209.834 135.634H208.969V136.499H209.834V135.634Z" fill="#00B890"/>
<path d="M213.251 135.634H212.386V136.499H213.251V135.634Z" fill="#00B890"/>
<path d="M216.669 135.634H215.804V136.499H216.669V135.634Z" fill="#00B890"/>
<path d="M220.088 135.634H219.223V136.499H220.088V135.634Z" fill="#00B890"/>
<path d="M223.506 135.634H222.641V136.499H223.506V135.634Z" fill="#00B890"/>
<path d="M226.923 135.634H226.058V136.499H226.923V135.634Z" fill="#00B890"/>
<path d="M230.341 135.634H229.477V136.499H230.341V135.634Z" fill="#00B890"/>
<path d="M233.758 135.634H232.894V136.499H233.758V135.634Z" fill="#00B890"/>
<path d="M237.177 135.634H236.312V136.499H237.177V135.634Z" fill="#00B890"/>
<path d="M240.595 135.634H239.73V136.499H240.595V135.634Z" fill="#00B890"/>
<path d="M244.014 135.634H243.149V136.499H244.014V135.634Z" fill="#00B890"/>
<path d="M199.58 139.11H198.715V139.975H199.58V139.11Z" fill="#00B890"/>
<path d="M202.998 139.11H202.133V139.975H202.998V139.11Z" fill="#00B890"/>
<path d="M206.415 139.11H205.55V139.975H206.415V139.11Z" fill="#00B890"/>
<path d="M209.834 139.11H208.969V139.975H209.834V139.11Z" fill="#00B890"/>
<path d="M213.251 139.11H212.386V139.975H213.251V139.11Z" fill="#00B890"/>
<path d="M216.669 139.11H215.804V139.975H216.669V139.11Z" fill="#00B890"/>
<path d="M220.088 139.11H219.223V139.975H220.088V139.11Z" fill="#00B890"/>
<path d="M223.506 139.11H222.641V139.975H223.506V139.11Z" fill="#00B890"/>
<path d="M226.923 139.11H226.058V139.975H226.923V139.11Z" fill="#00B890"/>
<path d="M230.341 139.11H229.477V139.975H230.341V139.11Z" fill="#00B890"/>
<path d="M233.758 139.11H232.894V139.975H233.758V139.11Z" fill="#00B890"/>
<path d="M237.177 139.11H236.312V139.975H237.177V139.11Z" fill="#00B890"/>
<path d="M240.595 139.11H239.73V139.975H240.595V139.11Z" fill="#00B890"/>
<path d="M244.014 139.11H243.149V139.975H244.014V139.11Z" fill="#00B890"/>
<path d="M199.58 142.584H198.715V143.449H199.58V142.584Z" fill="#00B890"/>
<path d="M202.998 142.584H202.133V143.449H202.998V142.584Z" fill="#00B890"/>
<path d="M206.415 142.584H205.55V143.449H206.415V142.584Z" fill="#00B890"/>
<path d="M209.834 142.584H208.969V143.449H209.834V142.584Z" fill="#00B890"/>
<path d="M213.251 142.584H212.386V143.449H213.251V142.584Z" fill="#00B890"/>
<path d="M216.669 142.584H215.804V143.449H216.669V142.584Z" fill="#00B890"/>
<path d="M220.088 142.584H219.223V143.449H220.088V142.584Z" fill="#00B890"/>
<path d="M223.506 142.584H222.641V143.449H223.506V142.584Z" fill="#00B890"/>
<path d="M226.923 142.584H226.058V143.449H226.923V142.584Z" fill="#00B890"/>
<path d="M230.341 142.584H229.477V143.449H230.341V142.584Z" fill="#00B890"/>
<path d="M233.758 142.584H232.894V143.449H233.758V142.584Z" fill="#00B890"/>
<path d="M237.177 142.584H236.312V143.449H237.177V142.584Z" fill="#00B890"/>
<path d="M240.595 142.584H239.73V143.449H240.595V142.584Z" fill="#00B890"/>
<path d="M244.014 142.584H243.149V143.449H244.014V142.584Z" fill="#00B890"/>
<path d="M199.58 146.06H198.715V146.924H199.58V146.06Z" fill="#00B890"/>
<path d="M202.998 146.06H202.133V146.924H202.998V146.06Z" fill="#00B890"/>
<path d="M206.415 146.06H205.55V146.924H206.415V146.06Z" fill="#00B890"/>
<path d="M209.834 146.06H208.969V146.924H209.834V146.06Z" fill="#00B890"/>
<path d="M213.251 146.06H212.386V146.924H213.251V146.06Z" fill="#00B890"/>
<path d="M216.669 146.06H215.804V146.924H216.669V146.06Z" fill="#00B890"/>
<path d="M220.088 146.06H219.223V146.924H220.088V146.06Z" fill="#00B890"/>
<path d="M223.506 146.06H222.641V146.924H223.506V146.06Z" fill="#00B890"/>
<path d="M226.923 146.06H226.058V146.924H226.923V146.06Z" fill="#00B890"/>
<path d="M230.341 146.06H229.477V146.924H230.341V146.06Z" fill="#00B890"/>
<path d="M233.758 146.06H232.894V146.924H233.758V146.06Z" fill="#00B890"/>
<path d="M237.177 146.06H236.312V146.924H237.177V146.06Z" fill="#00B890"/>
<path d="M240.595 146.06H239.73V146.924H240.595V146.06Z" fill="#00B890"/>
<path d="M244.014 146.06H243.149V146.924H244.014V146.06Z" fill="#00B890"/>
<path d="M199.58 149.534H198.715V150.399H199.58V149.534Z" fill="#00B890"/>
<path d="M202.998 149.534H202.133V150.399H202.998V149.534Z" fill="#00B890"/>
<path d="M206.415 149.534H205.55V150.399H206.415V149.534Z" fill="#00B890"/>
<path d="M209.834 149.534H208.969V150.399H209.834V149.534Z" fill="#00B890"/>
<path d="M213.251 149.534H212.386V150.399H213.251V149.534Z" fill="#00B890"/>
<path d="M216.669 149.534H215.804V150.399H216.669V149.534Z" fill="#00B890"/>
<path d="M220.088 149.534H219.223V150.399H220.088V149.534Z" fill="#00B890"/>
<path d="M223.506 149.534H222.641V150.399H223.506V149.534Z" fill="#00B890"/>
<path d="M226.923 149.534H226.058V150.399H226.923V149.534Z" fill="#00B890"/>
<path d="M230.341 149.534H229.477V150.399H230.341V149.534Z" fill="#00B890"/>
<path d="M233.758 149.534H232.894V150.399H233.758V149.534Z" fill="#00B890"/>
<path d="M237.177 149.534H236.312V150.399H237.177V149.534Z" fill="#00B890"/>
<path d="M240.595 149.534H239.73V150.399H240.595V149.534Z" fill="#00B890"/>
<path d="M244.014 149.534H243.149V150.399H244.014V149.534Z" fill="#00B890"/>
<path d="M199.58 103.975H198.715V104.839H199.58V103.975Z" fill="#00B890"/>
<path d="M202.998 103.975H202.133V104.839H202.998V103.975Z" fill="#00B890"/>
<path d="M206.415 103.975H205.55V104.839H206.415V103.975Z" fill="#00B890"/>
<path d="M209.834 103.975H208.969V104.839H209.834V103.975Z" fill="#00B890"/>
<path d="M213.251 103.975H212.386V104.839H213.251V103.975Z" fill="#00B890"/>
<path d="M216.669 103.975H215.804V104.839H216.669V103.975Z" fill="#00B890"/>
<path d="M220.088 103.975H219.223V104.839H220.088V103.975Z" fill="#00B890"/>
<path d="M223.506 103.975H222.641V104.839H223.506V103.975Z" fill="#00B890"/>
<path d="M226.923 103.975H226.058V104.839H226.923V103.975Z" fill="#00B890"/>
<path d="M230.341 103.975H229.477V104.839H230.341V103.975Z" fill="#00B890"/>
<path d="M233.758 103.975H232.894V104.839H233.758V103.975Z" fill="#00B890"/>
<path d="M237.177 103.975H236.312V104.839H237.177V103.975Z" fill="#00B890"/>
<path d="M240.595 103.975H239.73V104.839H240.595V103.975Z" fill="#00B890"/>
<path d="M244.014 103.975H243.149V104.839H244.014V103.975Z" fill="#00B890"/>
<path d="M199.58 107.449H198.715V108.314H199.58V107.449Z" fill="#00B890"/>
<path d="M202.998 107.449H202.133V108.314H202.998V107.449Z" fill="#00B890"/>
<path d="M206.415 107.449H205.55V108.314H206.415V107.449Z" fill="#00B890"/>
<path d="M209.834 107.449H208.969V108.314H209.834V107.449Z" fill="#00B890"/>
<path d="M213.251 107.449H212.386V108.314H213.251V107.449Z" fill="#00B890"/>
<path d="M216.669 107.449H215.804V108.314H216.669V107.449Z" fill="#00B890"/>
<path d="M220.088 107.449H219.223V108.314H220.088V107.449Z" fill="#00B890"/>
<path d="M223.506 107.449H222.641V108.314H223.506V107.449Z" fill="#00B890"/>
<path d="M226.923 107.449H226.058V108.314H226.923V107.449Z" fill="#00B890"/>
<path d="M230.341 107.449H229.477V108.314H230.341V107.449Z" fill="#00B890"/>
<path d="M233.758 107.449H232.894V108.314H233.758V107.449Z" fill="#00B890"/>
<path d="M237.177 107.449H236.312V108.314H237.177V107.449Z" fill="#00B890"/>
<path d="M240.595 107.449H239.73V108.314H240.595V107.449Z" fill="#00B890"/>
<path d="M244.014 107.449H243.149V108.314H244.014V107.449Z" fill="#00B890"/>
<path d="M199.58 110.925H198.715V111.79H199.58V110.925Z" fill="#00B890"/>
<path d="M202.998 110.925H202.133V111.79H202.998V110.925Z" fill="#00B890"/>
<path d="M206.415 110.925H205.55V111.79H206.415V110.925Z" fill="#00B890"/>
<path d="M209.834 110.925H208.969V111.79H209.834V110.925Z" fill="#00B890"/>
<path d="M213.251 110.925H212.386V111.79H213.251V110.925Z" fill="#00B890"/>
<path d="M216.669 110.925H215.804V111.79H216.669V110.925Z" fill="#00B890"/>
<path d="M220.088 110.925H219.223V111.79H220.088V110.925Z" fill="#00B890"/>
<path d="M223.506 110.925H222.641V111.79H223.506V110.925Z" fill="#00B890"/>
<path d="M226.923 110.925H226.058V111.79H226.923V110.925Z" fill="#00B890"/>
<path d="M230.341 110.925H229.477V111.79H230.341V110.925Z" fill="#00B890"/>
<path d="M233.758 110.925H232.894V111.79H233.758V110.925Z" fill="#00B890"/>
<path d="M237.177 110.925H236.312V111.79H237.177V110.925Z" fill="#00B890"/>
<path d="M240.595 110.925H239.73V111.79H240.595V110.925Z" fill="#00B890"/>
<path d="M244.014 110.925H243.149V111.79H244.014V110.925Z" fill="#00B890"/>
<path d="M199.58 114.4H198.715V115.265H199.58V114.4Z" fill="#00B890"/>
<path d="M202.998 114.4H202.133V115.265H202.998V114.4Z" fill="#00B890"/>
<path d="M206.415 114.4H205.55V115.265H206.415V114.4Z" fill="#00B890"/>
<path d="M209.834 114.4H208.969V115.265H209.834V114.4Z" fill="#00B890"/>
<path d="M213.251 114.4H212.386V115.265H213.251V114.4Z" fill="#00B890"/>
<path d="M216.669 114.4H215.804V115.265H216.669V114.4Z" fill="#00B890"/>
<path d="M220.088 114.4H219.223V115.265H220.088V114.4Z" fill="#00B890"/>
<path d="M223.506 114.4H222.641V115.265H223.506V114.4Z" fill="#00B890"/>
<path d="M226.923 114.4H226.058V115.265H226.923V114.4Z" fill="#00B890"/>
<path d="M230.341 114.4H229.477V115.265H230.341V114.4Z" fill="#00B890"/>
<path d="M233.758 114.4H232.894V115.265H233.758V114.4Z" fill="#00B890"/>
<path d="M237.177 114.4H236.312V115.265H237.177V114.4Z" fill="#00B890"/>
<path d="M240.595 114.4H239.73V115.265H240.595V114.4Z" fill="#00B890"/>
<path d="M244.014 114.4H243.149V115.265H244.014V114.4Z" fill="#00B890"/>
<path d="M199.58 117.875H198.715V118.74H199.58V117.875Z" fill="#00B890"/>
<path d="M202.998 117.875H202.133V118.74H202.998V117.875Z" fill="#00B890"/>
<path d="M206.415 117.875H205.55V118.74H206.415V117.875Z" fill="#00B890"/>
<path d="M209.834 117.875H208.969V118.74H209.834V117.875Z" fill="#00B890"/>
<path d="M213.251 117.875H212.386V118.74H213.251V117.875Z" fill="#00B890"/>
<path d="M216.669 117.875H215.804V118.74H216.669V117.875Z" fill="#00B890"/>
<path d="M220.088 117.875H219.223V118.74H220.088V117.875Z" fill="#00B890"/>
<path d="M223.506 117.875H222.641V118.74H223.506V117.875Z" fill="#00B890"/>
<path d="M226.923 117.875H226.058V118.74H226.923V117.875Z" fill="#00B890"/>
<path d="M230.341 117.875H229.477V118.74H230.341V117.875Z" fill="#00B890"/>
<path d="M233.758 117.875H232.894V118.74H233.758V117.875Z" fill="#00B890"/>
<path d="M237.177 117.875H236.312V118.74H237.177V117.875Z" fill="#00B890"/>
<path d="M240.595 117.875H239.73V118.74H240.595V117.875Z" fill="#00B890"/>
<path d="M244.014 117.875H243.149V118.74H244.014V117.875Z" fill="#00B890"/>
<path d="M199.58 121.35H198.715V122.214H199.58V121.35Z" fill="#00B890"/>
<path d="M202.998 121.35H202.133V122.214H202.998V121.35Z" fill="#00B890"/>
<path d="M206.415 121.35H205.55V122.214H206.415V121.35Z" fill="#00B890"/>
<path d="M209.834 121.35H208.969V122.214H209.834V121.35Z" fill="#00B890"/>
<path d="M213.251 121.35H212.386V122.214H213.251V121.35Z" fill="#00B890"/>
<path d="M216.669 121.35H215.804V122.214H216.669V121.35Z" fill="#00B890"/>
<path d="M220.088 121.35H219.223V122.214H220.088V121.35Z" fill="#00B890"/>
<path d="M223.506 121.35H222.641V122.214H223.506V121.35Z" fill="#00B890"/>
<path d="M226.923 121.35H226.058V122.214H226.923V121.35Z" fill="#00B890"/>
<path d="M230.341 121.35H229.477V122.214H230.341V121.35Z" fill="#00B890"/>
<path d="M233.758 121.35H232.894V122.214H233.758V121.35Z" fill="#00B890"/>
<path d="M237.177 121.35H236.312V122.214H237.177V121.35Z" fill="#00B890"/>
<path d="M240.595 121.35H239.73V122.214H240.595V121.35Z" fill="#00B890"/>
<path d="M244.014 121.35H243.149V122.214H244.014V121.35Z" fill="#00B890"/>
<path d="M199.58 124.825H198.715V125.69H199.58V124.825Z" fill="#00B890"/>
<path d="M202.998 124.825H202.133V125.69H202.998V124.825Z" fill="#00B890"/>
<path d="M206.415 124.825H205.55V125.69H206.415V124.825Z" fill="#00B890"/>
<path d="M209.834 124.825H208.969V125.69H209.834V124.825Z" fill="#00B890"/>
<path d="M213.251 124.825H212.386V125.69H213.251V124.825Z" fill="#00B890"/>
<path d="M216.669 124.825H215.804V125.69H216.669V124.825Z" fill="#00B890"/>
<path d="M220.088 124.825H219.223V125.69H220.088V124.825Z" fill="#00B890"/>
<path d="M223.506 124.825H222.641V125.69H223.506V124.825Z" fill="#00B890"/>
<path d="M226.923 124.825H226.058V125.69H226.923V124.825Z" fill="#00B890"/>
<path d="M230.341 124.825H229.477V125.69H230.341V124.825Z" fill="#00B890"/>
<path d="M233.758 124.825H232.894V125.69H233.758V124.825Z" fill="#00B890"/>
<path d="M237.177 124.825H236.312V125.69H237.177V124.825Z" fill="#00B890"/>
<path d="M240.595 124.825H239.73V125.69H240.595V124.825Z" fill="#00B890"/>
<path d="M244.014 124.825H243.149V125.69H244.014V124.825Z" fill="#00B890"/>
<path d="M159.591 152.266C159.494 152.266 159.397 152.227 159.327 152.15C159.196 152.004 159.207 151.779 159.352 151.647L162.405 148.884C162.548 148.755 162.768 148.763 162.9 148.903L165.282 151.405L167.827 148.895C167.963 148.762 168.18 148.76 168.319 148.889L171.051 151.438L174.126 148.876C174.261 148.764 174.455 148.767 174.587 148.881L177.666 151.565C177.813 151.694 177.829 151.918 177.7 152.066C177.571 152.215 177.347 152.23 177.198 152.101L174.348 149.616L171.265 152.184C171.127 152.299 170.926 152.293 170.795 152.171L168.083 149.641L165.524 152.165C165.456 152.231 165.348 152.267 165.269 152.267C165.173 152.266 165.083 152.226 165.017 152.157L162.624 149.645L159.828 152.176C159.761 152.236 159.676 152.266 159.591 152.266ZM159.591 147.269C159.494 147.269 159.397 147.229 159.327 147.152C159.196 147.006 159.207 146.782 159.352 146.65L162.405 143.887C162.548 143.758 162.768 143.765 162.9 143.905L165.282 146.407L167.827 143.898C167.963 143.764 168.18 143.762 168.319 143.891L171.051 146.441L174.126 143.878C174.261 143.766 174.455 143.769 174.587 143.883L177.666 146.567C177.813 146.696 177.829 146.92 177.7 147.069C177.571 147.218 177.347 147.232 177.198 147.103L174.348 144.618L171.265 147.187C171.127 147.302 170.926 147.296 170.795 147.174L168.083 144.643L165.524 147.168C165.456 147.234 165.348 147.269 165.269 147.27C165.173 147.268 165.083 147.228 165.017 147.159L162.624 144.647L159.828 147.178C159.761 147.238 159.676 147.269 159.591 147.269ZM159.591 142.271C159.494 142.271 159.397 142.231 159.327 142.154C159.196 142.008 159.207 141.783 159.352 141.652L162.405 138.889C162.548 138.76 162.768 138.767 162.9 138.907L165.282 141.409L167.827 138.899C167.963 138.766 168.18 138.764 168.319 138.893L171.051 141.443L174.126 138.88C174.261 138.768 174.455 138.77 174.587 138.885L177.666 141.569C177.813 141.698 177.829 141.922 177.7 142.071C177.571 142.22 177.347 142.234 177.198 142.105L174.348 139.62L171.265 142.189C171.127 142.304 170.926 142.298 170.795 142.176L168.083 139.645L165.524 142.17C165.456 142.236 165.348 142.271 165.269 142.272C165.173 142.27 165.083 142.23 165.017 142.161L162.624 139.649L159.828 142.18C159.761 142.24 159.676 142.271 159.591 142.271Z" fill="#F57F94"/>
<path d="M126.636 108.565C126.462 108.565 126.285 108.56 126.103 108.549C120.424 108.219 112.162 105.46 111.813 105.342L112.111 104.456C112.195 104.484 120.604 107.293 126.157 107.616C131.386 107.92 132.91 103.223 132.972 103.023L133.866 103.297C133.85 103.351 132.187 108.565 126.636 108.565Z" fill="#5D80F6"/>
<path d="M113.351 108.894C112.858 108.894 112.365 108.849 111.871 108.751L112.053 107.834C118.25 109.061 125.055 100.739 125.123 100.655L125.851 101.241C125.58 101.577 119.604 108.894 113.351 108.894Z" fill="#1ECBC6"/>
<path d="M129.353 113.962C126.734 113.962 124.162 113.377 122.368 111.615C117.529 106.863 111.726 106.874 111.669 106.879L111.656 105.944C111.908 105.943 117.895 105.912 123.023 110.948C127.789 115.63 139.345 110.898 139.461 110.85L139.821 111.713C139.495 111.849 134.336 113.962 129.353 113.962Z" fill="#EE2346"/>
<path d="M132.23 115.795C132.203 115.768 129.521 113.038 123.881 110.09C118.393 107.223 111.352 111.236 111.281 111.277L110.812 110.468C111.118 110.291 118.364 106.153 124.314 109.261C130.102 112.287 132.79 115.029 132.902 115.145L132.23 115.795Z" fill="#A2EA98"/>
<path d="M158.28 115.298C158.461 115.298 158.645 115.293 158.833 115.283C164.717 114.94 173.277 112.081 173.639 111.96L173.33 111.041C173.243 111.071 164.53 113.981 158.777 114.315C153.358 114.63 151.78 109.764 151.715 109.557L150.789 109.841C150.807 109.897 152.529 115.298 158.28 115.298Z" fill="#5D80F6"/>
<path d="M172.045 115.64C172.556 115.64 173.068 115.593 173.579 115.492L173.39 114.541C166.969 115.813 159.919 107.19 159.849 107.103L159.095 107.711C159.375 108.059 165.567 115.64 172.045 115.64Z" fill="#1ECBC6"/>
<path d="M155.468 120.89C158.183 120.89 160.847 120.285 162.706 118.459C167.72 113.535 173.732 113.547 173.792 113.552L173.805 112.583C173.544 112.581 167.341 112.55 162.028 117.768C157.089 122.618 145.115 117.716 144.995 117.666L144.623 118.56C144.96 118.701 150.305 120.89 155.468 120.89Z" fill="#EE2346"/>
<path d="M152.489 122.789C152.516 122.761 155.295 119.933 161.14 116.878C166.825 113.908 174.12 118.066 174.194 118.108L174.681 117.27C174.364 117.086 166.856 112.799 160.691 116.02C154.693 119.154 151.909 121.996 151.793 122.115L152.489 122.789Z" fill="#A2EA98"/>
<path d="M166.994 109.132L167.777 109.771L166.633 111.105L171.064 113.987L167.491 115.822L166.348 117.676L167.991 118.775L167.634 119.972L166.89 120.824C223.653 119.572 279.944 130.806 280.498 130.913V118.601C279.933 118.492 224.832 107.902 166.994 109.132Z" fill="#1ECBC6"/>
<path d="M113.43 113.398L114.428 112.201L112.394 110.807L114.145 107.913L113.359 105.769L114.601 105.063L114.603 104.961L112.394 103.303L114.441 101.802C56.2613 100.436 0.567545 111.143 0 111.252V123.564C0.553052 123.457 56.7461 112.243 113.459 113.472L113.43 113.398Z" fill="#3B5AF3"/>
<path d="M53.8755 48.2227L76.4539 76.2035L94.7383 91.9947L98.0631 101.552L98.7555 123.023L95.0155 129.949L88.3667 133.273L86.4275 131.472L89.6131 123.023L90.8599 113.188L86.5659 120.529L82.1331 121.637L79.2243 118.919L76.3155 121.637L72.0215 119.837L70.0823 122.053L65.9267 120.529L56.9227 100.306L54.5679 86.3155L23.0977 67.5715L53.8755 48.2227Z" fill="#F57F94"/>
<path d="M95.0157 129.949L90.3061 129.256L93.3187 123.127L90.8601 113.188L89.6133 123.023L86.4277 131.472L88.3669 133.273L95.0157 129.949Z" fill="#EE2346"/>
<path d="M89.9013 114.828L81.2012 120.766L82.1334 121.637L86.5662 120.529L89.9013 114.828Z" fill="#EE2346"/>
<path d="M79.2239 118.919L73.5732 120.488L76.3151 121.637L79.2239 118.919Z" fill="#EE2346"/>
<path d="M72.0207 119.837L67.0591 120.945L70.0815 122.053L72.0207 119.837Z" fill="#EE2346"/>
<path d="M56.9227 100.306V84.0993L33.0035 61.3442L23.0977 67.5718L54.5679 86.3157L56.9227 100.306Z" fill="#EE2346"/>
<path d="M76.4546 76.2031L92.9386 93.2412L98.184 105.284L98.0638 101.552L94.739 91.9943L76.4546 76.2031Z" fill="#7D0D36"/>
<path d="M64.903 118.233L62.6707 106.193L56.9219 100.306L64.903 118.233Z" fill="#7D0D36"/>
<path d="M265.793 79.2549L212.046 85.5208L193.127 93.5604L177.343 122.985L180.323 124.13L184.046 122.472L183.421 128.64L190.26 129.872L192.847 126.507L192.746 130.812L195.983 132.017L200.463 130.986L202.155 127.593L203 129.773L207.5 131.363L211.383 129.021L212.751 125.28L214.098 128.21L221.209 127.882L231.57 109.732L264.507 113.29L265.793 79.2549Z" fill="#F57F94"/>
<path d="M182.523 123.15L188.721 116.243L192.904 115.03L197.607 108.008L199.265 107.086L202.344 109.743L205.902 108.407L201.842 111.701L193.957 128.128L192.793 128.813L192.844 126.516L194.729 121.138L192.104 118.271L189.157 118.532L184.046 122.472L182.523 123.15Z" fill="#EE2346"/>
<path d="M208.469 109.005L213.295 107.649L214.869 108.827L211.984 109.598L208.193 118.321L202.495 128.468L202.155 127.664L207.46 117.789L209.631 110.99L208.469 109.005Z" fill="#EE2346"/>
<path d="M215.676 110.008L220.224 109.264L216.765 113.464L215.778 118.961L213.113 126.088L212.75 125.281L214.986 118.777L215.992 113.103L215.676 110.008Z" fill="#EE2346"/>
<path d="M222.836 110.638L221.589 120.54L220.539 123.497L222.01 122.216L223.555 123.523L222.905 119.538L223.715 112.286L222.836 110.638Z" fill="#EE2346"/>
<path d="M231.571 109.732L232.826 107.01L264.851 104.178L264.507 113.29L231.571 109.732Z" fill="#EE2346"/>
<path d="M180.411 117.266L181.95 118.205L180.323 124.13L177.343 122.985L180.411 117.266Z" fill="#7D0D36"/>
<path d="M192.105 118.271L188.201 121.285L190.854 125.286L193.996 123.232L194.73 121.138L192.105 118.271Z" fill="#7D0D36"/>
<path d="M223.946 123.084L223.474 123.041L222.902 119.539L223.713 112.286L223.082 111.105C223.082 111.105 229.484 111.676 231.01 111.826C232.536 111.976 223.946 123.084 223.946 123.084Z" fill="#1ECBC6"/>
<path d="M192.98 119.23L198.151 109.771L202.331 110.2L201.841 111.701L197.656 120.422L193.886 120.219L192.98 119.23Z" fill="#1ECBC6"/>
<path d="M98.5279 101.714L100.316 113.399H98.4447L98.0679 101.719L98.5279 101.714Z" fill="#EE2346"/>
<path d="M56.9253 103.798L58.1221 110.16C58.2834 111.018 58.2203 111.902 57.9388 112.728L56.9258 115.701L63.5259 115.13L58.4246 103.671L56.9253 103.798Z" fill="#EE2346"/>
<path d="M198.151 109.771L192.98 119.23L193.886 120.219L197.656 120.422L198.365 118.955L196.399 117.081L199.555 109.915L198.151 109.771Z" fill="#7D0D36"/>
<path d="M223.082 111.105L223.713 112.286L222.902 119.539L223.474 123.041L224.787 123.163L224.601 118.918L228.406 111.575L223.082 111.105Z" fill="#7D0D36"/>
<path d="M21.4917 68.7506L55.5804 47.0969L47.7549 35.7339L11.6157 60.7447L21.4917 68.7506Z" fill="#5D80F6"/>
<path d="M55.0266 49.649L35.1574 70.1975L31.1187 62.6333L53.8756 48.2222L55.0266 49.649Z" fill="#EE2346"/>
<path d="M265.792 74.9678L264.398 115.097L278.763 117.676L280.499 74.9678H265.792Z" fill="#5D80F6"/>
<path d="M263.324 79.5429L259.255 106.001L264.721 105.858L265.794 79.2549L263.324 79.5429Z" fill="#EE2346"/>
</g>
<defs>
<clipPath id="clip0_326_5916">
<rect width="280.5" height="187" fill="white" transform="translate(0 0.5)"/>
</clipPath>
</defs>
</svg>
