<svg width="42" height="40" viewBox="0 0 42 40" fill="none" xmlns="http://www.w3.org/2000/svg">
<rect x="0.5" y="0.5" width="40.6" height="39" rx="15.5" fill="white" stroke="#D8DAE1"/>
<path fill-rule="evenodd" clip-rule="evenodd" d="M17.1276 11.9072C17.4682 11.7981 17.8363 11.9751 17.9498 12.3025C18.0633 12.63 17.8793 12.9839 17.5387 13.0931L17.4053 13.1359C16.0466 13.5713 14.9805 14.5965 14.5276 15.9029L14.4831 16.0311C14.3696 16.3586 14.0015 16.5356 13.6609 16.4264C13.3204 16.3173 13.1363 15.9633 13.2498 15.6359L13.2943 15.5076C13.8766 13.8279 15.2473 12.5099 16.9942 11.95L17.1276 11.9072ZM24.472 11.9072C24.1314 11.7981 23.7633 11.9751 23.6498 12.3025C23.5362 12.63 23.7203 12.9839 24.0609 13.0931L24.1943 13.1359C25.5529 13.5713 26.6191 14.5965 27.072 15.9029L27.1164 16.0311C27.23 16.3586 27.5981 16.5356 27.9386 16.4264C28.2792 16.3173 28.4632 15.9633 28.3497 15.6359L28.3052 15.5076C27.723 13.8279 26.3522 12.5099 24.6054 11.95L24.472 11.9072ZM20.7998 13.3335C18.0013 13.3335 15.6464 15.4092 15.3221 18.1619L15.0232 20.699C14.949 21.3294 14.6833 21.9226 14.2612 22.4002C13.3656 23.4139 14.0925 25.0002 15.4526 25.0002H26.147C27.5071 25.0002 28.234 23.4139 27.3383 22.4002C26.9163 21.9226 26.6506 21.3294 26.5763 20.699L26.2774 18.1619C25.9531 15.4092 23.5983 13.3335 20.7998 13.3335ZM20.7998 28.3335C21.9754 28.3335 22.9792 27.6662 23.3756 26.7265C23.3921 26.6873 23.3998 26.6452 23.3998 26.6029C23.3998 26.4081 23.2355 26.2502 23.0329 26.2502H18.5666C18.364 26.2502 18.1998 26.4081 18.1998 26.6029C18.1998 26.6452 18.2074 26.6873 18.224 26.7265C18.6203 27.6662 19.6241 28.3335 20.7998 28.3335Z" fill="#004D3C"/>
<rect x="19.7998" y="9" width="12.4" height="12" rx="5" fill="#00B890" stroke="white" stroke-width="2"/>
</svg>
