<svg width="40" height="40" viewBox="0 0 40 40" fill="none" xmlns="http://www.w3.org/2000/svg">
<path d="M17.6006 2.08386C18.6058 2.08303 19.3998 2.08182 20.1445 2.3446C20.2984 2.39892 20.4494 2.46169 20.5967 2.5321C21.3092 2.87289 21.8707 3.43483 22.5811 4.14636C22.6215 4.18686 22.6626 4.22796 22.7041 4.26941L30.5977 12.1639C30.6456 12.2119 30.6934 12.2588 30.7402 12.3055C31.5643 13.128 32.2163 13.7795 32.5674 14.6268C32.7828 15.1469 32.8509 15.8028 32.8828 16.3671C32.9165 16.9627 32.917 17.6467 32.917 18.3104V18.3339C32.9168 19.024 32.3571 19.5837 31.667 19.5839C30.9767 19.5839 30.4172 19.0241 30.417 18.3339C30.417 17.6424 30.416 17.0263 30.3867 16.5087C30.3814 16.4147 30.3758 16.3284 30.3691 16.2499H29.9082C27.629 16.2499 25.7916 16.2498 24.3467 16.0555C22.8469 15.8538 21.5841 15.4227 20.5811 14.4198C19.5779 13.4166 19.146 12.1533 18.9443 10.6532C18.7501 9.20826 18.75 7.37098 18.75 5.09167V4.60535C18.472 4.58763 18.0699 4.58386 17.4268 4.58386C14.6924 4.58386 12.7495 4.58547 11.2578 4.75964C9.79317 4.93067 8.9242 5.2529 8.2666 5.78308C7.96598 6.02547 7.69258 6.29984 7.4502 6.60046C6.91997 7.25809 6.59681 8.12689 6.42578 9.59167C6.25164 11.0833 6.25 13.0255 6.25 15.7596V23.3339C6.25 26.5117 6.25313 28.7696 6.4834 30.4823C6.70885 32.159 7.1316 33.1246 7.83691 33.83C8.54223 34.5353 9.5079 34.958 11.1846 35.1835C12.8973 35.4137 15.1551 35.4169 18.333 35.4169H31.667C32.3572 35.417 32.917 35.9766 32.917 36.6669C32.917 37.3571 32.3572 37.9167 31.667 37.9169H18.2393C15.1763 37.9169 12.7502 37.9173 10.8516 37.662C8.89754 37.3993 7.31563 36.8458 6.06836 35.5985C4.82109 34.3512 4.2676 32.7693 4.00488 30.8153C3.74961 28.9166 3.74997 26.4905 3.75 23.4276V15.6796C3.74998 13.0436 3.75029 10.9552 3.94336 9.30164C4.14153 7.60433 4.55734 6.20513 5.50391 5.03113C5.85816 4.59178 6.25791 4.19104 6.69727 3.83679C7.87121 2.89027 9.27058 2.47443 10.9678 2.27625C12.6213 2.08318 14.7098 2.08384 17.3457 2.08386H17.6006ZM14.167 22.0829C16.2378 22.0831 17.9167 23.7621 17.917 25.8329C17.917 27.9038 16.2379 29.5827 14.167 29.5829H12.917V31.6669C12.9169 32.357 12.3571 32.9167 11.667 32.9169C10.9767 32.9169 10.4171 32.3571 10.417 31.6669V23.3329C10.4172 22.6427 10.9768 22.0829 11.667 22.0829H14.167ZM22.9766 22.0829C25.2113 22.0831 27.083 23.8539 27.083 26.1112V28.8885C27.083 31.1459 25.2113 32.9167 22.9766 32.9169H20.833C20.1429 32.9167 19.5831 32.357 19.583 31.6669V23.3329C19.5833 22.6428 20.143 22.0831 20.833 22.0829H22.9766ZM35 22.0829C35.6902 22.0829 36.2498 22.6427 36.25 23.3329C36.25 24.0232 35.6904 24.5829 35 24.5829H31.667C31.4369 24.5829 31.2501 24.7698 31.25 24.9999V26.2499H34.167C34.8572 26.2501 35.4169 26.8097 35.417 27.4999C35.417 28.1901 34.8572 28.7497 34.167 28.7499H31.25V31.6669C31.2499 32.3571 30.6903 32.9169 30 32.9169C29.3097 32.9169 28.7501 32.3571 28.75 31.6669V24.9999C28.7501 23.3891 30.0562 22.0829 31.667 22.0829H35ZM22.083 30.4169H22.9766C23.8974 30.4167 24.583 29.6992 24.583 28.8885V26.1112C24.583 25.3005 23.8974 24.5831 22.9766 24.5829H22.083V30.4169ZM12.917 27.0829H14.167C14.8572 27.0827 15.417 26.5231 15.417 25.8329C15.4167 25.1428 14.857 24.5831 14.167 24.5829H12.917V27.0829ZM21.252 6.35339C21.2581 8.04465 21.2865 9.31348 21.4219 10.3202C21.5863 11.543 21.8874 12.191 22.3486 12.6522C22.8099 13.1133 23.458 13.4136 24.6807 13.578C25.6874 13.7133 26.9562 13.7428 28.6475 13.7489L21.252 6.35339Z" fill="#444444"/>
</svg>
