<svg width="24" height="25" viewBox="0 0 24 25" fill="none" xmlns="http://www.w3.org/2000/svg">
    <path
        d="M10.4998 13.7499C12.3388 13.7499 14.137 14.2343 15.699 15.1493C15.818 15.2193 15.9572 15.2958 16.1072 15.3798C17.2802 16.0328 19.0531 17.0214 19.2351 18.4803C19.3229 19.1852 19.0354 19.8538 18.3835 20.4677C17.0886 21.6836 15.8286 22.2499 14.4197 22.2499H6.57983C5.1709 22.2498 3.91089 21.6836 2.61694 20.4686C1.96419 19.8538 1.67853 19.1851 1.76538 18.4803C1.94638 17.0203 3.71931 16.0328 4.89331 15.3798C5.04299 15.2959 5.18173 15.2192 5.30054 15.1493C6.86246 14.2343 8.66085 13.7499 10.4998 13.7499ZM10.4998 15.2577C8.95389 15.2577 7.40822 15.6533 6.05933 16.4432C5.93133 16.5182 5.7838 16.6003 5.6228 16.6903C4.88167 17.1024 3.34165 17.96 3.25366 18.6649C3.22867 18.8689 3.36027 19.1079 3.64526 19.3759C4.64318 20.3128 5.5759 20.7498 6.58081 20.7499H14.4207C15.4247 20.7499 16.3592 20.3129 17.3582 19.3749C17.6421 19.1079 17.7728 18.8689 17.7478 18.6649C17.6597 17.9609 16.1196 17.1033 15.3787 16.6903C15.2178 16.6004 15.07 16.5182 14.9431 16.4432C13.5941 15.6532 12.0477 15.2577 10.5017 15.2577H10.4998ZM10.4998 2.74988C13.1187 2.74988 15.2497 4.88091 15.2498 7.49988C15.2498 10.1189 13.1188 12.2499 10.4998 12.2499C7.88079 12.2498 5.74976 10.1189 5.74976 7.49988C5.7498 4.88094 7.88081 2.74991 10.4998 2.74988ZM10.4998 4.24988C8.70781 4.24991 7.2498 5.70794 7.24976 7.49988C7.24976 9.29186 8.70779 10.7498 10.4998 10.7499C12.2918 10.7499 13.7498 9.29188 13.7498 7.49988C13.7497 5.70791 12.2917 4.24988 10.4998 4.24988ZM22.1628 2.82898C22.5337 2.64422 22.9837 2.79417 23.1687 3.16394C23.3537 3.53385 23.2035 3.98471 22.8337 4.1698C21.0897 5.04233 19.6905 7.79158 19.6687 7.83484C19.5487 8.07479 19.3087 8.23187 19.0408 8.24792C19.0268 8.24792 19.0118 8.24889 18.9978 8.2489L18.9988 8.24988C18.7468 8.24988 18.5108 8.12301 18.3718 7.91101C18.0538 7.42503 17.3821 7.0008 17.1501 6.87781C16.7845 6.68466 16.6438 6.23192 16.8357 5.86609C17.0277 5.50017 17.4795 5.3587 17.8455 5.54968C17.9217 5.5898 18.3795 5.83539 18.8542 6.23914C19.5002 5.19914 20.6918 3.56498 22.1628 2.82898Z"
        fill="#E92D1F" />
</svg>
