<svg width="25" height="24" viewBox="0 0 25 24" fill="none" xmlns="http://www.w3.org/2000/svg">
    <path fill-rule="evenodd" clip-rule="evenodd"
        d="M12.8749 1.25C10.2515 1.25 8.12489 3.37665 8.12489 6C8.12489 8.62335 10.2515 10.75 12.8749 10.75C15.4982 10.75 17.6249 8.62335 17.6249 6C17.6249 3.37665 15.4982 1.25 12.8749 1.25ZM9.62489 6C9.62489 4.20507 11.08 2.75 12.8749 2.75C14.6698 2.75 16.1249 4.20507 16.1249 6C16.1249 7.79493 14.6698 9.25 12.8749 9.25C11.08 9.25 9.62489 7.79493 9.62489 6Z"
        fill="#767676" />
    <path fill-rule="evenodd" clip-rule="evenodd"
        d="M12.8749 12.25C10.5613 12.25 8.42981 12.7759 6.85034 13.6643C5.29437 14.5396 4.12489 15.8661 4.12489 17.5L4.12482 17.602C4.12369 18.7638 4.12228 20.222 5.4013 21.2635C6.03077 21.7761 6.91137 22.1406 8.1011 22.3815C9.29415 22.6229 10.8491 22.75 12.8749 22.75C14.9007 22.75 16.4556 22.6229 17.6487 22.3815C18.8384 22.1406 19.719 21.7761 20.3485 21.2635C21.6275 20.222 21.6261 18.7638 21.625 17.602L21.6249 17.5C21.6249 15.8661 20.4554 14.5396 18.8994 13.6643C17.32 12.7759 15.1884 12.25 12.8749 12.25ZM5.62489 17.5C5.62489 16.6487 6.24627 15.7251 7.58573 14.9717C8.90169 14.2315 10.7702 13.75 12.8749 13.75C14.9796 13.75 16.8481 14.2315 18.164 14.9717C19.5035 15.7251 20.1249 16.6487 20.1249 17.5C20.1249 18.8078 20.0846 19.544 19.4013 20.1004C19.0308 20.4022 18.4114 20.6967 17.3511 20.9113C16.2942 21.1252 14.8491 21.25 12.8749 21.25C10.9007 21.25 9.45563 21.1252 8.39868 20.9113C7.33841 20.6967 6.71901 20.4022 6.34848 20.1004C5.66521 19.544 5.62489 18.8078 5.62489 17.5Z"
        fill="#767676" />
</svg>
