<svg width="29" height="28" viewBox="0 0 29 28" fill="none" xmlns="http://www.w3.org/2000/svg">
<path d="M18.8333 6.99998C18.8333 9.57731 16.744 11.6666 14.1667 11.6666C11.5893 11.6666 9.49999 9.57731 9.49999 6.99998C9.49999 4.42265 11.5893 2.33331 14.1667 2.33331C16.744 2.33331 18.8333 4.42265 18.8333 6.99998Z" fill="#E92D1F"/>
<path fill-rule="evenodd" clip-rule="evenodd" d="M19.4167 25.6667C17.4918 25.6667 16.5293 25.6667 15.9313 25.0687C15.3333 24.4707 15.3333 23.5082 15.3333 21.5833C15.3333 19.6584 15.3333 18.696 15.9313 18.098C16.5293 17.5 17.4918 17.5 19.4167 17.5C21.3416 17.5 22.304 17.5 22.902 18.098C23.5 18.696 23.5 19.6584 23.5 21.5833C23.5 23.5082 23.5 24.4707 22.902 25.0687C22.304 25.6667 21.3416 25.6667 19.4167 25.6667ZM21.7127 20.7034C21.9785 20.4377 21.9785 20.0068 21.7127 19.741C21.4469 19.4752 21.016 19.4752 20.7502 19.741L18.5092 21.982L18.0831 21.5558C17.8173 21.29 17.3864 21.29 17.1206 21.5558C16.8548 21.8216 16.8548 22.2525 17.1206 22.5183L18.028 23.4257C18.2938 23.6914 18.7247 23.6914 18.9905 23.4257L21.7127 20.7034Z" fill="#E92D1F"/>
<path opacity="0.5" d="M17.0569 25.5743C16.2098 25.6349 15.2512 25.6667 14.1667 25.6667C4.83332 25.6667 4.83332 23.3162 4.83332 20.4167C4.83332 17.5172 9.012 15.1667 14.1667 15.1667C17.5274 15.1667 20.4732 16.1658 22.1166 17.6648C21.5143 17.5 20.6693 17.5 19.4167 17.5C17.4918 17.5 16.5293 17.5 15.9313 18.098C15.3333 18.696 15.3333 19.6585 15.3333 21.5834C15.3333 23.5083 15.3333 24.4707 15.9313 25.0687C16.2084 25.3458 16.5638 25.4945 17.0569 25.5743Z" fill="#E92D1F"/>
</svg>
