<svg width="18" height="22" viewBox="0 0 18 22" fill="none" xmlns="http://www.w3.org/2000/svg">
<path fill-rule="evenodd" clip-rule="evenodd" d="M8.75 0.25C6.12664 0.25 4 2.37665 4 5C4 7.62335 6.12664 9.75 8.75 9.75C11.3733 9.75 13.5 7.62335 13.5 5C13.5 2.37665 11.3733 0.25 8.75 0.25ZM5.5 5C5.5 3.20507 6.95507 1.75 8.75 1.75C10.5449 1.75 12 3.20507 12 5C12 6.79493 10.5449 8.25 8.75 8.25C6.95507 8.25 5.5 6.79493 5.5 5Z" fill="#1A202C" fill-opacity="0.37"/>
<path fill-rule="evenodd" clip-rule="evenodd" d="M8.75 11.25C6.43645 11.25 4.30492 11.7759 2.72545 12.6643C1.16948 13.5396 -3.11297e-06 14.8661 -3.11297e-06 16.5L-6.94529e-05 16.602C-0.0011992 17.7638 -0.00261712 19.222 1.27641 20.2635C1.90588 20.7761 2.78647 21.1406 3.97621 21.3815C5.16926 21.6229 6.72422 21.75 8.75 21.75C10.7758 21.75 12.3307 21.6229 13.5238 21.3815C14.7135 21.1406 15.5941 20.7761 16.2236 20.2635C17.5026 19.222 17.5012 17.7638 17.5001 16.602L17.5 16.5C17.5 14.8661 16.3305 13.5396 14.7745 12.6643C13.1951 11.7759 11.0635 11.25 8.75 11.25ZM1.5 16.5C1.5 15.6487 2.12137 14.7251 3.46084 13.9717C4.77679 13.2315 6.64527 12.75 8.75 12.75C10.8547 12.75 12.7232 13.2315 14.0392 13.9717C15.3786 14.7251 16 15.6487 16 16.5C16 17.8078 15.9597 18.544 15.2764 19.1004C14.9059 19.4022 14.2865 19.6967 13.2262 19.9113C12.1693 20.1252 10.7242 20.25 8.75 20.25C6.77577 20.25 5.33074 20.1252 4.27379 19.9113C3.21352 19.6967 2.59412 19.4022 2.22359 19.1004C1.54031 18.544 1.5 17.8078 1.5 16.5Z" fill="#1A202C" fill-opacity="0.37"/>
</svg>
