<svg width="22" height="18" viewBox="0 0 22 18" fill="none" xmlns="http://www.w3.org/2000/svg">
<path d="M2.76953 12.0215C5.20846 10.6601 8.29153 10.6601 10.7305 12.0215C10.8004 12.0606 10.8901 12.1077 10.9932 12.1622C11.465 12.4113 12.2261 12.8129 12.7461 13.2901C13.0681 13.5856 13.4234 14.0174 13.4893 14.5821C13.5615 15.2014 13.2647 15.7448 12.7744 16.1827C11.9661 16.9046 10.9753 17.5001 9.68945 17.5001H3.81055C2.52466 17.5 1.53391 16.9046 0.725586 16.1827C0.235297 15.7448 -0.061468 15.2014 0.0107422 14.5821C0.0766089 14.0172 0.432804 13.5857 0.754883 13.2901C1.27495 12.8129 2.03603 12.4113 2.50781 12.1622C2.61067 12.1079 2.69966 12.0605 2.76953 12.0215ZM14.54 12.2442C16.132 11.7791 17.8869 11.9781 19.3457 12.8467C19.3928 12.8748 19.4552 12.9091 19.5283 12.9503C19.8787 13.1473 20.4817 13.4865 20.8916 13.8878C21.1478 14.1385 21.4385 14.513 21.4922 15.004C21.5508 15.5411 21.3077 16.0139 20.9111 16.3917C20.2916 16.9818 19.5005 17.5 18.4551 17.5001H14.75C14.3359 17.5 14 17.1642 14 16.7501C14 16.3359 14.3359 16.0002 14.75 16.0001H18.4551C18.9548 16 19.393 15.7668 19.877 15.3057C19.9551 15.2313 19.9858 15.1825 19.9971 15.1583C19.987 15.1343 19.9523 15.0682 19.8418 14.96C19.5902 14.7138 19.2336 14.5104 18.8838 14.3116C18.7803 14.2528 18.6774 14.194 18.5781 14.1348C17.4864 13.4848 16.1632 13.3325 14.9609 13.6837C14.5635 13.7998 14.1466 13.5723 14.0303 13.1749C13.9141 12.7773 14.1425 12.3604 14.54 12.2442ZM10 13.3311C8.01547 12.2233 5.48551 12.2233 3.50098 13.3311C3.37906 13.3992 3.24859 13.4681 3.11523 13.5391C2.64376 13.7902 2.12861 14.0642 1.76855 14.3946C1.54278 14.6018 1.50465 14.7244 1.50098 14.7559L1.51562 14.8135C1.53695 14.8588 1.59131 14.9444 1.72461 15.0635C2.38766 15.6558 3.03625 16 3.81055 16.0001H9.68945C10.4638 16.0001 11.1123 15.6558 11.7754 15.0635C11.909 14.9442 11.9641 14.8587 11.9854 14.8135C12.0025 14.777 12.0007 14.7614 12 14.7559L11.9883 14.7149C11.9651 14.6575 11.9005 14.5497 11.7314 14.3946C11.3713 14.0642 10.8562 13.7902 10.3848 13.5391C10.2515 13.4682 10.1218 13.3991 10 13.3311ZM15.9863 3.54791C16.1561 3.48424 16.3439 3.48424 16.5137 3.54791L20.5137 5.04791C20.7878 5.15086 20.977 5.40425 20.998 5.69635C21.019 5.98847 20.868 6.26614 20.6113 6.40729L19.1816 7.19342V8.06842C19.1815 9.68754 17.8691 11.0001 16.25 11.0001C14.6309 11.0001 13.3185 9.68753 13.3184 8.06842V7.19342L11.8887 6.40729C11.632 6.26614 11.481 5.98846 11.502 5.69635C11.523 5.40425 11.7122 5.15086 11.9863 5.04791L15.9863 3.54791ZM6.49414 0.0449829C6.65942 -0.0149959 6.84058 -0.0149959 7.00586 0.0449829L12.5059 2.04498C12.7777 2.14383 12.9684 2.39087 12.9961 2.67877C13.0236 2.96653 12.8836 3.24488 12.6357 3.39362L10.5 4.67487V6.13873C10.5 8.24522 8.84654 10.0001 6.75 10.0001C4.65346 10.0001 3 8.24522 3 6.13873V4.67487L2 4.07428V6.75006C2 7.16427 1.66421 7.50006 1.25 7.50006C0.835786 7.50006 0.5 7.16427 0.5 6.75006V2.75006C0.5 2.43468 0.697749 2.15276 0.994141 2.04498L6.49414 0.0449829ZM16.25 8.17682C15.5642 8.17682 15.1139 8.23822 14.8369 8.29889C14.9472 8.97998 15.5378 9.50006 16.25 9.50006C16.9622 9.50006 17.5528 8.97998 17.6631 8.29889C17.3861 8.23822 16.9358 8.17682 16.25 8.17682ZM6.75 6.00006C5.63547 6.00006 4.95364 6.11968 4.57227 6.22369C4.54851 6.23017 4.52631 6.23788 4.50488 6.2442C4.55773 7.52285 5.56517 8.50006 6.75 8.50006C7.93481 8.50006 8.94128 7.52283 8.99414 6.2442C8.97298 6.23797 8.95116 6.23008 8.92773 6.22369C8.54636 6.11968 7.86453 6.00006 6.75 6.00006ZM14.041 5.87897L14.4297 6.09283C14.6693 6.22465 14.8184 6.47655 14.8184 6.75006V6.77643C15.186 6.71746 15.6551 6.67682 16.25 6.67682C16.8449 6.67682 17.314 6.71746 17.6816 6.77643V6.75006C17.6816 6.47655 17.8307 6.22465 18.0703 6.09283L18.459 5.87897L16.25 5.05084L14.041 5.87897ZM2.98535 2.91705L4.13574 3.60651C4.36165 3.74205 4.5 3.98661 4.5 4.25006V4.6983C5.02521 4.58676 5.75386 4.50006 6.75 4.50006C7.74614 4.50006 8.47479 4.58676 9 4.6983V4.25006C9 3.98661 9.13835 3.74205 9.36426 3.60651L10.5146 2.91705L6.75 1.54791L2.98535 2.91705Z" fill="#6735DC"/>
</svg>
