<svg width="29" height="28" viewBox="0 0 29 28" fill="none" xmlns="http://www.w3.org/2000/svg">
<path d="M8.597 2.33331C9.08216 2.33331 9.47547 2.71156 9.47547 3.17814V4.88233C10.2547 4.8678 11.1281 4.8678 12.1109 4.8678H16.7961C17.7789 4.8678 18.6523 4.8678 19.4315 4.88233V3.17814C19.4315 2.71156 19.8248 2.33331 20.31 2.33331C20.7952 2.33331 21.1885 2.71156 21.1885 3.17814V4.95707C22.8743 5.0869 23.9811 5.40553 24.7942 6.1875C25.6073 6.96947 25.9386 8.03384 26.0736 9.65515L26.1667 10.5L3.91198 10.5H2.83333V9.65515C2.96833 8.03384 3.29965 6.96947 4.11276 6.1875C4.92588 5.40553 6.03263 5.0869 7.71852 4.95707V3.17814C7.71852 2.71156 8.11183 2.33331 8.597 2.33331Z" fill="#FF8811"/>
<path opacity="0.5" d="M26.1667 16.3333V14C26.1667 13.0211 26.1629 11.276 26.1478 10.4999L2.84458 10.4999C2.82953 11.276 2.83333 13.0211 2.83333 14L2.83333 16.3333C2.83333 20.7331 2.83333 22.933 4.20017 24.2998C5.567 25.6666 7.76689 25.6666 12.1667 25.6666H16.8333C21.2331 25.6666 23.433 25.6666 24.7998 24.2998C26.1667 22.933 26.1667 20.7331 26.1667 16.3333Z" fill="#FF8811"/>
</svg>
