<svg width="24" height="25" viewBox="0 0 24 25" fill="none" xmlns="http://www.w3.org/2000/svg">
<path d="M9.00098 10.7723C11.2101 10.7723 13.001 8.98148 13.001 6.77234C13.001 4.5632 11.2101 2.77234 9.00098 2.77234C6.79184 2.77234 5.00098 4.5632 5.00098 6.77234C5.00098 8.98148 6.79184 10.7723 9.00098 10.7723Z" fill="#BDBBBB"/>
<path d="M9.00098 21.7733C12.867 21.7733 16.001 19.9825 16.001 17.7733C16.001 15.5642 12.867 13.7733 9.00098 13.7733C5.13499 13.7733 2.00098 15.5642 2.00098 17.7733C2.00098 19.9825 5.13499 21.7733 9.00098 21.7733Z" fill="#BDBBBB"/>
<path d="M20.9996 17.7728C20.9996 19.4296 18.9641 20.7727 16.4788 20.7727C17.211 19.9724 17.7145 18.9678 17.7145 17.7741C17.7145 16.5791 17.2098 15.5736 16.4762 14.7728C18.9615 14.7728 20.9996 16.1159 20.9996 17.7728Z" fill="#BDBBBB"/>
<path d="M17.9996 6.77307C17.9996 8.42993 16.6565 9.77307 14.9996 9.77307C14.6383 9.77307 14.292 9.70921 13.9712 9.59215C14.4443 8.76006 14.7145 7.79756 14.7145 6.77196C14.7145 5.74711 14.4447 4.78528 13.9722 3.95361C14.2927 3.8368 14.6387 3.77307 14.9996 3.77307C16.6565 3.77307 17.9996 5.11622 17.9996 6.77307Z" fill="#BDBBBB"/>
</svg>
