<svg width="140" height="140" viewBox="0 0 140 140" fill="none" xmlns="http://www.w3.org/2000/svg">
<path d="M92.4066 62.2404C92.2932 56.7391 92.4766 51.2371 92.3954 45.7358C92.2223 33.756 92.0517 21.7753 91.8837 9.79361C91.8529 7.54941 91.6254 4.93071 89.7417 3.71201C88.6 2.97281 87.1468 2.97631 85.7874 3.01201C77.0857 3.24021 68.4078 2.86221 59.7166 3.35011C56.3566 3.53841 53.7029 4.59471 53.5797 8.31381C53.3305 15.8283 53.7267 64.4846 53.9297 68.5621C53.9997 70.0265 53.5265 76.0521 54.853 77.4731C55.6671 78.3446 64.5319 77.7923 65.0786 77.6019C66.0222 77.2736 68.7354 71.3082 71.4444 68.6139C68.9755 68.7448 59.5031 69.4539 58.9844 68.2443C58.4657 67.0347 58.3488 15.0716 58.0744 11.3224C67.8208 11.4932 77.5676 11.4106 87.3148 11.0746C87.7509 30.0166 86.9928 45.5013 87.3442 57.7233C87.4142 60.2272 88.1653 64.8192 86.7107 67.0088C85.9155 68.2058 84.3307 68.1288 82.9083 68.1169C81.7799 68.1099 76.7987 68.4977 76.5586 68.4417C77.2586 68.6048 77.4819 69.4819 77.4686 70.1966C77.4336 72.5605 76.3164 74.7515 75.3518 76.9096C74.8016 78.1409 75.6472 78.0548 76.6076 78.0492C77.568 78.0436 84.673 77.9253 87.2525 77.6572C89.384 77.436 91.0486 77.744 91.7941 75.5376C93.1136 71.6365 92.4906 66.3277 92.4066 62.2404Z" fill="#F4A261"/>
<path d="M73.0757 105.596C68.8463 104.822 63.821 105.199 59.9542 107.318C62.9901 102.558 65.7355 97.5876 68.4242 92.6302C71.192 87.53 74.0326 82.3752 76.0997 76.9502C76.9523 74.7102 78.3348 71.7233 77.2897 69.3433C76.4112 67.3371 74.0858 67.0179 72.2903 67.9706C70.5508 68.8946 69.288 70.7062 68.1603 72.2798C65.7584 75.7932 63.5538 79.4374 61.5565 83.1956C60.7732 80.7029 57.5616 79.3638 55.6464 81.1754C54.6972 78.7177 51.8587 77.1609 49.5389 78.6064C49.3451 77.3657 48.7366 76.2272 47.8127 75.3766C46.5905 74.3931 44.9 74.4855 43.4965 74.9867C40.8967 75.9163 37.0957 79.1545 35.1602 81.0816C30.2691 85.9383 26.7246 91.9831 24.8744 98.6229C23.9798 101.901 23.4947 105.576 24.4754 108.88C23.5906 109.99 22.7881 111.162 22.0744 112.389C21.1509 111.964 20.2176 111.566 19.2744 111.194C15.3019 116.63 11.4127 122.128 7.74683 127.775C6.04933 130.389 4.13973 133.339 7.83153 135.284C11.3035 137.112 43.052 136.779 44.4261 134.893C44.6827 134.537 44.8516 134.126 44.919 133.693C44.9864 133.26 44.9504 132.817 44.8139 132.401C44.438 131.228 41.1795 127.062 40.3115 126.066C41.0428 125.164 41.6628 124.177 42.1581 123.126C42.2547 122.884 41.9313 122.669 41.7276 122.796C40.7595 123.402 39.6577 125.381 39.6577 125.381C39.6577 125.381 29.1899 115.78 22.6638 112.668C23.4396 111.797 24.1628 110.881 24.8296 109.924C24.9556 110.232 25.0935 110.537 25.2496 110.834C25.2906 110.901 25.3542 110.951 25.4289 110.975C25.5036 110.999 25.5845 110.996 25.6568 110.965C25.7292 110.935 25.7883 110.879 25.8234 110.809C25.8585 110.739 25.8673 110.659 25.8481 110.582C23.7061 104.302 25.6381 97.5246 28.541 91.8007C31.2797 86.3819 35.246 81.6776 40.1239 78.0625C41.5757 76.9894 43.2263 75.7567 45.0806 75.5768C47.2968 75.3619 48.6212 77.4493 48.6709 79.4968C48.6739 79.5911 48.704 79.6825 48.7577 79.76C48.8113 79.8376 48.8862 79.898 48.9733 79.9341C49.0604 79.9702 49.1561 79.9803 49.2489 79.9633C49.3416 79.9464 49.4275 79.903 49.4962 79.8384C51.3197 78.108 54.4018 79.0859 54.9702 82.3283C54.9982 82.4177 55.0512 82.4972 55.1229 82.5574C55.1947 82.6176 55.2822 82.6559 55.3751 82.668C55.4679 82.68 55.5623 82.6651 55.647 82.6251C55.7317 82.5852 55.8032 82.5218 55.8529 82.4424C56.1468 81.9451 56.6104 81.5706 57.1584 81.3877C57.7064 81.2048 58.3019 81.2259 58.8356 81.447C60.5569 82.147 60.7459 84.0272 61.0056 84.254C60.1396 85.9299 59.3659 87.6519 58.6879 89.4123C58.5787 89.6986 59.0449 89.8925 59.1828 89.6223C61.2023 85.6554 68.7987 71.0254 72.648 68.8722C73.8499 68.1995 75.5075 68.133 76.288 69.4609C77.0111 70.6929 76.638 72.1867 76.2642 73.4684C73.5342 82.84 63.9645 98.499 58.55 107.801C58.4499 107.972 58.34 108.913 59.5433 108.301C63.3128 106.38 72.1496 105.133 76.0185 107.664C76.9418 108.268 77.8462 109.792 76.4322 110.064C74.1775 110.5 66.2122 112.596 62.5113 113.906C58.8958 115.187 55.7262 117.097 52.4131 118.987C48.7766 121.061 44.1258 122.868 40.1799 120.497C40.0695 120.432 39.9377 120.414 39.8137 120.446C39.6896 120.478 39.5834 120.558 39.5184 120.669C39.4535 120.779 39.435 120.911 39.4672 121.035C39.4993 121.159 39.5795 121.265 39.6899 121.33C43.2298 123.452 47.5152 122.548 51.0166 120.828C53.0375 119.835 54.8533 118.471 56.8742 117.483C66.684 112.69 72.7838 112.448 76.2495 111.189C77.6586 110.678 78.7331 109.411 77.751 107.952C76.7689 106.492 74.7004 105.895 73.0757 105.596Z" fill="#191919"/>
<path d="M94.4928 35.9024C95.6415 40.3824 94.9128 44.7266 97.1059 48.9595C98.515 51.6811 100.713 53.9456 101.459 56.9948C102.112 60.0181 101.669 63.1752 100.208 65.9016C100.163 65.979 100.15 66.0712 100.173 66.158C100.196 66.2448 100.252 66.319 100.329 66.3643C100.407 66.4096 100.499 66.4222 100.586 66.3995C100.673 66.3768 100.747 66.3206 100.792 66.2432C101.079 65.845 101.335 65.4252 101.556 64.9874C102.046 65.5971 104.821 68.2172 105.62 68.9935C105.85 69.2168 106.176 68.8808 105.97 68.6435C105.238 67.7923 102.646 64.6675 101.948 64.1194C102.699 62.1415 102.927 60.0037 102.612 57.9118C102.122 54.6218 100.138 52.1879 98.4772 49.4257C94.987 43.6157 97.3817 35.6763 93.2531 31.309C92.9031 30.9408 92.2486 31.4259 92.5419 31.8627C93.4246 33.0841 94.085 34.4516 94.4928 35.9024Z" fill="#191919"/>
<path d="M92.6588 84.3822C93.0886 84.6622 93.6241 83.993 93.2132 83.6626C92.1688 82.8296 91.0719 82.0646 89.9295 81.3722C90.8168 81.1213 91.6249 80.647 92.2766 79.9946C92.5104 79.7062 92.3011 79.205 91.8867 79.3282C90.8367 79.6397 89.9218 80.3684 88.8543 80.7093C87.1595 81.2216 85.3797 81.3913 83.6187 81.2086C81.8577 81.026 80.1507 80.4945 78.5972 79.6453C78.4131 79.5473 78.1632 79.8133 78.3536 79.9631C80.3362 81.4734 82.7684 82.2745 85.2605 82.2381C86.5606 82.1379 87.851 81.9373 89.1203 81.6382C89.1203 81.6382 91.4058 83.5737 92.6588 84.3822Z" fill="#191919"/>
<path d="M132.261 87.15C129.24 81.6984 124.78 76.7515 120.291 72.4752C119.612 71.8277 113.274 65.2883 112.95 65.5683C104.312 73.0416 96.7711 81.696 90.5503 91.2758C89.0558 93.5781 89.1993 94.5588 90.7645 96.5209C95.2652 102.162 100.199 107.443 105.522 112.316C109.284 115.763 114.91 121.528 120.42 120.978C123.979 120.623 127.127 118.284 129.143 115.331C131.141 112.403 132.263 108.877 133.071 105.413C134.408 99.6849 135.226 92.4994 132.261 87.15ZM102.62 97.412C101.665 97.6087 98.4197 97.4246 97.9675 94.5546C97.8921 93.8216 98.0524 93.0837 98.425 92.448C98.7976 91.8123 99.3631 91.312 100.04 91.0196C101.422 90.3721 102.809 90.7697 104.03 91.7385C105.117 92.61 106.654 96.5776 102.62 97.412Z" fill="#191919"/>
</svg>
