<svg width="24" height="24" viewBox="0 0 24 24" fill="none" xmlns="http://www.w3.org/2000/svg">
<path d="M6.00296 2.27547C7.10101 2.38029 8.34743 2.80177 9.6387 3.45613C10.0079 3.64336 10.1557 4.0946 9.96878 4.46394C9.78154 4.83342 9.32947 4.98126 8.95999 4.79402C7.76663 4.18931 6.70732 3.84948 5.86038 3.76863C5.00867 3.68733 4.47862 3.87321 4.17581 4.17586C3.76549 4.58618 3.57751 5.4276 3.9473 6.81941C4.24745 7.94894 4.88261 9.29186 5.82034 10.7198C6.50556 9.84939 7.27835 8.97761 8.12796 8.128C9.25132 7.00466 10.413 6.01571 11.5596 5.18562C13.3905 3.86018 15.211 2.91898 16.795 2.49812C18.336 2.08869 19.8873 2.11882 20.8838 3.11531C21.8804 4.11185 21.9104 5.66313 21.501 7.20418C21.1139 8.66124 20.2869 10.3187 19.125 12.0001C20.2866 13.6812 21.1139 15.3381 21.501 16.795C21.9104 18.3359 21.8801 19.8873 20.8838 20.8839C20.1436 21.6241 19.0891 21.828 17.9961 21.7237C16.8981 21.6189 15.6516 21.1974 14.3604 20.543C13.991 20.3558 13.8431 19.9047 14.0303 19.5352C14.2175 19.166 14.6688 19.0182 15.0381 19.2052C16.2316 19.81 17.2917 20.1497 18.1387 20.2305C18.9904 20.3118 19.5205 20.126 19.8233 19.8233C20.2334 19.4129 20.4214 18.5722 20.0518 17.1807C19.7517 16.0512 19.1165 14.7084 18.1787 13.2803C17.4936 14.1507 16.7207 15.0226 15.8711 15.8721C14.7478 16.9955 13.5861 17.9845 12.4395 18.8145C10.6087 20.1399 8.78804 21.0812 7.20413 21.502C5.6631 21.9115 4.1118 21.8804 3.11527 20.8839C2.11883 19.8873 2.08769 18.336 2.4971 16.795C2.88425 15.338 3.71236 13.6813 4.87405 12.0001C3.71222 10.3187 2.88423 8.66125 2.4971 7.20418C2.08771 5.66318 2.11876 4.11182 3.11527 3.11531C3.85554 2.3752 4.90996 2.17112 6.00296 2.27547ZM5.82034 13.2803C4.88256 14.7084 4.24741 16.0512 3.9473 17.1807C3.57757 18.5724 3.76558 19.413 4.17581 19.8233C4.58611 20.2336 5.42672 20.4215 6.81839 20.0518C7.94784 19.7518 9.29091 19.1174 10.7188 18.1798C9.84834 17.4945 8.97662 16.7218 8.12698 15.8721C7.27749 15.0226 6.50549 14.1506 5.82034 13.2803ZM11.9991 6.72664C11.0616 7.43816 10.1133 8.26377 9.18851 9.18855C8.26359 10.1135 7.4382 11.0625 6.72659 12.0001C7.43814 12.9376 8.26369 13.8868 9.18851 14.8116C10.1133 15.7364 11.0616 16.562 11.9991 17.2735C12.9366 16.562 13.8857 15.7364 14.8106 14.8116C15.7354 13.8867 16.5609 12.9376 17.2725 12.0001C16.5609 11.0625 15.7355 10.1135 14.8106 9.18855C13.8857 8.26363 12.9366 7.43824 11.9991 6.72664ZM12 9.25007C13.5188 9.25007 14.75 10.4813 14.75 12.0001C14.75 13.5189 13.5188 14.7501 12 14.7501C10.4813 14.7501 9.25003 13.5189 9.25003 12.0001C9.25003 10.4813 10.4813 9.25009 12 9.25007ZM12 10.7501C11.3097 10.7501 10.75 11.3097 10.75 12.0001C10.75 12.6904 11.3097 13.2501 12 13.2501C12.6904 13.2501 13.25 12.6904 13.25 12.0001C13.25 11.3097 12.6904 10.7501 12 10.7501ZM19.8233 4.17586C19.4129 3.76558 18.5714 3.57757 17.1797 3.94734C16.0502 4.2475 14.7072 4.88267 13.2793 5.82039C14.1498 6.50563 15.0215 7.27837 15.8711 8.128C16.7208 8.97766 17.4935 9.84933 18.1787 10.7198C19.1165 9.29183 19.7516 7.94896 20.0518 6.81941C20.4216 5.4276 20.2336 4.58617 19.8233 4.17586Z" fill="#2C6E91"/>
</svg>
