<svg width="24" height="24" viewBox="0 0 24 24" fill="none" xmlns="http://www.w3.org/2000/svg">
<path d="M12.1748 1.75C12.9201 1.74998 13.5445 1.75026 14.0537 1.81055C14.5937 1.87449 15.0792 2.01298 15.5166 2.33984C15.9518 2.66515 16.2275 3.09383 16.4531 3.59668C16.6556 4.04796 16.8404 4.61763 17.0596 5.29883C17.4609 5.32082 17.8313 5.35175 18.1719 5.39844C19.2924 5.55209 20.2045 5.87685 20.9229 6.60938C21.6393 7.33997 21.9548 8.26465 22.1045 9.40039C22.25 10.5045 22.25 11.9149 22.25 13.6943V13.8057C22.25 15.5851 22.25 16.9955 22.1045 18.0996C21.9548 19.2354 21.6393 20.16 20.9229 20.8906C20.2045 21.6231 19.2924 21.9479 18.1719 22.1016C17.0862 22.2504 15.6999 22.25 13.957 22.25H10.043C8.30013 22.25 6.91385 22.2504 5.82813 22.1016C4.70763 21.9479 3.79552 21.6231 3.07715 20.8906C2.3607 20.16 2.04525 19.2354 1.89551 18.0996C1.74998 16.9955 1.74998 15.5851 1.75 13.8057V13.6943C1.74998 11.9149 1.74998 10.5045 1.89551 9.40039C2.04525 8.26465 2.3607 7.33997 3.07715 6.60938C3.79552 5.87685 4.70763 5.5521 5.82813 5.39844C6.16783 5.35187 6.5373 5.32082 6.9375 5.29883C7.15666 4.61752 7.34248 4.04802 7.54492 3.59668C7.7705 3.09383 8.04622 2.66515 8.48145 2.33984C8.91883 2.01294 9.40442 1.87451 9.94434 1.81055C10.4536 1.75025 11.0788 1.74998 11.8242 1.75H12.1748ZM7.75 20.7314C8.41891 20.7485 9.19294 20.75 10.0996 20.75H13.9004C14.8071 20.75 15.5811 20.7485 16.25 20.7314V12.75H7.75V20.7314ZM3.25 13.75C3.25 15.5975 3.25166 16.9095 3.38281 17.9043C3.51133 18.8787 3.75198 19.4355 4.14844 19.8398C4.54298 20.2422 5.08331 20.4851 6.03223 20.6152C6.10304 20.6249 6.1758 20.6313 6.25 20.6396V12.75H3.25195C3.25095 13.0649 3.25 13.3977 3.25 13.75ZM17.75 20.6396C17.8242 20.6313 17.897 20.6249 17.9678 20.6152C18.9167 20.4851 19.457 20.2422 19.8516 19.8398C20.248 19.4355 20.4887 18.8787 20.6172 17.9043C20.7483 16.9095 20.75 15.5975 20.75 13.75C20.75 13.3977 20.749 13.0649 20.748 12.75H17.75V20.6396ZM10.0996 6.75C8.28687 6.75 7.00418 6.75151 6.03223 6.88477C5.08331 7.01486 4.54298 7.25783 4.14844 7.66016C3.75198 8.06447 3.51133 8.62132 3.38281 9.5957C3.32057 10.0678 3.28805 10.6117 3.27051 11.25H20.7295C20.7119 10.6117 20.6794 10.0678 20.6172 9.5957C20.4887 8.62132 20.248 8.06447 19.8516 7.66016C19.457 7.25783 18.9167 7.01486 17.9678 6.88477C16.9958 6.75151 15.7131 6.75 13.9004 6.75H10.0996ZM11.8672 3.25C11.0668 3.25 10.5318 3.25118 10.1211 3.29981C9.73119 3.34597 9.53065 3.4276 9.37891 3.54102C9.22498 3.65613 9.08223 3.83296 8.91309 4.20996C8.79176 4.48043 8.67503 4.81698 8.53027 5.25586C9.00161 5.2515 9.50535 5.25 10.043 5.25H13.957C14.4935 5.25 14.9963 5.25152 15.4668 5.25586C15.3221 4.81717 15.2063 4.48035 15.085 4.20996C14.9158 3.83289 14.7731 3.65611 14.6191 3.54102C14.4674 3.4276 14.2668 3.34597 13.877 3.29981C13.4662 3.25121 12.9312 3.25 12.1309 3.25H11.8672Z" fill="#2C6E91"/>
</svg>
