<svg width="300" height="329" viewBox="0 0 300 329" fill="none" xmlns="http://www.w3.org/2000/svg">
<path d="M232.218 115.181C231.428 111.229 229.383 105.52 225.125 104.036C224.654 103.669 224.161 103.329 223.65 103.019C223.098 102.742 219.458 108.526 218.4 111.034C217.889 112.469 217.519 113.95 217.295 115.457C216.971 116.928 217.067 118.46 217.571 119.879C217.691 120.122 217.86 120.337 218.067 120.511C218.274 120.686 218.514 120.816 218.773 120.894C219.032 120.972 219.305 120.995 219.574 120.964C219.842 120.932 220.102 120.845 220.335 120.709C221.453 120.007 222.397 119.062 223.098 117.944C225.27 115 227.063 111.795 228.437 108.404C231.015 112.412 231.026 116.936 231.668 118.22C231.668 118.498 232.22 119.603 232.497 119.327C233.048 118.774 232.218 116.009 232.218 115.181Z" fill="#191919"/>
<path d="M275.615 175.99C268.428 174.331 233.601 167.14 223.65 164.933C222.76 164.617 221.829 164.432 220.886 164.381C220.334 164.381 220.334 164.657 219.78 164.933C218.555 165.559 217.254 166.024 215.91 166.316C214.55 166.635 213.161 166.82 211.764 166.868C211.621 166.879 211.487 166.941 211.386 167.043C211.284 167.144 211.223 167.279 211.212 167.422C211.488 169.357 212.042 171.014 212.318 172.949C213.143 178.724 218.253 179.381 221.991 181.799C222.828 182.339 225.032 184.01 223.65 185.116C221.333 186.97 216.24 187.178 214.8 186.221C213.557 185.639 212.261 185.177 210.93 184.84C209.403 184.735 207.906 184.36 206.508 183.734C203.586 182.273 204.987 180.689 204.573 179.035C204.297 178.483 204.021 178.483 203.468 177.929C202.638 177.1 202.638 175.718 202.362 174.889C201.931 173.073 201.653 171.224 201.533 169.361C201.522 169.218 201.46 169.084 201.359 168.982C201.258 168.881 201.124 168.819 200.981 168.808C198.453 169.452 195.847 169.731 193.241 169.637C190.754 169.637 188.265 169.913 185.778 169.913C185.635 169.924 185.5 169.986 185.399 170.087C185.297 170.189 185.235 170.323 185.225 170.467C185.225 174.694 185.045 177.136 186.054 178.483C186.33 179.311 186.884 179.864 186.608 180.694C186.33 182.075 184.949 182.629 183.843 182.905C182.197 183.759 180.703 184.88 179.421 186.221C177.247 188.101 174.542 189.26 171.681 189.538C170.726 189.623 169.766 189.432 168.917 188.986C168.365 188.432 168.917 188.156 169.194 187.603C171.454 184.836 173.314 181.766 174.722 178.483C175.088 176.944 175.181 175.354 174.998 173.783C174.998 172.402 174.722 170.743 174.722 169.361C174.722 168.151 172.71 169.576 162.284 166.597C162.006 161.897 162.006 157.199 161.73 152.776C161.701 152.566 161.604 152.372 161.454 152.224C158.807 151.629 156.132 151.167 153.438 150.841C152.457 150.841 151.922 150.079 149.846 151.118C135.596 155.65 136.482 155.449 125.522 158.581C125.244 158.581 125.244 158.857 125.244 159.134C127.284 173.408 127.617 177.871 129.944 182.351C131.871 186.065 134.919 187.001 134.919 190.091C134.979 190.546 134.947 191.008 134.826 191.45C134.705 191.892 134.497 192.306 134.213 192.666C133.93 193.027 133.578 193.327 133.177 193.549C132.776 193.772 132.335 193.912 131.879 193.961C131.234 194.058 130.576 194.008 129.953 193.817C129.33 193.626 128.758 193.297 128.279 192.856C124.775 190.852 122.475 187.25 122.475 188.432C121.587 189.082 120.533 189.466 119.435 189.538C118.052 189.538 118.052 187.327 118.052 186.497V180.694C117.602 178.01 114.33 165.266 113.906 162.727C113.906 162.451 113.63 162.175 113.354 162.451C111.545 163.041 109.698 163.502 107.825 163.832C107.549 163.832 107.549 164.108 107.549 164.386C106.64 178.936 105.27 183.113 106.167 184.01C106.773 185.786 106.962 187.677 106.719 189.538C106.719 190.862 106.445 193.138 104.784 193.138C104.232 193.138 103.679 192.862 103.127 193.138C102.297 193.414 101.744 194.519 101.468 195.073C99.8177 197.273 96.7817 199.771 94.0052 199.771C93.3646 199.759 92.7346 199.605 92.161 199.32C91.5874 199.034 91.0844 198.625 90.6887 198.121C88.9922 195.293 94.2962 190.351 95.6627 187.621C96.3211 186.234 96.6974 184.731 96.7697 183.197C96.9063 178.391 96.6288 173.583 95.9402 168.824C95.9291 168.681 95.8672 168.547 95.7657 168.446C95.6642 168.344 95.5297 168.283 95.3867 168.272C66.5372 178.07 52.8737 181.193 42.0407 185.132C41.9212 185.167 41.8163 185.24 41.7417 185.34C41.667 185.439 41.6267 185.56 41.6267 185.685C41.6267 185.809 41.667 185.931 41.7417 186.03C41.8163 186.13 41.9212 186.203 42.0407 186.238C76.2407 198.907 101.993 208.189 158.961 223.553C216 203.182 248.045 189.179 275.88 177.116C276.167 176.543 276.167 175.99 275.615 175.99ZM157.865 172.949C157.589 172.949 157.227 172.546 157.589 172.397C157.728 172.339 158.582 171.97 157.037 171.014C155.946 170.341 151.121 170.714 148.467 171.844C145.617 173.267 147.876 173.963 148.191 174.055C150.105 174.41 152.058 174.503 153.996 174.331C154.17 174.316 154.343 174.365 154.483 174.47C154.623 174.575 154.719 174.728 154.753 174.899C154.787 175.07 154.757 175.248 154.668 175.398C154.58 175.548 154.439 175.661 154.272 175.714C150.249 177.725 145.658 176.224 144.875 174.331C143.975 172.157 145.995 170.408 148.191 169.633C151.362 168.323 154.904 168.225 158.142 169.357C158.554 169.499 158.934 169.719 159.263 170.005C159.421 170.143 159.546 170.314 159.63 170.506C159.714 170.699 159.753 170.908 159.746 171.117C159.738 171.327 159.684 171.532 159.588 171.718C159.491 171.905 159.354 172.067 159.186 172.193C158.768 172.483 158.326 172.736 157.865 172.949Z" fill="#191919"/>
<path d="M70.5212 98.0437C70.4432 98.0437 70.3712 98.0587 70.2872 98.0692C70.1509 98.0075 70.0036 97.9735 69.854 97.9691C69.7044 97.9647 69.5554 97.9901 69.4157 98.0437C66.2028 99.3708 62.8707 100.389 59.4647 101.084C53.1212 101.084 48.4367 102.742 50.3432 102.742C53.1072 102.216 55.925 102.029 58.7342 102.187C58.385 104.29 58.3516 106.434 58.6352 108.547C58.8947 110.483 59.1887 112.693 60.8462 113.522C64.4372 115.574 68.5082 110.504 69.9677 106.612C70.8131 104.14 71.098 101.511 70.8017 98.9152C71.1392 98.5012 71.1917 97.8202 70.5212 98.0437Z" fill="#191919"/>
<path d="M69.9679 93.8977C69.4159 93.8977 69.6919 95.5477 70.2454 96.9382C71.3342 100.165 71.3342 103.661 70.2454 106.888C69.0679 109.622 65.5459 113.522 63.3349 114.074C61.1239 114.626 61.3999 116.563 64.7164 116.287C68.0329 116.011 72.4564 115.457 72.4564 115.457C72.4564 115.457 82.6834 108.271 76.8784 94.4572L69.9679 93.8977Z" fill="#F4A261"/>
<path d="M220.61 98.5957C217.651 101.146 215.211 104.243 213.423 107.717C211.817 111.059 210.935 115.733 211.212 116.287C213.46 118.23 215.864 119.986 218.399 121.537C219.228 121.813 219.78 120.983 219.228 120.154C216.089 116.624 219.828 109.595 222.269 105.505C223.517 103.553 225.228 101.941 227.25 100.811C227.796 100.255 220.61 98.3197 220.61 98.5957Z" fill="#F4A261"/>
<path d="M161.183 57.6877C159.171 61.1981 156.859 64.5275 154.272 67.6387C153.167 68.4682 154.272 69.8497 153.167 70.9552C152.891 71.2312 148.467 71.2312 149.297 72.6142C149.85 73.7197 151.508 77.3122 152.061 77.0362C157.311 75.3772 162.561 67.6387 163.394 65.7037C163.67 64.3222 161.183 57.1357 161.183 57.6877Z" fill="#F4A261"/>
<path d="M175.278 92.2386C175.15 89.449 175.429 86.6556 176.107 83.9466C175.278 83.1171 175.555 81.7356 175.278 80.6301C170.85 83.1111 169.2 88.0926 169.2 92.5146C169.201 95.2079 169.478 97.894 170.028 100.531C170.61 103.289 170.881 106.054 171.411 108.823C171.99 111.859 172.792 118.22 173.068 118.498C174.727 120.433 176.386 122.644 178.044 124.855C178.32 125.408 179.139 125.404 179.427 124.579C180.49 121.523 182.743 113.798 182.467 113.246C179.026 106.369 176.08 99.8316 175.278 92.2386Z" fill="#F4A261"/>
<path d="M192.969 120.433C188.727 107.708 193.038 93.1701 185.229 81.4581C184.357 82.7706 183.337 83.9785 182.189 85.0581C183.424 90.4964 183.982 96.0668 183.848 101.642C183.848 106.618 184.4 117.674 184.677 117.95C186.612 120.715 188.277 123.755 190.205 126.52C190.481 127.072 191.586 126.796 191.586 126.242C191.586 124.579 193.245 120.709 192.969 120.433Z" fill="#F4A261"/>
<path d="M112.535 100.531C111.384 94.7797 108.587 91.5562 107.007 88.9222C106.023 87.8371 105.186 86.6267 104.519 85.3222C104.243 84.4927 104.519 83.3872 104.243 82.5592C103.967 82.0057 103.137 81.7297 102.86 81.1762C102.584 80.9002 102.032 81.1762 101.754 81.4522C97.7042 87.7432 102.39 96.1222 104.243 101.354C105.039 103.565 105.323 105.928 105.072 108.265C104.987 110.865 104.326 113.413 103.137 115.727C102.967 118.77 103.059 121.822 103.413 124.849C103.413 125.402 103.967 125.678 104.519 125.402C107.473 122.636 110.243 119.68 112.811 116.552C113.603 113.861 113.975 111.065 113.916 108.26C113.364 105.782 113.088 103.295 112.535 100.531Z" fill="#F4A261"/>
<path d="M137.411 107.993C132.678 104.614 131.034 105.116 126.356 98.8732C121.175 91.9612 117.695 83.7622 113.088 81.4612C111.705 80.6332 110.048 83.3962 110.876 84.5017C111.704 85.6072 112.811 86.4367 113.64 87.5422C115.156 90.0482 116.54 92.6318 117.786 95.2822C119.228 98.0152 120.873 100.507 122.486 103.298C125.762 108.971 128.987 111.455 135.2 114.907C135.476 115.184 139.07 113.801 140.45 113.525C141.003 113.249 141.279 112.696 140.727 112.144C139.899 111.034 137.688 108.271 137.411 107.993Z" fill="#F4A261"/>
<path d="M34.3112 213.857C42.5337 220.506 51.32 226.425 60.5702 231.548C70.6742 237.128 86.9912 244.331 97.8857 247.298C100.875 248.164 103.924 248.811 107.007 249.233C107.835 249.233 108.113 248.404 107.283 248.128C105.9 247.852 104.795 247.298 103.413 247.022C102.032 246.746 100.926 246.193 99.5432 245.917C81.9095 241.047 65.1291 233.496 49.7897 223.528C44.7662 220.283 39.5627 217.169 34.8647 213.577C34.8513 213.533 34.8284 213.492 34.7977 213.458C34.767 213.424 34.7292 213.397 34.6869 213.379C34.6446 213.361 34.5989 213.352 34.5529 213.354C34.507 213.355 34.4619 213.367 34.4209 213.387C34.3799 213.408 34.3439 213.438 34.3155 213.474C34.2871 213.51 34.267 213.552 34.2565 213.597C34.2461 213.642 34.2456 213.688 34.255 213.733C34.2644 213.778 34.2836 213.82 34.3112 213.857Z" fill="#191919"/>
<path d="M106.454 290.699C132.276 295.003 179.954 309.544 204.578 318.616C204.854 318.616 204.854 318.892 205.131 318.892C205.168 318.891 205.204 318.897 205.238 318.911C205.272 318.925 205.303 318.945 205.328 318.971C205.354 318.997 205.375 319.027 205.388 319.061C205.402 319.095 205.408 319.131 205.407 319.168H205.683C206.789 319.721 207.618 318.062 206.513 317.786C189.899 309.968 123.123 291.986 107.559 290.422C107.082 290.464 106.602 290.369 106.178 290.146C105.9 289.87 105.9 290.422 106.454 290.699Z" fill="#191919"/>
<path d="M18.5564 273.011C40.5149 273.011 65.8919 276.704 69.4154 277.711C71.6264 277.987 73.5614 278.54 75.7724 278.816C76.6019 278.816 77.1494 277.729 76.0484 277.435C70.0829 275.837 45.3959 272.711 31.2704 272.459C26.8484 272.38 22.7024 272.459 18.2804 272.459C18.2804 272.456 17.9999 273.011 18.5564 273.011Z" fill="#191919"/>
<path d="M30.9947 212.2C25.2167 214.366 15.2447 224.629 13.3052 228.508C12.5629 229.456 11.9149 230.474 11.3702 231.548C11.0942 232.376 11.9222 233.198 12.4757 232.376C13.0263 231.393 13.6745 230.467 14.4107 229.613C15.0615 228.626 15.8016 227.7 16.6217 226.849C19.554 223.26 22.7905 219.93 26.2952 216.898C28.2302 215.516 30.1652 214.135 31.8242 212.752C31.5482 212.476 31.5482 212.2 30.9947 212.2Z" fill="#191919"/>
<path d="M11.1006 232.93C22.3506 239.96 50.0811 250.276 68.3166 252.554C68.4223 252.548 68.5215 252.501 68.5941 252.424C68.6667 252.347 68.7071 252.245 68.7071 252.139C68.7071 252.034 68.6667 251.932 68.5941 251.855C68.5215 251.778 68.4223 251.731 68.3166 251.725C60.6724 250.267 53.1072 248.422 45.6501 246.197C30.1446 241.685 15.3366 233.956 11.6526 232.376C11.1006 231.824 10.5411 232.661 11.1006 232.93Z" fill="#191919"/>
<path d="M12.2001 236.246C8.88205 240.392 8.05405 245.644 7.77655 250.897C7.46605 253.697 7.20505 262.228 8.05405 265.822C8.57974 268.499 9.82126 270.983 11.6466 273.011C11.7152 273.099 11.8018 273.171 11.9005 273.223C11.9991 273.275 12.1077 273.305 12.219 273.312C12.3302 273.319 12.4416 273.302 12.5459 273.262C12.6501 273.223 12.7448 273.161 12.8236 273.083C12.9024 273.004 12.9636 272.909 13.0031 272.805C13.0426 272.701 13.0595 272.589 13.0528 272.478C13.046 272.367 13.0157 272.258 12.9639 272.16C12.912 272.061 12.8398 271.974 12.7521 271.906C9.71155 268.313 9.15955 263.614 9.15955 259.192C9.15955 252.22 8.98555 242.83 12.7521 236.803C13.0281 236.246 12.4761 235.97 12.2001 236.246Z" fill="#191919"/>
<path d="M233.048 253.108C232.334 248.931 230.522 245.02 227.798 241.775C226.166 240.144 224.114 238.996 221.87 238.459C219.626 237.922 217.277 238.018 215.084 238.735C214.806 238.735 214.254 239.011 213.977 239.011C193.856 243.61 166.178 250.988 135.201 251.725C134.649 251.738 134.649 252.278 135.201 252.554C163.577 254.054 202.208 243.184 209.001 242.054C203.999 247.057 201.371 253.147 198.501 259.468C198.254 260.433 197.882 261.362 197.396 262.232C180.307 264.983 163.016 266.277 145.709 266.101C140.459 266.101 135.48 266.101 130.229 265.825C129.677 265.825 129.677 266.378 130.229 266.378C147.528 267.846 164.929 267.661 182.193 265.825C192.615 264.658 194.363 264.553 197.672 263.89C198.225 263.614 198.501 262.784 197.949 262.508C199.957 257.117 202.651 252.008 205.965 247.306C208.403 243.647 211.293 240.938 215.639 240.395C217.628 239.843 219.73 239.843 221.72 240.395C225.32 241.501 227.508 244.825 228.906 248.135C237.638 268.796 221.211 317.789 206.517 317.789C202.917 317.789 200.754 314.189 199.884 311.432C198.821 308.126 198.262 304.678 198.225 301.205C197.962 289.166 200.818 277.263 206.517 266.654C208.428 263.789 211.617 259.192 215.087 259.192C218.955 258.638 220.949 262.775 221.444 265.825C222.552 272.662 219.833 278.396 218.679 281.857C213.152 281.581 207.629 280.889 202.095 280.751C202.039 280.748 201.982 280.756 201.929 280.775C201.875 280.795 201.827 280.825 201.785 280.863C201.744 280.902 201.711 280.949 201.689 281.001C201.666 281.053 201.655 281.109 201.655 281.166C201.655 281.223 201.666 281.279 201.689 281.331C201.711 281.383 201.744 281.43 201.785 281.468C201.827 281.507 201.875 281.537 201.929 281.557C201.982 281.576 202.039 281.584 202.095 281.581C207.623 282.133 213.152 282.686 218.955 283.231C219.509 283.508 220.061 283.784 220.338 282.955C222.138 279.22 223.261 275.196 223.655 271.069C223.913 267.469 223.638 263.068 221.166 260.014C220.112 258.547 218.524 257.554 216.744 257.249H212.874C211.493 257.249 210.111 257.525 208.728 257.525C206.269 257.984 203.766 258.169 201.266 258.079C200.712 258.079 200.712 258.631 201.266 258.631C203.751 258.769 206.243 258.769 208.728 258.631C209.567 258.676 210.408 258.582 211.217 258.355H210.939C207.664 261.001 205.1 264.421 203.477 268.306C199.718 276.318 197.38 284.923 196.566 293.735C196.121 297.592 196.121 301.487 196.566 305.344C196.914 309.08 198.148 312.68 200.166 315.844C203.532 320.471 209.735 321.434 217.026 313.081C222.054 307.321 225.059 300.095 227.526 293.179C230.618 284.545 232.479 275.52 233.054 266.368C234.104 262.01 234.101 257.465 233.048 253.108Z" fill="#191919"/>
<path d="M224.756 203.078C224.756 202.525 224.202 202.249 223.65 202.249C219.911 203.911 163.128 224.77 158.97 226.849C74.0042 200.491 80.2037 202.249 79.3652 202.249C79.2224 202.26 79.0884 202.321 78.9871 202.423C78.8859 202.524 78.8242 202.658 78.8132 202.801C78.6752 212.755 78.8132 235.417 79.0892 235.417C82.75 237.174 86.5383 238.653 90.4217 239.84C95.9507 241.55 105.332 244.561 109.772 245.368C110.638 245.218 111.477 244.938 112.26 244.538C113.366 244.262 114.471 244.262 115.577 243.986C121.143 243.43 132.93 247.361 143.217 248.132C150.836 248.704 162.906 246.613 170.306 245.092C189.32 241.181 192.452 240.661 214.53 235.141C218.952 234.035 224.757 235.694 224.757 234.865C225.585 224.362 224.894 213.584 224.756 203.078Z" fill="#191919"/>
<path d="M177.767 70.9612C176.098 74.14 175.065 77.6139 174.726 81.1882C174.726 84.0712 175.511 84.7702 177.767 85.3342C178.751 85.6522 179.774 85.8383 180.807 85.8877C184.316 85.8877 185.568 83.2147 186.335 79.8067C186.759 78.4585 187.037 77.0685 187.164 75.6607C187.141 75.5778 187.097 75.5018 187.038 75.4395C186.978 75.3771 186.904 75.3302 186.823 75.3029C186.741 75.2755 186.654 75.2685 186.569 75.2825C186.484 75.2965 186.403 75.3311 186.335 75.3832C184.7 78.6547 184.685 84.0352 181.359 84.7822C180.247 84.9527 179.111 84.8576 178.043 84.5047C175.869 83.9617 174.813 83.5687 175.832 79.2547C176.417 76.7752 176.937 74.0047 177.767 71.5162C178.319 70.9612 177.959 70.5922 177.767 70.9612Z" fill="#191919"/>
<path d="M173.068 74.8252C172.732 75.2609 172.55 75.7954 172.55 76.3454C172.55 76.8954 172.732 77.4299 173.068 77.8657C173.186 78.1897 173.424 78.4562 173.732 78.6105C174.041 78.7647 174.396 78.795 174.727 78.6952C175.003 78.6952 175.003 78.4177 175.003 78.1417C174.067 77.2057 173.483 76.7827 173.621 75.9307C173.656 75.6497 173.784 75.3885 173.984 75.1883C174.184 74.9881 174.446 74.8603 174.727 74.8252C175.325 74.8252 174.566 73.3267 173.068 74.8252Z" fill="#191919"/>
<path d="M187.165 80.3527C188.815 81.1792 190.409 79.4182 189.653 77.5897C189.476 77.0031 189.08 76.5075 188.546 76.2067C187.993 75.9607 187.888 76.5682 187.994 76.7602C188.232 77.0714 188.404 77.4282 188.499 77.8085C188.594 78.1888 188.61 78.5845 188.546 78.9712C188.417 79.2253 188.219 79.4379 187.975 79.5846C187.73 79.7313 187.45 79.8062 187.165 79.8007C187.127 79.8364 187.098 79.8792 187.078 79.9267C187.057 79.9741 187.047 80.0251 187.047 80.0767C187.047 80.1282 187.057 80.1793 187.078 80.2267C187.098 80.2741 187.127 80.317 187.165 80.3527Z" fill="#191919"/>
<path d="M151.231 76.4841C153.103 79.8426 155.327 82.9928 157.864 85.8816C162.028 91.0266 162.492 91.0251 163.114 91.9626C163.807 92.8399 164.649 93.5883 165.601 94.1736C165.877 94.1736 166.155 94.1736 166.155 93.8976C165.499 91.9341 159.961 86.5701 158.968 85.3281C156.48 82.5651 154.269 79.2471 151.78 76.4781C151.744 76.4416 151.702 76.4127 151.654 76.3931C151.607 76.3736 151.556 76.3638 151.505 76.3643C151.453 76.3649 151.403 76.3758 151.356 76.3964C151.309 76.417 151.267 76.4468 151.231 76.4841Z" fill="#191919"/>
<path d="M164.499 94.4497C163.67 102.742 163.67 111.311 163.67 119.879C163.67 134.615 163.332 156.043 164.223 162.722C164.223 162.832 164.267 162.937 164.345 163.015C164.422 163.093 164.528 163.136 164.637 163.136C164.747 163.136 164.852 163.093 164.93 163.015C165.008 162.937 165.051 162.832 165.051 162.722C165.329 159.122 165.051 155.26 165.051 151.666C165.051 146.968 165.329 98.5957 165.329 94.4497C164.776 94.1737 164.499 94.1737 164.499 94.4497Z" fill="#191919"/>
<path d="M199.326 108.547C201.498 119.149 211.968 146.467 213.699 151.39C214.757 154.702 216.05 157.935 217.569 161.063C217.856 161.612 218.399 161.063 218.399 160.787C216.114 152.411 215.549 152.837 211.764 141.437C208.524 131.687 204.056 121.163 200.156 108.545C199.962 107.92 199.233 108.092 199.326 108.547Z" fill="#191919"/>
<path d="M158.972 42.4852C158.568 43.1977 158.271 43.7857 157.589 43.3147C157.535 43.2772 152.939 38.6647 152.891 38.6152C152.613 38.3392 152.39 37.8862 151.784 37.7872C151.359 37.7167 150.983 38.1502 151.212 38.4667C151.712 39.1597 155.024 42.2467 155.814 43.0372C156.368 43.5907 157.197 44.6962 158.027 44.6962C158.856 44.6962 159.297 43.6057 159.527 42.7627C159.62 42.4012 159.164 42.1447 158.972 42.4852Z" fill="#191919"/>
<path d="M148.192 40.5502C150.241 41.6617 150.233 42.4852 150.956 42.4852C151.232 42.4852 151.465 42.2467 151.232 41.9332C150.476 41.0456 149.438 40.4451 148.292 40.2322C148.253 40.2289 148.215 40.239 148.183 40.2606C148.15 40.2822 148.127 40.3141 148.115 40.351C148.103 40.388 148.104 40.4278 148.118 40.464C148.132 40.5002 148.158 40.5306 148.192 40.5502Z" fill="#191919"/>
<path d="M145.98 44.4201C146.852 44.5486 147.693 44.8294 148.467 45.2496C149.084 45.5301 149.288 45.8496 149.573 45.5256C149.858 45.2016 149.262 44.6886 148.743 44.4201C147.912 43.9276 146.937 43.7329 145.98 43.8681C145.523 43.8726 145.517 44.4276 145.98 44.4201Z" fill="#191919"/>
<path d="M145.426 48.8422C149.649 50.3662 152.166 50.4577 153.442 52.1602C154.194 53.3001 154.841 54.5049 155.377 55.7602C156.075 57.1303 156.908 58.4268 157.864 59.6302C158.142 59.9062 158.694 59.6302 158.694 59.0767C158.155 57.5586 157.508 56.0809 156.759 54.6547C155.599 51.7537 154.209 50.0047 150.955 49.4047C149.305 49.1047 147.64 48.5647 145.98 48.2992C145.143 48.1612 145.123 48.7342 145.426 48.8422Z" fill="#191919"/>
<path d="M183.571 72.3382C181.636 71.2312 180.591 68.5882 178.596 67.9147C178.121 67.688 177.602 67.5703 177.076 67.5703C176.55 67.5703 176.03 67.688 175.555 67.9147C175.131 68.1759 174.78 68.5421 174.538 68.9779C174.296 69.4137 174.17 69.9046 174.172 70.4032C174.172 70.9552 174.726 70.9552 175.002 70.4032C175.19 70.0442 175.456 69.7318 175.781 69.4889C176.105 69.246 176.48 69.0787 176.877 68.9992C177.274 68.9197 177.685 68.93 178.077 69.0294C178.47 69.1288 178.836 69.3147 179.148 69.5737C180.292 70.5112 181.291 72.3202 183.571 72.8902C183.571 72.8902 183.922 72.4942 183.571 72.3382Z" fill="#191919"/>
<path d="M176.661 65.9797C177.542 65.7096 178.472 65.6439 179.382 65.7877C180.292 65.9314 181.157 66.2808 181.911 66.8092C184.145 68.2987 184.266 71.2312 184.952 71.2312C185.095 71.2205 185.229 71.159 185.331 71.0577C185.432 70.9565 185.494 70.8222 185.505 70.6792C185.505 69.0292 183.453 66.8242 182.187 65.9797C181.342 65.3974 180.35 65.063 179.325 65.0143C178.299 64.9655 177.281 65.2043 176.384 65.7037C176.384 65.7037 176.385 66.2572 176.661 65.9797Z" fill="#191919"/>
<path d="M186.612 66.2572C187.177 67.0476 187.547 67.9607 187.691 68.9214C187.834 69.8822 187.749 70.8634 187.44 71.7847C187.44 72.0607 186.612 73.7197 187.718 73.4437C188.823 72.8902 188.961 70.9762 188.823 69.5737C188.619 68.2417 188.044 66.9941 187.164 65.9737C186.888 65.7112 186.45 66.0487 186.612 66.2572Z" fill="#191919"/>
<path d="M181.913 78.6952C180.617 78.6408 179.32 78.7116 178.038 78.9067C177.494 78.9952 177.491 79.5247 178.038 79.5247H179.421C179.382 79.8909 179.438 80.261 179.583 80.5995C179.728 80.9381 179.957 81.2337 180.249 81.4582C181.632 82.0117 182.462 80.9062 182.462 79.5247C182.742 78.9712 182.466 78.6952 181.913 78.6952ZM180.807 80.3452C180.702 80.2364 180.623 80.1056 180.576 79.9624C180.528 79.8191 180.513 79.667 180.531 79.5172H181.637C181.637 80.4817 181.5 80.3527 180.807 80.3527V80.3452Z" fill="#191919"/>
<path d="M180.95 77.1006C180.992 77.0811 181.03 77.0528 181.06 77.0177C181.091 76.9825 181.113 76.9412 181.127 76.8966C181.379 76.1343 181.55 75.3474 181.637 74.5491C181.592 73.9326 181.023 74.2911 180.807 74.8251C180.575 75.3981 180.473 75.7341 180.254 76.2066C180.159 76.475 180.159 76.7677 180.254 77.0361C180.344 77.2731 180.501 77.3076 180.95 77.1006Z" fill="#191919"/>
<path d="M197.945 104.953C202.173 108.953 206.601 112.736 211.213 116.287C212.753 117.313 214.063 118.804 215.635 119.327C215.911 119.327 216.188 119.05 215.911 118.774C215.353 117.937 198.649 104.524 198.497 104.401C197.945 104.401 197.668 104.677 197.945 104.953Z" fill="#191919"/>
<path d="M235.812 98.5957C234 98.8372 229.105 100.063 227.602 99.6982C211.576 95.8057 206.776 88.8532 197.115 84.7762C194.477 83.629 191.682 82.8838 188.823 82.5652C187.993 82.8412 187.993 83.1172 188.269 83.1172C201.448 85.1977 206.997 94.4872 221.799 99.4222C228.114 101.522 228.879 101.425 232.218 100.531C233.319 100.231 234.43 99.9832 235.536 99.7012C236.62 99.4378 237.739 99.3447 238.852 99.4252C239.352 99.4252 239.191 98.1472 235.812 98.5957Z" fill="#191919"/>
<path d="M237.84 101.869C237.852 101.849 237.859 101.826 237.86 101.803C237.862 101.78 237.858 101.757 237.849 101.736C237.84 101.714 237.827 101.695 237.809 101.68C237.792 101.665 237.771 101.654 237.749 101.648C237.354 101.552 237.081 102.098 236.918 102.466C235.487 105.743 239.994 106.925 241.617 108.547C242.735 109.664 242.367 109.646 242.667 109.766C242.732 109.8 242.805 109.815 242.878 109.812C242.951 109.808 243.022 109.786 243.084 109.746C243.145 109.707 243.195 109.652 243.229 109.587C243.262 109.522 243.278 109.449 243.275 109.376C243.275 108.865 241.988 107.372 241.835 107.222C240.228 105.665 238.64 106.196 237.686 103.891C237.571 103.561 237.525 103.211 237.552 102.863C237.578 102.516 237.677 102.177 237.84 101.869Z" fill="#191919"/>
<path d="M237.469 109.652C238.576 110.758 239.97 112.129 241.069 113.252C241.254 113.441 242.206 113.738 241.623 112.699C240.637 111.281 239.305 110.139 237.753 109.382C237.466 109.22 237.193 109.376 237.469 109.652Z" fill="#191919"/>
<path d="M236.364 115.733C236.664 116.333 237.307 116.659 237.193 115.181C237.151 114.629 235.812 111.311 234.982 112.417C235.331 113.565 235.794 114.677 236.364 115.733Z" fill="#191919"/>
<path d="M133.818 250.897C132.605 250.179 131.305 249.621 129.948 249.238C128.611 248.653 127.223 248.191 125.802 247.856C123.031 246.972 120.143 246.506 117.234 246.473C111.324 246.473 101.184 252.299 97.3323 260.018C97.0563 260.294 97.6083 260.57 97.8858 260.294C100.863 256.164 104.737 252.761 109.218 250.343C111.403 249.044 113.867 248.286 116.405 248.132C119.125 247.936 121.856 248.312 124.421 249.238C126.588 249.827 128.712 250.566 130.778 251.449C125.57 252.1 123.858 253.549 120.827 254.765C119.355 255.4 118.035 256.343 116.957 257.53C116.681 258.083 116.957 258.911 117.51 258.635C119.072 257.973 120.555 257.139 121.932 256.148C123.038 255.595 124.131 255.017 125.249 254.489C127.712 253.328 130.778 253.108 133.265 252.278H133.542C134.1 252.002 134.37 251.449 133.818 250.897Z" fill="#F4A261"/>
<path d="M127.737 260.57C126.613 259.706 125.308 259.108 123.92 258.821C122.531 258.533 121.096 258.564 119.721 258.911C115.142 259.605 110.702 261.023 106.568 263.111C105.916 262.296 105.104 261.625 104.18 261.139C103.257 260.654 102.243 260.364 101.202 260.29C98.8953 260.304 96.6588 261.085 94.8452 262.511C91.2452 265.538 88.7642 272.186 94.0157 275.225C95.0276 275.74 96.1429 276.019 97.2779 276.041C98.4128 276.063 99.5381 275.828 100.569 275.353C102.644 279.616 106.296 283.012 109.77 286.003C111.701 287.666 113.922 290.452 116.957 289.873C119.726 289.343 121.688 286.303 123.315 284.068C126.894 279.398 129.182 273.869 129.948 268.036C130.218 265.268 129.948 262.229 127.737 260.57ZM123.315 281.024C122.358 282.299 120.542 285.73 118.34 287.381C117.857 287.823 117.24 288.09 116.588 288.141C115.935 288.191 115.285 288.021 114.74 287.659C113.66 286.913 112.643 286.081 111.699 285.17C107.277 281.3 103.352 277.46 100.643 272.18C100.361 271.63 99.5372 271.903 99.5372 272.732C99.6872 273.232 99.8577 273.718 100.049 274.189C99.4582 274.479 98.8133 274.642 98.1557 274.667C97.2255 274.72 96.2927 274.627 95.3912 274.391C94.3315 274.057 93.4465 273.318 92.9288 272.335C92.411 271.352 92.3025 270.204 92.6267 269.141C94.0802 262.729 100.823 259.361 106.103 263.341C104.235 264.209 102.492 265.323 100.92 266.654C100.643 267.208 100.913 267.748 101.472 267.484C106.325 265.195 106.104 264.103 116.951 260.849C119.46 260.069 122.132 259.974 124.691 260.573C125.957 260.879 127.05 261.674 127.731 262.784C128.183 263.927 128.372 265.158 128.283 266.384C128.289 271.627 126.078 276.602 123.315 281.024Z" fill="#F4A261"/>
<path d="M96.5027 260.294C95.1212 258.083 93.7127 255.89 92.0807 253.66C89.5922 250.261 86.9807 245.054 82.4057 246.197C80.3688 246.93 78.6884 248.413 77.7077 250.343C75.3537 253.977 73.6686 258.002 72.7322 262.229C71.9297 266.104 71.3507 271.351 74.9432 274.114C76.8782 275.773 79.0892 275.497 81.5777 274.667C84.0647 273.562 86.5532 272.456 89.0402 271.067C89.8697 270.515 89.0402 269.417 88.2107 269.686C83.2097 271.829 79.7147 274.613 76.6022 273.286C73.0022 271.351 73.4852 266.638 74.1137 263.335C74.8305 259.562 76.3381 255.983 78.5372 252.835C79.0306 252.055 79.5848 251.316 80.1947 250.624C80.6868 249.766 81.3445 249.014 82.1297 248.413C83.7887 247.307 85.9997 248.413 87.1052 249.794C89.8802 252.571 92.6552 258.304 95.9552 261.128C96.2267 261.4 96.7802 260.846 96.5027 260.294Z" fill="#F4A261"/>
<path d="M89.3159 271.627C87.2775 272.856 85.5696 274.564 84.3404 276.602C82.6979 278.729 80.741 280.593 78.5369 282.13C75.3842 284.485 71.9484 286.435 68.3099 287.935C66.9542 288.316 65.6534 288.87 64.4399 289.585C64.1639 289.862 64.1639 290.138 64.4399 290.138C64.4399 290.414 64.4399 290.692 64.7159 290.692C66.7583 291.39 68.9199 291.671 71.0729 291.52C72.7362 291.566 74.4004 291.473 76.0484 291.244C73.7879 293.957 72.9449 296.416 70.2449 300.919C69.3901 301.991 68.7347 303.208 68.3099 304.511C68.0324 305.065 68.8619 305.341 69.4154 305.065C70.3975 304.143 71.1541 303.008 71.6264 301.747C73.9829 297.82 75.9629 293.54 78.5369 290.968C78.6693 290.864 78.7646 290.721 78.8084 290.559C78.8522 290.396 78.8421 290.224 78.7796 290.068C78.7172 289.912 78.6058 289.781 78.4622 289.694C78.3186 289.606 78.1506 289.568 77.9834 289.585C74.6799 289.954 71.3514 290.046 68.0324 289.862C68.5859 289.585 68.8619 289.585 69.4154 289.309C70.5209 288.757 71.9144 288.227 73.0079 287.651C77.0669 285.509 82.9544 281.482 85.7234 277.7C87.0603 275.59 88.6367 273.643 90.4214 271.895C90.1499 271.903 89.5919 271.351 89.3159 271.627Z" fill="#F4A261"/>
<path d="M103.966 287.111C103.277 283.847 102.162 280.687 100.648 277.714C100.58 277.662 100.5 277.628 100.415 277.614C100.33 277.6 100.243 277.607 100.162 277.634C100.08 277.661 100.007 277.708 99.9472 277.77C99.8877 277.832 99.8442 277.907 99.8204 277.99C100.626 280.62 101.272 283.297 101.754 286.006C102.307 288.77 102.583 291.533 102.859 294.298C102.911 294.897 102.84 295.5 102.65 296.07C102.46 296.641 102.155 297.166 101.754 297.614C99.2039 300.164 95.6129 302.761 92.9039 305.078C91.6384 305.91 90.4352 306.834 89.3039 307.841C88.7519 308.395 87.9224 308.671 87.3689 309.224C87.3325 309.223 87.2962 309.23 87.2624 309.244C87.2285 309.257 87.1977 309.277 87.1719 309.303C87.1461 309.329 87.1259 309.36 87.1123 309.394C87.0987 309.427 87.0921 309.464 87.0929 309.5C87.0929 302.552 87.1694 301.915 86.8169 301.208C86.8169 300.932 86.8169 300.655 86.2634 300.379C85.7099 300.103 85.1579 300.379 84.6059 300.379C84.0539 300.379 83.7764 300.655 83.2229 300.655C82.1174 300.932 81.0119 300.932 79.9064 301.208C78.2474 301.484 76.5899 301.484 75.2069 301.76C77.4194 300.379 79.6304 298.72 81.8414 297.338C84.0524 295.957 86.2439 294.272 88.4744 292.639C90.4438 291.25 91.9812 289.334 92.9099 287.111C93.9854 284.335 93.7394 281.584 94.0154 278.819C94.0154 278.543 93.4619 277.99 93.4619 278.543C91.6874 282.535 93.5384 286.943 87.1049 291.533C84.7514 293.551 76.0724 298.825 73.0049 301.208C72.8921 301.325 72.8082 301.467 72.7601 301.623C72.7121 301.778 72.7011 301.943 72.728 302.103C72.755 302.264 72.8192 302.415 72.9155 302.547C73.0118 302.678 73.1374 302.784 73.2824 302.858C75.5777 303.125 77.8961 303.125 80.1914 302.858C81.2969 302.858 82.4024 302.582 83.2319 302.582C83.7854 302.582 84.3374 302.306 84.8909 302.306H85.4429V311.156C85.454 311.299 85.5159 311.433 85.6175 311.535C85.719 311.636 85.8534 311.698 85.9964 311.708H86.5499C87.1019 311.432 87.6554 311.432 88.2074 311.156C89.5574 310.484 93.1574 307.997 93.7364 307.556C95.9474 305.897 98.1584 303.956 100.369 302.306C102.304 300.647 104.457 298.982 104.791 296.225C105.037 293.162 104.758 290.08 103.966 287.111Z" fill="#F4A261"/>
<path d="M109.77 71.2311C109.608 71.2311 109.107 71.2866 110.048 73.1661C110.466 74.2202 110.654 75.3515 110.6 76.4841C110.517 76.8366 109.77 77.2836 109.77 77.8656C109.77 81.7491 109.967 82.1571 108.941 82.8411C108.323 83.0674 107.664 83.1614 107.007 83.1171C106.178 83.1171 105.348 82.8411 104.243 82.8411C103.967 82.8411 103.967 83.3931 103.967 83.3931C104.795 83.8913 105.733 84.1773 106.699 84.2257C107.664 84.2741 108.626 84.0834 109.5 83.6706C111.335 82.4466 110.33 79.8606 110.33 78.1416C110.547 78.1616 110.766 78.1205 110.961 78.023C111.156 77.9255 111.321 77.7754 111.435 77.5896C112.65 75.4461 110.049 71.5101 109.77 71.2311Z" fill="#191919"/>
<path d="M104.795 77.8612C104.572 78.1292 104.428 78.4548 104.382 78.8005C104.335 79.1463 104.387 79.4982 104.532 79.8158C104.676 80.1333 104.907 80.4037 105.198 80.5958C105.49 80.7879 105.829 80.8939 106.178 80.9017C106.916 80.8282 107.365 80.5492 107.284 79.7962C107.246 79.4527 106.454 79.7962 105.9 79.7962C105.624 79.7962 105.349 79.2427 105.349 78.9667C105.349 78.9712 105.624 77.0362 104.795 77.8612Z" fill="#191919"/>
<path d="M107.559 68.7442C102.98 68.7442 102.56 73.7692 102.309 74.2717C102.033 74.5492 101.231 74.3347 100.65 74.5492C97.2002 75.8227 99.1232 81.0787 101.756 78.9712C102.309 78.4177 101.756 77.3122 101.204 77.8657C100.374 78.4177 100.098 77.0362 100.374 76.4842C101.312 74.6077 102.858 76.7662 103.974 74.5492C104.469 73.0612 104.627 70.2727 108.12 69.5737C107.835 69.2977 107.835 68.7442 107.559 68.7442Z" fill="#191919"/>
<path d="M106.454 66.5332C101.529 65.6332 98.1855 74.3977 100.649 73.1662C101.943 71.8717 101.277 68.8162 106.454 67.0852C106.73 67.0852 106.73 66.5332 106.454 66.5332Z" fill="#191919"/>
<path d="M107.56 64.8741C101.095 63.5811 97.3325 69.8361 97.3325 72.3381C97.3325 73.1931 98.714 73.5576 98.714 71.2311C99.3705 69.4988 100.546 68.0115 102.08 66.9727C103.614 65.9339 105.431 65.3943 107.284 65.4276C107.836 65.4276 107.836 64.8741 107.56 64.8741Z" fill="#191919"/>
<path d="M98.7137 79.8007C98.7137 79.5247 98.4377 79.2472 98.1617 79.5247C97.646 80.417 97.1846 81.3397 96.7802 82.2877C95.8292 82.5384 94.9426 82.9893 94.1798 83.6101C93.4169 84.2309 92.7954 85.0074 92.3567 85.8877C91.3337 87.9352 96.7397 87.2482 97.3322 83.3992C98.0744 82.3277 98.5482 81.0936 98.7137 79.8007Z" fill="#191919"/>
<path d="M93.4624 81.7357C94.6416 80.2829 95.661 78.7073 96.5029 77.0362C96.5029 75.1642 93.4294 80.3527 92.9104 80.3527C92.2333 80.3973 91.5736 80.586 90.9754 80.9062C90.0199 81.5947 88.2064 82.5562 89.0404 83.3932C90.2059 84.5587 93.4624 83.3572 93.4624 81.7357Z" fill="#191919"/>
<path d="M92.3567 78.1417C94.6157 77.0122 95.1062 75.6697 96.2267 74.5417C96.5027 74.2642 95.9507 73.7122 95.6732 73.9882C95.1212 74.5417 92.3567 76.7527 91.5272 76.7527C91.2512 76.7527 89.8697 77.0287 89.3162 77.0287C87.6377 77.0287 86.3987 78.3337 88.2107 79.2397C90.3557 80.3197 92.3567 78.8842 92.3567 78.1417Z" fill="#191919"/>
<path d="M106.178 72.8901C106.359 72.7086 109.028 71.2311 106.454 71.2311C105.411 71.2311 105.486 73.5816 106.178 72.8901Z" fill="#191919"/>
<path d="M129.948 69.2977C128.396 69.8137 128.441 70.3942 123.038 73.9957C120.893 75.3367 118.488 76.4167 116.075 77.7457C115.743 77.9272 115.893 78.4207 116.129 78.4207C118.734 77.6017 121.238 76.489 123.591 75.1042C124.176 74.8042 130.152 70.5547 130.502 70.1287C130.749 69.8242 130.224 69.2977 129.948 69.2977Z" fill="#191919"/>
<path d="M133.264 86.7111C131.663 87.6494 130.001 88.4802 128.289 89.1981C127.879 89.3346 124.27 90.8706 124.143 91.4091C123.655 93.4746 131.361 89.4771 133.705 87.3591C133.779 87.2959 133.826 87.2079 133.839 87.1119C133.851 87.0159 133.828 86.9186 133.774 86.8386C133.719 86.7585 133.637 86.7013 133.543 86.6778C133.45 86.6543 133.35 86.6662 133.264 86.7111Z" fill="#191919"/>
<path d="M120.75 97.5262C120.972 98.9497 121.35 100.259 121.65 101.912C121.984 103.423 122.446 104.903 123.032 106.336C129.032 122.042 122.196 105.269 134.918 134.528C135.747 136.187 136.299 137.846 137.129 139.504C137.958 141.161 138.51 142.822 139.34 144.203C139.617 144.479 139.893 144.203 139.893 143.927C139.558 142.506 139.095 141.119 138.51 139.781C136.943 135.859 139.223 141.458 132.429 126.514C126.644 113.783 125.768 111.776 122.756 102.742C122.202 101.084 121.904 99.4537 121.184 97.7452C120.971 97.2277 120.692 97.1542 120.75 97.5262Z" fill="#191919"/>
<path d="M98.991 85.8817C91.824 88.8322 84.699 93.3442 77.154 93.3442H73.284C71.9025 93.3442 70.797 93.0682 69.4155 93.0682C68.586 93.0682 68.586 93.8977 69.138 94.1737C73.938 95.7727 80.19 94.3402 85.17 93.3442C90.305 91.838 95.1598 89.5038 99.543 86.4337C99.532 86.291 99.4703 86.1569 99.369 86.0557C99.2678 85.9544 99.1337 85.8927 98.991 85.8817Z" fill="#191919"/>
<path d="M66.0976 116.287C83.6026 116.723 100.068 106.612 96.7801 106.612C92.9326 107.894 88.4221 111.434 82.1296 112.693C76.9874 114.148 71.71 115.074 66.3796 115.457C65.8216 115.733 65.8216 116.279 66.0976 116.287Z" fill="#191919"/>
<path d="M69.1382 95.2792C67.1792 94.7887 66.0092 94.2712 65.2697 92.7922C65.1947 92.6422 61.7192 87.0637 60.5702 86.7112C58.4087 86.0452 59.9117 87.7102 60.0167 87.8167C60.4457 88.2442 64.2017 94.3402 65.8217 95.5552C68.4542 97.3102 69.8522 95.2792 69.1382 95.2792Z" fill="#191919"/>
<path d="M59.1885 89.4742C59.1885 91.9402 52.467 88.0927 49.7895 88.0927C46.0395 88.0927 57.8895 92.7037 58.911 91.6927C60.3495 91.2112 59.1885 88.3492 59.1885 89.4742Z" fill="#191919"/>
<path d="M48.9614 94.1737C56.4854 94.1737 54.306 93.3442 52.83 93.3442C48.927 93.3442 48.1919 94.1737 48.9614 94.1737Z" fill="#191919"/>
<path d="M49.7896 98.5957C50.7331 98.1247 55.5076 97.3117 53.9371 96.6607C53.0161 96.2797 47.4136 98.5957 49.7896 98.5957Z" fill="#191919"/>
<path d="M139.899 67.3611C140.829 66.8016 143.01 61.9731 142.664 60.1746C142.611 59.9031 142.11 59.6211 141.834 59.8971C140.839 62.1376 140.009 64.4477 139.35 66.8091C139.35 67.0851 139.625 67.5276 139.899 67.3611Z" fill="#191919"/>
<path d="M145.151 59.3467C145.151 60.1762 144.551 61.4047 145.703 61.8337C146.773 62.2297 147.953 61.3342 148.783 60.7837C150.237 60.0824 151.614 59.2313 152.891 58.2442C153.164 57.4132 152.015 57.4402 151.691 57.6607C151.367 57.8812 146.681 60.6382 146.531 60.7312C146.302 60.8812 146.255 61.0072 145.979 61.0072C145.426 61.0072 145.495 59.9887 145.529 59.5987C145.58 59.0902 145.151 59.0692 145.151 59.3467Z" fill="#191919"/>
<path d="M155.889 60.6877C155.811 60.6098 155.717 60.5501 155.613 60.5127C155.51 60.4754 155.399 60.4614 155.289 60.4717C153.651 60.6337 150.308 62.0347 150.96 62.9392C151.322 63.4417 151.86 63.1042 152.189 62.8897C154.862 61.1272 156.006 61.4782 156.147 61.1392C156.216 60.9622 156.069 60.8677 155.889 60.6877Z" fill="#191919"/>
<path d="M155.654 64.8742C154.86 64.7704 154.054 64.8404 153.29 65.0792C152.527 65.318 151.824 65.7199 151.232 66.2572C150.956 66.5332 151.232 66.8092 151.508 66.8092C151.658 66.8092 155.504 65.7787 155.654 65.7037C155.931 65.4277 156.206 64.9207 155.654 64.8742Z" fill="#191919"/>
<path d="M152.891 70.1257C152.612 70.0357 152.316 70.0139 152.027 70.0622C151.739 70.1105 151.466 70.2274 151.232 70.4032C144.539 70.2637 144.999 69.8107 143.394 70.0852C141.447 70.4489 139.598 71.2153 137.964 72.3352C137.878 75.3244 138.25 78.3091 139.07 81.1852C139.346 82.0147 139.899 82.5682 140.729 82.2907C141.479 81.7882 142.557 72.5272 141.981 71.5237C144.671 70.9627 145.911 71.7877 149.849 71.7877C151.02 71.9444 152.207 71.6477 153.167 70.9582C153.45 70.6792 153.167 70.4017 152.891 70.1257Z" fill="#191919"/>
<path d="M113.364 95.5612C119.168 107.999 119.906 121.846 123.591 135.088C124.13 137.026 124.655 138.688 125.241 140.615C125.673 142.393 126.423 144.079 127.454 145.591C127.73 145.868 128.006 145.591 128.006 145.315C128.006 142.747 126.039 140.422 125.241 135.641C124.421 132.311 123.525 129.011 122.762 125.684C120.836 117.284 118.862 104.171 113.64 95.2792C113.505 95.0497 113.195 95.2792 113.364 95.5612Z" fill="#191919"/>
<path d="M158.972 175.438C162.542 176.627 161.547 176.204 166.71 177.925C167.593 178.268 168.528 178.455 169.475 178.478C170.027 178.478 170.027 177.649 169.751 177.371C169.024 176.853 168.157 176.564 167.264 176.543C166.469 176.228 165.629 176.041 164.775 175.99C163.125 175.714 161.183 175.16 159.525 174.884C158.7 174.331 158.418 175.16 158.972 175.438Z" fill="#F4A261"/>
<path d="M219.78 181.795C219.544 181.654 221.167 182.489 213.699 178.754C212.568 178.028 211.715 176.942 211.279 175.67C211.588 175.582 211.698 175.37 211.488 175.16C210.709 172.31 210.175 169.211 209.427 166.327C210.869 166.027 212.295 165.655 213.699 165.211C215.414 164.843 217.082 164.287 218.674 163.552C219.226 163.276 218.95 162.446 218.122 162.446C213.972 163.276 214.878 163.946 209.001 164.933C202.898 166.187 196.702 166.94 190.476 167.183C190.383 164.72 188.835 164.108 186.612 151.393C185.482 144.943 184.89 136.243 183.943 124.858C183.943 124.783 183.849 124.741 183.847 124.858C183.89 136.177 185 147.468 187.164 158.579C187.759 161.505 188.515 164.395 189.429 167.237C181.654 167.614 171.672 167.504 164.229 165.214C163.951 165.214 163.675 165.49 163.951 165.766C167.883 166.994 171.927 167.825 176.023 168.248C175.903 168.835 176.113 168.262 176.113 171.848C176.169 173.153 176.355 174.45 176.667 175.718C176.667 175.868 176.967 175.982 177.444 176.063C176.877 178.203 175.961 180.234 174.732 182.075C174.178 182.905 173.35 183.734 172.797 184.562C171.995 185.467 171.342 186.494 170.862 187.604C170.862 187.88 170.862 188.156 171.415 188.432C176.113 189.262 178.878 184.832 182.472 182.905C183.3 182.629 184.405 182.351 184.683 181.523C185.491 179.905 183.459 178.169 182.583 176.249C183.127 176.188 183.666 176.093 184.198 175.964C184.723 175.84 184.369 175.091 184.407 174.059C184.426 173.567 184.407 170.443 184.407 168.79C190.155 168.959 195.906 168.618 201.594 167.771C202.128 170.83 202.849 173.854 203.755 176.824C203.755 177.1 204.033 177.376 204.585 177.376C205.081 177.314 205.563 177.238 206.038 177.148C205.971 178.35 205.761 179.54 205.414 180.694C205.346 180.967 205.336 181.251 205.384 181.529C205.432 181.806 205.537 182.07 205.693 182.304C205.85 182.539 206.053 182.738 206.291 182.888C206.528 183.039 206.795 183.139 207.073 183.181C208.063 183.511 210.364 183.592 212.047 184.01C213.573 184.484 215.152 184.763 216.747 184.84C223.188 184.835 221.031 182.539 219.78 181.795ZM183.3 181.241C183.3 181.519 182.748 181.795 182.472 181.795C181.918 182.071 181.636 182.06 181.089 182.347C178.228 183.847 175.659 187.831 171.966 187.697C172.453 186.882 173.009 186.109 173.626 185.387C174.178 184.558 175.008 183.452 175.561 182.624C176.667 180.689 178.048 178.478 177.772 176.266C177.877 175.954 177.423 176.266 181.372 176.266C181.756 177.534 182.314 178.742 183.03 179.857C183.214 180.031 183.338 180.257 183.387 180.506C183.435 180.754 183.405 181.011 183.3 181.241ZM183.024 174.884C182.748 174.884 182.194 175.16 181.918 175.16C180.546 175.361 179.16 175.454 177.772 175.438C177.772 175.288 177.219 172.234 177.219 171.838C177.146 170.659 177.006 169.485 176.799 168.322C178.867 168.53 180.943 168.661 183.024 168.736V174.884ZM204.859 176.266C204.166 174.532 202.381 167.801 202.338 167.651C205.623 167.129 207.423 166.67 208.27 166.537C208.819 169.411 209.589 172.271 210.112 174.884C208.406 175.506 206.646 175.967 204.853 176.261L204.859 176.266ZM217.851 184.282C214.801 184.421 212.046 183.176 209.283 182.9C208.327 182.986 207.367 182.794 206.518 182.347C205.966 182.071 206.242 181.519 206.242 180.689C206.668 179.525 206.753 178.264 206.488 177.053C207.762 176.778 209.015 176.416 210.238 175.97C210.688 176.987 211.295 177.927 212.038 178.754C212.652 179.456 213.406 180.021 214.251 180.413C214.504 180.539 219.951 183.355 220.332 183.73C220.183 183.779 220.008 184.184 217.845 184.282H217.851Z" fill="#191919"/>
<path d="M142.94 147.52C141.834 146.414 139.628 146.725 137.964 146.968C125.916 148.724 112.338 158.918 94.2919 164.933C92.02 165.895 89.5529 166.306 87.0919 166.133C87.4834 164.924 87.7518 163.592 88.2093 162.449C90.7188 147.397 92.2188 128.021 93.4593 111.866C93.1833 111.59 92.6298 111.59 92.6298 111.866C90.4668 128.254 89.4213 144.577 86.8263 161.344C86.4503 162.908 86.2461 164.509 86.2174 166.118C85.9174 166.268 85.8483 166.595 86.2728 166.595C86.2728 166.871 86.8263 167.149 86.8263 166.871L86.8609 166.781C90.2464 167.719 93.7968 166.459 97.0023 165.265C96.9468 169.433 98.1589 174.032 98.1589 179.587C98.4172 182.037 98.0363 184.513 97.0534 186.773C95.9479 189.26 94.2348 191.443 92.9073 193.96C92.729 194.192 92.6105 194.465 92.5621 194.754C92.5137 195.043 92.537 195.339 92.6298 195.617C92.6298 197 94.0068 197.249 95.1183 197C96.3719 196.514 97.5039 195.759 98.4349 194.789C99.8164 193.13 101.199 191.471 102.581 189.539C102.581 189.539 104.24 191.198 104.792 189.817C104.792 186.88 104.24 185.512 104.24 183.736C104.24 182.378 105.069 176.986 105.069 173.785C105.329 169.877 105.59 165.727 105.849 161.785C109.109 160.42 112.095 159.076 114.849 157.795C116.51 166.357 120.54 181.621 120.54 181.795C120.166 183.612 120.073 185.476 120.264 187.322C120.264 188.152 121.37 188.428 121.914 187.6C122.184 186.987 122.558 186.425 123.02 185.941C123.297 186.217 123.573 186.493 123.573 186.77C124.474 187.987 125.6 189.019 126.89 189.811C127.985 190.706 129.196 191.45 130.49 192.022C130.754 192.187 131.053 192.29 131.363 192.322C131.673 192.355 131.986 192.317 132.279 192.21C132.572 192.103 132.837 191.932 133.053 191.707C133.27 191.483 133.432 191.213 133.529 190.916C133.269 189.434 132.705 188.022 131.871 186.77C131.018 185.519 130.095 184.318 129.107 183.17C128.039 182.139 127.356 180.773 127.172 179.3C126.62 176.813 126.384 174.041 125.79 171.284C125.013 167.684 124.488 164.084 123.855 160.505C123.707 158.322 123.355 156.158 122.805 154.04C129.074 151.099 134.097 148.928 138.78 148.34C139.696 148.202 140.628 148.202 141.543 148.34C142.926 148.892 142.097 150.275 141.543 151.105C141.267 151.381 141.821 151.934 142.097 151.657C143.216 150.838 144.321 148.901 142.94 147.52ZM101.202 186.493C100.622 187.529 99.8748 188.463 98.9914 189.257C98.1619 190.087 97.3324 191.192 96.2269 191.468C96.6248 190.694 97.0869 189.954 97.6083 189.257C98.4191 187.764 99.0678 186.189 99.5433 184.558C100.278 180.884 99.3813 174.614 98.7138 169.633C98.4903 167.953 98.4469 166.483 98.0794 164.861C100.596 163.925 102.975 162.988 105.216 162.05C101.7 188.471 102.57 183.761 101.202 186.493ZM123.867 168.803C124.133 171.845 124.697 174.884 124.973 177.925C125.034 178.777 125.221 179.615 125.526 180.413C126.13 182.145 127.069 183.742 128.289 185.111C128.843 185.665 130.224 186.77 130.224 187.6C129.119 187.876 128.027 186.749 127.184 186.217C125.87 185.244 124.665 184.132 123.591 182.9C123.315 182.347 122.762 182.071 122.486 181.519C122.486 180.965 122.208 180.689 121.932 180.136C121.189 176.772 120.267 173.45 119.168 170.185C118.118 165.959 116.802 161.732 115.482 157.505C117.756 156.446 119.879 155.434 121.874 154.492C121.939 154.855 122.051 155.208 122.208 155.542C122.983 159.932 123.537 164.358 123.867 168.803Z" fill="#191919"/>
<path d="M172.239 83.3932C164.502 69.6397 164.082 64.2967 161.118 55.3837C160.754 54.0657 160.589 52.7005 160.629 51.3337C160.629 47.8837 162.14 46.9837 162.84 43.8712C163.091 42.7582 163.563 41.2792 162.84 40.2712C162.793 40.2049 162.731 40.1509 162.659 40.1136C162.587 40.0763 162.507 40.0569 162.425 40.0569C162.344 40.0569 162.264 40.0763 162.192 40.1136C162.12 40.1509 162.058 40.2049 162.011 40.2712C161.711 40.8112 162.011 41.3767 162.011 42.2062C161.817 44.1378 161.254 46.0142 160.353 47.7337C159.709 50.086 159.709 52.5679 160.353 54.9202C160.83 59.7382 158.418 61.8202 158.418 62.9362C158.417 62.9727 158.424 63.0089 158.437 63.0428C158.451 63.0766 158.471 63.1074 158.497 63.1332C158.523 63.159 158.554 63.1793 158.587 63.1928C158.621 63.2064 158.658 63.213 158.694 63.2122C159.284 62.7811 159.758 62.2119 160.077 61.5547C161.796 58.5787 160.209 56.7007 162.288 62.9362C164.736 70.2787 167.345 77.3707 171.962 83.6677C172.239 83.9467 172.515 83.6707 172.239 83.3932Z" fill="#191919"/>
<path d="M292.201 283.235C287.831 282.611 287.274 283.444 279.762 282.406C273.872 281.721 268.266 279.496 263.51 275.953C258.754 272.411 255.017 267.677 252.674 262.229C251.812 260.217 251.343 258.059 251.293 255.871C251.293 255.595 251.569 255.595 251.846 255.595C253.02 257.816 254.616 259.788 256.544 261.4C259.151 263.541 262.16 265.138 265.394 266.098C268.263 267.127 271.228 267.868 274.244 268.31L275.074 269.96C275.68 271.448 275.871 273.072 275.627 274.66C275.523 276.276 275.149 277.864 274.522 279.358C274.244 280.187 275.074 280.465 275.627 279.911C277.838 277.976 277.838 274.384 277.562 271.619C277.323 270.687 277.046 269.765 276.733 268.855C278.418 269.307 280.009 270.055 281.432 271.066C282.203 271.57 282.857 272.233 283.35 273.011C283.915 273.779 284.38 274.615 284.734 275.5C284.801 275.606 284.901 275.689 285.018 275.736C285.135 275.783 285.264 275.792 285.387 275.761C285.509 275.73 285.619 275.662 285.7 275.565C285.781 275.468 285.83 275.348 285.839 275.222C285.563 272.182 282.539 269.372 280.034 268.313C278.621 267.676 277.136 267.211 275.612 266.93C275.033 265.965 274.386 265.042 273.677 264.167C269.051 258.881 262.601 257.267 257.369 254.768C254.58 253.438 251.841 250.9 251.288 247.859C251.917 241.983 252.01 236.061 251.564 230.168C249.634 184.568 221.765 189.11 203.469 185.668C198.78 184.784 194.348 184.285 189.65 183.179C189.524 183.188 189.404 183.237 189.307 183.318C189.211 183.399 189.142 183.509 189.111 183.632C189.081 183.754 189.089 183.883 189.136 184C189.183 184.118 189.266 184.217 189.373 184.285C208.697 190.01 220.154 187.79 231.664 193.406C237.321 196.34 241.807 201.118 244.378 206.95C249.947 218.621 250.126 238.645 248.801 251.452C248.524 252.281 248.524 253.111 248.248 253.94C244.348 265.622 241.062 277.135 246.866 288.214C247.811 289.887 248.922 291.462 250.182 292.913C251.035 294.035 252.184 294.895 253.501 295.397C254.054 295.673 254.606 295.121 254.054 294.568C253.225 293.462 252.119 292.633 251.29 291.527C250.46 290.422 249.63 289.04 248.802 287.935C243.768 278.875 245.635 269.092 247.973 259.735C248.249 258.905 248.504 258.352 247.973 264.985C247.635 268.523 248.011 272.094 249.079 275.485C251.429 282.535 256.811 283.864 262.622 289.028C265.386 291.793 266.492 295.661 267.044 299.528C267.044 300.082 268.151 300.082 268.151 299.252C268.353 295.759 267.485 292.288 265.663 289.301C263.789 286.496 261.191 284.951 258.476 282.944C251.075 277.481 250.331 274.762 249.626 266.36V258.911C249.626 258.635 249.941 258.35 250.456 260.57C251.558 264.582 253.436 268.338 255.985 271.627C261.1 278.366 269.275 282.277 277.544 283.789C281.093 284.479 284.71 284.757 288.323 284.618C289.54 284.57 290.748 284.384 291.923 284.065C292.475 284.065 292.753 283.511 292.201 283.235ZM253.501 254.213C255.983 256.163 258.79 257.66 261.793 258.635C266.052 260.131 269.794 262.817 272.573 266.375C271.467 266.098 270.083 265.828 268.973 265.546C262.609 263.92 255.983 261.124 252.665 255.046C252.396 253.937 252.673 253.384 253.501 254.213Z" fill="#F4A261"/>
<path d="M106.454 74.5492C106.454 74.6581 106.476 74.766 106.517 74.8666C106.559 74.9672 106.62 75.0587 106.697 75.1357C106.774 75.2127 106.866 75.2738 106.966 75.3155C107.067 75.3572 107.175 75.3787 107.284 75.3787C107.393 75.3787 107.5 75.3572 107.601 75.3155C107.702 75.2738 107.793 75.2127 107.87 75.1357C107.947 75.0587 108.008 74.9672 108.05 74.8666C108.092 74.766 108.113 74.6581 108.113 74.5492C108.113 74.4402 108.092 74.3324 108.05 74.2317C108.008 74.1311 107.947 74.0396 107.87 73.9626C107.793 73.8856 107.702 73.8245 107.601 73.7828C107.5 73.7411 107.393 73.7197 107.284 73.7197C107.175 73.7197 107.067 73.7411 106.966 73.7828C106.866 73.8245 106.774 73.8856 106.697 73.9626C106.62 74.0396 106.559 74.1311 106.517 74.2317C106.476 74.3324 106.454 74.4402 106.454 74.5492Z" fill="#191919"/>
<path d="M134.924 86.1576C135.077 86.2911 135.274 86.3647 135.477 86.3647C135.68 86.3647 135.876 86.2911 136.03 86.1576C136.816 85.6731 137.556 85.1178 138.241 84.4987C138.794 83.9467 139.624 83.3932 140.176 82.8412C140.729 82.5652 141.281 81.4581 140.452 81.1821C140.094 81.0573 139.777 80.838 139.533 80.5476C139.29 80.2571 139.13 79.9062 139.07 79.5322C138.374 77.2822 138.517 74.8026 138.517 68.7516C138.655 67.4654 138.655 66.1679 138.517 64.8816C137.965 63.7761 136.03 65.1576 135.476 65.7111C134.371 66.5406 132.713 67.3701 132.16 68.7516C131.3 73.4736 131.251 83.0047 134.924 86.1576Z" fill="#F4A261"/>
<path d="M183.571 74.8251C184.302 74.8251 184.302 76.4841 183.571 76.4841C182.841 76.4841 182.839 74.8251 183.571 74.8251Z" fill="#191919"/>
<path d="M178.872 73.7197C179.604 73.7197 179.604 75.3772 178.872 75.3772C178.14 75.3772 178.14 73.7197 178.872 73.7197Z" fill="#191919"/>
<path d="M277.583 36.8148C278.031 38.4052 276.202 42.4891 277.128 42.8288C278.054 43.1685 279.205 39.0073 280.216 38.1041C281.636 36.8457 287.936 39.54 288.291 38.4747C288.646 37.4093 282.47 35.9579 281.961 34.4139C281.513 33.0706 283.265 28.8014 282.254 28.5235C281.243 28.2456 280.27 32.7772 278.927 33.557C277.583 34.3367 273.885 32.2368 273.623 33.1787C273.361 34.1205 277.151 35.3944 277.583 36.8148Z" fill="#F4A261"/>
<path d="M247.195 73.3711C247.195 72.8398 244.489 73.1218 243.925 72.5128C243.361 71.9038 243.541 68.5112 243.026 68.5112C242.511 68.5112 242.348 72.0877 241.824 72.5986C241.174 73.2035 239 72.897 239 73.3916C239 73.8861 241.089 73.6654 241.702 74.442C242.393 75.3167 242.245 78.7992 242.814 78.6357C243.382 78.4722 243.529 75.0142 244.289 74.3644C244.968 73.7839 247.195 73.9025 247.195 73.3711Z" fill="#F4A261"/>
<path d="M20.1817 55.7852C19.7185 54.8819 21.7257 50.744 20.8456 50.5201C19.9655 50.2962 18.3134 54.3801 16.7925 54.7893C15.8816 55.0518 12.1991 53.2453 12.0061 54.1485C11.8131 55.0518 16.2599 56.7039 16.5995 57.831C17.0164 59.2052 15.0169 63.0961 15.9433 63.513C16.8697 63.9299 18.1358 59.8768 19.2089 59.1203C20.282 58.3637 23.5939 59.4445 23.841 58.6957C24.227 57.7306 20.6449 56.6884 20.1817 55.7852Z" fill="#F4A261"/>
<path d="M36.7285 20.5112C37.3294 20.5112 36.9031 17.5753 37.242 17.0339C37.807 16.1281 40 15.8158 40 15.3733C40 14.9308 37.6016 15.1599 37.1136 14.6757C36.6257 14.1916 36.0865 10.5112 35.5729 10.5112C35.0593 10.5112 35.7475 14.7278 35.3726 15.2588C34.9977 15.7897 31.8134 15.9667 32.0086 16.5341C32.2038 17.1015 34.8487 16.5341 35.5421 17.2005C36.0403 17.6533 36.1173 20.5112 36.7285 20.5112Z" fill="#F4A261"/>
<path d="M35.915 129.576C35.311 128.718 35.7295 124.511 34.8554 124.511C33.9813 124.511 34.0925 128.903 33.3508 129.661C32.6091 130.418 28 129.735 28 130.614C28 131.579 32.6727 131.356 33.4568 132.32C34.2409 133.284 33.7111 137.337 34.6435 137.618C35.5759 137.899 35.3481 133.602 35.9732 132.633C36.7732 131.393 40.5029 131.87 40.5029 131.112C40.5029 130.355 36.5666 130.492 35.915 129.576Z" fill="#F4A261"/>
<path d="M89.0884 22.517C85.6793 22.3141 91.1517 25.6837 92.2106 25.7529C92.3726 25.8074 92.5497 25.7952 92.7028 25.7192C92.8559 25.6431 92.9725 25.5093 93.027 25.3472C93.0814 25.1851 93.0693 25.0081 92.9932 24.855C92.9171 24.7019 92.7833 24.5853 92.6213 24.5308C91.3285 24.0854 90.1304 23.4024 89.0884 22.517Z" fill="#F4A261"/>
<path d="M87.5742 29.7856C86.4412 29.3526 85.4247 28.6614 84.6055 27.7669C81.5724 27.1484 85.4664 30.7356 87.1388 31.0127C87.2194 31.0413 87.3048 31.0537 87.3902 31.0493C87.4756 31.0449 87.5592 31.0237 87.6364 30.987C87.7136 30.9502 87.7828 30.8986 87.8401 30.8351C87.8973 30.7716 87.9415 30.6974 87.9701 30.6169C87.9987 30.5363 88.0111 30.4509 88.0067 30.3655C88.0023 30.2801 87.9811 30.1965 87.9443 30.1193C87.9076 30.0421 87.856 29.9729 87.7925 29.9156C87.729 29.8584 87.6548 29.8142 87.5742 29.7856Z" fill="#F4A261"/>
<path d="M85.5948 23.7734C85.4852 23.6538 85.3348 23.5797 85.1732 23.5656C85.0116 23.5515 84.8506 23.5984 84.722 23.6973C84.5933 23.7961 84.5064 23.9395 84.4784 24.0993C84.4504 24.259 84.4832 24.4235 84.5705 24.5602C87.569 28.5185 94.0063 31.1855 91.9529 28.3602C89.4515 27.4461 87.2512 25.8588 85.5948 23.7734Z" fill="#F4A261"/>
<path d="M93.3828 20.1123C83.8135 13.9521 75.971 27.1433 84.9515 33.0512C93.7886 38.8699 102.16 25.7975 93.3828 20.1123ZM93.4422 31.5717C91.3888 33.4965 88.3953 33.64 85.6245 31.9478C80.1817 28.5733 81.6018 21.5076 86.8713 20.0727C93.7539 18.4448 98.7959 26.8167 93.4422 31.5717Z" fill="#191919"/>
<path d="M223.911 10.6329C224.045 10.5117 224.126 10.3421 224.135 10.1613C224.145 9.98055 224.082 9.80347 223.961 9.66904C223.839 9.53461 223.67 9.45383 223.489 9.44448C223.308 9.43512 223.131 9.49796 222.997 9.61917C219.087 13.1542 208.469 16.9485 204.537 17.1587C204.162 17.1783 203.708 17.5479 203.889 17.8784C205.142 20.078 220.417 14.3778 223.911 10.6329Z" fill="#F4A261"/>
<path d="M213.355 8.73834C214.675 8.08967 213.579 7.11282 212.779 7.49737C209.989 8.84214 207.029 9.80244 203.98 10.352C203.25 10.4705 203.232 11.7478 204.384 11.6622C206.523 11.4953 211.073 9.84687 213.355 8.73834Z" fill="#F4A261"/>
<path d="M212.143 5.32956C212.921 4.83239 212.556 3.98833 211.189 4.34482C209.578 4.77643 207.99 5.28914 206.43 5.88098C205.208 6.43154 205.891 7.20158 206.743 7.13843C208.629 6.83126 210.453 6.22038 212.143 5.32956Z" fill="#F4A261"/>
<path d="M222.755 22.1847C219.419 24.8433 213.62 25.6486 213.561 25.6581C210.646 28.4134 219.967 26.2125 223.601 23.2207C223.704 23.0994 223.761 22.946 223.763 22.787C223.764 22.6281 223.71 22.4737 223.609 22.3506C223.509 22.2275 223.368 22.1435 223.212 22.1132C223.056 22.0829 222.894 22.1082 222.755 22.1847Z" fill="#F4A261"/>
<path d="M236.637 7.40414C236.201 2.39981 227.485 4.17275 225.472 4.72773C216.363 -5.26497 199.183 1.82336 199.249 14.4367C188.034 21.0453 189.221 28.3455 204.543 26.2325C213.185 34.2694 230.266 27.8716 230.373 15.6276C233.351 13.1694 236.532 10.8246 236.637 7.40414ZM199.281 16.0396C199.537 19.41 200.952 22.588 203.284 25.0347C191.436 26.2586 189.93 21.9861 199.281 16.0396ZM220.829 26.9954C214.325 29.8602 210.59 28.5542 206.383 25.9341C214.485 24.459 222.184 21.2897 228.977 16.6336C228.605 20.9069 225.806 24.7978 220.829 26.9954ZM228.995 14.989C223.015 19.5605 212.621 23.7159 204.99 24.8069C197.889 18.6679 199.72 6.17059 208.894 2.46417C217.607 -1.75585 228.392 5.74244 228.995 14.989ZM230.273 14.0208C229.83 11.008 228.536 8.18425 226.544 5.88087C234.777 3.83756 239.202 7.20196 230.273 14.0208Z" fill="#191919"/>
<path d="M211.802 18.8036C203.723 22.6359 197.633 21.9928 197.044 21.8521C196.274 21.6772 196.547 21.1456 196.789 20.7391C197.301 19.8764 196.463 19.4013 195.881 20.0842C191.211 26.0064 207.588 22.6353 212.321 20.1325C213.718 19.385 212.888 18.2901 211.802 18.8036ZM231.178 6.84238C229.044 11.5026 224.121 13.7777 224.073 13.8079C223.155 14.4365 223.934 15.2884 225.057 14.8141C227.454 13.6207 229.528 11.869 231.107 9.70639C231.49 8.87962 233.202 7.34644 232.094 6.54776C231.933 6.46825 231.747 6.45454 231.577 6.50953C231.406 6.56453 231.263 6.68391 231.178 6.84238Z" fill="#F4A261"/>
</svg>
