<svg width="315" height="301" viewBox="0 0 315 301" fill="none" xmlns="http://www.w3.org/2000/svg">
<path d="M226.785 84.2257C225.735 84.5257 191.867 108.719 189.065 110.845C186.263 112.97 180.749 120.478 181.466 121.163C182.576 122.225 192.068 118.789 193.338 118.052C194.609 117.316 230.004 92.3227 231.738 91.1242C233.472 89.9257 227.843 83.9272 226.785 84.2257Z" fill="#F4A261"/>
<path d="M164.319 161.735C149.31 162.596 135.563 150.635 114.119 143.924C105.119 145.492 88.0683 144.625 85.6188 139.069C53.5608 143.818 26.5188 164.119 22.3188 177.769C18.2943 190.829 36.8988 216.641 45.8283 225.073C49.7703 202.655 55.2513 178.784 63.9588 157.723C64.3998 156.655 65.3853 157.309 65.0508 158.341C55.5109 187.721 48.7527 217.933 44.8653 248.578C61.8153 258.599 115.815 260.939 133.311 256.652C133.454 249.256 134.498 224.428 135.461 205.217C127.944 204.617 120.446 203.741 113.007 202.517C111.819 202.322 112.343 201.067 113.507 201.223C127.496 203.101 155.807 206.39 172.157 201.911C182.207 199.157 202.838 188.561 219.257 138.611C214.508 135.049 206.433 131.974 198.479 131.111C196.307 137.371 171.704 161.311 164.319 161.735Z" fill="#F4A261"/>
<path d="M156.246 56.0737C164.419 61.7962 171.749 68.6368 178.022 76.3957C179.016 77.5762 180.122 76.6477 180.872 75.6832C190.841 62.8012 196.172 55.2412 209.498 44.1832C210.548 43.3162 209.36 42.0472 208.239 42.8332C199.106 49.2142 185.063 62.6617 179.067 72.1597C172.662 65.2201 165.345 59.1811 157.317 54.2077C155.78 53.2687 154.754 55.0807 156.246 56.0737Z" fill="#191919"/>
<path d="M165.222 54.6607C167.81 54.9607 186.593 54.1672 189.522 54.1147C190.983 54.0877 191.091 51.7537 189.606 51.8107C186.65 51.9232 167.706 52.3612 165.051 52.8322C163.964 53.0242 164.249 54.5452 165.222 54.6607Z" fill="#191919"/>
<path d="M159.024 111.784C157.721 111.196 156.65 112.97 157.838 113.707C164.484 117.849 170.832 122.451 176.835 127.48C178.647 128.993 180.876 126.11 179.085 124.583C173.031 119.397 166.278 115.089 159.024 111.784Z" fill="#191919"/>
<path d="M197.649 81.5302C197.714 75.9367 197.168 69.9412 197.138 64.3132C197.138 62.8882 195.155 63.1267 195.167 64.5502C195.216 70.5112 195.266 76.4677 195.317 82.4197C190.841 82.4197 170.645 82.9672 166.037 83.8327C165.551 78.7162 165.318 73.5592 164.565 68.4697C164.527 68.2682 164.416 68.0879 164.253 67.9634C164.09 67.8389 163.886 67.779 163.682 67.7952C163.477 67.8114 163.286 67.9025 163.145 68.0511C163.003 68.1996 162.922 68.3952 162.915 68.6002C163.154 73.5982 163.365 78.7042 163.748 83.7022C163.952 86.3617 163.961 86.1847 166.584 85.9942C175.668 85.3327 184.917 84.7942 194.024 84.7117C196.652 84.6862 197.61 84.8662 197.649 81.5302Z" fill="#191919"/>
<path d="M186.357 101.965C181.334 102.029 175.857 102.107 170.862 102.676C165.65 103.276 166.017 103.714 166.386 108.412C166.471 109.647 166.629 110.876 166.86 112.093C166.888 112.321 166.998 112.531 167.169 112.683C167.341 112.835 167.563 112.919 167.792 112.919C168.022 112.919 168.244 112.835 168.415 112.683C168.587 112.531 168.697 112.321 168.725 112.093C168.725 111.238 168.309 105.431 168.425 105.289C168.54 105.146 184.313 104.039 185.997 103.924C187.449 103.823 187.805 101.945 186.357 101.965Z" fill="#191919"/>
<path d="M169.544 124.939C169.493 124.711 169.361 124.51 169.173 124.372C168.985 124.235 168.753 124.17 168.521 124.19C168.289 124.211 168.072 124.315 167.911 124.483C167.75 124.651 167.655 124.872 167.645 125.105C167.711 128.215 167.937 131.319 168.321 134.405C168.299 134.697 168.394 134.986 168.585 135.208C168.775 135.43 169.046 135.568 169.338 135.59C169.488 135.602 180.98 135.307 189.384 134.512C191.534 134.309 190.227 132.385 188.969 132.482C183.032 132.932 176.384 133.171 170.423 133.348C170.186 130.46 169.983 127.706 169.544 124.939Z" fill="#191919"/>
<path d="M118.536 97.6417C115.64 97.4647 113.918 101.038 115.473 101.359C116.28 101.525 116.541 99.5062 118.406 99.5182C118.654 99.5355 118.9 99.4533 119.088 99.2896C119.276 99.1259 119.392 98.8941 119.409 98.6452C119.426 98.3964 119.344 98.1509 119.18 97.9627C119.017 97.7745 118.785 97.659 118.536 97.6417Z" fill="#191919"/>
<path d="M122.585 94.4363C122.153 93.5663 121.385 94.2743 121.587 95.1008C122.861 100.187 124.305 103.021 125.387 108.673C125.969 111.712 123.192 109.859 123.107 112.235C123.052 113.996 122.874 115.75 122.573 117.485C121.369 117.274 120.267 116.673 119.438 115.775C118.904 115.075 117.978 115.705 118.418 116.642C118.812 117.371 119.376 117.995 120.062 118.46C120.748 118.925 121.536 119.218 122.36 119.314C121.398 126.964 117.356 127.402 110.889 126.064C109.701 125.819 108.512 125.396 107.208 125.221C106.578 125.137 104.958 126.409 109.191 127.595C109.191 129.65 109.641 140.135 110.225 142.058C110.472 142.865 111.746 142.769 111.674 141.856C111.299 137.105 111.15 132.665 111.074 128.023C123.974 130.66 123.767 122.764 124.799 112.648C127.458 112.267 127.578 110.066 127.173 107.957C126.266 103.263 124.722 98.7136 122.585 94.4363Z" fill="#191919"/>
<path d="M86.0749 72.6727C82.6249 60.1927 69.2614 47.2747 51.2749 56.6557C33.2884 66.0367 35.6749 91.2802 45.3499 101.965C51.4279 108.674 57.2239 116.593 56.3329 122.743C55.4419 128.893 64.9084 123.55 59.9779 103.4C56.0374 87.2992 68.9059 73.9072 78.9739 80.2117C80.8199 77.2545 83.2333 74.6922 86.0749 72.6727Z" fill="#191919"/>
<path d="M104.027 102.38C106.713 103.975 123.411 90.5032 122.384 87.4072C114.134 62.5717 83.4527 69.0127 78.5342 86.7772C73.0157 106.711 89.4452 122.345 90.4907 122.209C92.0102 122.009 96.7907 118.943 98.5652 112.97C99.3467 113.428 100.236 113.669 101.141 113.669C102.047 113.669 102.936 113.428 103.718 112.97C104.738 112.39 104.001 111.232 102.923 111.62C100.295 112.558 97.4612 110.432 97.7462 105.898C97.7527 105.167 97.9521 104.451 98.3244 103.822C98.6967 103.193 99.2285 102.674 99.8661 102.317C100.504 101.96 101.224 101.778 101.955 101.789C102.686 101.8 103.4 102.004 104.027 102.38Z" fill="#191919"/>
<path d="M89.6478 124.523C88.6737 129.017 88.1525 133.598 88.0923 138.196C88.111 138.386 88.1967 138.564 88.3342 138.697C88.4716 138.83 88.6519 138.91 88.8429 138.923C89.0339 138.936 89.2232 138.881 89.3772 138.767C89.5312 138.653 89.6398 138.489 89.6838 138.302C90.5928 133.927 90.7338 129.208 91.5363 124.66C91.7268 123.574 89.8518 123.467 89.6478 124.523Z" fill="#191919"/>
<path d="M120.314 103.696C119.63 101.317 117.377 101.213 118.26 104.563C119.064 107.596 121.035 106.198 120.314 103.696Z" fill="#191919"/>
<path d="M193.647 103.376C194.363 102.656 199.647 102.245 200.048 102.118C200.958 101.818 200.748 100.478 199.988 100.183C198.456 99.5827 194.123 100.444 192.674 101.233C191.225 102.022 190.982 104.666 189.693 107.443C189.032 108.868 188.145 110.179 187.568 111.634C187.287 112.343 188.144 112.834 188.756 112.346C191.676 110.045 193.611 103.412 193.647 103.376Z" fill="#191919"/>
<path d="M190.097 115.808C189.897 115.798 189.7 115.86 189.542 115.981C189.383 116.102 189.273 116.276 189.23 116.471C189.187 116.667 189.215 116.871 189.309 117.047C189.402 117.224 189.556 117.361 189.741 117.436C200.075 121.222 199.44 128.111 200.879 129.748C201.189 130.102 203.222 130.858 202.719 127.948C201.705 122.077 196.092 116.281 190.097 115.808Z" fill="#191919"/>
<path d="M211.256 108.874C215.273 118.666 215.471 121.082 215.21 131.674C215.18 132.862 216.96 133.339 217.275 132.124C219.101 125.092 216.963 113.824 212.751 107.89C212.13 107.014 210.885 107.972 211.256 108.874Z" fill="#191919"/>
<path d="M204.678 111.997C204.443 114.658 202.763 114.637 201.116 115.132C199.058 115.75 200.225 116.318 201.116 116.533C201.801 116.726 202.524 116.744 203.218 116.584C203.912 116.425 204.554 116.093 205.087 115.62C205.619 115.147 206.023 114.548 206.263 113.877C206.503 113.207 206.57 112.487 206.459 111.784C206.21 110.611 204.779 110.858 204.678 111.997Z" fill="#191919"/>
<path d="M278.376 74.9752C280.656 74.8492 279.99 71.3572 277.734 71.4847C261.434 72.4087 244.854 71.4247 229.053 72.4117C227.253 72.5227 227.57 75.2482 229.203 75.4387C238.625 76.5367 269.175 75.4957 278.376 74.9752Z" fill="#191919"/>
<path d="M304.877 53.1997C285.455 52.5577 244.502 52.7497 226.454 54.6487C224.981 54.7987 224.577 57.5092 226.347 57.4987C247.007 57.3697 281.066 55.9852 305.21 56.7487C307.514 56.8237 307.134 53.2747 304.877 53.1997Z" fill="#191919"/>
<path d="M302.468 102.878C278.945 104.828 250.752 102.4 229.316 104.992C227.618 105.197 228.044 108.088 229.79 107.992C248.928 106.847 277.283 107.669 302.562 106.472C304.842 106.357 304.782 102.686 302.468 102.878Z" fill="#191919"/>
<path d="M275.384 119.549C264.387 118.892 240.05 118.964 230.834 119.417C229.112 119.503 228.863 122.407 230.655 122.516C244.382 123.359 259.365 123.316 275.18 122.992C277.046 122.954 277.437 119.671 275.384 119.549Z" fill="#191919"/>
<path d="M80.1333 101.026C80.4386 100.825 80.6973 100.561 80.8921 100.252C81.0869 99.9431 81.2132 99.5959 81.2625 99.2339C81.3118 98.8719 81.283 98.5035 81.178 98.1536C81.073 97.8037 80.8942 97.4803 80.6538 97.2053C78.7443 94.8608 74.4903 98.0737 76.0533 100.505C76.282 100.814 76.5709 101.073 76.9024 101.267C77.2339 101.462 77.6012 101.587 77.9823 101.635C78.3634 101.684 78.7504 101.655 79.1201 101.55C79.4897 101.446 79.8343 101.267 80.1333 101.026ZM79.6998 97.8997C80.3943 98.7682 79.6998 100.678 78.4833 100.244C78.1771 100.123 77.9249 99.895 77.7728 99.6027C77.6208 99.3105 77.5791 98.9732 77.6553 98.6527C77.8713 97.7407 78.9138 96.9457 79.6998 97.8997Z" fill="#191919"/>
<path d="M252.751 208.946C256.051 210.076 255.454 209.896 256.18 210.133C256.601 210.271 256.461 210.314 256.235 207.448C256.18 206.749 256.648 206.495 257.023 206.722C257.631 207.091 257.735 207.765 257.885 208.793C258.023 209.737 257.889 210.131 258.155 209.986C258.179 209.973 259.207 209.352 260.768 208.498C261.19 208.267 261.711 208.344 261.682 208.82C261.667 209.054 261.562 209.245 261.385 209.387C260.991 209.708 260.596 210.026 260.183 210.321C259.36 210.908 258.715 211.121 259.059 211.257C260.829 211.955 261.233 212.053 264.266 213.446C264.588 213.594 264.702 213.822 264.657 214.086C264.499 215.017 263.331 214.315 260.236 213.023C258.236 212.188 258.01 211.872 257.986 212.344C257.819 215.614 257.849 214.026 257.546 215.837C257.536 215.889 257.474 215.964 257.426 215.971C257.177 216.003 257.174 215.514 256.743 212.754C256.631 212.046 256.394 212.981 253.974 213.632C253.78 213.685 253.579 213.695 253.471 213.505C253.346 213.288 253.501 213.116 253.652 212.977C255.057 211.686 256.452 211.438 255.789 211.134C251.509 209.179 251.366 209.312 251.427 209.016C251.477 208.77 251.549 208.839 252.748 208.947L252.751 208.946Z" fill="#191919"/>
<path d="M211.794 23.9154C211.609 22.0766 211.555 21.727 211.563 21.1097C211.57 20.5725 212.257 20.5108 212.508 20.878C213.135 21.7921 212.925 23.586 213.196 24.3892C213.78 24.132 214.942 23.2294 217.054 22.2378C217.1 22.2166 217.182 22.2378 217.231 22.2624C217.514 22.4236 215.908 23.7542 214.076 25.3649C215.272 26.0016 215.659 26.1619 215.971 26.5309C216.181 26.7783 216.161 27.1315 215.771 27.0408C215.298 26.9316 214.113 26.6956 213.536 26.5687C213.222 26.5001 213.287 26.4613 213.408 27.7805C213.654 30.4541 213.738 30.5211 213.48 30.6153C213.323 30.6725 213.157 30.654 213.067 30.5175C212.933 30.315 212.79 30.1054 212.726 29.8808C212.128 27.7779 212.218 27.3957 212.153 27.1324C212.058 26.7546 212.079 26.928 210.13 28.2904C209.949 28.4172 209.16 28.9491 208.866 29.0037C208.473 29.0777 208.163 28.7888 208.294 28.4383C208.558 27.7268 209.373 27.2213 210.929 26.0139C211.228 25.7814 210.988 25.8422 209.416 25.1835C207.873 24.538 208.524 23.5992 209.16 23.7736C209.977 23.9982 210.78 24.2632 211.59 24.5116C211.833 24.5864 211.794 24.6076 211.794 23.9136V23.9154Z" fill="#191919"/>
<path d="M136.258 33.692C136.418 36.0554 133.274 37.7663 131.184 35.7607C129.997 34.6221 129.982 32.8119 131.002 31.6332C132.688 29.6868 136.274 30.7452 136.258 33.692ZM135.036 33.5697C134.994 33.3973 134.96 33.2249 134.91 33.0545C134.406 31.3205 131.951 31.6312 131.63 33.0916C131.489 33.7291 131.637 34.3254 132.146 34.7484C132.83 35.3167 133.512 35.3528 134.193 34.9709C134.691 34.6913 135.04 34.2422 135.037 33.5697H135.036Z" fill="#191919"/>
<path d="M211.777 252.887C212.451 250.524 215.271 250.231 216.265 251.966C216.533 252.433 216.446 252.765 216.687 253.142C216.982 253.603 216.178 255.708 214.312 255.82C212.473 255.93 211.424 254.123 211.777 252.886L211.777 252.887ZM215.498 253.231C215.54 253.002 215.623 252.803 215.462 252.56C215.022 251.897 214.247 251.708 213.593 252.171C212.463 252.972 212.903 254.308 213.749 254.512C214.365 254.66 214.996 254.385 215.263 253.829C215.355 253.635 215.422 253.431 215.499 253.23L215.498 253.231Z" fill="#191919"/>
<path d="M25.2637 224.168C25.2693 224.958 24.5879 225.666 23.7662 225.645C22.8559 225.623 22.2835 225.002 22.2641 224.169C22.2465 223.39 22.9981 222.646 23.7458 222.646C24.5925 222.646 25.2573 223.344 25.2637 224.168Z" fill="#191919"/>
<path d="M210.351 203.011C215.006 198.282 224.591 198.811 229.248 203.398C234.298 208.374 235.363 217.999 231.364 223.774C226.198 231.234 211.746 231.597 206.164 224.249C202.848 219.883 201.935 214.082 205.865 206.455C204.287 204.303 202.792 201.475 202.641 198.816C202.636 198.754 202.649 198.693 202.679 198.638C202.709 198.584 202.754 198.539 202.81 198.51C202.865 198.48 202.927 198.466 202.99 198.47C203.053 198.475 203.114 198.496 203.164 198.533C204.826 199.748 208.431 202.172 210.351 203.011ZM203.394 199.517C203.822 201.851 205.282 204.274 206.755 206.148C206.807 206.215 206.838 206.294 206.846 206.377C206.854 206.46 206.838 206.544 206.799 206.618C203.902 212.313 203.108 218.446 207.046 223.604C212.189 230.339 225.699 229.994 230.442 223.157C234.149 217.813 233.151 208.778 228.494 204.131C224.174 199.82 214.984 199.289 210.759 203.766C210.702 203.827 210.628 203.869 210.546 203.887C210.464 203.904 210.378 203.897 210.3 203.865C208.475 203.122 204.985 200.67 203.394 199.517Z" fill="#191919"/>
<path d="M225.499 211.169C225.43 210.589 225.192 210.044 224.815 209.602C224.437 209.159 223.938 208.84 223.381 208.684C221.294 208.03 219.456 209.253 218.188 211.085C217.838 210.725 217.46 210.393 217.057 210.095C215.645 209.104 213.804 209.073 212.616 210.528C212.159 211.154 211.838 211.869 211.673 212.628C211.509 213.387 211.504 214.173 211.659 214.934C212.036 216.667 213.986 218.592 215.415 219.684C216.319 220.364 217.281 220.961 218.29 221.468C218.346 221.498 218.408 221.51 218.471 221.504C218.534 221.498 218.593 221.474 218.642 221.434C220.183 220.151 222.747 217.909 223.948 216.264C224.828 215.206 225.376 213.907 225.522 212.534C225.56 212.079 225.553 211.622 225.499 211.169Z" fill="#F4A261"/>
<path d="M8.85991 63.7174C8.04641 62.8237 7.79151 58.3862 6.45333 58.3236C5.11514 58.261 4.67534 62.5102 4.03945 62.9269C3.40356 63.3436 0.510475 61.5634 0.0531527 62.6681C-0.40417 63.7728 2.23901 67.0222 2.2607 67.8534C2.28239 68.6846 0.798052 72.0891 1.94559 72.7045C3.09313 73.3199 3.96336 71.2221 4.80677 71.2287C5.99378 71.2135 6.54935 75.4123 8.01101 74.7662C9.47267 74.12 8.27836 70.4484 8.74938 69.6488C9.22041 68.8492 13.8972 67.4322 13.9378 66.238C14.0179 64.472 9.6734 64.6112 8.85991 63.7174Z" fill="#F4A261"/>
<path d="M49.0615 39.0605C49.1896 39.0076 49.3044 38.9271 49.3978 38.8247C49.4912 38.7223 49.5609 38.6005 49.6018 38.4681C49.6427 38.3357 49.6539 38.1958 49.6346 38.0586C49.6153 37.9213 49.5659 37.79 49.4899 37.6741C47.7744 34.7906 46.3498 31.7437 45.2372 28.5783C45.1399 28.3558 44.9616 28.1785 44.7384 28.0825C44.5153 27.9865 44.264 27.9789 44.0355 28.0613C43.807 28.1437 43.6183 28.3098 43.5077 28.5261C43.3972 28.7424 43.373 28.9926 43.44 29.2261C43.7986 29.6685 46.9563 39.8325 49.0615 39.0605Z" fill="#F4A261"/>
<path d="M64.3205 31.9444C64.4437 31.9153 64.5593 31.8606 64.6599 31.784C64.7606 31.7073 64.844 31.6103 64.9048 31.4994C64.9656 31.3884 65.0024 31.2659 65.0128 31.1398C65.0232 31.0137 65.007 30.8869 64.9653 30.7674C64.6564 29.5981 64.563 28.3822 64.6895 27.1794C64.561 26.1 65.3681 22.6845 63.3752 22.7021C63.2504 22.728 63.132 22.7787 63.0272 22.8513C62.9224 22.9239 62.8333 23.0168 62.7652 23.1246C62.6971 23.2324 62.6513 23.3528 62.6307 23.4786C62.6102 23.6044 62.6151 23.7331 62.6453 23.857C63.3873 25.6388 61.5589 32.3434 64.3205 31.9444Z" fill="#F4A261"/>
<path d="M18.0956 54.7144C15.759 53.9642 13.4781 53.0504 11.2698 51.98C11.0446 51.8925 10.7946 51.8935 10.5701 51.9826C10.3455 52.0718 10.163 52.2425 10.0591 52.4606C9.95521 52.6787 9.93761 52.928 10.0098 53.1586C10.0821 53.3891 10.2388 53.5838 10.4486 53.7036C12.7791 54.8222 15.183 55.7809 17.6436 56.5733C17.892 56.6324 18.1537 56.5905 18.3711 56.4566C18.5886 56.3228 18.744 56.1081 18.8031 55.8597C18.8622 55.6113 18.8202 55.3496 18.6864 55.1322C18.5526 54.9147 18.3379 54.7594 18.0895 54.7002L18.0956 54.7144Z" fill="#F4A261"/>
<path d="M32.3096 45.3074C32.4764 45.2387 32.6205 45.1243 32.7252 44.9773C32.8299 44.8303 32.8909 44.6568 32.9012 44.4766C32.9115 44.2965 32.8706 44.1171 32.7834 43.9591C32.6961 43.8012 32.566 43.6711 32.408 43.5839C30.2602 42.4999 29.1744 41.2863 27.3944 39.5143C27.2152 39.3363 26.9726 39.2367 26.7199 39.2375C26.4673 39.2383 26.2253 39.3394 26.0472 39.5187C25.8691 39.6979 25.7696 39.9405 25.7704 40.1932C25.7712 40.4458 25.8723 40.6878 26.0515 40.8659C27.923 42.7329 29.0848 44.0062 31.5005 45.2439C31.6223 45.3136 31.758 45.3554 31.8979 45.3664C32.0378 45.3774 32.1784 45.3572 32.3096 45.3074Z" fill="#F4A261"/>
<path d="M103.641 23.7459C103.066 23.1529 103.808 19.7993 102.735 19.202C101.663 18.6048 100.515 21.5617 99.8212 21.726C99.1271 21.8904 97.0189 18.4779 95.8219 19.817C95.1016 20.6231 96.871 23.9125 96.955 25.0447C97.0391 26.1769 93.8524 28.751 94.6452 30.0066C95.4939 31.3727 98.0951 29.0002 98.9584 29.385C99.8217 29.7697 100.982 35.0613 102.161 34.2848C103.469 33.4189 102.786 28.8463 103.339 28.2553C103.891 27.6644 106.578 27.97 107.146 27.1034C107.881 25.9212 104.2 24.3207 103.641 23.7459Z" fill="#F4A261"/>
<path d="M84.8697 20.1293C84.6204 20.0851 84.3637 20.1406 84.155 20.284C83.9462 20.4273 83.8022 20.6469 83.7539 20.8955C83.4814 22.786 82.9168 24.6227 82.0805 26.3399C81.9633 26.4592 81.877 26.6054 81.8292 26.7657C81.7814 26.926 81.7734 27.0956 81.8061 27.2597C81.8387 27.4237 81.911 27.5773 82.0165 27.7071C82.1221 27.8369 82.2577 27.9389 82.4117 28.0043C82.5657 28.0697 82.7333 28.0965 82.9 28.0823C83.0666 28.0682 83.2273 28.0135 83.3681 27.9231C83.5088 27.8327 83.6253 27.7093 83.7075 27.5635C83.7897 27.4178 83.835 27.2542 83.8395 27.087C84.2349 25.9165 86.8574 20.6267 84.8697 20.1293Z" fill="#F4A261"/>
<path d="M123.892 278.42C122.248 279.501 125.923 283.052 126.586 284.257C127.358 285.646 128.455 286.897 129.381 288.387C129.466 288.526 129.585 288.641 129.727 288.721C129.869 288.8 130.029 288.842 130.192 288.842C132.917 288.194 128.872 284.21 128.146 283.153C127.297 281.941 125.328 277.471 123.892 278.42Z" fill="#F4A261"/>
<path d="M93.4135 277.88C91.5067 276.691 88.9127 284.921 87.4305 286.287C87.2878 286.496 87.2336 286.753 87.2799 287.002C87.3262 287.251 87.4692 287.471 87.6775 287.615C89.484 288.441 90.8119 284.473 91.3909 283.238C91.9081 282.142 94.8649 278.776 93.4135 277.88Z" fill="#F4A261"/>
<path d="M139.927 273.897C138.529 273.279 136.599 269.681 135.117 270.893C133.843 271.936 138.367 275.525 139.417 275.657C140.321 275.788 140.768 274.275 139.927 273.897Z" fill="#F4A261"/>
<path d="M37.8588 18.6912C34.9613 19.5934 20.7442 12.1277 24.2666 6.24039C26.0628 3.2377 30.4662 3.97985 32.6139 5.34741C33.0691 2.83697 35.5253 -0.73371 38.8805 0.132451C45.2439 1.78072 41.976 16.9705 37.8588 18.6912ZM34.0825 6.82118C33.2463 9.06189 30.1716 4.91105 27.6034 5.8768C25.7132 6.58802 24.3834 7.44543 26.2543 10.4061C28.9308 14.0915 36.1674 17.3692 37.4245 17.0286C38.5239 16.728 40.8007 11.4068 40.7143 6.40885C40.5584 -1.47778 34.1364 2.05492 34.0825 6.82118Z" fill="#F4A261"/>
</svg>
